<svg version="1.1" xmlns="http://www.w3.org/2000/svg" viewBox="0 0 72.1171875 73.55859375" width="72.1171875" height="73.55859375"><!-- svg-source:excalidraw --><metadata></metadata><defs><style class="style-fonts">
      </style></defs><rect x="0" y="0" width="72.1171875" height="73.55859375" fill="#ffffff"></rect><g transform="translate(18.05859375 18.55859375) rotate(0 18 22.5)"><text x="18" y="31.5" font-family="Comic Shanns, Segoe UI Emoji" font-size="36px" fill="#1e1e1e" text-anchor="middle" style="white-space: pre;" direction="ltr" dominant-baseline="alphabetic">🍋</text></g><g stroke-linecap="round" transform="translate(10 10) rotate(0 26.05859375 26.05859375)"><path d="M0 0 C12.84 0, 25.67 0, 52.12 0 M0 0 C12.28 0, 24.56 0, 52.12 0 M52.12 0 C52.12 16.96, 52.12 33.91, 52.12 52.12 M52.12 0 C52.12 18.7, 52.12 37.41, 52.12 52.12 M52.12 52.12 C39.4 52.12, 26.68 52.12, 0 52.12 M52.12 52.12 C33.19 52.12, 14.27 52.12, 0 52.12 M0 52.12 C0 34.6, 0 17.09, 0 0 M0 52.12 C0 36.93, 0 21.74, 0 0" stroke="transparent" stroke-width="2" fill="none"></path></g></svg>
