<?xml version="1.0" encoding="utf-8" standalone="no"?>
<!DOCTYPE svg PUBLIC "-//W3C//DTD SVG 1.1//EN"
  "http://www.w3.org/Graphics/SVG/1.1/DTD/svg11.dtd">
<svg xmlns:xlink="http://www.w3.org/1999/xlink" width="564.03375pt" height="310.983375pt" viewBox="0 0 564.03375 310.983375" xmlns="http://www.w3.org/2000/svg" version="1.1">
 <metadata>
  <rdf:RDF xmlns:dc="http://purl.org/dc/elements/1.1/" xmlns:cc="http://creativecommons.org/ns#" xmlns:rdf="http://www.w3.org/1999/02/22-rdf-syntax-ns#">
   <cc:Work>
    <dc:type rdf:resource="http://purl.org/dc/dcmitype/StillImage"/>
    <dc:date>2026-05-03T10:59:38.424361</dc:date>
    <dc:format>image/svg+xml</dc:format>
    <dc:creator>
     <cc:Agent>
      <dc:title>Matplotlib v3.10.8, https://matplotlib.org/</dc:title>
     </cc:Agent>
    </dc:creator>
   </cc:Work>
  </rdf:RDF>
 </metadata>
 <defs>
  <style type="text/css">*{stroke-linejoin: round; stroke-linecap: butt}</style>
 </defs>
 <g id="figure_1">
  <g id="patch_1">
   <path d="M 0 310.983375 
L 564.03375 310.983375 
L 564.03375 0 
L 0 0 
L 0 310.983375 
z
" style="fill: none"/>
  </g>
  <g id="axes_1">
   <g id="patch_2">
    <path d="M 45.37125 272.1165 
L 556.83375 272.1165 
L 556.83375 23.784 
L 45.37125 23.784 
L 45.37125 272.1165 
z
" style="fill: none"/>
   </g>
   <g id="patch_3">
    <path d="M 68.619545 272.1165 
L 253.829029 272.1165 
L 253.829029 23.784 
L 68.619545 23.784 
z
" clip-path="url(#p7854e435ac)" style="fill: #22c55e; opacity: 0.06; stroke: #22c55e; stroke-linejoin: miter"/>
   </g>
   <g id="patch_4">
    <path d="M 253.829029 272.1165 
L 533.585455 272.1165 
L 533.585455 23.784 
L 253.829029 23.784 
z
" clip-path="url(#p7854e435ac)" style="fill: #f59e0b; opacity: 0.06; stroke: #f59e0b; stroke-linejoin: miter"/>
   </g>
   <g id="line2d_1">
    <path d="M 253.829029 272.1165 
L 253.829029 23.784 
" clip-path="url(#p7854e435ac)" style="fill: none; stroke-dasharray: 2.96,1.28; stroke-dashoffset: 0; stroke: #888888; stroke-opacity: 0.35; stroke-width: 0.8"/>
   </g>
   <g id="matplotlib.axis_1">
    <g id="xtick_1">
     <g id="line2d_2">
      <path d="M 68.619545 272.1165 
L 68.619545 23.784 
" clip-path="url(#p7854e435ac)" style="fill: none; stroke-dasharray: 1.48,0.64; stroke-dashoffset: 0; stroke: #838383; stroke-opacity: 0.25; stroke-width: 0.4"/>
     </g>
     <g id="line2d_3"/>
     <g id="text_1">
      <!-- 8 -->
      <g style="fill: #838383" transform="translate(65.619545 284.4365) scale(0.12 -0.12)">
       <defs>
        <path id="IosevkaTermNF-38" d="M 1600 -51 
Q 1446 -51 1289 -28 
Q 1133 -6 989 58 
Q 845 122 723 224 
Q 602 326 518 460 
Q 435 595 396 745 
Q 358 896 358 1056 
Q 358 1261 428 1462 
Q 499 1664 617 1833 
Q 736 2003 889 2144 
Q 1043 2285 1210 2413 
Q 1056 2534 918 2668 
Q 781 2803 678 2966 
Q 576 3130 515 3315 
Q 454 3501 454 3693 
Q 454 3840 489 3984 
Q 525 4128 598 4256 
Q 672 4384 784 4483 
Q 896 4582 1027 4646 
Q 1158 4710 1305 4732 
Q 1453 4755 1600 4755 
Q 1747 4755 1894 4732 
Q 2042 4710 2173 4646 
Q 2304 4582 2416 4483 
Q 2528 4384 2601 4256 
Q 2675 4128 2710 3984 
Q 2746 3840 2746 3693 
Q 2746 3501 2685 3315 
Q 2624 3130 2521 2966 
Q 2419 2803 2281 2668 
Q 2144 2534 1990 2413 
Q 2157 2285 2310 2144 
Q 2464 2003 2582 1833 
Q 2701 1664 2771 1462 
Q 2842 1261 2842 1056 
Q 2842 896 2803 745 
Q 2765 595 2681 460 
Q 2598 326 2476 224 
Q 2355 122 2211 58 
Q 2067 -6 1910 -28 
Q 1754 -51 1600 -51 
z
M 1600 2694 
Q 1722 2790 1837 2892 
Q 1952 2995 2041 3116 
Q 2131 3238 2188 3385 
Q 2246 3533 2246 3686 
Q 2246 3808 2201 3933 
Q 2157 4058 2067 4144 
Q 1978 4230 1853 4268 
Q 1728 4307 1600 4307 
Q 1472 4307 1347 4268 
Q 1222 4230 1132 4144 
Q 1043 4058 998 3933 
Q 954 3808 954 3686 
Q 954 3533 1011 3385 
Q 1069 3238 1158 3116 
Q 1248 2995 1363 2892 
Q 1478 2790 1600 2694 
z
M 1600 397 
Q 1741 397 1881 432 
Q 2022 467 2128 560 
Q 2234 653 2288 787 
Q 2342 922 2342 1062 
Q 2342 1235 2275 1392 
Q 2208 1549 2102 1680 
Q 1997 1811 1865 1920 
Q 1734 2029 1600 2125 
Q 1466 2029 1334 1920 
Q 1203 1811 1097 1680 
Q 992 1549 925 1392 
Q 858 1235 858 1062 
Q 858 922 912 787 
Q 966 653 1072 560 
Q 1178 467 1318 432 
Q 1459 397 1600 397 
z
" transform="scale(0.015625)"/>
       </defs>
       <use xlink:href="#IosevkaTermNF-38"/>
      </g>
     </g>
    </g>
    <g id="xtick_2">
     <g id="line2d_4">
      <path d="M 120.282424 272.1165 
L 120.282424 23.784 
" clip-path="url(#p7854e435ac)" style="fill: none; stroke-dasharray: 1.48,0.64; stroke-dashoffset: 0; stroke: #838383; stroke-opacity: 0.25; stroke-width: 0.4"/>
     </g>
     <g id="line2d_5"/>
     <g id="text_2">
      <!-- 16 -->
      <g style="fill: #838383" transform="translate(114.282424 284.4365) scale(0.12 -0.12)">
       <defs>
        <path id="IosevkaTermNF-31" d="M 1542 0 
L 1542 4134 
L 659 3494 
L 371 3859 
L 1542 4704 
L 2042 4704 
L 2042 0 
L 1542 0 
z
" transform="scale(0.015625)"/>
        <path id="IosevkaTermNF-36" d="M 1600 -51 
Q 1408 -51 1222 0 
Q 1037 51 886 166 
Q 736 282 630 445 
Q 525 608 464 787 
Q 403 966 380 1158 
Q 358 1350 358 1542 
Q 358 1818 416 2086 
Q 474 2355 573 2614 
Q 672 2874 793 3120 
Q 915 3366 1043 3610 
L 1587 4704 
L 2138 4704 
L 1485 3411 
Q 1408 3258 1325 3104 
Q 1242 2950 1152 2797 
L 1146 2784 
L 1139 2771 
Q 1254 2822 1372 2841 
Q 1491 2861 1613 2861 
Q 1792 2861 1971 2819 
Q 2150 2778 2297 2675 
Q 2445 2573 2557 2425 
Q 2669 2278 2733 2112 
Q 2797 1946 2819 1766 
Q 2842 1587 2842 1408 
Q 2842 1222 2816 1043 
Q 2790 864 2726 694 
Q 2662 525 2550 377 
Q 2438 230 2288 131 
Q 2138 32 1958 -9 
Q 1779 -51 1600 -51 
z
M 1600 397 
Q 1715 397 1830 432 
Q 1946 467 2038 544 
Q 2131 621 2192 723 
Q 2253 826 2285 938 
Q 2317 1050 2329 1168 
Q 2342 1286 2342 1408 
Q 2342 1523 2329 1641 
Q 2317 1760 2285 1872 
Q 2253 1984 2192 2086 
Q 2131 2189 2041 2265 
Q 1952 2342 1837 2377 
Q 1722 2413 1600 2413 
Q 1485 2413 1369 2377 
Q 1254 2342 1164 2268 
Q 1075 2195 1014 2089 
Q 954 1984 918 1872 
Q 883 1760 870 1641 
Q 858 1523 858 1408 
Q 858 1286 870 1168 
Q 883 1050 915 938 
Q 947 826 1008 723 
Q 1069 621 1161 544 
Q 1254 467 1369 432 
Q 1485 397 1600 397 
z
" transform="scale(0.015625)"/>
       </defs>
       <use xlink:href="#IosevkaTermNF-31"/>
       <use xlink:href="#IosevkaTermNF-36" transform="translate(49.999985 0)"/>
      </g>
     </g>
    </g>
    <g id="xtick_3">
     <g id="line2d_6">
      <path d="M 171.945303 272.1165 
L 171.945303 23.784 
" clip-path="url(#p7854e435ac)" style="fill: none; stroke-dasharray: 1.48,0.64; stroke-dashoffset: 0; stroke: #838383; stroke-opacity: 0.25; stroke-width: 0.4"/>
     </g>
     <g id="line2d_7"/>
     <g id="text_3">
      <!-- 32 -->
      <g style="fill: #838383" transform="translate(165.945303 284.4365) scale(0.12 -0.12)">
       <defs>
        <path id="IosevkaTermNF-33" d="M 1619 -51 
Q 1453 -51 1289 -25 
Q 1126 0 979 70 
Q 832 141 710 253 
Q 589 365 505 505 
Q 422 646 384 809 
Q 346 973 346 1133 
L 346 1139 
L 845 1139 
Q 845 986 899 838 
Q 954 691 1062 588 
Q 1171 486 1318 441 
Q 1466 397 1619 397 
Q 1779 397 1936 454 
Q 2093 512 2198 637 
Q 2304 762 2349 922 
Q 2394 1082 2394 1248 
Q 2394 1382 2365 1513 
Q 2336 1645 2272 1763 
Q 2208 1882 2109 1974 
Q 2010 2067 1888 2121 
Q 1766 2176 1632 2192 
Q 1498 2208 1363 2208 
L 1363 2656 
Q 1485 2656 1606 2669 
Q 1728 2682 1840 2730 
Q 1952 2778 2041 2864 
Q 2131 2950 2185 3059 
Q 2240 3168 2265 3289 
Q 2291 3411 2291 3533 
Q 2291 3680 2256 3821 
Q 2221 3962 2131 4077 
Q 2042 4192 1904 4249 
Q 1766 4307 1619 4307 
Q 1478 4307 1347 4259 
Q 1216 4211 1123 4108 
Q 1030 4006 988 3872 
Q 947 3738 947 3597 
L 947 3584 
L 448 3584 
L 448 3603 
Q 448 3763 483 3913 
Q 518 4064 588 4201 
Q 659 4339 771 4451 
Q 883 4563 1020 4630 
Q 1158 4698 1312 4726 
Q 1466 4755 1619 4755 
Q 1779 4755 1936 4726 
Q 2093 4698 2230 4621 
Q 2368 4544 2477 4425 
Q 2586 4307 2656 4163 
Q 2726 4019 2758 3862 
Q 2790 3706 2790 3546 
Q 2790 3379 2748 3209 
Q 2707 3040 2624 2889 
Q 2541 2739 2409 2624 
Q 2278 2509 2125 2438 
Q 2298 2368 2448 2243 
Q 2598 2118 2697 1955 
Q 2797 1792 2845 1606 
Q 2893 1421 2893 1229 
Q 2893 1062 2857 892 
Q 2822 723 2745 572 
Q 2669 422 2547 297 
Q 2426 173 2275 93 
Q 2125 13 1955 -19 
Q 1786 -51 1619 -51 
z
" transform="scale(0.015625)"/>
        <path id="IosevkaTermNF-32" d="M 410 0 
L 410 6 
Q 410 179 416 352 
Q 422 525 451 697 
Q 480 870 534 1036 
Q 589 1203 669 1353 
Q 749 1504 854 1645 
Q 960 1786 1085 1907 
Q 1210 2029 1344 2134 
Q 1478 2240 1619 2342 
Q 1760 2445 1894 2557 
Q 2029 2669 2125 2813 
Q 2221 2957 2269 3126 
Q 2317 3296 2317 3469 
Q 2317 3622 2281 3779 
Q 2246 3936 2153 4061 
Q 2061 4186 1910 4246 
Q 1760 4307 1606 4307 
Q 1466 4307 1325 4262 
Q 1184 4218 1085 4115 
Q 986 4013 941 3875 
Q 896 3738 896 3590 
L 896 3584 
L 397 3584 
L 397 3603 
Q 397 3757 432 3913 
Q 467 4070 544 4208 
Q 621 4346 736 4454 
Q 851 4563 992 4633 
Q 1133 4704 1289 4729 
Q 1446 4755 1606 4755 
Q 1773 4755 1939 4723 
Q 2106 4691 2253 4608 
Q 2400 4525 2512 4400 
Q 2624 4275 2694 4121 
Q 2765 3968 2790 3801 
Q 2816 3635 2816 3469 
Q 2816 3283 2774 3100 
Q 2733 2918 2646 2755 
Q 2560 2592 2435 2451 
Q 2310 2310 2169 2192 
Q 2029 2074 1881 1962 
Q 1734 1850 1596 1725 
Q 1459 1600 1340 1459 
Q 1222 1318 1132 1155 
Q 1043 992 992 813 
Q 941 634 922 448 
L 2790 448 
L 2790 0 
L 410 0 
z
" transform="scale(0.015625)"/>
       </defs>
       <use xlink:href="#IosevkaTermNF-33"/>
       <use xlink:href="#IosevkaTermNF-32" transform="translate(49.999985 0)"/>
      </g>
     </g>
    </g>
    <g id="xtick_4">
     <g id="line2d_8">
      <path d="M 223.608182 272.1165 
L 223.608182 23.784 
" clip-path="url(#p7854e435ac)" style="fill: none; stroke-dasharray: 1.48,0.64; stroke-dashoffset: 0; stroke: #838383; stroke-opacity: 0.25; stroke-width: 0.4"/>
     </g>
     <g id="line2d_9"/>
     <g id="text_4">
      <!-- 64 -->
      <g style="fill: #838383" transform="translate(217.608182 284.4365) scale(0.12 -0.12)">
       <defs>
        <path id="IosevkaTermNF-34" d="M 1882 0 
L 1882 1242 
L 358 1242 
L 358 1690 
L 1856 4704 
L 2400 4704 
L 902 1690 
L 1882 1690 
L 1882 2842 
L 2381 2842 
L 2381 1690 
L 2790 1690 
L 2790 1242 
L 2381 1242 
L 2381 0 
L 1882 0 
z
" transform="scale(0.015625)"/>
       </defs>
       <use xlink:href="#IosevkaTermNF-36"/>
       <use xlink:href="#IosevkaTermNF-34" transform="translate(49.999985 0)"/>
      </g>
     </g>
    </g>
    <g id="xtick_5">
     <g id="line2d_10">
      <path d="M 275.271061 272.1165 
L 275.271061 23.784 
" clip-path="url(#p7854e435ac)" style="fill: none; stroke-dasharray: 1.48,0.64; stroke-dashoffset: 0; stroke: #838383; stroke-opacity: 0.25; stroke-width: 0.4"/>
     </g>
     <g id="line2d_11"/>
     <g id="text_5">
      <!-- 128 -->
      <g style="fill: #838383" transform="translate(266.271061 284.4365) scale(0.12 -0.12)">
       <use xlink:href="#IosevkaTermNF-31"/>
       <use xlink:href="#IosevkaTermNF-32" transform="translate(49.999985 0)"/>
       <use xlink:href="#IosevkaTermNF-38" transform="translate(99.999969 0)"/>
      </g>
     </g>
    </g>
    <g id="xtick_6">
     <g id="line2d_12">
      <path d="M 326.933939 272.1165 
L 326.933939 23.784 
" clip-path="url(#p7854e435ac)" style="fill: none; stroke-dasharray: 1.48,0.64; stroke-dashoffset: 0; stroke: #838383; stroke-opacity: 0.25; stroke-width: 0.4"/>
     </g>
     <g id="line2d_13"/>
     <g id="text_6">
      <!-- 256 -->
      <g style="fill: #838383" transform="translate(317.933939 284.4365) scale(0.12 -0.12)">
       <defs>
        <path id="IosevkaTermNF-35" d="M 1613 -51 
Q 1459 -51 1305 -22 
Q 1152 6 1017 76 
Q 883 147 771 256 
Q 659 365 582 499 
Q 506 634 464 781 
Q 422 928 403 1082 
L 403 1114 
L 902 1114 
L 909 1043 
Q 934 915 985 793 
Q 1037 672 1129 579 
Q 1222 486 1350 441 
Q 1478 397 1613 397 
Q 1734 397 1852 441 
Q 1971 486 2060 576 
Q 2150 666 2204 778 
Q 2259 890 2291 1011 
Q 2323 1133 2332 1257 
Q 2342 1382 2342 1504 
Q 2342 1632 2332 1753 
Q 2323 1875 2291 1996 
Q 2259 2118 2208 2230 
Q 2157 2342 2070 2432 
Q 1984 2522 1869 2566 
Q 1754 2611 1626 2611 
Q 1498 2611 1370 2569 
Q 1242 2528 1149 2435 
Q 1056 2342 1008 2214 
Q 960 2086 954 1952 
L 454 1952 
L 454 4704 
L 2669 4704 
L 2669 4256 
L 954 4256 
L 954 2886 
Q 1101 2982 1277 3020 
Q 1453 3059 1626 3059 
Q 1811 3059 1993 3011 
Q 2176 2963 2326 2848 
Q 2477 2733 2579 2576 
Q 2682 2419 2739 2243 
Q 2797 2067 2819 1878 
Q 2842 1690 2842 1504 
Q 2842 1318 2819 1129 
Q 2797 941 2736 765 
Q 2675 589 2569 429 
Q 2464 269 2313 157 
Q 2163 45 1980 -3 
Q 1798 -51 1613 -51 
z
" transform="scale(0.015625)"/>
       </defs>
       <use xlink:href="#IosevkaTermNF-32"/>
       <use xlink:href="#IosevkaTermNF-35" transform="translate(49.999985 0)"/>
       <use xlink:href="#IosevkaTermNF-36" transform="translate(99.999969 0)"/>
      </g>
     </g>
    </g>
    <g id="xtick_7">
     <g id="line2d_14">
      <path d="M 378.596818 272.1165 
L 378.596818 23.784 
" clip-path="url(#p7854e435ac)" style="fill: none; stroke-dasharray: 1.48,0.64; stroke-dashoffset: 0; stroke: #838383; stroke-opacity: 0.25; stroke-width: 0.4"/>
     </g>
     <g id="line2d_15"/>
     <g id="text_7">
      <!-- 512 -->
      <g style="fill: #838383" transform="translate(369.596818 284.4365) scale(0.12 -0.12)">
       <use xlink:href="#IosevkaTermNF-35"/>
       <use xlink:href="#IosevkaTermNF-31" transform="translate(49.999985 0)"/>
       <use xlink:href="#IosevkaTermNF-32" transform="translate(99.999969 0)"/>
      </g>
     </g>
    </g>
    <g id="xtick_8">
     <g id="line2d_16">
      <path d="M 430.259697 272.1165 
L 430.259697 23.784 
" clip-path="url(#p7854e435ac)" style="fill: none; stroke-dasharray: 1.48,0.64; stroke-dashoffset: 0; stroke: #838383; stroke-opacity: 0.25; stroke-width: 0.4"/>
     </g>
     <g id="line2d_17"/>
     <g id="text_8">
      <!-- 1024 -->
      <g style="fill: #838383" transform="translate(418.259697 284.4365) scale(0.12 -0.12)">
       <defs>
        <path id="IosevkaTermNF-30" d="M 1600 -51 
Q 1427 -51 1254 -16 
Q 1082 19 934 102 
Q 787 186 668 317 
Q 550 448 480 605 
Q 410 762 384 934 
Q 358 1107 358 1280 
L 358 3424 
Q 358 3597 384 3769 
Q 410 3942 480 4099 
Q 550 4256 668 4387 
Q 787 4518 934 4601 
Q 1082 4685 1254 4720 
Q 1427 4755 1600 4755 
Q 1773 4755 1945 4720 
Q 2118 4685 2265 4601 
Q 2413 4518 2531 4387 
Q 2650 4256 2720 4099 
Q 2790 3942 2816 3769 
Q 2842 3597 2842 3424 
L 2842 1280 
Q 2842 1107 2816 934 
Q 2790 762 2720 605 
Q 2650 448 2531 317 
Q 2413 186 2265 102 
Q 2118 19 1945 -16 
Q 1773 -51 1600 -51 
z
M 858 2035 
L 2342 3219 
L 2342 3424 
Q 2342 3533 2329 3641 
Q 2317 3750 2278 3852 
Q 2240 3955 2173 4044 
Q 2106 4134 2016 4195 
Q 1926 4256 1817 4281 
Q 1709 4307 1600 4307 
Q 1491 4307 1382 4281 
Q 1274 4256 1184 4195 
Q 1094 4134 1027 4044 
Q 960 3955 921 3852 
Q 883 3750 870 3641 
Q 858 3533 858 3424 
L 858 2035 
z
M 1600 397 
Q 1709 397 1817 422 
Q 1926 448 2016 509 
Q 2106 570 2173 659 
Q 2240 749 2278 851 
Q 2317 954 2329 1062 
Q 2342 1171 2342 1280 
L 2342 2669 
L 858 1485 
L 858 1280 
Q 858 1171 870 1062 
Q 883 954 921 851 
Q 960 749 1027 659 
Q 1094 570 1184 509 
Q 1274 448 1382 422 
Q 1491 397 1600 397 
z
" transform="scale(0.015625)"/>
       </defs>
       <use xlink:href="#IosevkaTermNF-31"/>
       <use xlink:href="#IosevkaTermNF-30" transform="translate(49.999985 0)"/>
       <use xlink:href="#IosevkaTermNF-32" transform="translate(99.999969 0)"/>
       <use xlink:href="#IosevkaTermNF-34" transform="translate(149.999954 0)"/>
      </g>
     </g>
    </g>
    <g id="xtick_9">
     <g id="line2d_18">
      <path d="M 481.922576 272.1165 
L 481.922576 23.784 
" clip-path="url(#p7854e435ac)" style="fill: none; stroke-dasharray: 1.48,0.64; stroke-dashoffset: 0; stroke: #838383; stroke-opacity: 0.25; stroke-width: 0.4"/>
     </g>
     <g id="line2d_19"/>
     <g id="text_9">
      <!-- 2048 -->
      <g style="fill: #838383" transform="translate(469.922576 284.4365) scale(0.12 -0.12)">
       <use xlink:href="#IosevkaTermNF-32"/>
       <use xlink:href="#IosevkaTermNF-30" transform="translate(49.999985 0)"/>
       <use xlink:href="#IosevkaTermNF-34" transform="translate(99.999969 0)"/>
       <use xlink:href="#IosevkaTermNF-38" transform="translate(149.999954 0)"/>
      </g>
     </g>
    </g>
    <g id="xtick_10">
     <g id="line2d_20">
      <path d="M 533.585455 272.1165 
L 533.585455 23.784 
" clip-path="url(#p7854e435ac)" style="fill: none; stroke-dasharray: 1.48,0.64; stroke-dashoffset: 0; stroke: #838383; stroke-opacity: 0.25; stroke-width: 0.4"/>
     </g>
     <g id="line2d_21"/>
     <g id="text_10">
      <!-- 4096 -->
      <g style="fill: #838383" transform="translate(521.585455 284.4365) scale(0.12 -0.12)">
       <defs>
        <path id="IosevkaTermNF-39" d="M 1062 0 
L 1715 1293 
Q 1792 1446 1875 1600 
Q 1958 1754 2048 1907 
L 2054 1920 
L 2061 1933 
Q 1946 1882 1827 1862 
Q 1709 1843 1587 1843 
Q 1408 1843 1229 1884 
Q 1050 1926 902 2028 
Q 755 2131 643 2278 
Q 531 2426 467 2592 
Q 403 2758 380 2937 
Q 358 3117 358 3296 
Q 358 3482 384 3661 
Q 410 3840 474 4009 
Q 538 4179 650 4326 
Q 762 4474 912 4573 
Q 1062 4672 1241 4713 
Q 1421 4755 1600 4755 
Q 1792 4755 1977 4704 
Q 2163 4653 2313 4537 
Q 2464 4422 2569 4259 
Q 2675 4096 2736 3917 
Q 2797 3738 2819 3546 
Q 2842 3354 2842 3162 
Q 2842 2886 2784 2617 
Q 2726 2349 2627 2089 
Q 2528 1830 2406 1584 
Q 2285 1338 2157 1094 
L 1613 0 
L 1062 0 
z
M 1600 2291 
Q 1715 2291 1830 2326 
Q 1946 2362 2035 2435 
Q 2125 2509 2185 2614 
Q 2246 2720 2281 2832 
Q 2317 2944 2329 3062 
Q 2342 3181 2342 3296 
Q 2342 3418 2329 3536 
Q 2317 3654 2285 3766 
Q 2253 3878 2192 3980 
Q 2131 4083 2038 4160 
Q 1946 4237 1830 4272 
Q 1715 4307 1600 4307 
Q 1485 4307 1369 4272 
Q 1254 4237 1161 4160 
Q 1069 4083 1008 3980 
Q 947 3878 915 3766 
Q 883 3654 870 3536 
Q 858 3418 858 3296 
Q 858 3181 870 3062 
Q 883 2944 915 2832 
Q 947 2720 1008 2617 
Q 1069 2515 1158 2438 
Q 1248 2362 1363 2326 
Q 1478 2291 1600 2291 
z
" transform="scale(0.015625)"/>
       </defs>
       <use xlink:href="#IosevkaTermNF-34"/>
       <use xlink:href="#IosevkaTermNF-30" transform="translate(49.999985 0)"/>
       <use xlink:href="#IosevkaTermNF-39" transform="translate(99.999969 0)"/>
       <use xlink:href="#IosevkaTermNF-36" transform="translate(149.999954 0)"/>
      </g>
     </g>
    </g>
    <g id="text_11">
     <!-- nodes (log₂) -->
     <g style="fill: #838383" transform="translate(265.1025 301.10775) scale(0.12 -0.12)">
      <defs>
       <path id="IosevkaTermNF-6e" d="M 410 0 
L 410 3328 
L 909 3328 
L 909 2746 
Q 960 2880 1043 3001 
Q 1126 3123 1244 3212 
Q 1363 3302 1507 3340 
Q 1651 3379 1792 3379 
Q 1952 3379 2105 3334 
Q 2259 3290 2377 3190 
Q 2496 3091 2579 2953 
Q 2662 2816 2710 2665 
Q 2758 2515 2774 2358 
Q 2790 2202 2790 2048 
L 2790 0 
L 2291 0 
L 2291 2048 
Q 2291 2157 2278 2262 
Q 2266 2368 2234 2467 
Q 2202 2566 2141 2656 
Q 2080 2746 1997 2810 
Q 1914 2874 1811 2902 
Q 1709 2931 1600 2931 
Q 1491 2931 1388 2902 
Q 1286 2874 1203 2810 
Q 1120 2746 1059 2656 
Q 998 2566 966 2467 
Q 934 2368 921 2262 
Q 909 2157 909 2048 
L 909 0 
L 410 0 
z
" transform="scale(0.015625)"/>
       <path id="IosevkaTermNF-6f" d="M 1600 -51 
Q 1427 -51 1254 -16 
Q 1082 19 934 102 
Q 787 186 668 317 
Q 550 448 480 605 
Q 410 762 384 934 
Q 358 1107 358 1280 
L 358 2048 
Q 358 2221 384 2393 
Q 410 2566 480 2723 
Q 550 2880 668 3011 
Q 787 3142 934 3225 
Q 1082 3309 1254 3344 
Q 1427 3379 1600 3379 
Q 1773 3379 1945 3344 
Q 2118 3309 2265 3225 
Q 2413 3142 2531 3011 
Q 2650 2880 2720 2723 
Q 2790 2566 2816 2393 
Q 2842 2221 2842 2048 
L 2842 1280 
Q 2842 1107 2816 934 
Q 2790 762 2720 605 
Q 2650 448 2531 317 
Q 2413 186 2265 102 
Q 2118 19 1945 -16 
Q 1773 -51 1600 -51 
z
M 1600 397 
Q 1709 397 1817 422 
Q 1926 448 2016 509 
Q 2106 570 2173 659 
Q 2240 749 2278 851 
Q 2317 954 2329 1062 
Q 2342 1171 2342 1280 
L 2342 2048 
Q 2342 2157 2329 2265 
Q 2317 2374 2278 2476 
Q 2240 2579 2173 2668 
Q 2106 2758 2016 2819 
Q 1926 2880 1817 2905 
Q 1709 2931 1600 2931 
Q 1491 2931 1382 2905 
Q 1274 2880 1184 2819 
Q 1094 2758 1027 2668 
Q 960 2579 921 2476 
Q 883 2374 870 2265 
Q 858 2157 858 2048 
L 858 1280 
Q 858 1171 870 1062 
Q 883 954 921 851 
Q 960 749 1027 659 
Q 1094 570 1184 509 
Q 1274 448 1382 422 
Q 1491 397 1600 397 
z
" transform="scale(0.015625)"/>
       <path id="IosevkaTermNF-64" d="M 1402 -51 
Q 1242 -51 1085 -6 
Q 928 38 800 134 
Q 672 230 585 364 
Q 499 499 448 649 
Q 397 800 377 960 
Q 358 1120 358 1280 
L 358 2048 
Q 358 2208 377 2368 
Q 397 2528 448 2678 
Q 499 2829 585 2963 
Q 672 3098 800 3194 
Q 928 3290 1085 3334 
Q 1242 3379 1402 3379 
Q 1549 3379 1693 3340 
Q 1837 3302 1955 3216 
Q 2074 3130 2157 3005 
Q 2240 2880 2291 2746 
L 2291 4704 
L 2790 4704 
L 2790 0 
L 2291 0 
L 2291 582 
Q 2240 448 2157 323 
Q 2074 198 1955 112 
Q 1837 26 1693 -12 
Q 1549 -51 1402 -51 
z
M 1594 397 
Q 1702 397 1808 425 
Q 1914 454 1997 518 
Q 2080 582 2141 672 
Q 2202 762 2234 861 
Q 2266 960 2278 1065 
Q 2291 1171 2291 1280 
L 2291 2048 
Q 2291 2157 2278 2262 
Q 2266 2368 2234 2467 
Q 2202 2566 2141 2659 
Q 2080 2752 1997 2816 
Q 1914 2880 1808 2905 
Q 1702 2931 1594 2931 
Q 1485 2931 1379 2905 
Q 1274 2880 1184 2819 
Q 1094 2758 1027 2668 
Q 960 2579 921 2476 
Q 883 2374 870 2265 
Q 858 2157 858 2048 
L 858 1280 
Q 858 1171 870 1062 
Q 883 954 921 851 
Q 960 749 1027 659 
Q 1094 570 1184 509 
Q 1274 448 1379 422 
Q 1485 397 1594 397 
L 1594 397 
z
" transform="scale(0.015625)"/>
       <path id="IosevkaTermNF-65" d="M 1613 -51 
Q 1440 -51 1267 -19 
Q 1094 13 944 99 
Q 794 186 675 317 
Q 557 448 483 605 
Q 410 762 384 934 
Q 358 1107 358 1280 
L 358 2048 
Q 358 2221 384 2393 
Q 410 2566 480 2723 
Q 550 2880 668 3011 
Q 787 3142 934 3225 
Q 1082 3309 1254 3344 
Q 1427 3379 1600 3379 
Q 1773 3379 1945 3344 
Q 2118 3309 2265 3225 
Q 2413 3142 2531 3011 
Q 2650 2880 2720 2723 
Q 2790 2566 2816 2393 
Q 2842 2221 2842 2048 
L 2842 1440 
L 858 1440 
L 858 1280 
Q 858 1171 870 1062 
Q 883 954 924 851 
Q 966 749 1033 659 
Q 1101 570 1193 509 
Q 1286 448 1395 422 
Q 1504 397 1613 397 
Q 1734 397 1859 422 
Q 1984 448 2086 512 
Q 2189 576 2256 685 
Q 2323 794 2330 922 
L 2829 922 
Q 2822 774 2774 636 
Q 2726 499 2640 380 
Q 2554 262 2435 176 
Q 2317 90 2182 38 
Q 2048 -13 1901 -32 
Q 1754 -51 1613 -51 
z
M 2342 1888 
L 2342 2048 
Q 2342 2157 2329 2265 
Q 2317 2374 2278 2476 
Q 2240 2579 2173 2668 
Q 2106 2758 2016 2819 
Q 1926 2880 1817 2905 
Q 1709 2931 1600 2931 
Q 1491 2931 1382 2905 
Q 1274 2880 1184 2819 
Q 1094 2758 1027 2668 
Q 960 2579 921 2476 
Q 883 2374 870 2265 
Q 858 2157 858 2048 
L 858 1888 
L 2342 1888 
z
" transform="scale(0.015625)"/>
       <path id="IosevkaTermNF-73" d="M 1594 -51 
Q 1453 -51 1312 -35 
Q 1171 -19 1036 29 
Q 902 77 780 153 
Q 659 230 572 342 
Q 486 454 441 592 
Q 397 730 397 870 
L 397 890 
L 896 890 
L 896 883 
Q 896 762 963 659 
Q 1030 557 1132 496 
Q 1235 435 1353 416 
Q 1472 397 1594 397 
Q 1709 397 1827 416 
Q 1946 435 2048 489 
Q 2150 544 2224 643 
Q 2298 742 2298 858 
Q 2298 973 2237 1072 
Q 2176 1171 2086 1235 
Q 1997 1299 1891 1334 
Q 1786 1370 1677 1395 
Q 1568 1421 1462 1446 
Q 1357 1472 1251 1510 
Q 1146 1549 1046 1597 
Q 947 1645 857 1712 
Q 768 1779 694 1862 
Q 621 1946 569 2045 
Q 518 2144 489 2253 
Q 461 2362 461 2470 
Q 461 2611 502 2742 
Q 544 2874 627 2986 
Q 710 3098 825 3174 
Q 941 3251 1069 3299 
Q 1197 3347 1334 3363 
Q 1472 3379 1606 3379 
Q 1747 3379 1881 3363 
Q 2016 3347 2147 3299 
Q 2278 3251 2390 3171 
Q 2502 3091 2585 2982 
Q 2669 2874 2710 2739 
Q 2752 2605 2752 2470 
L 2752 2451 
L 2253 2451 
L 2253 2458 
Q 2253 2573 2195 2672 
Q 2138 2771 2042 2832 
Q 1946 2893 1834 2912 
Q 1722 2931 1606 2931 
Q 1498 2931 1386 2912 
Q 1274 2893 1178 2835 
Q 1082 2778 1018 2682 
Q 954 2586 954 2470 
Q 954 2362 1011 2262 
Q 1069 2163 1158 2096 
Q 1248 2029 1353 1993 
Q 1459 1958 1568 1932 
Q 1677 1907 1785 1881 
Q 1894 1856 2000 1821 
Q 2106 1786 2205 1734 
Q 2304 1683 2390 1616 
Q 2477 1549 2553 1465 
Q 2630 1382 2681 1283 
Q 2733 1184 2761 1075 
Q 2790 966 2790 858 
Q 2790 717 2745 582 
Q 2701 448 2611 336 
Q 2522 224 2403 147 
Q 2285 70 2150 25 
Q 2016 -19 1875 -35 
Q 1734 -51 1594 -51 
z
" transform="scale(0.015625)"/>
       <path id="IosevkaTermNF-20" transform="scale(0.015625)"/>
       <path id="IosevkaTermNF-28" d="M 2381 -1030 
Q 2106 -877 1866 -669 
Q 1626 -461 1434 -208 
Q 1242 45 1107 333 
Q 973 621 889 925 
Q 806 1229 771 1545 
Q 736 1862 736 2176 
Q 736 2490 771 2806 
Q 806 3123 889 3427 
Q 973 3731 1107 4019 
Q 1242 4307 1434 4560 
Q 1626 4813 1866 5021 
Q 2106 5229 2381 5382 
L 2624 4992 
Q 2272 4787 1993 4473 
Q 1715 4160 1542 3785 
Q 1370 3411 1302 2998 
Q 1235 2586 1235 2176 
Q 1235 1766 1302 1353 
Q 1370 941 1542 566 
Q 1715 192 1993 -121 
Q 2272 -435 2624 -640 
L 2381 -1030 
z
" transform="scale(0.015625)"/>
       <path id="IosevkaTermNF-6c" d="M 480 0 
L 480 448 
L 1395 448 
L 1395 4256 
L 570 4256 
L 570 4704 
L 1894 4704 
L 1894 448 
L 2720 448 
L 2720 0 
L 480 0 
z
" transform="scale(0.015625)"/>
       <path id="IosevkaTermNF-67" d="M 1581 -1427 
Q 1434 -1427 1290 -1404 
Q 1146 -1382 1011 -1328 
Q 877 -1274 761 -1181 
Q 646 -1088 566 -966 
Q 486 -845 444 -704 
Q 403 -563 397 -416 
L 896 -416 
Q 902 -544 956 -656 
Q 1011 -768 1110 -845 
Q 1210 -922 1331 -950 
Q 1453 -979 1581 -979 
Q 1690 -979 1795 -953 
Q 1901 -928 1987 -864 
Q 2074 -800 2134 -710 
Q 2195 -621 2230 -518 
Q 2266 -416 2278 -310 
Q 2291 -205 2291 -96 
L 2291 582 
Q 2240 448 2157 323 
Q 2074 198 1955 112 
Q 1837 26 1693 -12 
Q 1549 -51 1402 -51 
Q 1242 -51 1085 -6 
Q 928 38 800 134 
Q 672 230 585 364 
Q 499 499 448 649 
Q 397 800 377 960 
Q 358 1120 358 1280 
L 358 2048 
Q 358 2208 377 2368 
Q 397 2528 448 2678 
Q 499 2829 585 2963 
Q 672 3098 800 3194 
Q 928 3290 1085 3334 
Q 1242 3379 1402 3379 
Q 1549 3379 1693 3340 
Q 1837 3302 1955 3216 
Q 2074 3130 2157 3005 
Q 2240 2880 2291 2746 
L 2291 3328 
L 2790 3328 
L 2790 -96 
Q 2790 -269 2764 -438 
Q 2739 -608 2672 -765 
Q 2605 -922 2493 -1053 
Q 2381 -1184 2233 -1270 
Q 2086 -1357 1916 -1392 
Q 1747 -1427 1581 -1427 
z
M 1594 397 
Q 1702 397 1808 422 
Q 1914 448 1997 512 
Q 2080 576 2141 669 
Q 2202 762 2234 861 
Q 2266 960 2278 1065 
Q 2291 1171 2291 1280 
L 2291 2048 
Q 2291 2157 2278 2262 
Q 2266 2368 2234 2467 
Q 2202 2566 2141 2659 
Q 2080 2752 1997 2816 
Q 1914 2880 1808 2905 
Q 1702 2931 1594 2931 
Q 1485 2931 1379 2905 
Q 1274 2880 1184 2819 
Q 1094 2758 1027 2668 
Q 960 2579 921 2476 
Q 883 2374 870 2265 
Q 858 2157 858 2048 
L 858 1280 
Q 858 1171 870 1062 
Q 883 954 921 851 
Q 960 749 1027 659 
Q 1094 570 1184 509 
Q 1274 448 1379 422 
Q 1485 397 1594 397 
z
" transform="scale(0.015625)"/>
       <path id="IosevkaTermNF-2082" d="M 698 -685 
Q 698 -538 704 -394 
Q 710 -250 739 -109 
Q 768 32 822 166 
Q 877 301 957 419 
Q 1037 538 1136 643 
Q 1235 749 1350 835 
Q 1466 922 1590 998 
Q 1715 1075 1814 1174 
Q 1914 1274 1971 1411 
Q 2029 1549 2029 1690 
Q 2029 1786 2009 1878 
Q 1990 1971 1932 2048 
Q 1875 2125 1785 2160 
Q 1696 2195 1600 2195 
Q 1517 2195 1437 2169 
Q 1357 2144 1296 2086 
Q 1235 2029 1206 1949 
Q 1178 1869 1178 1786 
L 1178 1779 
L 685 1779 
L 685 1786 
Q 685 1965 752 2134 
Q 819 2304 947 2422 
Q 1075 2541 1251 2592 
Q 1427 2643 1600 2643 
Q 1792 2643 1974 2582 
Q 2157 2522 2288 2384 
Q 2419 2246 2470 2064 
Q 2522 1882 2522 1690 
Q 2522 1542 2483 1395 
Q 2445 1248 2361 1120 
Q 2278 992 2166 889 
Q 2054 787 1932 694 
Q 1811 602 1696 506 
Q 1581 410 1481 294 
Q 1382 179 1315 41 
Q 1248 -96 1222 -243 
L 2502 -243 
L 2502 -685 
L 698 -685 
z
" transform="scale(0.015625)"/>
       <path id="IosevkaTermNF-29" d="M 819 -1030 
L 576 -640 
Q 928 -435 1206 -121 
Q 1485 192 1657 566 
Q 1830 941 1897 1353 
Q 1965 1766 1965 2176 
Q 1965 2586 1897 2998 
Q 1830 3411 1657 3785 
Q 1485 4160 1206 4473 
Q 928 4787 576 4992 
L 819 5382 
Q 1094 5229 1334 5021 
Q 1574 4813 1766 4560 
Q 1958 4307 2092 4019 
Q 2227 3731 2310 3427 
Q 2394 3123 2429 2806 
Q 2464 2490 2464 2176 
Q 2464 1862 2429 1545 
Q 2394 1229 2310 925 
Q 2227 621 2092 333 
Q 1958 45 1766 -208 
Q 1574 -461 1334 -669 
Q 1094 -877 819 -1030 
z
" transform="scale(0.015625)"/>
      </defs>
      <use xlink:href="#IosevkaTermNF-6e"/>
      <use xlink:href="#IosevkaTermNF-6f" transform="translate(49.999985 0)"/>
      <use xlink:href="#IosevkaTermNF-64" transform="translate(99.999969 0)"/>
      <use xlink:href="#IosevkaTermNF-65" transform="translate(149.999954 0)"/>
      <use xlink:href="#IosevkaTermNF-73" transform="translate(199.999939 0)"/>
      <use xlink:href="#IosevkaTermNF-20" transform="translate(249.999924 0)"/>
      <use xlink:href="#IosevkaTermNF-28" transform="translate(299.999908 0)"/>
      <use xlink:href="#IosevkaTermNF-6c" transform="translate(349.999893 0)"/>
      <use xlink:href="#IosevkaTermNF-6f" transform="translate(399.999878 0)"/>
      <use xlink:href="#IosevkaTermNF-67" transform="translate(449.999863 0)"/>
      <use xlink:href="#IosevkaTermNF-2082" transform="translate(499.999847 0)"/>
      <use xlink:href="#IosevkaTermNF-29" transform="translate(549.999832 0)"/>
     </g>
    </g>
   </g>
   <g id="matplotlib.axis_2">
    <g id="ytick_1">
     <g id="line2d_22">
      <path d="M 45.37125 272.1165 
L 556.83375 272.1165 
" clip-path="url(#p7854e435ac)" style="fill: none; stroke-dasharray: 1.48,0.64; stroke-dashoffset: 0; stroke: #838383; stroke-opacity: 0.25; stroke-width: 0.4"/>
     </g>
     <g id="line2d_23"/>
     <g id="text_12">
      <!-- 0 -->
      <g style="fill: #838383" transform="translate(35.87125 276.5265) scale(0.12 -0.12)">
       <use xlink:href="#IosevkaTermNF-30"/>
      </g>
     </g>
    </g>
    <g id="ytick_2">
     <g id="line2d_24">
      <path d="M 45.37125 244.078761 
L 556.83375 244.078761 
" clip-path="url(#p7854e435ac)" style="fill: none; stroke-dasharray: 1.48,0.64; stroke-dashoffset: 0; stroke: #838383; stroke-opacity: 0.25; stroke-width: 0.4"/>
     </g>
     <g id="line2d_25"/>
     <g id="text_13">
      <!-- 100 -->
      <g style="fill: #838383" transform="translate(23.87125 248.488761) scale(0.12 -0.12)">
       <use xlink:href="#IosevkaTermNF-31"/>
       <use xlink:href="#IosevkaTermNF-30" transform="translate(49.999985 0)"/>
       <use xlink:href="#IosevkaTermNF-30" transform="translate(99.999969 0)"/>
      </g>
     </g>
    </g>
    <g id="ytick_3">
     <g id="line2d_26">
      <path d="M 45.37125 216.041021 
L 556.83375 216.041021 
" clip-path="url(#p7854e435ac)" style="fill: none; stroke-dasharray: 1.48,0.64; stroke-dashoffset: 0; stroke: #838383; stroke-opacity: 0.25; stroke-width: 0.4"/>
     </g>
     <g id="line2d_27"/>
     <g id="text_14">
      <!-- 200 -->
      <g style="fill: #838383" transform="translate(23.87125 220.451021) scale(0.12 -0.12)">
       <use xlink:href="#IosevkaTermNF-32"/>
       <use xlink:href="#IosevkaTermNF-30" transform="translate(49.999985 0)"/>
       <use xlink:href="#IosevkaTermNF-30" transform="translate(99.999969 0)"/>
      </g>
     </g>
    </g>
    <g id="ytick_4">
     <g id="line2d_28">
      <path d="M 45.37125 188.003282 
L 556.83375 188.003282 
" clip-path="url(#p7854e435ac)" style="fill: none; stroke-dasharray: 1.48,0.64; stroke-dashoffset: 0; stroke: #838383; stroke-opacity: 0.25; stroke-width: 0.4"/>
     </g>
     <g id="line2d_29"/>
     <g id="text_15">
      <!-- 300 -->
      <g style="fill: #838383" transform="translate(23.87125 192.413282) scale(0.12 -0.12)">
       <use xlink:href="#IosevkaTermNF-33"/>
       <use xlink:href="#IosevkaTermNF-30" transform="translate(49.999985 0)"/>
       <use xlink:href="#IosevkaTermNF-30" transform="translate(99.999969 0)"/>
      </g>
     </g>
    </g>
    <g id="ytick_5">
     <g id="line2d_30">
      <path d="M 45.37125 159.965543 
L 556.83375 159.965543 
" clip-path="url(#p7854e435ac)" style="fill: none; stroke-dasharray: 1.48,0.64; stroke-dashoffset: 0; stroke: #838383; stroke-opacity: 0.25; stroke-width: 0.4"/>
     </g>
     <g id="line2d_31"/>
     <g id="text_16">
      <!-- 400 -->
      <g style="fill: #838383" transform="translate(23.87125 164.375543) scale(0.12 -0.12)">
       <use xlink:href="#IosevkaTermNF-34"/>
       <use xlink:href="#IosevkaTermNF-30" transform="translate(49.999985 0)"/>
       <use xlink:href="#IosevkaTermNF-30" transform="translate(99.999969 0)"/>
      </g>
     </g>
    </g>
    <g id="ytick_6">
     <g id="line2d_32">
      <path d="M 45.37125 131.927803 
L 556.83375 131.927803 
" clip-path="url(#p7854e435ac)" style="fill: none; stroke-dasharray: 1.48,0.64; stroke-dashoffset: 0; stroke: #838383; stroke-opacity: 0.25; stroke-width: 0.4"/>
     </g>
     <g id="line2d_33"/>
     <g id="text_17">
      <!-- 500 -->
      <g style="fill: #838383" transform="translate(23.87125 136.337803) scale(0.12 -0.12)">
       <use xlink:href="#IosevkaTermNF-35"/>
       <use xlink:href="#IosevkaTermNF-30" transform="translate(49.999985 0)"/>
       <use xlink:href="#IosevkaTermNF-30" transform="translate(99.999969 0)"/>
      </g>
     </g>
    </g>
    <g id="ytick_7">
     <g id="line2d_34">
      <path d="M 45.37125 103.890064 
L 556.83375 103.890064 
" clip-path="url(#p7854e435ac)" style="fill: none; stroke-dasharray: 1.48,0.64; stroke-dashoffset: 0; stroke: #838383; stroke-opacity: 0.25; stroke-width: 0.4"/>
     </g>
     <g id="line2d_35"/>
     <g id="text_18">
      <!-- 600 -->
      <g style="fill: #838383" transform="translate(23.87125 108.300064) scale(0.12 -0.12)">
       <use xlink:href="#IosevkaTermNF-36"/>
       <use xlink:href="#IosevkaTermNF-30" transform="translate(49.999985 0)"/>
       <use xlink:href="#IosevkaTermNF-30" transform="translate(99.999969 0)"/>
      </g>
     </g>
    </g>
    <g id="ytick_8">
     <g id="line2d_36">
      <path d="M 45.37125 75.852325 
L 556.83375 75.852325 
" clip-path="url(#p7854e435ac)" style="fill: none; stroke-dasharray: 1.48,0.64; stroke-dashoffset: 0; stroke: #838383; stroke-opacity: 0.25; stroke-width: 0.4"/>
     </g>
     <g id="line2d_37"/>
     <g id="text_19">
      <!-- 700 -->
      <g style="fill: #838383" transform="translate(23.87125 80.262325) scale(0.12 -0.12)">
       <defs>
        <path id="IosevkaTermNF-37" d="M 934 0 
L 2272 4256 
L 410 4256 
L 410 4704 
L 2790 4704 
L 2790 4256 
L 2214 2432 
L 1446 0 
L 934 0 
z
" transform="scale(0.015625)"/>
       </defs>
       <use xlink:href="#IosevkaTermNF-37"/>
       <use xlink:href="#IosevkaTermNF-30" transform="translate(49.999985 0)"/>
       <use xlink:href="#IosevkaTermNF-30" transform="translate(99.999969 0)"/>
      </g>
     </g>
    </g>
    <g id="ytick_9">
     <g id="line2d_38">
      <path d="M 45.37125 47.814586 
L 556.83375 47.814586 
" clip-path="url(#p7854e435ac)" style="fill: none; stroke-dasharray: 1.48,0.64; stroke-dashoffset: 0; stroke: #838383; stroke-opacity: 0.25; stroke-width: 0.4"/>
     </g>
     <g id="line2d_39"/>
     <g id="text_20">
      <!-- 800 -->
      <g style="fill: #838383" transform="translate(23.87125 52.224586) scale(0.12 -0.12)">
       <use xlink:href="#IosevkaTermNF-38"/>
       <use xlink:href="#IosevkaTermNF-30" transform="translate(49.999985 0)"/>
       <use xlink:href="#IosevkaTermNF-30" transform="translate(99.999969 0)"/>
      </g>
     </g>
    </g>
    <g id="text_21">
     <!-- yeet wall-clock (seconds) -->
     <g style="fill: #838383" transform="translate(17.29125 222.95025) rotate(-90) scale(0.12 -0.12)">
      <defs>
       <path id="IosevkaTermNF-79" d="M 966 -1376 
Q 1024 -1184 1081 -989 
Q 1139 -794 1197 -602 
L 1344 -96 
L 326 3328 
L 845 3328 
L 1606 672 
L 2355 3328 
L 2874 3328 
L 1485 -1376 
L 966 -1376 
z
" transform="scale(0.015625)"/>
       <path id="IosevkaTermNF-74" d="M 2022 -51 
Q 1882 -51 1738 -16 
Q 1594 19 1475 105 
Q 1357 192 1273 313 
Q 1190 435 1142 572 
Q 1094 710 1078 854 
Q 1062 998 1062 1146 
L 1062 2880 
L 448 2880 
L 448 3328 
L 1062 3328 
L 1062 4704 
L 1562 4704 
L 1562 3328 
L 2688 3328 
L 2688 2880 
L 1562 2880 
L 1562 1146 
Q 1562 1062 1568 979 
Q 1574 896 1593 816 
Q 1613 736 1645 659 
Q 1677 582 1731 521 
Q 1786 461 1866 429 
Q 1946 397 2022 397 
Q 2099 397 2172 422 
Q 2246 448 2300 499 
Q 2355 550 2390 617 
Q 2426 685 2448 758 
Q 2470 832 2480 909 
Q 2490 986 2490 1062 
L 2490 1101 
L 2989 1101 
L 2989 1037 
Q 2989 896 2963 761 
Q 2938 627 2886 502 
Q 2835 378 2748 266 
Q 2662 154 2547 80 
Q 2432 6 2297 -22 
Q 2163 -51 2022 -51 
z
" transform="scale(0.015625)"/>
       <path id="IosevkaTermNF-77" d="M 749 0 
L 205 3328 
L 710 3328 
L 1011 486 
L 1350 2394 
L 1850 2394 
L 2189 486 
L 2490 3328 
L 2995 3328 
L 2451 0 
L 1958 0 
L 1600 1779 
L 1242 0 
L 749 0 
z
" transform="scale(0.015625)"/>
       <path id="IosevkaTermNF-61" d="M 1293 -51 
Q 1101 -51 915 6 
Q 730 64 598 205 
Q 467 346 412 531 
Q 358 717 358 902 
Q 358 1069 400 1229 
Q 442 1389 541 1517 
Q 640 1645 781 1731 
Q 922 1818 1078 1869 
Q 1235 1920 1395 1939 
Q 1555 1958 1722 1958 
L 2291 1958 
L 2291 2272 
Q 2291 2406 2246 2540 
Q 2202 2675 2099 2764 
Q 1997 2854 1862 2892 
Q 1728 2931 1594 2931 
Q 1466 2931 1341 2905 
Q 1216 2880 1113 2809 
Q 1011 2739 953 2624 
Q 896 2509 896 2387 
L 397 2387 
Q 397 2534 438 2675 
Q 480 2816 563 2937 
Q 646 3059 764 3145 
Q 883 3232 1017 3286 
Q 1152 3341 1299 3360 
Q 1446 3379 1594 3379 
Q 1747 3379 1900 3356 
Q 2054 3334 2195 3270 
Q 2336 3206 2454 3104 
Q 2573 3002 2649 2867 
Q 2726 2733 2758 2579 
Q 2790 2426 2790 2272 
L 2790 0 
L 2291 0 
L 2291 550 
Q 2234 410 2128 291 
Q 2022 173 1888 93 
Q 1754 13 1600 -19 
Q 1446 -51 1293 -51 
z
M 1485 397 
Q 1638 397 1795 438 
Q 1952 480 2067 585 
Q 2182 691 2236 841 
Q 2291 992 2291 1152 
L 2291 1510 
L 1722 1510 
Q 1626 1510 1526 1500 
Q 1427 1491 1334 1468 
Q 1242 1446 1152 1404 
Q 1062 1363 992 1299 
Q 922 1235 890 1142 
Q 858 1050 858 954 
Q 858 838 902 723 
Q 947 608 1036 531 
Q 1126 454 1244 425 
Q 1363 397 1485 397 
z
" transform="scale(0.015625)"/>
       <path id="IosevkaTermNF-2d" d="M 410 1952 
L 410 2400 
L 2790 2400 
L 2790 1952 
L 410 1952 
z
" transform="scale(0.015625)"/>
       <path id="IosevkaTermNF-63" d="M 1581 -51 
Q 1414 -51 1241 -16 
Q 1069 19 921 105 
Q 774 192 662 323 
Q 550 454 480 611 
Q 410 768 384 937 
Q 358 1107 358 1280 
L 358 2048 
Q 358 2221 384 2390 
Q 410 2560 480 2717 
Q 550 2874 662 3005 
Q 774 3136 921 3222 
Q 1069 3309 1241 3344 
Q 1414 3379 1581 3379 
Q 1741 3379 1901 3350 
Q 2061 3322 2205 3251 
Q 2349 3181 2464 3069 
Q 2579 2957 2656 2816 
Q 2733 2675 2768 2518 
Q 2803 2362 2803 2202 
L 2803 2189 
L 2304 2189 
L 2304 2195 
Q 2304 2342 2259 2483 
Q 2214 2624 2112 2729 
Q 2010 2835 1869 2883 
Q 1728 2931 1581 2931 
Q 1472 2931 1366 2905 
Q 1261 2880 1171 2816 
Q 1082 2752 1021 2662 
Q 960 2573 921 2473 
Q 883 2374 870 2265 
Q 858 2157 858 2048 
L 858 1280 
Q 858 1171 870 1062 
Q 883 954 921 854 
Q 960 755 1021 665 
Q 1082 576 1171 512 
Q 1261 448 1366 422 
Q 1472 397 1581 397 
Q 1728 397 1869 445 
Q 2010 493 2112 598 
Q 2214 704 2259 845 
Q 2304 986 2304 1133 
L 2304 1139 
L 2803 1139 
L 2803 1126 
Q 2803 966 2768 809 
Q 2733 653 2656 512 
Q 2579 371 2464 259 
Q 2349 147 2205 76 
Q 2061 6 1901 -22 
Q 1741 -51 1581 -51 
z
" transform="scale(0.015625)"/>
       <path id="IosevkaTermNF-6b" d="M 512 0 
L 512 4704 
L 1005 4704 
L 1005 1779 
L 2227 3328 
L 2835 3328 
L 1638 1811 
L 2835 0 
L 2259 0 
L 1325 1414 
L 1005 1011 
L 1005 0 
L 512 0 
z
" transform="scale(0.015625)"/>
      </defs>
      <use xlink:href="#IosevkaTermNF-79"/>
      <use xlink:href="#IosevkaTermNF-65" transform="translate(49.999985 0)"/>
      <use xlink:href="#IosevkaTermNF-65" transform="translate(99.999969 0)"/>
      <use xlink:href="#IosevkaTermNF-74" transform="translate(149.999954 0)"/>
      <use xlink:href="#IosevkaTermNF-20" transform="translate(199.999939 0)"/>
      <use xlink:href="#IosevkaTermNF-77" transform="translate(249.999924 0)"/>
      <use xlink:href="#IosevkaTermNF-61" transform="translate(299.999908 0)"/>
      <use xlink:href="#IosevkaTermNF-6c" transform="translate(349.999893 0)"/>
      <use xlink:href="#IosevkaTermNF-6c" transform="translate(399.999878 0)"/>
      <use xlink:href="#IosevkaTermNF-2d" transform="translate(449.999863 0)"/>
      <use xlink:href="#IosevkaTermNF-63" transform="translate(499.999847 0)"/>
      <use xlink:href="#IosevkaTermNF-6c" transform="translate(549.999832 0)"/>
      <use xlink:href="#IosevkaTermNF-6f" transform="translate(599.999817 0)"/>
      <use xlink:href="#IosevkaTermNF-63" transform="translate(649.999802 0)"/>
      <use xlink:href="#IosevkaTermNF-6b" transform="translate(699.999786 0)"/>
      <use xlink:href="#IosevkaTermNF-20" transform="translate(749.999771 0)"/>
      <use xlink:href="#IosevkaTermNF-28" transform="translate(799.999756 0)"/>
      <use xlink:href="#IosevkaTermNF-73" transform="translate(849.999741 0)"/>
      <use xlink:href="#IosevkaTermNF-65" transform="translate(899.999725 0)"/>
      <use xlink:href="#IosevkaTermNF-63" transform="translate(949.99971 0)"/>
      <use xlink:href="#IosevkaTermNF-6f" transform="translate(999.999695 0)"/>
      <use xlink:href="#IosevkaTermNF-6e" transform="translate(1049.99968 0)"/>
      <use xlink:href="#IosevkaTermNF-64" transform="translate(1099.999664 0)"/>
      <use xlink:href="#IosevkaTermNF-73" transform="translate(1149.999649 0)"/>
      <use xlink:href="#IosevkaTermNF-29" transform="translate(1199.999634 0)"/>
     </g>
    </g>
   </g>
   <g id="line2d_40">
    <path d="M 68.619545 252.574196 
L 120.282424 252.574196 
L 171.945303 252.574196 
L 223.608182 252.574196 
L 275.271061 252.574196 
L 326.933939 252.574196 
L 378.596818 252.574196 
L 430.259697 252.574196 
L 481.922576 252.574196 
L 533.585455 252.574196 
" clip-path="url(#p7854e435ac)" style="fill: none; stroke-dasharray: 1,1.65; stroke-dashoffset: 0; stroke: #22c55e"/>
   </g>
   <g id="line2d_41">
    <path d="M 68.619545 252.574196 
L 120.282424 233.031891 
L 171.945303 193.947283 
L 223.608182 115.778066 
L 262.198123 -1 
" clip-path="url(#p7854e435ac)" style="fill: none; stroke-dasharray: 1,1.65; stroke-dashoffset: 0; stroke: #94a3b8; stroke-opacity: 0.7"/>
   </g>
   <g id="patch_5">
    <path d="M 45.37125 272.1165 
L 45.37125 23.784 
" style="fill: none"/>
   </g>
   <g id="patch_6">
    <path d="M 556.83375 272.1165 
L 556.83375 23.784 
" style="fill: none"/>
   </g>
   <g id="patch_7">
    <path d="M 45.37125 272.1165 
L 556.83375 272.1165 
" style="fill: none"/>
   </g>
   <g id="patch_8">
    <path d="M 45.37125 23.784 
L 556.83375 23.784 
" style="fill: none"/>
   </g>
   <g id="text_22">
    <!-- extract-bound -->
    <g style="fill: #15803d; opacity: 0.85" transform="translate(124.295889 40.3323) scale(0.09 -0.09)">
     <defs>
      <path id="IosevkaTermNF-78" d="M 339 0 
L 1325 1664 
L 339 3328 
L 922 3328 
L 1600 2138 
L 2278 3328 
L 2861 3328 
L 1875 1664 
L 2861 0 
L 2278 0 
L 1600 1190 
L 922 0 
L 339 0 
z
" transform="scale(0.015625)"/>
      <path id="IosevkaTermNF-72" d="M 794 0 
L 794 3328 
L 1293 3328 
L 1293 2637 
Q 1338 2778 1405 2912 
Q 1472 3046 1574 3155 
Q 1677 3264 1817 3321 
Q 1958 3379 2106 3379 
Q 2227 3379 2345 3350 
Q 2464 3322 2560 3254 
Q 2656 3187 2720 3084 
Q 2784 2982 2822 2870 
Q 2861 2758 2873 2640 
Q 2886 2522 2886 2400 
L 2387 2400 
Q 2387 2496 2371 2589 
Q 2355 2682 2307 2765 
Q 2259 2848 2172 2889 
Q 2086 2931 1990 2931 
Q 1862 2931 1744 2876 
Q 1626 2822 1546 2726 
Q 1466 2630 1414 2512 
Q 1363 2394 1337 2269 
Q 1312 2144 1302 2016 
Q 1293 1888 1293 1766 
L 1293 0 
L 794 0 
z
" transform="scale(0.015625)"/>
      <path id="IosevkaTermNF-62" d="M 1798 -51 
Q 1651 -51 1507 -12 
Q 1363 26 1244 112 
Q 1126 198 1043 323 
Q 960 448 909 582 
L 909 0 
L 410 0 
L 410 4704 
L 909 4704 
L 909 2746 
Q 960 2880 1043 3005 
Q 1126 3130 1244 3216 
Q 1363 3302 1507 3340 
Q 1651 3379 1798 3379 
Q 1958 3379 2115 3334 
Q 2272 3290 2400 3194 
Q 2528 3098 2614 2963 
Q 2701 2829 2752 2678 
Q 2803 2528 2822 2368 
Q 2842 2208 2842 2048 
L 2842 1280 
Q 2842 1120 2822 960 
Q 2803 800 2752 649 
Q 2701 499 2614 364 
Q 2528 230 2400 134 
Q 2272 38 2115 -6 
Q 1958 -51 1798 -51 
z
M 1606 397 
Q 1715 397 1820 422 
Q 1926 448 2016 509 
Q 2106 570 2173 659 
Q 2240 749 2278 851 
Q 2317 954 2329 1062 
Q 2342 1171 2342 1280 
L 2342 2048 
Q 2342 2157 2329 2265 
Q 2317 2374 2278 2476 
Q 2240 2579 2173 2668 
Q 2106 2758 2016 2819 
Q 1926 2880 1820 2905 
Q 1715 2931 1606 2931 
Q 1498 2931 1392 2905 
Q 1286 2880 1203 2816 
Q 1120 2752 1059 2659 
Q 998 2566 966 2467 
Q 934 2368 921 2262 
Q 909 2157 909 2048 
L 909 1280 
Q 909 1171 921 1065 
Q 934 960 966 861 
Q 998 762 1059 669 
Q 1120 576 1203 512 
Q 1286 448 1392 422 
Q 1498 397 1606 397 
z
" transform="scale(0.015625)"/>
      <path id="IosevkaTermNF-75" d="M 1408 -51 
Q 1248 -51 1094 -6 
Q 941 38 822 137 
Q 704 237 621 374 
Q 538 512 490 662 
Q 442 813 426 969 
Q 410 1126 410 1280 
L 410 3328 
L 909 3328 
L 909 1280 
Q 909 1171 921 1065 
Q 934 960 966 861 
Q 998 762 1059 672 
Q 1120 582 1203 518 
Q 1286 454 1388 425 
Q 1491 397 1600 397 
Q 1709 397 1811 425 
Q 1914 454 1997 518 
Q 2080 582 2141 672 
Q 2202 762 2234 861 
Q 2266 960 2278 1065 
Q 2291 1171 2291 1280 
L 2291 3328 
L 2790 3328 
L 2790 0 
L 2291 0 
L 2291 582 
Q 2240 448 2157 326 
Q 2074 205 1955 115 
Q 1837 26 1693 -12 
Q 1549 -51 1408 -51 
z
" transform="scale(0.015625)"/>
     </defs>
     <use xlink:href="#IosevkaTermNF-65"/>
     <use xlink:href="#IosevkaTermNF-78" transform="translate(49.999985 0)"/>
     <use xlink:href="#IosevkaTermNF-74" transform="translate(99.999969 0)"/>
     <use xlink:href="#IosevkaTermNF-72" transform="translate(149.999954 0)"/>
     <use xlink:href="#IosevkaTermNF-61" transform="translate(199.999939 0)"/>
     <use xlink:href="#IosevkaTermNF-63" transform="translate(249.999924 0)"/>
     <use xlink:href="#IosevkaTermNF-74" transform="translate(299.999908 0)"/>
     <use xlink:href="#IosevkaTermNF-2d" transform="translate(349.999893 0)"/>
     <use xlink:href="#IosevkaTermNF-62" transform="translate(399.999878 0)"/>
     <use xlink:href="#IosevkaTermNF-6f" transform="translate(449.999863 0)"/>
     <use xlink:href="#IosevkaTermNF-75" transform="translate(499.999847 0)"/>
     <use xlink:href="#IosevkaTermNF-6e" transform="translate(549.999832 0)"/>
     <use xlink:href="#IosevkaTermNF-64" transform="translate(599.999817 0)"/>
    </g>
   </g>
   <g id="text_23">
    <!-- broadcast-bound -->
    <g style="fill: #b45309; opacity: 0.85" transform="translate(368.157683 40.3323) scale(0.09 -0.09)">
     <use xlink:href="#IosevkaTermNF-62"/>
     <use xlink:href="#IosevkaTermNF-72" transform="translate(49.999985 0)"/>
     <use xlink:href="#IosevkaTermNF-6f" transform="translate(99.999969 0)"/>
     <use xlink:href="#IosevkaTermNF-61" transform="translate(149.999954 0)"/>
     <use xlink:href="#IosevkaTermNF-64" transform="translate(199.999939 0)"/>
     <use xlink:href="#IosevkaTermNF-63" transform="translate(249.999924 0)"/>
     <use xlink:href="#IosevkaTermNF-61" transform="translate(299.999908 0)"/>
     <use xlink:href="#IosevkaTermNF-73" transform="translate(349.999893 0)"/>
     <use xlink:href="#IosevkaTermNF-74" transform="translate(399.999878 0)"/>
     <use xlink:href="#IosevkaTermNF-2d" transform="translate(449.999863 0)"/>
     <use xlink:href="#IosevkaTermNF-62" transform="translate(499.999847 0)"/>
     <use xlink:href="#IosevkaTermNF-6f" transform="translate(549.999832 0)"/>
     <use xlink:href="#IosevkaTermNF-75" transform="translate(599.999817 0)"/>
     <use xlink:href="#IosevkaTermNF-6e" transform="translate(649.999802 0)"/>
     <use xlink:href="#IosevkaTermNF-64" transform="translate(699.999786 0)"/>
    </g>
   </g>
   <g id="line2d_42">
    <path d="M 68.619545 252.574196 
L 120.282424 246.966648 
L 171.945303 247.106837 
L 223.608182 246.546082 
L 275.271061 241.162836 
L 326.933939 234.854344 
L 378.596818 223.190645 
L 430.259697 200.508114 
L 481.922576 153.965467 
L 533.585455 61.665229 
" clip-path="url(#p7854e435ac)" style="fill: none; stroke: #2196f3; stroke-width: 1.8; stroke-linecap: round"/>
    <defs>
     <path id="m7178d85e7d" d="M 0 3 
C 0.795609 3 1.55874 2.683901 2.12132 2.12132 
C 2.683901 1.55874 3 0.795609 3 0 
C 3 -0.795609 2.683901 -1.55874 2.12132 -2.12132 
C 1.55874 -2.683901 0.795609 -3 0 -3 
C -0.795609 -3 -1.55874 -2.683901 -2.12132 -2.12132 
C -2.683901 -1.55874 -3 -0.795609 -3 0 
C -3 0.795609 -2.683901 1.55874 -2.12132 2.12132 
C -1.55874 2.683901 -0.795609 3 0 3 
z
" style="stroke: #0d47a1"/>
    </defs>
    <g clip-path="url(#p7854e435ac)">
     <use xlink:href="#m7178d85e7d" x="68.619545" y="252.574196" style="fill: #2196f3; stroke: #0d47a1"/>
     <use xlink:href="#m7178d85e7d" x="120.282424" y="246.966648" style="fill: #2196f3; stroke: #0d47a1"/>
     <use xlink:href="#m7178d85e7d" x="171.945303" y="247.106837" style="fill: #2196f3; stroke: #0d47a1"/>
     <use xlink:href="#m7178d85e7d" x="223.608182" y="246.546082" style="fill: #2196f3; stroke: #0d47a1"/>
     <use xlink:href="#m7178d85e7d" x="275.271061" y="241.162836" style="fill: #2196f3; stroke: #0d47a1"/>
     <use xlink:href="#m7178d85e7d" x="326.933939" y="234.854344" style="fill: #2196f3; stroke: #0d47a1"/>
     <use xlink:href="#m7178d85e7d" x="378.596818" y="223.190645" style="fill: #2196f3; stroke: #0d47a1"/>
     <use xlink:href="#m7178d85e7d" x="430.259697" y="200.508114" style="fill: #2196f3; stroke: #0d47a1"/>
     <use xlink:href="#m7178d85e7d" x="481.922576" y="153.965467" style="fill: #2196f3; stroke: #0d47a1"/>
     <use xlink:href="#m7178d85e7d" x="533.585455" y="61.665229" style="fill: #2196f3; stroke: #0d47a1"/>
    </g>
   </g>
   <g id="text_24">
    <!-- yeet broadcast — total wall-clock vs node count -->
    <g style="fill: #838383" transform="translate(131.9025 17.784) scale(0.144 -0.144)">
     <defs>
      <path id="IosevkaTermNF-2014" d="M 0 1952 
L 0 2400 
L 3200 2400 
L 3200 1952 
L 0 1952 
z
" transform="scale(0.015625)"/>
      <path id="IosevkaTermNF-76" d="M 1312 0 
L 282 3328 
L 806 3328 
L 1446 1107 
Q 1485 973 1523 838 
Q 1562 704 1600 563 
Q 1638 704 1676 838 
Q 1715 973 1754 1107 
L 2394 3328 
L 2918 3328 
L 1888 0 
L 1312 0 
z
" transform="scale(0.015625)"/>
     </defs>
     <use xlink:href="#IosevkaTermNF-79"/>
     <use xlink:href="#IosevkaTermNF-65" transform="translate(49.999985 0)"/>
     <use xlink:href="#IosevkaTermNF-65" transform="translate(99.999969 0)"/>
     <use xlink:href="#IosevkaTermNF-74" transform="translate(149.999954 0)"/>
     <use xlink:href="#IosevkaTermNF-20" transform="translate(199.999939 0)"/>
     <use xlink:href="#IosevkaTermNF-62" transform="translate(249.999924 0)"/>
     <use xlink:href="#IosevkaTermNF-72" transform="translate(299.999908 0)"/>
     <use xlink:href="#IosevkaTermNF-6f" transform="translate(349.999893 0)"/>
     <use xlink:href="#IosevkaTermNF-61" transform="translate(399.999878 0)"/>
     <use xlink:href="#IosevkaTermNF-64" transform="translate(449.999863 0)"/>
     <use xlink:href="#IosevkaTermNF-63" transform="translate(499.999847 0)"/>
     <use xlink:href="#IosevkaTermNF-61" transform="translate(549.999832 0)"/>
     <use xlink:href="#IosevkaTermNF-73" transform="translate(599.999817 0)"/>
     <use xlink:href="#IosevkaTermNF-74" transform="translate(649.999802 0)"/>
     <use xlink:href="#IosevkaTermNF-20" transform="translate(699.999786 0)"/>
     <use xlink:href="#IosevkaTermNF-2014" transform="translate(749.999771 0)"/>
     <use xlink:href="#IosevkaTermNF-20" transform="translate(799.999756 0)"/>
     <use xlink:href="#IosevkaTermNF-74" transform="translate(849.999741 0)"/>
     <use xlink:href="#IosevkaTermNF-6f" transform="translate(899.999725 0)"/>
     <use xlink:href="#IosevkaTermNF-74" transform="translate(949.99971 0)"/>
     <use xlink:href="#IosevkaTermNF-61" transform="translate(999.999695 0)"/>
     <use xlink:href="#IosevkaTermNF-6c" transform="translate(1049.99968 0)"/>
     <use xlink:href="#IosevkaTermNF-20" transform="translate(1099.999664 0)"/>
     <use xlink:href="#IosevkaTermNF-77" transform="translate(1149.999649 0)"/>
     <use xlink:href="#IosevkaTermNF-61" transform="translate(1199.999634 0)"/>
     <use xlink:href="#IosevkaTermNF-6c" transform="translate(1249.999619 0)"/>
     <use xlink:href="#IosevkaTermNF-6c" transform="translate(1299.999603 0)"/>
     <use xlink:href="#IosevkaTermNF-2d" transform="translate(1349.999588 0)"/>
     <use xlink:href="#IosevkaTermNF-63" transform="translate(1399.999573 0)"/>
     <use xlink:href="#IosevkaTermNF-6c" transform="translate(1449.999557 0)"/>
     <use xlink:href="#IosevkaTermNF-6f" transform="translate(1499.999542 0)"/>
     <use xlink:href="#IosevkaTermNF-63" transform="translate(1549.999527 0)"/>
     <use xlink:href="#IosevkaTermNF-6b" transform="translate(1599.999512 0)"/>
     <use xlink:href="#IosevkaTermNF-20" transform="translate(1649.999496 0)"/>
     <use xlink:href="#IosevkaTermNF-76" transform="translate(1699.999481 0)"/>
     <use xlink:href="#IosevkaTermNF-73" transform="translate(1749.999466 0)"/>
     <use xlink:href="#IosevkaTermNF-20" transform="translate(1799.999451 0)"/>
     <use xlink:href="#IosevkaTermNF-6e" transform="translate(1849.999435 0)"/>
     <use xlink:href="#IosevkaTermNF-6f" transform="translate(1899.99942 0)"/>
     <use xlink:href="#IosevkaTermNF-64" transform="translate(1949.999405 0)"/>
     <use xlink:href="#IosevkaTermNF-65" transform="translate(1999.99939 0)"/>
     <use xlink:href="#IosevkaTermNF-20" transform="translate(2049.999374 0)"/>
     <use xlink:href="#IosevkaTermNF-63" transform="translate(2099.999359 0)"/>
     <use xlink:href="#IosevkaTermNF-6f" transform="translate(2149.999344 0)"/>
     <use xlink:href="#IosevkaTermNF-75" transform="translate(2199.999329 0)"/>
     <use xlink:href="#IosevkaTermNF-6e" transform="translate(2249.999313 0)"/>
     <use xlink:href="#IosevkaTermNF-74" transform="translate(2299.999298 0)"/>
    </g>
   </g>
   <g id="text_25">
    <!-- 70s -->
    <g style="fill: #0d47a1" transform="translate(61.869545 244.574196) scale(0.09 -0.09)">
     <use xlink:href="#IosevkaTermNF-37"/>
     <use xlink:href="#IosevkaTermNF-30" transform="translate(49.999985 0)"/>
     <use xlink:href="#IosevkaTermNF-73" transform="translate(99.999969 0)"/>
    </g>
   </g>
   <g id="text_26">
    <!-- 90s -->
    <g style="fill: #0d47a1" transform="translate(113.532424 238.966648) scale(0.09 -0.09)">
     <use xlink:href="#IosevkaTermNF-39"/>
     <use xlink:href="#IosevkaTermNF-30" transform="translate(49.999985 0)"/>
     <use xlink:href="#IosevkaTermNF-73" transform="translate(99.999969 0)"/>
    </g>
   </g>
   <g id="text_27">
    <!-- 89s -->
    <g style="fill: #0d47a1" transform="translate(165.195303 239.106837) scale(0.09 -0.09)">
     <use xlink:href="#IosevkaTermNF-38"/>
     <use xlink:href="#IosevkaTermNF-39" transform="translate(49.999985 0)"/>
     <use xlink:href="#IosevkaTermNF-73" transform="translate(99.999969 0)"/>
    </g>
   </g>
   <g id="text_28">
    <!-- 91s -->
    <g style="fill: #0d47a1" transform="translate(216.858182 238.546082) scale(0.09 -0.09)">
     <use xlink:href="#IosevkaTermNF-39"/>
     <use xlink:href="#IosevkaTermNF-31" transform="translate(49.999985 0)"/>
     <use xlink:href="#IosevkaTermNF-73" transform="translate(99.999969 0)"/>
    </g>
   </g>
   <g id="text_29">
    <!-- 110s -->
    <g style="fill: #0d47a1" transform="translate(266.271061 233.162836) scale(0.09 -0.09)">
     <use xlink:href="#IosevkaTermNF-31"/>
     <use xlink:href="#IosevkaTermNF-31" transform="translate(49.999985 0)"/>
     <use xlink:href="#IosevkaTermNF-30" transform="translate(99.999969 0)"/>
     <use xlink:href="#IosevkaTermNF-73" transform="translate(149.999954 0)"/>
    </g>
   </g>
   <g id="text_30">
    <!-- 133s -->
    <g style="fill: #0d47a1" transform="translate(317.933939 226.854344) scale(0.09 -0.09)">
     <use xlink:href="#IosevkaTermNF-31"/>
     <use xlink:href="#IosevkaTermNF-33" transform="translate(49.999985 0)"/>
     <use xlink:href="#IosevkaTermNF-33" transform="translate(99.999969 0)"/>
     <use xlink:href="#IosevkaTermNF-73" transform="translate(149.999954 0)"/>
    </g>
   </g>
   <g id="text_31">
    <!-- 174s -->
    <g style="fill: #0d47a1" transform="translate(369.596818 215.190645) scale(0.09 -0.09)">
     <use xlink:href="#IosevkaTermNF-31"/>
     <use xlink:href="#IosevkaTermNF-37" transform="translate(49.999985 0)"/>
     <use xlink:href="#IosevkaTermNF-34" transform="translate(99.999969 0)"/>
     <use xlink:href="#IosevkaTermNF-73" transform="translate(149.999954 0)"/>
    </g>
   </g>
   <g id="text_32">
    <!-- 255s -->
    <g style="fill: #0d47a1" transform="translate(421.259697 192.508114) scale(0.09 -0.09)">
     <use xlink:href="#IosevkaTermNF-32"/>
     <use xlink:href="#IosevkaTermNF-35" transform="translate(49.999985 0)"/>
     <use xlink:href="#IosevkaTermNF-35" transform="translate(99.999969 0)"/>
     <use xlink:href="#IosevkaTermNF-73" transform="translate(149.999954 0)"/>
    </g>
   </g>
   <g id="text_33">
    <!-- 421s -->
    <g style="fill: #0d47a1" transform="translate(472.922576 145.965467) scale(0.09 -0.09)">
     <use xlink:href="#IosevkaTermNF-34"/>
     <use xlink:href="#IosevkaTermNF-32" transform="translate(49.999985 0)"/>
     <use xlink:href="#IosevkaTermNF-31" transform="translate(99.999969 0)"/>
     <use xlink:href="#IosevkaTermNF-73" transform="translate(149.999954 0)"/>
    </g>
   </g>
   <g id="text_34">
    <!-- 751s -->
    <g style="fill: #0d47a1" transform="translate(524.585455 53.665229) scale(0.09 -0.09)">
     <use xlink:href="#IosevkaTermNF-37"/>
     <use xlink:href="#IosevkaTermNF-35" transform="translate(49.999985 0)"/>
     <use xlink:href="#IosevkaTermNF-31" transform="translate(99.999969 0)"/>
     <use xlink:href="#IosevkaTermNF-73" transform="translate(149.999954 0)"/>
    </g>
   </g>
   <g id="legend_1">
    <g id="line2d_43">
     <path d="M 52.57125 34.479 
L 60.57125 34.479 
L 68.57125 34.479 
" style="fill: none; stroke-dasharray: 1,1.65; stroke-dashoffset: 0; stroke: #22c55e"/>
    </g>
    <g id="text_35">
     <!-- ideal (constant) -->
     <g style="fill: #838383" transform="translate(74.97125 37.279) scale(0.08 -0.08)">
      <defs>
       <path id="IosevkaTermNF-69" d="M 480 0 
L 480 448 
L 1395 448 
L 1395 2880 
L 570 2880 
L 570 3328 
L 1894 3328 
L 1894 448 
L 2720 448 
L 2720 0 
L 480 0 
z
M 1600 3891 
Q 1517 3891 1440 3913 
Q 1363 3936 1305 3993 
Q 1248 4051 1225 4128 
Q 1203 4205 1203 4288 
Q 1203 4371 1225 4448 
Q 1248 4525 1305 4582 
Q 1363 4640 1440 4665 
Q 1517 4691 1600 4691 
Q 1683 4691 1760 4665 
Q 1837 4640 1894 4582 
Q 1952 4525 1977 4448 
Q 2003 4371 2003 4288 
Q 2003 4205 1977 4128 
Q 1952 4051 1894 3993 
Q 1837 3936 1760 3913 
Q 1683 3891 1600 3891 
z
" transform="scale(0.015625)"/>
      </defs>
      <use xlink:href="#IosevkaTermNF-69"/>
      <use xlink:href="#IosevkaTermNF-64" transform="translate(49.999985 0)"/>
      <use xlink:href="#IosevkaTermNF-65" transform="translate(99.999969 0)"/>
      <use xlink:href="#IosevkaTermNF-61" transform="translate(149.999954 0)"/>
      <use xlink:href="#IosevkaTermNF-6c" transform="translate(199.999939 0)"/>
      <use xlink:href="#IosevkaTermNF-20" transform="translate(249.999924 0)"/>
      <use xlink:href="#IosevkaTermNF-28" transform="translate(299.999908 0)"/>
      <use xlink:href="#IosevkaTermNF-63" transform="translate(349.999893 0)"/>
      <use xlink:href="#IosevkaTermNF-6f" transform="translate(399.999878 0)"/>
      <use xlink:href="#IosevkaTermNF-6e" transform="translate(449.999863 0)"/>
      <use xlink:href="#IosevkaTermNF-73" transform="translate(499.999847 0)"/>
      <use xlink:href="#IosevkaTermNF-74" transform="translate(549.999832 0)"/>
      <use xlink:href="#IosevkaTermNF-61" transform="translate(599.999817 0)"/>
      <use xlink:href="#IosevkaTermNF-6e" transform="translate(649.999802 0)"/>
      <use xlink:href="#IosevkaTermNF-74" transform="translate(699.999786 0)"/>
      <use xlink:href="#IosevkaTermNF-29" transform="translate(749.999771 0)"/>
     </g>
    </g>
    <g id="line2d_44">
     <path d="M 52.57125 46.494 
L 60.57125 46.494 
L 68.57125 46.494 
" style="fill: none; stroke-dasharray: 1,1.65; stroke-dashoffset: 0; stroke: #94a3b8; stroke-opacity: 0.7"/>
    </g>
    <g id="text_36">
     <!-- linear (~N) -->
     <g style="fill: #838383" transform="translate(74.97125 49.294) scale(0.08 -0.08)">
      <defs>
       <path id="IosevkaTermNF-7e" d="M 2067 1184 
Q 2016 1184 1971 1190 
Q 1926 1197 1888 1213 
Q 1850 1229 1811 1251 
Q 1773 1274 1737 1302 
Q 1702 1331 1673 1360 
Q 1645 1389 1616 1424 
Q 1587 1459 1561 1497 
Q 1536 1536 1513 1571 
Q 1491 1606 1468 1644 
Q 1446 1683 1424 1721 
Q 1402 1760 1379 1801 
Q 1357 1843 1331 1884 
Q 1306 1926 1280 1964 
Q 1254 2003 1232 2035 
Q 1210 2067 1184 2102 
Q 1158 2138 1133 2157 
Q 1114 2138 1098 2118 
Q 1082 2099 1056 2067 
Q 1030 2035 1014 2012 
Q 998 1990 988 1971 
Q 979 1952 966 1929 
Q 954 1907 941 1884 
Q 928 1862 915 1836 
Q 902 1811 889 1782 
Q 877 1754 861 1725 
Q 845 1696 832 1664 
Q 819 1632 803 1597 
Q 787 1562 771 1526 
Q 755 1491 739 1452 
Q 723 1414 707 1372 
Q 691 1331 675 1289 
Q 659 1248 640 1203 
L 179 1357 
Q 205 1434 230 1501 
Q 256 1568 285 1632 
Q 314 1696 339 1757 
Q 365 1818 387 1872 
Q 410 1926 435 1974 
Q 461 2022 486 2067 
Q 512 2112 534 2153 
Q 557 2195 582 2233 
Q 608 2272 646 2323 
Q 685 2374 726 2416 
Q 768 2458 809 2493 
Q 851 2528 905 2557 
Q 960 2586 1017 2602 
Q 1075 2618 1133 2618 
Q 1229 2618 1312 2586 
Q 1395 2554 1462 2496 
Q 1530 2438 1584 2371 
Q 1638 2304 1686 2230 
Q 1734 2157 1776 2080 
Q 1818 2003 1869 1916 
Q 1920 1830 1965 1763 
Q 2010 1696 2067 1645 
Q 2086 1664 2102 1680 
Q 2118 1696 2144 1728 
Q 2170 1760 2186 1785 
Q 2202 1811 2211 1830 
Q 2221 1850 2233 1872 
Q 2246 1894 2259 1916 
Q 2272 1939 2285 1964 
Q 2298 1990 2310 2016 
Q 2323 2042 2339 2074 
Q 2355 2106 2368 2138 
Q 2381 2170 2397 2202 
Q 2413 2234 2429 2269 
Q 2445 2304 2461 2342 
Q 2477 2381 2493 2422 
Q 2509 2464 2525 2509 
Q 2541 2554 2560 2598 
L 3021 2438 
Q 2995 2368 2969 2297 
Q 2944 2227 2915 2163 
Q 2886 2099 2860 2041 
Q 2835 1984 2812 1929 
Q 2790 1875 2764 1824 
Q 2739 1773 2713 1728 
Q 2688 1683 2665 1644 
Q 2643 1606 2617 1568 
Q 2592 1530 2553 1478 
Q 2515 1427 2473 1382 
Q 2432 1338 2390 1302 
Q 2349 1267 2294 1241 
Q 2240 1216 2182 1200 
Q 2125 1184 2067 1184 
z
" transform="scale(0.015625)"/>
       <path id="IosevkaTermNF-4e" d="M 410 0 
L 410 4704 
L 1024 4704 
Q 1357 3731 1686 2761 
Q 2016 1792 2349 819 
Q 2349 883 2345 940 
Q 2342 998 2342 1056 
L 2310 1766 
Q 2304 2029 2297 2294 
Q 2291 2560 2291 2822 
L 2291 4704 
L 2790 4704 
L 2790 0 
L 2176 0 
L 851 3885 
Q 851 3821 854 3763 
Q 858 3706 858 3648 
L 890 2938 
Q 896 2675 902 2409 
Q 909 2144 909 1882 
L 909 0 
L 410 0 
z
" transform="scale(0.015625)"/>
      </defs>
      <use xlink:href="#IosevkaTermNF-6c"/>
      <use xlink:href="#IosevkaTermNF-69" transform="translate(49.999985 0)"/>
      <use xlink:href="#IosevkaTermNF-6e" transform="translate(99.999969 0)"/>
      <use xlink:href="#IosevkaTermNF-65" transform="translate(149.999954 0)"/>
      <use xlink:href="#IosevkaTermNF-61" transform="translate(199.999939 0)"/>
      <use xlink:href="#IosevkaTermNF-72" transform="translate(249.999924 0)"/>
      <use xlink:href="#IosevkaTermNF-20" transform="translate(299.999908 0)"/>
      <use xlink:href="#IosevkaTermNF-28" transform="translate(349.999893 0)"/>
      <use xlink:href="#IosevkaTermNF-7e" transform="translate(399.999878 0)"/>
      <use xlink:href="#IosevkaTermNF-4e" transform="translate(449.999863 0)"/>
      <use xlink:href="#IosevkaTermNF-29" transform="translate(499.999847 0)"/>
     </g>
    </g>
    <g id="line2d_45">
     <path d="M 52.57125 58.094 
L 60.57125 58.094 
L 68.57125 58.094 
" style="fill: none; stroke: #2196f3; stroke-width: 1.8; stroke-linecap: round"/>
     <g>
      <use xlink:href="#m7178d85e7d" x="60.57125" y="58.094" style="fill: #2196f3; stroke: #0d47a1"/>
     </g>
    </g>
    <g id="text_37">
     <!-- measured -->
     <g style="fill: #838383" transform="translate(74.97125 60.894) scale(0.08 -0.08)">
      <defs>
       <path id="IosevkaTermNF-6d" d="M 307 0 
L 307 3328 
L 806 3328 
L 806 3059 
Q 838 3130 883 3190 
Q 928 3251 989 3296 
Q 1050 3341 1123 3360 
Q 1197 3379 1274 3379 
Q 1370 3379 1459 3347 
Q 1549 3315 1616 3251 
Q 1683 3187 1728 3104 
Q 1773 3021 1798 2925 
Q 1824 3014 1869 3100 
Q 1914 3187 1978 3251 
Q 2042 3315 2131 3347 
Q 2221 3379 2317 3379 
Q 2413 3379 2505 3344 
Q 2598 3309 2668 3241 
Q 2739 3174 2780 3084 
Q 2822 2995 2848 2902 
Q 2874 2810 2883 2714 
Q 2893 2618 2893 2522 
L 2893 0 
L 2394 0 
L 2394 2522 
Q 2394 2592 2384 2659 
Q 2374 2726 2342 2790 
Q 2310 2854 2249 2892 
Q 2189 2931 2118 2931 
Q 2054 2931 1993 2892 
Q 1933 2854 1901 2790 
Q 1869 2726 1859 2659 
Q 1850 2592 1850 2522 
L 1850 0 
L 1350 0 
L 1350 2522 
Q 1350 2592 1340 2659 
Q 1331 2726 1299 2790 
Q 1267 2854 1206 2892 
Q 1146 2931 1082 2931 
Q 1011 2931 950 2892 
Q 890 2854 858 2790 
Q 826 2726 816 2659 
Q 806 2592 806 2522 
L 806 0 
L 307 0 
z
" transform="scale(0.015625)"/>
      </defs>
      <use xlink:href="#IosevkaTermNF-6d"/>
      <use xlink:href="#IosevkaTermNF-65" transform="translate(49.999985 0)"/>
      <use xlink:href="#IosevkaTermNF-61" transform="translate(99.999969 0)"/>
      <use xlink:href="#IosevkaTermNF-73" transform="translate(149.999954 0)"/>
      <use xlink:href="#IosevkaTermNF-75" transform="translate(199.999939 0)"/>
      <use xlink:href="#IosevkaTermNF-72" transform="translate(249.999924 0)"/>
      <use xlink:href="#IosevkaTermNF-65" transform="translate(299.999908 0)"/>
      <use xlink:href="#IosevkaTermNF-64" transform="translate(349.999893 0)"/>
     </g>
    </g>
   </g>
  </g>
 </g>
 <defs>
  <clipPath id="p7854e435ac">
   <rect x="45.37125" y="23.784" width="511.4625" height="248.3325"/>
  </clipPath>
 </defs>
</svg>
