<?xml version="1.0" encoding="utf-8" standalone="no"?>
<!DOCTYPE svg PUBLIC "-//W3C//DTD SVG 1.1//EN"
  "http://www.w3.org/Graphics/SVG/1.1/DTD/svg11.dtd">
<svg xmlns:xlink="http://www.w3.org/1999/xlink" width="850.705336pt" height="351.4695pt" viewBox="0 0 850.705336 351.4695" xmlns="http://www.w3.org/2000/svg" version="1.1">
 <metadata>
  <rdf:RDF xmlns:dc="http://purl.org/dc/elements/1.1/" xmlns:cc="http://creativecommons.org/ns#" xmlns:rdf="http://www.w3.org/1999/02/22-rdf-syntax-ns#">
   <cc:Work>
    <dc:type rdf:resource="http://purl.org/dc/dcmitype/StillImage"/>
    <dc:date>2026-05-01T15:43:21.617659</dc:date>
    <dc:format>image/svg+xml</dc:format>
    <dc:creator>
     <cc:Agent>
      <dc:title>Matplotlib v3.10.8, https://matplotlib.org/</dc:title>
     </cc:Agent>
    </dc:creator>
   </cc:Work>
  </rdf:RDF>
 </metadata>
 <defs>
  <style type="text/css">*{stroke-linejoin: round; stroke-linecap: butt}</style>
 </defs>
 <g id="figure_1">
  <g id="patch_1">
   <path d="M 0 351.4695 
L 850.705336 351.4695 
L 850.705336 0 
L 0 0 
L 0 351.4695 
z
" style="fill: none"/>
  </g>
  <g id="axes_1">
   <g id="patch_2">
    <path d="M 48.050625 313.332 
L 414.385336 313.332 
L 414.385336 69.792 
L 48.050625 69.792 
L 48.050625 313.332 
z
" style="fill: none"/>
   </g>
   <g id="matplotlib.axis_1">
    <g id="xtick_1">
     <g id="line2d_1">
      <path d="M 64.702203 313.332 
L 64.702203 69.792 
" clip-path="url(#pe4dd169fc0)" style="fill: none; stroke-dasharray: 1.48,0.64; stroke-dashoffset: 0; stroke: #838383; stroke-opacity: 0.25; stroke-width: 0.4"/>
     </g>
     <g id="line2d_2"/>
     <g id="text_1">
      <!-- 8 -->
      <g style="fill: #838383" transform="translate(61.090015 326.013875) scale(0.12 -0.12)">
       <defs>
        <path id="DejaVuSansMono-38" d="M 1925 2216 
Q 1503 2216 1273 1980 
Q 1044 1744 1044 1313 
Q 1044 881 1276 642 
Q 1509 403 1925 403 
Q 2350 403 2579 639 
Q 2809 875 2809 1313 
Q 2809 1741 2576 1978 
Q 2344 2216 1925 2216 
z
M 1375 2478 
Q 972 2581 745 2862 
Q 519 3144 519 3541 
Q 519 4097 897 4423 
Q 1275 4750 1925 4750 
Q 2578 4750 2956 4423 
Q 3334 4097 3334 3541 
Q 3334 3144 3107 2862 
Q 2881 2581 2478 2478 
Q 2947 2375 3195 2062 
Q 3444 1750 3444 1253 
Q 3444 622 3041 265 
Q 2638 -91 1925 -91 
Q 1213 -91 811 264 
Q 409 619 409 1247 
Q 409 1747 657 2061 
Q 906 2375 1375 2478 
z
M 1147 3481 
Q 1147 3106 1347 2909 
Q 1547 2713 1925 2713 
Q 2306 2713 2506 2909 
Q 2706 3106 2706 3481 
Q 2706 3863 2507 4063 
Q 2309 4263 1925 4263 
Q 1547 4263 1347 4061 
Q 1147 3859 1147 3481 
z
" transform="scale(0.015625)"/>
       </defs>
       <use xlink:href="#DejaVuSansMono-38"/>
      </g>
     </g>
    </g>
    <g id="xtick_2">
     <g id="line2d_3">
      <path d="M 101.705709 313.332 
L 101.705709 69.792 
" clip-path="url(#pe4dd169fc0)" style="fill: none; stroke-dasharray: 1.48,0.64; stroke-dashoffset: 0; stroke: #838383; stroke-opacity: 0.25; stroke-width: 0.4"/>
     </g>
     <g id="line2d_4"/>
     <g id="text_2">
      <!-- 16 -->
      <g style="fill: #838383" transform="translate(94.481334 326.013875) scale(0.12 -0.12)">
       <defs>
        <path id="DejaVuSansMono-31" d="M 844 531 
L 1825 531 
L 1825 4097 
L 769 3859 
L 769 4434 
L 1819 4666 
L 2450 4666 
L 2450 531 
L 3419 531 
L 3419 0 
L 844 0 
L 844 531 
z
" transform="scale(0.015625)"/>
        <path id="DejaVuSansMono-36" d="M 3097 4563 
L 3097 3981 
Q 2900 4097 2678 4158 
Q 2456 4219 2216 4219 
Q 1616 4219 1306 3767 
Q 997 3316 997 2438 
Q 1147 2750 1412 2917 
Q 1678 3084 2022 3084 
Q 2697 3084 3067 2670 
Q 3438 2256 3438 1497 
Q 3438 741 3056 325 
Q 2675 -91 1984 -91 
Q 1172 -91 794 492 
Q 416 1075 416 2328 
Q 416 3509 870 4129 
Q 1325 4750 2188 4750 
Q 2419 4750 2650 4701 
Q 2881 4653 3097 4563 
z
M 1972 2591 
Q 1569 2591 1337 2300 
Q 1106 2009 1106 1497 
Q 1106 984 1337 693 
Q 1569 403 1972 403 
Q 2391 403 2603 679 
Q 2816 956 2816 1497 
Q 2816 2041 2603 2316 
Q 2391 2591 1972 2591 
z
" transform="scale(0.015625)"/>
       </defs>
       <use xlink:href="#DejaVuSansMono-31"/>
       <use xlink:href="#DejaVuSansMono-36" transform="translate(60.205078 0)"/>
      </g>
     </g>
    </g>
    <g id="xtick_3">
     <g id="line2d_5">
      <path d="M 138.709215 313.332 
L 138.709215 69.792 
" clip-path="url(#pe4dd169fc0)" style="fill: none; stroke-dasharray: 1.48,0.64; stroke-dashoffset: 0; stroke: #838383; stroke-opacity: 0.25; stroke-width: 0.4"/>
     </g>
     <g id="line2d_6"/>
     <g id="text_3">
      <!-- 32 -->
      <g style="fill: #838383" transform="translate(131.48484 326.013875) scale(0.12 -0.12)">
       <defs>
        <path id="DejaVuSansMono-33" d="M 2425 2497 
Q 2884 2375 3128 2064 
Q 3372 1753 3372 1288 
Q 3372 644 2939 276 
Q 2506 -91 1741 -91 
Q 1419 -91 1084 -31 
Q 750 28 428 141 
L 428 769 
Q 747 603 1056 522 
Q 1366 441 1672 441 
Q 2191 441 2469 675 
Q 2747 909 2747 1350 
Q 2747 1756 2469 1995 
Q 2191 2234 1716 2234 
L 1234 2234 
L 1234 2753 
L 1716 2753 
Q 2150 2753 2394 2943 
Q 2638 3134 2638 3475 
Q 2638 3834 2411 4026 
Q 2184 4219 1766 4219 
Q 1488 4219 1191 4156 
Q 894 4094 569 3969 
L 569 4550 
Q 947 4650 1242 4700 
Q 1538 4750 1766 4750 
Q 2447 4750 2855 4408 
Q 3263 4066 3263 3500 
Q 3263 3116 3048 2859 
Q 2834 2603 2425 2497 
z
" transform="scale(0.015625)"/>
        <path id="DejaVuSansMono-32" d="M 1166 531 
L 3309 531 
L 3309 0 
L 475 0 
L 475 531 
Q 1059 1147 1496 1619 
Q 1934 2091 2100 2284 
Q 2413 2666 2522 2902 
Q 2631 3138 2631 3384 
Q 2631 3775 2401 3997 
Q 2172 4219 1772 4219 
Q 1488 4219 1175 4116 
Q 863 4013 513 3803 
L 513 4441 
Q 834 4594 1145 4672 
Q 1456 4750 1759 4750 
Q 2444 4750 2861 4386 
Q 3278 4022 3278 3431 
Q 3278 3131 3139 2831 
Q 3000 2531 2688 2169 
Q 2513 1966 2180 1606 
Q 1847 1247 1166 531 
z
" transform="scale(0.015625)"/>
       </defs>
       <use xlink:href="#DejaVuSansMono-33"/>
       <use xlink:href="#DejaVuSansMono-32" transform="translate(60.205078 0)"/>
      </g>
     </g>
    </g>
    <g id="xtick_4">
     <g id="line2d_7">
      <path d="M 175.712721 313.332 
L 175.712721 69.792 
" clip-path="url(#pe4dd169fc0)" style="fill: none; stroke-dasharray: 1.48,0.64; stroke-dashoffset: 0; stroke: #838383; stroke-opacity: 0.25; stroke-width: 0.4"/>
     </g>
     <g id="line2d_8"/>
     <g id="text_4">
      <!-- 64 -->
      <g style="fill: #838383" transform="translate(168.488346 326.013875) scale(0.12 -0.12)">
       <defs>
        <path id="DejaVuSansMono-34" d="M 2297 4091 
L 825 1625 
L 2297 1625 
L 2297 4091 
z
M 2194 4666 
L 2925 4666 
L 2925 1625 
L 3547 1625 
L 3547 1113 
L 2925 1113 
L 2925 0 
L 2297 0 
L 2297 1113 
L 319 1113 
L 319 1709 
L 2194 4666 
z
" transform="scale(0.015625)"/>
       </defs>
       <use xlink:href="#DejaVuSansMono-36"/>
       <use xlink:href="#DejaVuSansMono-34" transform="translate(60.205078 0)"/>
      </g>
     </g>
    </g>
    <g id="xtick_5">
     <g id="line2d_9">
      <path d="M 212.716227 313.332 
L 212.716227 69.792 
" clip-path="url(#pe4dd169fc0)" style="fill: none; stroke-dasharray: 1.48,0.64; stroke-dashoffset: 0; stroke: #838383; stroke-opacity: 0.25; stroke-width: 0.4"/>
     </g>
     <g id="line2d_10"/>
     <g id="text_5">
      <!-- 128 -->
      <g style="fill: #838383" transform="translate(201.879665 326.013875) scale(0.12 -0.12)">
       <use xlink:href="#DejaVuSansMono-31"/>
       <use xlink:href="#DejaVuSansMono-32" transform="translate(60.205078 0)"/>
       <use xlink:href="#DejaVuSansMono-38" transform="translate(120.410156 0)"/>
      </g>
     </g>
    </g>
    <g id="xtick_6">
     <g id="line2d_11">
      <path d="M 249.719733 313.332 
L 249.719733 69.792 
" clip-path="url(#pe4dd169fc0)" style="fill: none; stroke-dasharray: 1.48,0.64; stroke-dashoffset: 0; stroke: #838383; stroke-opacity: 0.25; stroke-width: 0.4"/>
     </g>
     <g id="line2d_12"/>
     <g id="text_6">
      <!-- 256 -->
      <g style="fill: #838383" transform="translate(238.883171 326.013875) scale(0.12 -0.12)">
       <defs>
        <path id="DejaVuSansMono-35" d="M 647 4666 
L 3009 4666 
L 3009 4134 
L 1222 4134 
L 1222 2988 
Q 1356 3038 1492 3061 
Q 1628 3084 1766 3084 
Q 2491 3084 2916 2656 
Q 3341 2228 3341 1497 
Q 3341 759 2895 334 
Q 2450 -91 1678 -91 
Q 1306 -91 998 -41 
Q 691 9 447 109 
L 447 750 
Q 734 594 1025 517 
Q 1316 441 1619 441 
Q 2141 441 2423 716 
Q 2706 991 2706 1497 
Q 2706 1997 2414 2275 
Q 2122 2553 1600 2553 
Q 1347 2553 1106 2495 
Q 866 2438 647 2322 
L 647 4666 
z
" transform="scale(0.015625)"/>
       </defs>
       <use xlink:href="#DejaVuSansMono-32"/>
       <use xlink:href="#DejaVuSansMono-35" transform="translate(60.205078 0)"/>
       <use xlink:href="#DejaVuSansMono-36" transform="translate(120.410156 0)"/>
      </g>
     </g>
    </g>
    <g id="xtick_7">
     <g id="line2d_13">
      <path d="M 286.72324 313.332 
L 286.72324 69.792 
" clip-path="url(#pe4dd169fc0)" style="fill: none; stroke-dasharray: 1.48,0.64; stroke-dashoffset: 0; stroke: #838383; stroke-opacity: 0.25; stroke-width: 0.4"/>
     </g>
     <g id="line2d_14"/>
     <g id="text_7">
      <!-- 512 -->
      <g style="fill: #838383" transform="translate(275.886677 326.013875) scale(0.12 -0.12)">
       <use xlink:href="#DejaVuSansMono-35"/>
       <use xlink:href="#DejaVuSansMono-31" transform="translate(60.205078 0)"/>
       <use xlink:href="#DejaVuSansMono-32" transform="translate(120.410156 0)"/>
      </g>
     </g>
    </g>
    <g id="xtick_8">
     <g id="line2d_15">
      <path d="M 323.726746 313.332 
L 323.726746 69.792 
" clip-path="url(#pe4dd169fc0)" style="fill: none; stroke-dasharray: 1.48,0.64; stroke-dashoffset: 0; stroke: #838383; stroke-opacity: 0.25; stroke-width: 0.4"/>
     </g>
     <g id="line2d_16"/>
     <g id="text_8">
      <!-- 1024 -->
      <g style="fill: #838383" transform="translate(309.277996 326.013875) scale(0.12 -0.12)">
       <defs>
        <path id="DejaVuSansMono-30" d="M 1509 2344 
Q 1509 2516 1629 2641 
Q 1750 2766 1919 2766 
Q 2094 2766 2219 2641 
Q 2344 2516 2344 2344 
Q 2344 2169 2220 2047 
Q 2097 1925 1919 1925 
Q 1744 1925 1626 2044 
Q 1509 2163 1509 2344 
z
M 1925 4250 
Q 1484 4250 1267 3775 
Q 1050 3300 1050 2328 
Q 1050 1359 1267 884 
Q 1484 409 1925 409 
Q 2369 409 2586 884 
Q 2803 1359 2803 2328 
Q 2803 3300 2586 3775 
Q 2369 4250 1925 4250 
z
M 1925 4750 
Q 2672 4750 3055 4137 
Q 3438 3525 3438 2328 
Q 3438 1134 3055 521 
Q 2672 -91 1925 -91 
Q 1178 -91 797 521 
Q 416 1134 416 2328 
Q 416 3525 797 4137 
Q 1178 4750 1925 4750 
z
" transform="scale(0.015625)"/>
       </defs>
       <use xlink:href="#DejaVuSansMono-31"/>
       <use xlink:href="#DejaVuSansMono-30" transform="translate(60.205078 0)"/>
       <use xlink:href="#DejaVuSansMono-32" transform="translate(120.410156 0)"/>
       <use xlink:href="#DejaVuSansMono-34" transform="translate(180.615234 0)"/>
      </g>
     </g>
    </g>
    <g id="xtick_9">
     <g id="line2d_17">
      <path d="M 360.730252 313.332 
L 360.730252 69.792 
" clip-path="url(#pe4dd169fc0)" style="fill: none; stroke-dasharray: 1.48,0.64; stroke-dashoffset: 0; stroke: #838383; stroke-opacity: 0.25; stroke-width: 0.4"/>
     </g>
     <g id="line2d_18"/>
     <g id="text_9">
      <!-- 2048 -->
      <g style="fill: #838383" transform="translate(346.281502 326.013875) scale(0.12 -0.12)">
       <use xlink:href="#DejaVuSansMono-32"/>
       <use xlink:href="#DejaVuSansMono-30" transform="translate(60.205078 0)"/>
       <use xlink:href="#DejaVuSansMono-34" transform="translate(120.410156 0)"/>
       <use xlink:href="#DejaVuSansMono-38" transform="translate(180.615234 0)"/>
      </g>
     </g>
    </g>
    <g id="xtick_10">
     <g id="line2d_19">
      <path d="M 397.733758 313.332 
L 397.733758 69.792 
" clip-path="url(#pe4dd169fc0)" style="fill: none; stroke-dasharray: 1.48,0.64; stroke-dashoffset: 0; stroke: #838383; stroke-opacity: 0.25; stroke-width: 0.4"/>
     </g>
     <g id="line2d_20"/>
     <g id="text_10">
      <!-- 4096 -->
      <g style="fill: #838383" transform="translate(383.285008 326.013875) scale(0.12 -0.12)">
       <defs>
        <path id="DejaVuSansMono-39" d="M 1863 2069 
Q 2266 2069 2495 2359 
Q 2725 2650 2725 3163 
Q 2725 3675 2495 3965 
Q 2266 4256 1863 4256 
Q 1444 4256 1231 3979 
Q 1019 3703 1019 3163 
Q 1019 2619 1230 2344 
Q 1441 2069 1863 2069 
z
M 738 97 
L 738 678 
Q 934 563 1156 502 
Q 1378 441 1619 441 
Q 2219 441 2526 892 
Q 2834 1344 2834 2222 
Q 2688 1909 2422 1742 
Q 2156 1575 1813 1575 
Q 1138 1575 767 1990 
Q 397 2406 397 3169 
Q 397 3922 776 4336 
Q 1156 4750 1850 4750 
Q 2663 4750 3041 4165 
Q 3419 3581 3419 2328 
Q 3419 1150 2964 529 
Q 2509 -91 1644 -91 
Q 1416 -91 1184 -42 
Q 953 6 738 97 
z
" transform="scale(0.015625)"/>
       </defs>
       <use xlink:href="#DejaVuSansMono-34"/>
       <use xlink:href="#DejaVuSansMono-30" transform="translate(60.205078 0)"/>
       <use xlink:href="#DejaVuSansMono-39" transform="translate(120.410156 0)"/>
       <use xlink:href="#DejaVuSansMono-36" transform="translate(180.615234 0)"/>
      </g>
     </g>
    </g>
    <g id="text_11">
     <!-- Number of nodes (log₂) -->
     <g style="fill: #838383" transform="translate(151.749855 341.691375) scale(0.12 -0.12)">
      <defs>
       <path id="DejaVuSansMono-4e" d="M 434 4666 
L 1234 4666 
L 2809 825 
L 2809 4666 
L 3419 4666 
L 3419 0 
L 2619 0 
L 1044 3841 
L 1044 0 
L 434 0 
L 434 4666 
z
" transform="scale(0.015625)"/>
       <path id="DejaVuSansMono-75" d="M 609 1325 
L 609 3494 
L 1184 3494 
L 1184 1325 
Q 1184 853 1351 631 
Q 1519 409 1869 409 
Q 2275 409 2490 695 
Q 2706 981 2706 1516 
L 2706 3494 
L 3284 3494 
L 3284 0 
L 2706 0 
L 2706 525 
Q 2553 222 2289 65 
Q 2025 -91 1672 -91 
Q 1134 -91 871 261 
Q 609 613 609 1325 
z
" transform="scale(0.015625)"/>
       <path id="DejaVuSansMono-6d" d="M 2113 3144 
Q 2219 3369 2383 3476 
Q 2547 3584 2778 3584 
Q 3200 3584 3373 3257 
Q 3547 2931 3547 2028 
L 3547 0 
L 3022 0 
L 3022 2003 
Q 3022 2744 2939 2923 
Q 2856 3103 2638 3103 
Q 2388 3103 2295 2911 
Q 2203 2719 2203 2003 
L 2203 0 
L 1678 0 
L 1678 2003 
Q 1678 2753 1589 2928 
Q 1500 3103 1269 3103 
Q 1041 3103 952 2911 
Q 863 2719 863 2003 
L 863 0 
L 341 0 
L 341 3500 
L 863 3500 
L 863 3200 
Q 966 3388 1120 3486 
Q 1275 3584 1472 3584 
Q 1709 3584 1867 3475 
Q 2025 3366 2113 3144 
z
" transform="scale(0.015625)"/>
       <path id="DejaVuSansMono-62" d="M 2869 1747 
Q 2869 2416 2656 2756 
Q 2444 3097 2028 3097 
Q 1609 3097 1393 2755 
Q 1178 2413 1178 1747 
Q 1178 1084 1393 740 
Q 1609 397 2028 397 
Q 2444 397 2656 737 
Q 2869 1078 2869 1747 
z
M 1178 3053 
Q 1316 3309 1558 3446 
Q 1800 3584 2119 3584 
Q 2750 3584 3112 3098 
Q 3475 2613 3475 1759 
Q 3475 894 3111 401 
Q 2747 -91 2113 -91 
Q 1800 -91 1561 45 
Q 1322 181 1178 441 
L 1178 0 
L 603 0 
L 603 4863 
L 1178 4863 
L 1178 3053 
z
" transform="scale(0.015625)"/>
       <path id="DejaVuSansMono-65" d="M 3475 1894 
L 3475 1613 
L 984 1613 
L 984 1594 
Q 984 1022 1282 709 
Q 1581 397 2125 397 
Q 2400 397 2700 484 
Q 3000 572 3341 750 
L 3341 178 
Q 3013 44 2708 -23 
Q 2403 -91 2119 -91 
Q 1303 -91 843 398 
Q 384 888 384 1747 
Q 384 2584 834 3084 
Q 1284 3584 2034 3584 
Q 2703 3584 3089 3131 
Q 3475 2678 3475 1894 
z
M 2900 2063 
Q 2888 2569 2661 2833 
Q 2434 3097 2009 3097 
Q 1594 3097 1325 2822 
Q 1056 2547 1006 2059 
L 2900 2063 
z
" transform="scale(0.015625)"/>
       <path id="DejaVuSansMono-72" d="M 3609 2778 
Q 3425 2922 3234 2987 
Q 3044 3053 2816 3053 
Q 2278 3053 1993 2715 
Q 1709 2378 1709 1741 
L 1709 0 
L 1131 0 
L 1131 3500 
L 1709 3500 
L 1709 2816 
Q 1853 3188 2151 3386 
Q 2450 3584 2859 3584 
Q 3072 3584 3256 3531 
Q 3441 3478 3609 3366 
L 3609 2778 
z
" transform="scale(0.015625)"/>
       <path id="DejaVuSansMono-20" transform="scale(0.015625)"/>
       <path id="DejaVuSansMono-6f" d="M 1925 3097 
Q 1488 3097 1263 2756 
Q 1038 2416 1038 1747 
Q 1038 1081 1263 739 
Q 1488 397 1925 397 
Q 2366 397 2591 739 
Q 2816 1081 2816 1747 
Q 2816 2416 2591 2756 
Q 2366 3097 1925 3097 
z
M 1925 3584 
Q 2653 3584 3039 3112 
Q 3425 2641 3425 1747 
Q 3425 850 3040 379 
Q 2656 -91 1925 -91 
Q 1197 -91 812 379 
Q 428 850 428 1747 
Q 428 2641 812 3112 
Q 1197 3584 1925 3584 
z
" transform="scale(0.015625)"/>
       <path id="DejaVuSansMono-66" d="M 3322 4863 
L 3322 4384 
L 2669 4384 
Q 2359 4384 2239 4257 
Q 2119 4131 2119 3809 
L 2119 3500 
L 3322 3500 
L 3322 3053 
L 2119 3053 
L 2119 0 
L 1544 0 
L 1544 3053 
L 609 3053 
L 609 3500 
L 1544 3500 
L 1544 3744 
Q 1544 4319 1808 4591 
Q 2072 4863 2631 4863 
L 3322 4863 
z
" transform="scale(0.015625)"/>
       <path id="DejaVuSansMono-6e" d="M 3284 2169 
L 3284 0 
L 2706 0 
L 2706 2169 
Q 2706 2641 2540 2862 
Q 2375 3084 2022 3084 
Q 1619 3084 1401 2798 
Q 1184 2513 1184 1978 
L 1184 0 
L 609 0 
L 609 3500 
L 1184 3500 
L 1184 2975 
Q 1338 3275 1600 3429 
Q 1863 3584 2222 3584 
Q 2756 3584 3020 3232 
Q 3284 2881 3284 2169 
z
" transform="scale(0.015625)"/>
       <path id="DejaVuSansMono-64" d="M 2681 3053 
L 2681 4863 
L 3256 4863 
L 3256 0 
L 2681 0 
L 2681 441 
Q 2538 181 2298 45 
Q 2059 -91 1747 -91 
Q 1113 -91 748 401 
Q 384 894 384 1759 
Q 384 2613 750 3098 
Q 1116 3584 1747 3584 
Q 2063 3584 2303 3448 
Q 2544 3313 2681 3053 
z
M 991 1747 
Q 991 1078 1203 737 
Q 1416 397 1831 397 
Q 2247 397 2464 740 
Q 2681 1084 2681 1747 
Q 2681 2413 2464 2755 
Q 2247 3097 1831 3097 
Q 1416 3097 1203 2756 
Q 991 2416 991 1747 
z
" transform="scale(0.015625)"/>
       <path id="DejaVuSansMono-73" d="M 3041 3378 
L 3041 2816 
Q 2794 2959 2544 3031 
Q 2294 3103 2034 3103 
Q 1644 3103 1451 2976 
Q 1259 2850 1259 2591 
Q 1259 2356 1403 2240 
Q 1547 2125 2119 2016 
L 2350 1972 
Q 2778 1891 2998 1647 
Q 3219 1403 3219 1013 
Q 3219 494 2850 201 
Q 2481 -91 1825 -91 
Q 1566 -91 1281 -36 
Q 997 19 666 128 
L 666 722 
Q 988 556 1281 473 
Q 1575 391 1838 391 
Q 2219 391 2428 545 
Q 2638 700 2638 978 
Q 2638 1378 1872 1531 
L 1847 1538 
L 1631 1581 
Q 1134 1678 906 1908 
Q 678 2138 678 2534 
Q 678 3038 1018 3311 
Q 1359 3584 1991 3584 
Q 2272 3584 2531 3532 
Q 2791 3481 3041 3378 
z
" transform="scale(0.015625)"/>
       <path id="DejaVuSansMono-28" d="M 2766 4856 
Q 2350 4144 2145 3436 
Q 1941 2728 1941 2009 
Q 1941 1294 2145 584 
Q 2350 -125 2766 -844 
L 2266 -844 
Q 1794 -100 1562 604 
Q 1331 1309 1331 2009 
Q 1331 2706 1562 3412 
Q 1794 4119 2266 4856 
L 2766 4856 
z
" transform="scale(0.015625)"/>
       <path id="DejaVuSansMono-6c" d="M 1997 1269 
Q 1997 881 2139 684 
Q 2281 488 2559 488 
L 3231 488 
L 3231 0 
L 2503 0 
Q 1988 0 1705 331 
Q 1422 663 1422 1269 
L 1422 4447 
L 500 4447 
L 500 4897 
L 1997 4897 
L 1997 1269 
z
" transform="scale(0.015625)"/>
       <path id="DejaVuSansMono-67" d="M 2681 1778 
Q 2681 2425 2470 2761 
Q 2259 3097 1856 3097 
Q 1434 3097 1212 2761 
Q 991 2425 991 1778 
Q 991 1131 1214 792 
Q 1438 453 1863 453 
Q 2259 453 2470 793 
Q 2681 1134 2681 1778 
z
M 3256 225 
Q 3256 -563 2884 -969 
Q 2513 -1375 1791 -1375 
Q 1553 -1375 1293 -1331 
Q 1034 -1288 775 -1203 
L 775 -634 
Q 1081 -778 1331 -847 
Q 1581 -916 1791 -916 
Q 2256 -916 2468 -662 
Q 2681 -409 2681 141 
L 2681 166 
L 2681 556 
Q 2544 263 2306 119 
Q 2069 -25 1728 -25 
Q 1116 -25 750 465 
Q 384 956 384 1778 
Q 384 2603 750 3093 
Q 1116 3584 1728 3584 
Q 2066 3584 2300 3450 
Q 2534 3316 2681 3034 
L 2681 3488 
L 3256 3488 
L 3256 225 
z
" transform="scale(0.015625)"/>
       <path id="DejaVuSansMono-2082" d="M 1509 332 
L 2791 332 
L 2791 -24 
L 1006 -24 
L 1006 319 
L 1728 1026 
Q 2044 1329 2170 1519 
Q 2297 1710 2297 1869 
Q 2297 2060 2140 2178 
Q 1984 2297 1728 2297 
Q 1575 2297 1398 2241 
Q 1222 2185 1025 2072 
L 1025 2463 
Q 1228 2551 1417 2594 
Q 1606 2638 1791 2638 
Q 2234 2638 2503 2430 
Q 2772 2222 2772 1888 
Q 2772 1710 2656 1524 
Q 2541 1338 2169 972 
L 1509 332 
z
" transform="scale(0.015625)"/>
       <path id="DejaVuSansMono-29" d="M 1088 4856 
L 1588 4856 
Q 2059 4119 2290 3412 
Q 2522 2706 2522 2009 
Q 2522 1306 2290 600 
Q 2059 -106 1588 -844 
L 1088 -844 
Q 1503 -119 1708 590 
Q 1913 1300 1913 2009 
Q 1913 2722 1708 3431 
Q 1503 4141 1088 4856 
z
" transform="scale(0.015625)"/>
      </defs>
      <use xlink:href="#DejaVuSansMono-4e"/>
      <use xlink:href="#DejaVuSansMono-75" transform="translate(60.205078 0)"/>
      <use xlink:href="#DejaVuSansMono-6d" transform="translate(120.410156 0)"/>
      <use xlink:href="#DejaVuSansMono-62" transform="translate(180.615234 0)"/>
      <use xlink:href="#DejaVuSansMono-65" transform="translate(240.820312 0)"/>
      <use xlink:href="#DejaVuSansMono-72" transform="translate(301.025391 0)"/>
      <use xlink:href="#DejaVuSansMono-20" transform="translate(361.230469 0)"/>
      <use xlink:href="#DejaVuSansMono-6f" transform="translate(421.435547 0)"/>
      <use xlink:href="#DejaVuSansMono-66" transform="translate(481.640625 0)"/>
      <use xlink:href="#DejaVuSansMono-20" transform="translate(541.845703 0)"/>
      <use xlink:href="#DejaVuSansMono-6e" transform="translate(602.050781 0)"/>
      <use xlink:href="#DejaVuSansMono-6f" transform="translate(662.255859 0)"/>
      <use xlink:href="#DejaVuSansMono-64" transform="translate(722.460938 0)"/>
      <use xlink:href="#DejaVuSansMono-65" transform="translate(782.666016 0)"/>
      <use xlink:href="#DejaVuSansMono-73" transform="translate(842.871094 0)"/>
      <use xlink:href="#DejaVuSansMono-20" transform="translate(903.076172 0)"/>
      <use xlink:href="#DejaVuSansMono-28" transform="translate(963.28125 0)"/>
      <use xlink:href="#DejaVuSansMono-6c" transform="translate(1023.486328 0)"/>
      <use xlink:href="#DejaVuSansMono-6f" transform="translate(1083.691406 0)"/>
      <use xlink:href="#DejaVuSansMono-67" transform="translate(1143.896484 0)"/>
      <use xlink:href="#DejaVuSansMono-2082" transform="translate(1204.101562 0)"/>
      <use xlink:href="#DejaVuSansMono-29" transform="translate(1264.306641 0)"/>
     </g>
    </g>
   </g>
   <g id="matplotlib.axis_2">
    <g id="ytick_1">
     <g id="line2d_21">
      <path d="M 48.050625 313.332 
L 414.385336 313.332 
" clip-path="url(#pe4dd169fc0)" style="fill: none; stroke-dasharray: 1.48,0.64; stroke-dashoffset: 0; stroke: #838383; stroke-opacity: 0.25; stroke-width: 0.4"/>
     </g>
     <g id="line2d_22"/>
     <g id="text_12">
      <!-- 0 -->
      <g style="fill: #838383" transform="translate(37.32625 317.922937) scale(0.12 -0.12)">
       <use xlink:href="#DejaVuSansMono-30"/>
      </g>
     </g>
    </g>
    <g id="ytick_2">
     <g id="line2d_23">
      <path d="M 48.050625 282.29376 
L 414.385336 282.29376 
" clip-path="url(#pe4dd169fc0)" style="fill: none; stroke-dasharray: 1.48,0.64; stroke-dashoffset: 0; stroke: #838383; stroke-opacity: 0.25; stroke-width: 0.4"/>
     </g>
     <g id="line2d_24"/>
     <g id="text_13">
      <!-- 100 -->
      <g style="fill: #838383" transform="translate(22.8775 286.884697) scale(0.12 -0.12)">
       <use xlink:href="#DejaVuSansMono-31"/>
       <use xlink:href="#DejaVuSansMono-30" transform="translate(60.205078 0)"/>
       <use xlink:href="#DejaVuSansMono-30" transform="translate(120.410156 0)"/>
      </g>
     </g>
    </g>
    <g id="ytick_3">
     <g id="line2d_25">
      <path d="M 48.050625 251.25552 
L 414.385336 251.25552 
" clip-path="url(#pe4dd169fc0)" style="fill: none; stroke-dasharray: 1.48,0.64; stroke-dashoffset: 0; stroke: #838383; stroke-opacity: 0.25; stroke-width: 0.4"/>
     </g>
     <g id="line2d_26"/>
     <g id="text_14">
      <!-- 200 -->
      <g style="fill: #838383" transform="translate(22.8775 255.846457) scale(0.12 -0.12)">
       <use xlink:href="#DejaVuSansMono-32"/>
       <use xlink:href="#DejaVuSansMono-30" transform="translate(60.205078 0)"/>
       <use xlink:href="#DejaVuSansMono-30" transform="translate(120.410156 0)"/>
      </g>
     </g>
    </g>
    <g id="ytick_4">
     <g id="line2d_27">
      <path d="M 48.050625 220.217279 
L 414.385336 220.217279 
" clip-path="url(#pe4dd169fc0)" style="fill: none; stroke-dasharray: 1.48,0.64; stroke-dashoffset: 0; stroke: #838383; stroke-opacity: 0.25; stroke-width: 0.4"/>
     </g>
     <g id="line2d_28"/>
     <g id="text_15">
      <!-- 300 -->
      <g style="fill: #838383" transform="translate(22.8775 224.808217) scale(0.12 -0.12)">
       <use xlink:href="#DejaVuSansMono-33"/>
       <use xlink:href="#DejaVuSansMono-30" transform="translate(60.205078 0)"/>
       <use xlink:href="#DejaVuSansMono-30" transform="translate(120.410156 0)"/>
      </g>
     </g>
    </g>
    <g id="ytick_5">
     <g id="line2d_29">
      <path d="M 48.050625 189.179039 
L 414.385336 189.179039 
" clip-path="url(#pe4dd169fc0)" style="fill: none; stroke-dasharray: 1.48,0.64; stroke-dashoffset: 0; stroke: #838383; stroke-opacity: 0.25; stroke-width: 0.4"/>
     </g>
     <g id="line2d_30"/>
     <g id="text_16">
      <!-- 400 -->
      <g style="fill: #838383" transform="translate(22.8775 193.769977) scale(0.12 -0.12)">
       <use xlink:href="#DejaVuSansMono-34"/>
       <use xlink:href="#DejaVuSansMono-30" transform="translate(60.205078 0)"/>
       <use xlink:href="#DejaVuSansMono-30" transform="translate(120.410156 0)"/>
      </g>
     </g>
    </g>
    <g id="ytick_6">
     <g id="line2d_31">
      <path d="M 48.050625 158.140799 
L 414.385336 158.140799 
" clip-path="url(#pe4dd169fc0)" style="fill: none; stroke-dasharray: 1.48,0.64; stroke-dashoffset: 0; stroke: #838383; stroke-opacity: 0.25; stroke-width: 0.4"/>
     </g>
     <g id="line2d_32"/>
     <g id="text_17">
      <!-- 500 -->
      <g style="fill: #838383" transform="translate(22.8775 162.731736) scale(0.12 -0.12)">
       <use xlink:href="#DejaVuSansMono-35"/>
       <use xlink:href="#DejaVuSansMono-30" transform="translate(60.205078 0)"/>
       <use xlink:href="#DejaVuSansMono-30" transform="translate(120.410156 0)"/>
      </g>
     </g>
    </g>
    <g id="ytick_7">
     <g id="line2d_33">
      <path d="M 48.050625 127.102559 
L 414.385336 127.102559 
" clip-path="url(#pe4dd169fc0)" style="fill: none; stroke-dasharray: 1.48,0.64; stroke-dashoffset: 0; stroke: #838383; stroke-opacity: 0.25; stroke-width: 0.4"/>
     </g>
     <g id="line2d_34"/>
     <g id="text_18">
      <!-- 600 -->
      <g style="fill: #838383" transform="translate(22.8775 131.693496) scale(0.12 -0.12)">
       <use xlink:href="#DejaVuSansMono-36"/>
       <use xlink:href="#DejaVuSansMono-30" transform="translate(60.205078 0)"/>
       <use xlink:href="#DejaVuSansMono-30" transform="translate(120.410156 0)"/>
      </g>
     </g>
    </g>
    <g id="ytick_8">
     <g id="line2d_35">
      <path d="M 48.050625 96.064318 
L 414.385336 96.064318 
" clip-path="url(#pe4dd169fc0)" style="fill: none; stroke-dasharray: 1.48,0.64; stroke-dashoffset: 0; stroke: #838383; stroke-opacity: 0.25; stroke-width: 0.4"/>
     </g>
     <g id="line2d_36"/>
     <g id="text_19">
      <!-- 700 -->
      <g style="fill: #838383" transform="translate(22.8775 100.655256) scale(0.12 -0.12)">
       <defs>
        <path id="DejaVuSansMono-37" d="M 434 4666 
L 3372 4666 
L 3372 4397 
L 1703 0 
L 1044 0 
L 2669 4134 
L 434 4134 
L 434 4666 
z
" transform="scale(0.015625)"/>
       </defs>
       <use xlink:href="#DejaVuSansMono-37"/>
       <use xlink:href="#DejaVuSansMono-30" transform="translate(60.205078 0)"/>
       <use xlink:href="#DejaVuSansMono-30" transform="translate(120.410156 0)"/>
      </g>
     </g>
    </g>
    <g id="text_20">
     <!-- yeet wall-clock (seconds) -->
     <g style="fill: #838383" transform="translate(16.381875 281.866687) rotate(-90) scale(0.12 -0.12)">
      <defs>
       <path id="DejaVuSansMono-79" d="M 2681 1125 
Q 2538 759 2316 163 
Q 2006 -663 1900 -844 
Q 1756 -1088 1540 -1209 
Q 1325 -1331 1038 -1331 
L 575 -1331 
L 575 -850 
L 916 -850 
Q 1169 -850 1312 -703 
Q 1456 -556 1678 56 
L 325 3500 
L 934 3500 
L 1972 763 
L 2994 3500 
L 3603 3500 
L 2681 1125 
z
" transform="scale(0.015625)"/>
       <path id="DejaVuSansMono-74" d="M 1919 4494 
L 1919 3500 
L 3225 3500 
L 3225 3053 
L 1919 3053 
L 1919 1153 
Q 1919 766 2066 612 
Q 2213 459 2578 459 
L 3225 459 
L 3225 0 
L 2522 0 
Q 1875 0 1609 259 
Q 1344 519 1344 1153 
L 1344 3053 
L 409 3053 
L 409 3500 
L 1344 3500 
L 1344 4494 
L 1919 4494 
z
" transform="scale(0.015625)"/>
       <path id="DejaVuSansMono-77" d="M 0 3500 
L 569 3500 
L 1178 672 
L 1678 2478 
L 2169 2478 
L 2675 672 
L 3284 3500 
L 3853 3500 
L 3034 0 
L 2484 0 
L 1925 1919 
L 1369 0 
L 819 0 
L 0 3500 
z
" transform="scale(0.015625)"/>
       <path id="DejaVuSansMono-61" d="M 2194 1759 
L 2003 1759 
Q 1500 1759 1245 1582 
Q 991 1406 991 1056 
Q 991 741 1181 566 
Q 1372 391 1709 391 
Q 2184 391 2456 720 
Q 2728 1050 2731 1631 
L 2731 1759 
L 2194 1759 
z
M 3309 1997 
L 3309 0 
L 2731 0 
L 2731 519 
Q 2547 206 2267 57 
Q 1988 -91 1588 -91 
Q 1053 -91 734 211 
Q 416 513 416 1019 
Q 416 1603 808 1906 
Q 1200 2209 1959 2209 
L 2731 2209 
L 2731 2300 
Q 2728 2719 2518 2908 
Q 2309 3097 1850 3097 
Q 1556 3097 1256 3012 
Q 956 2928 672 2766 
L 672 3341 
Q 991 3463 1283 3523 
Q 1575 3584 1850 3584 
Q 2284 3584 2592 3456 
Q 2900 3328 3091 3072 
Q 3209 2916 3259 2686 
Q 3309 2456 3309 1997 
z
" transform="scale(0.015625)"/>
       <path id="DejaVuSansMono-2d" d="M 1113 2009 
L 2741 2009 
L 2741 1497 
L 1113 1497 
L 1113 2009 
z
" transform="scale(0.015625)"/>
       <path id="DejaVuSansMono-63" d="M 3316 178 
Q 3084 44 2839 -23 
Q 2594 -91 2338 -91 
Q 1525 -91 1067 396 
Q 609 884 609 1747 
Q 609 2609 1067 3096 
Q 1525 3584 2338 3584 
Q 2591 3584 2831 3518 
Q 3072 3453 3316 3316 
L 3316 2713 
Q 3088 2916 2858 3006 
Q 2628 3097 2338 3097 
Q 1797 3097 1506 2747 
Q 1216 2397 1216 1747 
Q 1216 1100 1508 748 
Q 1800 397 2338 397 
Q 2638 397 2875 489 
Q 3113 581 3316 775 
L 3316 178 
z
" transform="scale(0.015625)"/>
       <path id="DejaVuSansMono-6b" d="M 738 4863 
L 1331 4863 
L 1331 2047 
L 2841 3500 
L 3541 3500 
L 2163 2181 
L 3756 0 
L 3053 0 
L 1759 1806 
L 1331 1403 
L 1331 0 
L 738 0 
L 738 4863 
z
" transform="scale(0.015625)"/>
      </defs>
      <use xlink:href="#DejaVuSansMono-79"/>
      <use xlink:href="#DejaVuSansMono-65" transform="translate(60.205078 0)"/>
      <use xlink:href="#DejaVuSansMono-65" transform="translate(120.410156 0)"/>
      <use xlink:href="#DejaVuSansMono-74" transform="translate(180.615234 0)"/>
      <use xlink:href="#DejaVuSansMono-20" transform="translate(240.820312 0)"/>
      <use xlink:href="#DejaVuSansMono-77" transform="translate(301.025391 0)"/>
      <use xlink:href="#DejaVuSansMono-61" transform="translate(361.230469 0)"/>
      <use xlink:href="#DejaVuSansMono-6c" transform="translate(421.435547 0)"/>
      <use xlink:href="#DejaVuSansMono-6c" transform="translate(481.640625 0)"/>
      <use xlink:href="#DejaVuSansMono-2d" transform="translate(541.845703 0)"/>
      <use xlink:href="#DejaVuSansMono-63" transform="translate(602.050781 0)"/>
      <use xlink:href="#DejaVuSansMono-6c" transform="translate(662.255859 0)"/>
      <use xlink:href="#DejaVuSansMono-6f" transform="translate(722.460938 0)"/>
      <use xlink:href="#DejaVuSansMono-63" transform="translate(782.666016 0)"/>
      <use xlink:href="#DejaVuSansMono-6b" transform="translate(842.871094 0)"/>
      <use xlink:href="#DejaVuSansMono-20" transform="translate(903.076172 0)"/>
      <use xlink:href="#DejaVuSansMono-28" transform="translate(963.28125 0)"/>
      <use xlink:href="#DejaVuSansMono-73" transform="translate(1023.486328 0)"/>
      <use xlink:href="#DejaVuSansMono-65" transform="translate(1083.691406 0)"/>
      <use xlink:href="#DejaVuSansMono-63" transform="translate(1143.896484 0)"/>
      <use xlink:href="#DejaVuSansMono-6f" transform="translate(1204.101562 0)"/>
      <use xlink:href="#DejaVuSansMono-6e" transform="translate(1264.306641 0)"/>
      <use xlink:href="#DejaVuSansMono-64" transform="translate(1324.511719 0)"/>
      <use xlink:href="#DejaVuSansMono-73" transform="translate(1384.716797 0)"/>
      <use xlink:href="#DejaVuSansMono-29" transform="translate(1444.921875 0)"/>
     </g>
    </g>
   </g>
   <g id="line2d_37">
    <path d="M 64.702203 291.698347 
L 101.705709 285.490699 
L 138.709215 285.64589 
L 175.712721 285.025125 
L 212.716227 279.065783 
L 249.719733 272.082179 
L 286.72324 259.170271 
L 323.726746 234.060334 
L 360.730252 182.536856 
L 397.733758 80.358969 
" clip-path="url(#pe4dd169fc0)" style="fill: none; stroke: #0ea5e9; stroke-width: 1.6; stroke-linecap: round"/>
    <defs>
     <path id="m9137e2af59" d="M 0 3 
C 0.795609 3 1.55874 2.683901 2.12132 2.12132 
C 2.683901 1.55874 3 0.795609 3 0 
C 3 -0.795609 2.683901 -1.55874 2.12132 -2.12132 
C 1.55874 -2.683901 0.795609 -3 0 -3 
C -0.795609 -3 -1.55874 -2.683901 -2.12132 -2.12132 
C -2.683901 -1.55874 -3 -0.795609 -3 0 
C -3 0.795609 -2.683901 1.55874 -2.12132 2.12132 
C -1.55874 2.683901 -0.795609 3 0 3 
z
" style="stroke: #0ea5e9"/>
    </defs>
    <g clip-path="url(#pe4dd169fc0)">
     <use xlink:href="#m9137e2af59" x="64.702203" y="291.698347" style="fill: #0ea5e9; stroke: #0ea5e9"/>
     <use xlink:href="#m9137e2af59" x="101.705709" y="285.490699" style="fill: #0ea5e9; stroke: #0ea5e9"/>
     <use xlink:href="#m9137e2af59" x="138.709215" y="285.64589" style="fill: #0ea5e9; stroke: #0ea5e9"/>
     <use xlink:href="#m9137e2af59" x="175.712721" y="285.025125" style="fill: #0ea5e9; stroke: #0ea5e9"/>
     <use xlink:href="#m9137e2af59" x="212.716227" y="279.065783" style="fill: #0ea5e9; stroke: #0ea5e9"/>
     <use xlink:href="#m9137e2af59" x="249.719733" y="272.082179" style="fill: #0ea5e9; stroke: #0ea5e9"/>
     <use xlink:href="#m9137e2af59" x="286.72324" y="259.170271" style="fill: #0ea5e9; stroke: #0ea5e9"/>
     <use xlink:href="#m9137e2af59" x="323.726746" y="234.060334" style="fill: #0ea5e9; stroke: #0ea5e9"/>
     <use xlink:href="#m9137e2af59" x="360.730252" y="182.536856" style="fill: #0ea5e9; stroke: #0ea5e9"/>
     <use xlink:href="#m9137e2af59" x="397.733758" y="80.358969" style="fill: #0ea5e9; stroke: #0ea5e9"/>
    </g>
   </g>
   <g id="patch_3">
    <path d="M 48.050625 313.332 
L 48.050625 69.792 
" style="fill: none"/>
   </g>
   <g id="patch_4">
    <path d="M 414.385336 313.332 
L 414.385336 69.792 
" style="fill: none"/>
   </g>
   <g id="patch_5">
    <path d="M 48.050625 313.332 
L 414.385336 313.332 
" style="fill: none"/>
   </g>
   <g id="patch_6">
    <path d="M 48.050625 69.792 
L 414.385336 69.792 
" style="fill: none"/>
   </g>
   <g id="text_21">
    <!-- 70s -->
    <g style="fill: #0c4a6e" transform="translate(56.574781 283.698347) scale(0.09 -0.09)">
     <use xlink:href="#DejaVuSansMono-37"/>
     <use xlink:href="#DejaVuSansMono-30" transform="translate(60.205078 0)"/>
     <use xlink:href="#DejaVuSansMono-73" transform="translate(120.410156 0)"/>
    </g>
   </g>
   <g id="text_22">
    <!-- 90s -->
    <g style="fill: #0c4a6e" transform="translate(93.578287 277.490699) scale(0.09 -0.09)">
     <use xlink:href="#DejaVuSansMono-39"/>
     <use xlink:href="#DejaVuSansMono-30" transform="translate(60.205078 0)"/>
     <use xlink:href="#DejaVuSansMono-73" transform="translate(120.410156 0)"/>
    </g>
   </g>
   <g id="text_23">
    <!-- 89s -->
    <g style="fill: #0c4a6e" transform="translate(130.581793 277.64589) scale(0.09 -0.09)">
     <use xlink:href="#DejaVuSansMono-38"/>
     <use xlink:href="#DejaVuSansMono-39" transform="translate(60.205078 0)"/>
     <use xlink:href="#DejaVuSansMono-73" transform="translate(120.410156 0)"/>
    </g>
   </g>
   <g id="text_24">
    <!-- 91s -->
    <g style="fill: #0c4a6e" transform="translate(167.585299 277.025125) scale(0.09 -0.09)">
     <use xlink:href="#DejaVuSansMono-39"/>
     <use xlink:href="#DejaVuSansMono-31" transform="translate(60.205078 0)"/>
     <use xlink:href="#DejaVuSansMono-73" transform="translate(120.410156 0)"/>
    </g>
   </g>
   <g id="text_25">
    <!-- 110s -->
    <g style="fill: #0c4a6e" transform="translate(201.879665 271.065783) scale(0.09 -0.09)">
     <use xlink:href="#DejaVuSansMono-31"/>
     <use xlink:href="#DejaVuSansMono-31" transform="translate(60.205078 0)"/>
     <use xlink:href="#DejaVuSansMono-30" transform="translate(120.410156 0)"/>
     <use xlink:href="#DejaVuSansMono-73" transform="translate(180.615234 0)"/>
    </g>
   </g>
   <g id="text_26">
    <!-- 133s -->
    <g style="fill: #0c4a6e" transform="translate(238.883171 264.082179) scale(0.09 -0.09)">
     <use xlink:href="#DejaVuSansMono-31"/>
     <use xlink:href="#DejaVuSansMono-33" transform="translate(60.205078 0)"/>
     <use xlink:href="#DejaVuSansMono-33" transform="translate(120.410156 0)"/>
     <use xlink:href="#DejaVuSansMono-73" transform="translate(180.615234 0)"/>
    </g>
   </g>
   <g id="text_27">
    <!-- 174s -->
    <g style="fill: #0c4a6e" transform="translate(275.886677 251.170271) scale(0.09 -0.09)">
     <use xlink:href="#DejaVuSansMono-31"/>
     <use xlink:href="#DejaVuSansMono-37" transform="translate(60.205078 0)"/>
     <use xlink:href="#DejaVuSansMono-34" transform="translate(120.410156 0)"/>
     <use xlink:href="#DejaVuSansMono-73" transform="translate(180.615234 0)"/>
    </g>
   </g>
   <g id="text_28">
    <!-- 255s -->
    <g style="fill: #0c4a6e" transform="translate(312.890183 226.060334) scale(0.09 -0.09)">
     <use xlink:href="#DejaVuSansMono-32"/>
     <use xlink:href="#DejaVuSansMono-35" transform="translate(60.205078 0)"/>
     <use xlink:href="#DejaVuSansMono-35" transform="translate(120.410156 0)"/>
     <use xlink:href="#DejaVuSansMono-73" transform="translate(180.615234 0)"/>
    </g>
   </g>
   <g id="text_29">
    <!-- 421s -->
    <g style="fill: #0c4a6e" transform="translate(349.893689 174.536856) scale(0.09 -0.09)">
     <use xlink:href="#DejaVuSansMono-34"/>
     <use xlink:href="#DejaVuSansMono-32" transform="translate(60.205078 0)"/>
     <use xlink:href="#DejaVuSansMono-31" transform="translate(120.410156 0)"/>
     <use xlink:href="#DejaVuSansMono-73" transform="translate(180.615234 0)"/>
    </g>
   </g>
   <g id="text_30">
    <!-- 751s -->
    <g style="fill: #0c4a6e" transform="translate(386.897195 72.358969) scale(0.09 -0.09)">
     <use xlink:href="#DejaVuSansMono-37"/>
     <use xlink:href="#DejaVuSansMono-35" transform="translate(60.205078 0)"/>
     <use xlink:href="#DejaVuSansMono-31" transform="translate(120.410156 0)"/>
     <use xlink:href="#DejaVuSansMono-73" transform="translate(180.615234 0)"/>
    </g>
   </g>
   <g id="text_31">
    <!-- Total wall-clock vs node count -->
    <g style="fill: #838383" transform="translate(101.17923 63.792) scale(0.144 -0.144)">
     <defs>
      <path id="DejaVuSansMono-54" d="M 147 4666 
L 3706 4666 
L 3706 4134 
L 2247 4134 
L 2247 0 
L 1613 0 
L 1613 4134 
L 147 4134 
L 147 4666 
z
" transform="scale(0.015625)"/>
      <path id="DejaVuSansMono-76" d="M 313 3500 
L 909 3500 
L 1925 563 
L 2944 3500 
L 3541 3500 
L 2297 0 
L 1556 0 
L 313 3500 
z
" transform="scale(0.015625)"/>
     </defs>
     <use xlink:href="#DejaVuSansMono-54"/>
     <use xlink:href="#DejaVuSansMono-6f" transform="translate(60.205078 0)"/>
     <use xlink:href="#DejaVuSansMono-74" transform="translate(120.410156 0)"/>
     <use xlink:href="#DejaVuSansMono-61" transform="translate(180.615234 0)"/>
     <use xlink:href="#DejaVuSansMono-6c" transform="translate(240.820312 0)"/>
     <use xlink:href="#DejaVuSansMono-20" transform="translate(301.025391 0)"/>
     <use xlink:href="#DejaVuSansMono-77" transform="translate(361.230469 0)"/>
     <use xlink:href="#DejaVuSansMono-61" transform="translate(421.435547 0)"/>
     <use xlink:href="#DejaVuSansMono-6c" transform="translate(481.640625 0)"/>
     <use xlink:href="#DejaVuSansMono-6c" transform="translate(541.845703 0)"/>
     <use xlink:href="#DejaVuSansMono-2d" transform="translate(602.050781 0)"/>
     <use xlink:href="#DejaVuSansMono-63" transform="translate(662.255859 0)"/>
     <use xlink:href="#DejaVuSansMono-6c" transform="translate(722.460938 0)"/>
     <use xlink:href="#DejaVuSansMono-6f" transform="translate(782.666016 0)"/>
     <use xlink:href="#DejaVuSansMono-63" transform="translate(842.871094 0)"/>
     <use xlink:href="#DejaVuSansMono-6b" transform="translate(903.076172 0)"/>
     <use xlink:href="#DejaVuSansMono-20" transform="translate(963.28125 0)"/>
     <use xlink:href="#DejaVuSansMono-76" transform="translate(1023.486328 0)"/>
     <use xlink:href="#DejaVuSansMono-73" transform="translate(1083.691406 0)"/>
     <use xlink:href="#DejaVuSansMono-20" transform="translate(1143.896484 0)"/>
     <use xlink:href="#DejaVuSansMono-6e" transform="translate(1204.101562 0)"/>
     <use xlink:href="#DejaVuSansMono-6f" transform="translate(1264.306641 0)"/>
     <use xlink:href="#DejaVuSansMono-64" transform="translate(1324.511719 0)"/>
     <use xlink:href="#DejaVuSansMono-65" transform="translate(1384.716797 0)"/>
     <use xlink:href="#DejaVuSansMono-20" transform="translate(1444.921875 0)"/>
     <use xlink:href="#DejaVuSansMono-63" transform="translate(1505.126953 0)"/>
     <use xlink:href="#DejaVuSansMono-6f" transform="translate(1565.332031 0)"/>
     <use xlink:href="#DejaVuSansMono-75" transform="translate(1625.537109 0)"/>
     <use xlink:href="#DejaVuSansMono-6e" transform="translate(1685.742188 0)"/>
     <use xlink:href="#DejaVuSansMono-74" transform="translate(1745.947266 0)"/>
    </g>
   </g>
  </g>
  <g id="axes_2">
   <g id="patch_7">
    <path d="M 477.170625 313.332 
L 843.505336 313.332 
L 843.505336 69.792 
L 477.170625 69.792 
L 477.170625 313.332 
z
" style="fill: none"/>
   </g>
   <g id="matplotlib.axis_3">
    <g id="xtick_11">
     <g id="line2d_38">
      <path d="M 493.822203 313.332 
L 493.822203 69.792 
" clip-path="url(#pbece09bc0b)" style="fill: none; stroke-dasharray: 1.48,0.64; stroke-dashoffset: 0; stroke: #838383; stroke-opacity: 0.25; stroke-width: 0.4"/>
     </g>
     <g id="line2d_39"/>
     <g id="text_32">
      <!-- 8 -->
      <g style="fill: #838383" transform="translate(490.210015 326.013875) scale(0.12 -0.12)">
       <use xlink:href="#DejaVuSansMono-38"/>
      </g>
     </g>
    </g>
    <g id="xtick_12">
     <g id="line2d_40">
      <path d="M 530.825709 313.332 
L 530.825709 69.792 
" clip-path="url(#pbece09bc0b)" style="fill: none; stroke-dasharray: 1.48,0.64; stroke-dashoffset: 0; stroke: #838383; stroke-opacity: 0.25; stroke-width: 0.4"/>
     </g>
     <g id="line2d_41"/>
     <g id="text_33">
      <!-- 16 -->
      <g style="fill: #838383" transform="translate(523.601334 326.013875) scale(0.12 -0.12)">
       <use xlink:href="#DejaVuSansMono-31"/>
       <use xlink:href="#DejaVuSansMono-36" transform="translate(60.205078 0)"/>
      </g>
     </g>
    </g>
    <g id="xtick_13">
     <g id="line2d_42">
      <path d="M 567.829215 313.332 
L 567.829215 69.792 
" clip-path="url(#pbece09bc0b)" style="fill: none; stroke-dasharray: 1.48,0.64; stroke-dashoffset: 0; stroke: #838383; stroke-opacity: 0.25; stroke-width: 0.4"/>
     </g>
     <g id="line2d_43"/>
     <g id="text_34">
      <!-- 32 -->
      <g style="fill: #838383" transform="translate(560.60484 326.013875) scale(0.12 -0.12)">
       <use xlink:href="#DejaVuSansMono-33"/>
       <use xlink:href="#DejaVuSansMono-32" transform="translate(60.205078 0)"/>
      </g>
     </g>
    </g>
    <g id="xtick_14">
     <g id="line2d_44">
      <path d="M 604.832721 313.332 
L 604.832721 69.792 
" clip-path="url(#pbece09bc0b)" style="fill: none; stroke-dasharray: 1.48,0.64; stroke-dashoffset: 0; stroke: #838383; stroke-opacity: 0.25; stroke-width: 0.4"/>
     </g>
     <g id="line2d_45"/>
     <g id="text_35">
      <!-- 64 -->
      <g style="fill: #838383" transform="translate(597.608346 326.013875) scale(0.12 -0.12)">
       <use xlink:href="#DejaVuSansMono-36"/>
       <use xlink:href="#DejaVuSansMono-34" transform="translate(60.205078 0)"/>
      </g>
     </g>
    </g>
    <g id="xtick_15">
     <g id="line2d_46">
      <path d="M 641.836227 313.332 
L 641.836227 69.792 
" clip-path="url(#pbece09bc0b)" style="fill: none; stroke-dasharray: 1.48,0.64; stroke-dashoffset: 0; stroke: #838383; stroke-opacity: 0.25; stroke-width: 0.4"/>
     </g>
     <g id="line2d_47"/>
     <g id="text_36">
      <!-- 128 -->
      <g style="fill: #838383" transform="translate(630.999665 326.013875) scale(0.12 -0.12)">
       <use xlink:href="#DejaVuSansMono-31"/>
       <use xlink:href="#DejaVuSansMono-32" transform="translate(60.205078 0)"/>
       <use xlink:href="#DejaVuSansMono-38" transform="translate(120.410156 0)"/>
      </g>
     </g>
    </g>
    <g id="xtick_16">
     <g id="line2d_48">
      <path d="M 678.839733 313.332 
L 678.839733 69.792 
" clip-path="url(#pbece09bc0b)" style="fill: none; stroke-dasharray: 1.48,0.64; stroke-dashoffset: 0; stroke: #838383; stroke-opacity: 0.25; stroke-width: 0.4"/>
     </g>
     <g id="line2d_49"/>
     <g id="text_37">
      <!-- 256 -->
      <g style="fill: #838383" transform="translate(668.003171 326.013875) scale(0.12 -0.12)">
       <use xlink:href="#DejaVuSansMono-32"/>
       <use xlink:href="#DejaVuSansMono-35" transform="translate(60.205078 0)"/>
       <use xlink:href="#DejaVuSansMono-36" transform="translate(120.410156 0)"/>
      </g>
     </g>
    </g>
    <g id="xtick_17">
     <g id="line2d_50">
      <path d="M 715.84324 313.332 
L 715.84324 69.792 
" clip-path="url(#pbece09bc0b)" style="fill: none; stroke-dasharray: 1.48,0.64; stroke-dashoffset: 0; stroke: #838383; stroke-opacity: 0.25; stroke-width: 0.4"/>
     </g>
     <g id="line2d_51"/>
     <g id="text_38">
      <!-- 512 -->
      <g style="fill: #838383" transform="translate(705.006677 326.013875) scale(0.12 -0.12)">
       <use xlink:href="#DejaVuSansMono-35"/>
       <use xlink:href="#DejaVuSansMono-31" transform="translate(60.205078 0)"/>
       <use xlink:href="#DejaVuSansMono-32" transform="translate(120.410156 0)"/>
      </g>
     </g>
    </g>
    <g id="xtick_18">
     <g id="line2d_52">
      <path d="M 752.846746 313.332 
L 752.846746 69.792 
" clip-path="url(#pbece09bc0b)" style="fill: none; stroke-dasharray: 1.48,0.64; stroke-dashoffset: 0; stroke: #838383; stroke-opacity: 0.25; stroke-width: 0.4"/>
     </g>
     <g id="line2d_53"/>
     <g id="text_39">
      <!-- 1024 -->
      <g style="fill: #838383" transform="translate(738.397996 326.013875) scale(0.12 -0.12)">
       <use xlink:href="#DejaVuSansMono-31"/>
       <use xlink:href="#DejaVuSansMono-30" transform="translate(60.205078 0)"/>
       <use xlink:href="#DejaVuSansMono-32" transform="translate(120.410156 0)"/>
       <use xlink:href="#DejaVuSansMono-34" transform="translate(180.615234 0)"/>
      </g>
     </g>
    </g>
    <g id="xtick_19">
     <g id="line2d_54">
      <path d="M 789.850252 313.332 
L 789.850252 69.792 
" clip-path="url(#pbece09bc0b)" style="fill: none; stroke-dasharray: 1.48,0.64; stroke-dashoffset: 0; stroke: #838383; stroke-opacity: 0.25; stroke-width: 0.4"/>
     </g>
     <g id="line2d_55"/>
     <g id="text_40">
      <!-- 2048 -->
      <g style="fill: #838383" transform="translate(775.401502 326.013875) scale(0.12 -0.12)">
       <use xlink:href="#DejaVuSansMono-32"/>
       <use xlink:href="#DejaVuSansMono-30" transform="translate(60.205078 0)"/>
       <use xlink:href="#DejaVuSansMono-34" transform="translate(120.410156 0)"/>
       <use xlink:href="#DejaVuSansMono-38" transform="translate(180.615234 0)"/>
      </g>
     </g>
    </g>
    <g id="xtick_20">
     <g id="line2d_56">
      <path d="M 826.853758 313.332 
L 826.853758 69.792 
" clip-path="url(#pbece09bc0b)" style="fill: none; stroke-dasharray: 1.48,0.64; stroke-dashoffset: 0; stroke: #838383; stroke-opacity: 0.25; stroke-width: 0.4"/>
     </g>
     <g id="line2d_57"/>
     <g id="text_41">
      <!-- 4096 -->
      <g style="fill: #838383" transform="translate(812.405008 326.013875) scale(0.12 -0.12)">
       <use xlink:href="#DejaVuSansMono-34"/>
       <use xlink:href="#DejaVuSansMono-30" transform="translate(60.205078 0)"/>
       <use xlink:href="#DejaVuSansMono-39" transform="translate(120.410156 0)"/>
       <use xlink:href="#DejaVuSansMono-36" transform="translate(180.615234 0)"/>
      </g>
     </g>
    </g>
    <g id="text_42">
     <!-- Number of nodes (log₂) -->
     <g style="fill: #838383" transform="translate(580.869855 341.691375) scale(0.12 -0.12)">
      <use xlink:href="#DejaVuSansMono-4e"/>
      <use xlink:href="#DejaVuSansMono-75" transform="translate(60.205078 0)"/>
      <use xlink:href="#DejaVuSansMono-6d" transform="translate(120.410156 0)"/>
      <use xlink:href="#DejaVuSansMono-62" transform="translate(180.615234 0)"/>
      <use xlink:href="#DejaVuSansMono-65" transform="translate(240.820312 0)"/>
      <use xlink:href="#DejaVuSansMono-72" transform="translate(301.025391 0)"/>
      <use xlink:href="#DejaVuSansMono-20" transform="translate(361.230469 0)"/>
      <use xlink:href="#DejaVuSansMono-6f" transform="translate(421.435547 0)"/>
      <use xlink:href="#DejaVuSansMono-66" transform="translate(481.640625 0)"/>
      <use xlink:href="#DejaVuSansMono-20" transform="translate(541.845703 0)"/>
      <use xlink:href="#DejaVuSansMono-6e" transform="translate(602.050781 0)"/>
      <use xlink:href="#DejaVuSansMono-6f" transform="translate(662.255859 0)"/>
      <use xlink:href="#DejaVuSansMono-64" transform="translate(722.460938 0)"/>
      <use xlink:href="#DejaVuSansMono-65" transform="translate(782.666016 0)"/>
      <use xlink:href="#DejaVuSansMono-73" transform="translate(842.871094 0)"/>
      <use xlink:href="#DejaVuSansMono-20" transform="translate(903.076172 0)"/>
      <use xlink:href="#DejaVuSansMono-28" transform="translate(963.28125 0)"/>
      <use xlink:href="#DejaVuSansMono-6c" transform="translate(1023.486328 0)"/>
      <use xlink:href="#DejaVuSansMono-6f" transform="translate(1083.691406 0)"/>
      <use xlink:href="#DejaVuSansMono-67" transform="translate(1143.896484 0)"/>
      <use xlink:href="#DejaVuSansMono-2082" transform="translate(1204.101562 0)"/>
      <use xlink:href="#DejaVuSansMono-29" transform="translate(1264.306641 0)"/>
     </g>
    </g>
   </g>
   <g id="matplotlib.axis_4">
    <g id="ytick_9">
     <g id="line2d_58">
      <path d="M 477.170625 313.332 
L 843.505336 313.332 
" clip-path="url(#pbece09bc0b)" style="fill: none; stroke-dasharray: 1.48,0.64; stroke-dashoffset: 0; stroke: #838383; stroke-opacity: 0.25; stroke-width: 0.4"/>
     </g>
     <g id="line2d_59"/>
     <g id="text_43">
      <!-- 0 -->
      <g style="fill: #838383" transform="translate(466.44625 317.922937) scale(0.12 -0.12)">
       <use xlink:href="#DejaVuSansMono-30"/>
      </g>
     </g>
    </g>
    <g id="ytick_10">
     <g id="line2d_60">
      <path d="M 477.170625 260.034921 
L 843.505336 260.034921 
" clip-path="url(#pbece09bc0b)" style="fill: none; stroke-dasharray: 1.48,0.64; stroke-dashoffset: 0; stroke: #838383; stroke-opacity: 0.25; stroke-width: 0.4"/>
     </g>
     <g id="line2d_61"/>
     <g id="text_44">
      <!-- 2000 -->
      <g style="fill: #838383" transform="translate(444.773125 264.625859) scale(0.12 -0.12)">
       <use xlink:href="#DejaVuSansMono-32"/>
       <use xlink:href="#DejaVuSansMono-30" transform="translate(60.205078 0)"/>
       <use xlink:href="#DejaVuSansMono-30" transform="translate(120.410156 0)"/>
       <use xlink:href="#DejaVuSansMono-30" transform="translate(180.615234 0)"/>
      </g>
     </g>
    </g>
    <g id="ytick_11">
     <g id="line2d_62">
      <path d="M 477.170625 206.737842 
L 843.505336 206.737842 
" clip-path="url(#pbece09bc0b)" style="fill: none; stroke-dasharray: 1.48,0.64; stroke-dashoffset: 0; stroke: #838383; stroke-opacity: 0.25; stroke-width: 0.4"/>
     </g>
     <g id="line2d_63"/>
     <g id="text_45">
      <!-- 4000 -->
      <g style="fill: #838383" transform="translate(444.773125 211.32878) scale(0.12 -0.12)">
       <use xlink:href="#DejaVuSansMono-34"/>
       <use xlink:href="#DejaVuSansMono-30" transform="translate(60.205078 0)"/>
       <use xlink:href="#DejaVuSansMono-30" transform="translate(120.410156 0)"/>
       <use xlink:href="#DejaVuSansMono-30" transform="translate(180.615234 0)"/>
      </g>
     </g>
    </g>
    <g id="ytick_12">
     <g id="line2d_64">
      <path d="M 477.170625 153.440763 
L 843.505336 153.440763 
" clip-path="url(#pbece09bc0b)" style="fill: none; stroke-dasharray: 1.48,0.64; stroke-dashoffset: 0; stroke: #838383; stroke-opacity: 0.25; stroke-width: 0.4"/>
     </g>
     <g id="line2d_65"/>
     <g id="text_46">
      <!-- 6000 -->
      <g style="fill: #838383" transform="translate(444.773125 158.031701) scale(0.12 -0.12)">
       <use xlink:href="#DejaVuSansMono-36"/>
       <use xlink:href="#DejaVuSansMono-30" transform="translate(60.205078 0)"/>
       <use xlink:href="#DejaVuSansMono-30" transform="translate(120.410156 0)"/>
       <use xlink:href="#DejaVuSansMono-30" transform="translate(180.615234 0)"/>
      </g>
     </g>
    </g>
    <g id="ytick_13">
     <g id="line2d_66">
      <path d="M 477.170625 100.143684 
L 843.505336 100.143684 
" clip-path="url(#pbece09bc0b)" style="fill: none; stroke-dasharray: 1.48,0.64; stroke-dashoffset: 0; stroke: #838383; stroke-opacity: 0.25; stroke-width: 0.4"/>
     </g>
     <g id="line2d_67"/>
     <g id="text_47">
      <!-- 8000 -->
      <g style="fill: #838383" transform="translate(444.773125 104.734622) scale(0.12 -0.12)">
       <use xlink:href="#DejaVuSansMono-38"/>
       <use xlink:href="#DejaVuSansMono-30" transform="translate(60.205078 0)"/>
       <use xlink:href="#DejaVuSansMono-30" transform="translate(120.410156 0)"/>
       <use xlink:href="#DejaVuSansMono-30" transform="translate(180.615234 0)"/>
      </g>
     </g>
    </g>
    <g id="text_48">
     <!-- Per-node wall-clock (ms) -->
     <g style="fill: #838383" transform="translate(438.2775 278.2545) rotate(-90) scale(0.12 -0.12)">
      <defs>
       <path id="DejaVuSansMono-50" d="M 1247 4147 
L 1247 2394 
L 1978 2394 
Q 2416 2394 2661 2625 
Q 2906 2856 2906 3272 
Q 2906 3688 2662 3917 
Q 2419 4147 1978 4147 
L 1247 4147 
z
M 616 4666 
L 1978 4666 
Q 2759 4666 3162 4311 
Q 3566 3956 3566 3272 
Q 3566 2581 3164 2228 
Q 2763 1875 1978 1875 
L 1247 1875 
L 1247 0 
L 616 0 
L 616 4666 
z
" transform="scale(0.015625)"/>
      </defs>
      <use xlink:href="#DejaVuSansMono-50"/>
      <use xlink:href="#DejaVuSansMono-65" transform="translate(60.205078 0)"/>
      <use xlink:href="#DejaVuSansMono-72" transform="translate(120.410156 0)"/>
      <use xlink:href="#DejaVuSansMono-2d" transform="translate(180.615234 0)"/>
      <use xlink:href="#DejaVuSansMono-6e" transform="translate(240.820312 0)"/>
      <use xlink:href="#DejaVuSansMono-6f" transform="translate(301.025391 0)"/>
      <use xlink:href="#DejaVuSansMono-64" transform="translate(361.230469 0)"/>
      <use xlink:href="#DejaVuSansMono-65" transform="translate(421.435547 0)"/>
      <use xlink:href="#DejaVuSansMono-20" transform="translate(481.640625 0)"/>
      <use xlink:href="#DejaVuSansMono-77" transform="translate(541.845703 0)"/>
      <use xlink:href="#DejaVuSansMono-61" transform="translate(602.050781 0)"/>
      <use xlink:href="#DejaVuSansMono-6c" transform="translate(662.255859 0)"/>
      <use xlink:href="#DejaVuSansMono-6c" transform="translate(722.460938 0)"/>
      <use xlink:href="#DejaVuSansMono-2d" transform="translate(782.666016 0)"/>
      <use xlink:href="#DejaVuSansMono-63" transform="translate(842.871094 0)"/>
      <use xlink:href="#DejaVuSansMono-6c" transform="translate(903.076172 0)"/>
      <use xlink:href="#DejaVuSansMono-6f" transform="translate(963.28125 0)"/>
      <use xlink:href="#DejaVuSansMono-63" transform="translate(1023.486328 0)"/>
      <use xlink:href="#DejaVuSansMono-6b" transform="translate(1083.691406 0)"/>
      <use xlink:href="#DejaVuSansMono-20" transform="translate(1143.896484 0)"/>
      <use xlink:href="#DejaVuSansMono-28" transform="translate(1204.101562 0)"/>
      <use xlink:href="#DejaVuSansMono-6d" transform="translate(1264.306641 0)"/>
      <use xlink:href="#DejaVuSansMono-73" transform="translate(1324.511719 0)"/>
      <use xlink:href="#DejaVuSansMono-29" transform="translate(1384.716797 0)"/>
     </g>
    </g>
   </g>
   <g id="line2d_68">
    <path d="M 493.822203 81.1566 
L 530.825709 163.933626 
L 567.829215 239.049196 
L 604.832721 275.357831 
L 641.836227 290.347635 
L 678.839733 299.497661 
L 715.84324 304.249636 
L 752.846746 306.68548 
L 789.850252 307.848751 
L 826.853758 308.448603 
" clip-path="url(#pbece09bc0b)" style="fill: none; stroke: #7c3aed; stroke-width: 1.6; stroke-linecap: round"/>
    <defs>
     <path id="m2b441418d6" d="M 0 3 
C 0.795609 3 1.55874 2.683901 2.12132 2.12132 
C 2.683901 1.55874 3 0.795609 3 0 
C 3 -0.795609 2.683901 -1.55874 2.12132 -2.12132 
C 1.55874 -2.683901 0.795609 -3 0 -3 
C -0.795609 -3 -1.55874 -2.683901 -2.12132 -2.12132 
C -2.683901 -1.55874 -3 -0.795609 -3 0 
C -3 0.795609 -2.683901 1.55874 -2.12132 2.12132 
C -1.55874 2.683901 -0.795609 3 0 3 
z
" style="stroke: #7c3aed"/>
    </defs>
    <g clip-path="url(#pbece09bc0b)">
     <use xlink:href="#m2b441418d6" x="493.822203" y="81.1566" style="fill: #7c3aed; stroke: #7c3aed"/>
     <use xlink:href="#m2b441418d6" x="530.825709" y="163.933626" style="fill: #7c3aed; stroke: #7c3aed"/>
     <use xlink:href="#m2b441418d6" x="567.829215" y="239.049196" style="fill: #7c3aed; stroke: #7c3aed"/>
     <use xlink:href="#m2b441418d6" x="604.832721" y="275.357831" style="fill: #7c3aed; stroke: #7c3aed"/>
     <use xlink:href="#m2b441418d6" x="641.836227" y="290.347635" style="fill: #7c3aed; stroke: #7c3aed"/>
     <use xlink:href="#m2b441418d6" x="678.839733" y="299.497661" style="fill: #7c3aed; stroke: #7c3aed"/>
     <use xlink:href="#m2b441418d6" x="715.84324" y="304.249636" style="fill: #7c3aed; stroke: #7c3aed"/>
     <use xlink:href="#m2b441418d6" x="752.846746" y="306.68548" style="fill: #7c3aed; stroke: #7c3aed"/>
     <use xlink:href="#m2b441418d6" x="789.850252" y="307.848751" style="fill: #7c3aed; stroke: #7c3aed"/>
     <use xlink:href="#m2b441418d6" x="826.853758" y="308.448603" style="fill: #7c3aed; stroke: #7c3aed"/>
    </g>
   </g>
   <g id="patch_8">
    <path d="M 477.170625 313.332 
L 477.170625 69.792 
" style="fill: none"/>
   </g>
   <g id="patch_9">
    <path d="M 843.505336 313.332 
L 843.505336 69.792 
" style="fill: none"/>
   </g>
   <g id="patch_10">
    <path d="M 477.170625 313.332 
L 843.505336 313.332 
" style="fill: none"/>
   </g>
   <g id="patch_11">
    <path d="M 477.170625 69.792 
L 843.505336 69.792 
" style="fill: none"/>
   </g>
   <g id="text_49">
    <!-- 8712ms -->
    <g style="fill: #3b0764" transform="translate(477.567359 73.1566) scale(0.09 -0.09)">
     <use xlink:href="#DejaVuSansMono-38"/>
     <use xlink:href="#DejaVuSansMono-37" transform="translate(60.205078 0)"/>
     <use xlink:href="#DejaVuSansMono-31" transform="translate(120.410156 0)"/>
     <use xlink:href="#DejaVuSansMono-32" transform="translate(180.615234 0)"/>
     <use xlink:href="#DejaVuSansMono-6d" transform="translate(240.820312 0)"/>
     <use xlink:href="#DejaVuSansMono-73" transform="translate(301.025391 0)"/>
    </g>
   </g>
   <g id="text_50">
    <!-- 5606ms -->
    <g style="fill: #3b0764" transform="translate(514.570865 155.933626) scale(0.09 -0.09)">
     <use xlink:href="#DejaVuSansMono-35"/>
     <use xlink:href="#DejaVuSansMono-36" transform="translate(60.205078 0)"/>
     <use xlink:href="#DejaVuSansMono-30" transform="translate(120.410156 0)"/>
     <use xlink:href="#DejaVuSansMono-36" transform="translate(180.615234 0)"/>
     <use xlink:href="#DejaVuSansMono-6d" transform="translate(240.820312 0)"/>
     <use xlink:href="#DejaVuSansMono-73" transform="translate(301.025391 0)"/>
    </g>
   </g>
   <g id="text_51">
    <!-- 2788ms -->
    <g style="fill: #3b0764" transform="translate(551.574371 231.049196) scale(0.09 -0.09)">
     <use xlink:href="#DejaVuSansMono-32"/>
     <use xlink:href="#DejaVuSansMono-37" transform="translate(60.205078 0)"/>
     <use xlink:href="#DejaVuSansMono-38" transform="translate(120.410156 0)"/>
     <use xlink:href="#DejaVuSansMono-38" transform="translate(180.615234 0)"/>
     <use xlink:href="#DejaVuSansMono-6d" transform="translate(240.820312 0)"/>
     <use xlink:href="#DejaVuSansMono-73" transform="translate(301.025391 0)"/>
    </g>
   </g>
   <g id="text_52">
    <!-- 1425ms -->
    <g style="fill: #3b0764" transform="translate(588.577877 267.357831) scale(0.09 -0.09)">
     <use xlink:href="#DejaVuSansMono-31"/>
     <use xlink:href="#DejaVuSansMono-34" transform="translate(60.205078 0)"/>
     <use xlink:href="#DejaVuSansMono-32" transform="translate(120.410156 0)"/>
     <use xlink:href="#DejaVuSansMono-35" transform="translate(180.615234 0)"/>
     <use xlink:href="#DejaVuSansMono-6d" transform="translate(240.820312 0)"/>
     <use xlink:href="#DejaVuSansMono-73" transform="translate(301.025391 0)"/>
    </g>
   </g>
   <g id="text_53">
    <!-- 862ms -->
    <g style="fill: #3b0764" transform="translate(628.290524 282.347635) scale(0.09 -0.09)">
     <use xlink:href="#DejaVuSansMono-38"/>
     <use xlink:href="#DejaVuSansMono-36" transform="translate(60.205078 0)"/>
     <use xlink:href="#DejaVuSansMono-32" transform="translate(120.410156 0)"/>
     <use xlink:href="#DejaVuSansMono-6d" transform="translate(180.615234 0)"/>
     <use xlink:href="#DejaVuSansMono-73" transform="translate(240.820312 0)"/>
    </g>
   </g>
   <g id="text_54">
    <!-- 519ms -->
    <g style="fill: #3b0764" transform="translate(665.29403 291.497661) scale(0.09 -0.09)">
     <use xlink:href="#DejaVuSansMono-35"/>
     <use xlink:href="#DejaVuSansMono-31" transform="translate(60.205078 0)"/>
     <use xlink:href="#DejaVuSansMono-39" transform="translate(120.410156 0)"/>
     <use xlink:href="#DejaVuSansMono-6d" transform="translate(180.615234 0)"/>
     <use xlink:href="#DejaVuSansMono-73" transform="translate(240.820312 0)"/>
    </g>
   </g>
   <g id="text_55">
    <!-- 341ms -->
    <g style="fill: #3b0764" transform="translate(702.297536 296.249636) scale(0.09 -0.09)">
     <use xlink:href="#DejaVuSansMono-33"/>
     <use xlink:href="#DejaVuSansMono-34" transform="translate(60.205078 0)"/>
     <use xlink:href="#DejaVuSansMono-31" transform="translate(120.410156 0)"/>
     <use xlink:href="#DejaVuSansMono-6d" transform="translate(180.615234 0)"/>
     <use xlink:href="#DejaVuSansMono-73" transform="translate(240.820312 0)"/>
    </g>
   </g>
   <g id="text_56">
    <!-- 249ms -->
    <g style="fill: #3b0764" transform="translate(739.301043 298.68548) scale(0.09 -0.09)">
     <use xlink:href="#DejaVuSansMono-32"/>
     <use xlink:href="#DejaVuSansMono-34" transform="translate(60.205078 0)"/>
     <use xlink:href="#DejaVuSansMono-39" transform="translate(120.410156 0)"/>
     <use xlink:href="#DejaVuSansMono-6d" transform="translate(180.615234 0)"/>
     <use xlink:href="#DejaVuSansMono-73" transform="translate(240.820312 0)"/>
    </g>
   </g>
   <g id="text_57">
    <!-- 206ms -->
    <g style="fill: #3b0764" transform="translate(776.304549 299.848751) scale(0.09 -0.09)">
     <use xlink:href="#DejaVuSansMono-32"/>
     <use xlink:href="#DejaVuSansMono-30" transform="translate(60.205078 0)"/>
     <use xlink:href="#DejaVuSansMono-36" transform="translate(120.410156 0)"/>
     <use xlink:href="#DejaVuSansMono-6d" transform="translate(180.615234 0)"/>
     <use xlink:href="#DejaVuSansMono-73" transform="translate(240.820312 0)"/>
    </g>
   </g>
   <g id="text_58">
    <!-- 183ms -->
    <g style="fill: #3b0764" transform="translate(813.308055 300.448603) scale(0.09 -0.09)">
     <use xlink:href="#DejaVuSansMono-31"/>
     <use xlink:href="#DejaVuSansMono-38" transform="translate(60.205078 0)"/>
     <use xlink:href="#DejaVuSansMono-33" transform="translate(120.410156 0)"/>
     <use xlink:href="#DejaVuSansMono-6d" transform="translate(180.615234 0)"/>
     <use xlink:href="#DejaVuSansMono-73" transform="translate(240.820312 0)"/>
    </g>
   </g>
   <g id="text_59">
    <!-- Per-node amortized cost -->
    <g style="fill: #838383" transform="translate(560.641605 63.792) scale(0.144 -0.144)">
     <defs>
      <path id="DejaVuSansMono-69" d="M 800 3500 
L 2272 3500 
L 2272 447 
L 3413 447 
L 3413 0 
L 556 0 
L 556 447 
L 1697 447 
L 1697 3053 
L 800 3053 
L 800 3500 
z
M 1697 4863 
L 2272 4863 
L 2272 4134 
L 1697 4134 
L 1697 4863 
z
" transform="scale(0.015625)"/>
      <path id="DejaVuSansMono-7a" d="M 709 3506 
L 3250 3506 
L 3250 2981 
L 1241 469 
L 3250 469 
L 3250 0 
L 634 0 
L 634 531 
L 2644 3047 
L 709 3047 
L 709 3506 
z
" transform="scale(0.015625)"/>
     </defs>
     <use xlink:href="#DejaVuSansMono-50"/>
     <use xlink:href="#DejaVuSansMono-65" transform="translate(60.205078 0)"/>
     <use xlink:href="#DejaVuSansMono-72" transform="translate(120.410156 0)"/>
     <use xlink:href="#DejaVuSansMono-2d" transform="translate(180.615234 0)"/>
     <use xlink:href="#DejaVuSansMono-6e" transform="translate(240.820312 0)"/>
     <use xlink:href="#DejaVuSansMono-6f" transform="translate(301.025391 0)"/>
     <use xlink:href="#DejaVuSansMono-64" transform="translate(361.230469 0)"/>
     <use xlink:href="#DejaVuSansMono-65" transform="translate(421.435547 0)"/>
     <use xlink:href="#DejaVuSansMono-20" transform="translate(481.640625 0)"/>
     <use xlink:href="#DejaVuSansMono-61" transform="translate(541.845703 0)"/>
     <use xlink:href="#DejaVuSansMono-6d" transform="translate(602.050781 0)"/>
     <use xlink:href="#DejaVuSansMono-6f" transform="translate(662.255859 0)"/>
     <use xlink:href="#DejaVuSansMono-72" transform="translate(722.460938 0)"/>
     <use xlink:href="#DejaVuSansMono-74" transform="translate(782.666016 0)"/>
     <use xlink:href="#DejaVuSansMono-69" transform="translate(842.871094 0)"/>
     <use xlink:href="#DejaVuSansMono-7a" transform="translate(903.076172 0)"/>
     <use xlink:href="#DejaVuSansMono-65" transform="translate(963.28125 0)"/>
     <use xlink:href="#DejaVuSansMono-64" transform="translate(1023.486328 0)"/>
     <use xlink:href="#DejaVuSansMono-20" transform="translate(1083.691406 0)"/>
     <use xlink:href="#DejaVuSansMono-63" transform="translate(1143.896484 0)"/>
     <use xlink:href="#DejaVuSansMono-6f" transform="translate(1204.101562 0)"/>
     <use xlink:href="#DejaVuSansMono-73" transform="translate(1264.306641 0)"/>
     <use xlink:href="#DejaVuSansMono-74" transform="translate(1324.511719 0)"/>
    </g>
   </g>
  </g>
  <g id="text_60">
   <!-- Aurora ezpz yeet tarball broadcast — 8 to 4096 nodes -->
   <g style="fill: #838383" transform="translate(237.196875 16.381875) scale(0.12 -0.12)">
    <defs>
     <path id="DejaVuSansMono-41" d="M 1925 4109 
L 1259 1722 
L 2591 1722 
L 1925 4109 
z
M 1544 4666 
L 2309 4666 
L 3738 0 
L 3084 0 
L 2741 1216 
L 1106 1216 
L 769 0 
L 116 0 
L 1544 4666 
z
" transform="scale(0.015625)"/>
     <path id="DejaVuSansMono-70" d="M 1172 441 
L 1172 -1331 
L 594 -1331 
L 594 3500 
L 1172 3500 
L 1172 3053 
Q 1316 3313 1555 3448 
Q 1794 3584 2106 3584 
Q 2741 3584 3102 3093 
Q 3463 2603 3463 1734 
Q 3463 881 3100 395 
Q 2738 -91 2106 -91 
Q 1788 -91 1548 45 
Q 1309 181 1172 441 
z
M 2859 1747 
Q 2859 2416 2648 2756 
Q 2438 3097 2022 3097 
Q 1603 3097 1387 2755 
Q 1172 2413 1172 1747 
Q 1172 1084 1387 740 
Q 1603 397 2022 397 
Q 2438 397 2648 737 
Q 2859 1078 2859 1747 
z
" transform="scale(0.015625)"/>
     <path id="DejaVuSansMono-2014" d="M 0 1978 
L 3853 1978 
L 3853 1538 
L 0 1538 
L 0 1978 
z
" transform="scale(0.015625)"/>
    </defs>
    <use xlink:href="#DejaVuSansMono-41"/>
    <use xlink:href="#DejaVuSansMono-75" transform="translate(60.205078 0)"/>
    <use xlink:href="#DejaVuSansMono-72" transform="translate(120.410156 0)"/>
    <use xlink:href="#DejaVuSansMono-6f" transform="translate(180.615234 0)"/>
    <use xlink:href="#DejaVuSansMono-72" transform="translate(240.820312 0)"/>
    <use xlink:href="#DejaVuSansMono-61" transform="translate(301.025391 0)"/>
    <use xlink:href="#DejaVuSansMono-20" transform="translate(361.230469 0)"/>
    <use xlink:href="#DejaVuSansMono-65" transform="translate(421.435547 0)"/>
    <use xlink:href="#DejaVuSansMono-7a" transform="translate(481.640625 0)"/>
    <use xlink:href="#DejaVuSansMono-70" transform="translate(541.845703 0)"/>
    <use xlink:href="#DejaVuSansMono-7a" transform="translate(602.050781 0)"/>
    <use xlink:href="#DejaVuSansMono-20" transform="translate(662.255859 0)"/>
    <use xlink:href="#DejaVuSansMono-79" transform="translate(722.460938 0)"/>
    <use xlink:href="#DejaVuSansMono-65" transform="translate(782.666016 0)"/>
    <use xlink:href="#DejaVuSansMono-65" transform="translate(842.871094 0)"/>
    <use xlink:href="#DejaVuSansMono-74" transform="translate(903.076172 0)"/>
    <use xlink:href="#DejaVuSansMono-20" transform="translate(963.28125 0)"/>
    <use xlink:href="#DejaVuSansMono-74" transform="translate(1023.486328 0)"/>
    <use xlink:href="#DejaVuSansMono-61" transform="translate(1083.691406 0)"/>
    <use xlink:href="#DejaVuSansMono-72" transform="translate(1143.896484 0)"/>
    <use xlink:href="#DejaVuSansMono-62" transform="translate(1204.101562 0)"/>
    <use xlink:href="#DejaVuSansMono-61" transform="translate(1264.306641 0)"/>
    <use xlink:href="#DejaVuSansMono-6c" transform="translate(1324.511719 0)"/>
    <use xlink:href="#DejaVuSansMono-6c" transform="translate(1384.716797 0)"/>
    <use xlink:href="#DejaVuSansMono-20" transform="translate(1444.921875 0)"/>
    <use xlink:href="#DejaVuSansMono-62" transform="translate(1505.126953 0)"/>
    <use xlink:href="#DejaVuSansMono-72" transform="translate(1565.332031 0)"/>
    <use xlink:href="#DejaVuSansMono-6f" transform="translate(1625.537109 0)"/>
    <use xlink:href="#DejaVuSansMono-61" transform="translate(1685.742188 0)"/>
    <use xlink:href="#DejaVuSansMono-64" transform="translate(1745.947266 0)"/>
    <use xlink:href="#DejaVuSansMono-63" transform="translate(1806.152344 0)"/>
    <use xlink:href="#DejaVuSansMono-61" transform="translate(1866.357422 0)"/>
    <use xlink:href="#DejaVuSansMono-73" transform="translate(1926.5625 0)"/>
    <use xlink:href="#DejaVuSansMono-74" transform="translate(1986.767578 0)"/>
    <use xlink:href="#DejaVuSansMono-20" transform="translate(2046.972656 0)"/>
    <use xlink:href="#DejaVuSansMono-2014" transform="translate(2107.177734 0)"/>
    <use xlink:href="#DejaVuSansMono-20" transform="translate(2167.382812 0)"/>
    <use xlink:href="#DejaVuSansMono-38" transform="translate(2227.587891 0)"/>
    <use xlink:href="#DejaVuSansMono-20" transform="translate(2287.792969 0)"/>
    <use xlink:href="#DejaVuSansMono-74" transform="translate(2347.998047 0)"/>
    <use xlink:href="#DejaVuSansMono-6f" transform="translate(2408.203125 0)"/>
    <use xlink:href="#DejaVuSansMono-20" transform="translate(2468.408203 0)"/>
    <use xlink:href="#DejaVuSansMono-34" transform="translate(2528.613281 0)"/>
    <use xlink:href="#DejaVuSansMono-30" transform="translate(2588.818359 0)"/>
    <use xlink:href="#DejaVuSansMono-39" transform="translate(2649.023438 0)"/>
    <use xlink:href="#DejaVuSansMono-36" transform="translate(2709.228516 0)"/>
    <use xlink:href="#DejaVuSansMono-20" transform="translate(2769.433594 0)"/>
    <use xlink:href="#DejaVuSansMono-6e" transform="translate(2829.638672 0)"/>
    <use xlink:href="#DejaVuSansMono-6f" transform="translate(2889.84375 0)"/>
    <use xlink:href="#DejaVuSansMono-64" transform="translate(2950.048828 0)"/>
    <use xlink:href="#DejaVuSansMono-65" transform="translate(3010.253906 0)"/>
    <use xlink:href="#DejaVuSansMono-73" transform="translate(3070.458984 0)"/>
   </g>
  </g>
 </g>
 <defs>
  <clipPath id="pe4dd169fc0">
   <rect x="48.050625" y="69.792" width="366.334711" height="243.54"/>
  </clipPath>
  <clipPath id="pbece09bc0b">
   <rect x="477.170625" y="69.792" width="366.334711" height="243.54"/>
  </clipPath>
 </defs>
</svg>
