<?xml version="1.0" encoding="utf-8" standalone="no"?>
<!DOCTYPE svg PUBLIC "-//W3C//DTD SVG 1.1//EN"
  "http://www.w3.org/Graphics/SVG/1.1/DTD/svg11.dtd">
<svg xmlns:xlink="http://www.w3.org/1999/xlink" width="769.374616pt" height="577.3515pt" viewBox="0 0 769.374616 577.3515" xmlns="http://www.w3.org/2000/svg" version="1.1">
 <metadata>
  <rdf:RDF xmlns:dc="http://purl.org/dc/elements/1.1/" xmlns:cc="http://creativecommons.org/ns#" xmlns:rdf="http://www.w3.org/1999/02/22-rdf-syntax-ns#">
   <cc:Work>
    <dc:type rdf:resource="http://purl.org/dc/dcmitype/StillImage"/>
    <dc:date>2026-01-07T12:37:05.164706</dc:date>
    <dc:format>image/svg+xml</dc:format>
    <dc:creator>
     <cc:Agent>
      <dc:title>Matplotlib v3.10.8, https://matplotlib.org/</dc:title>
     </cc:Agent>
    </dc:creator>
   </cc:Work>
  </rdf:RDF>
 </metadata>
 <defs>
  <style type="text/css">*{stroke-linejoin: round; stroke-linecap: butt}</style>
 </defs>
 <g id="figure_1">
  <g id="patch_1">
   <path d="M 0 577.3515 
L 769.374616 577.3515 
L 769.374616 0 
L 0 0 
L 0 577.3515 
z
" style="fill: none"/>
  </g>
  <g id="axes_1">
   <g id="patch_2">
    <path d="M 45.3975 539.424 
L 759.6375 539.424 
L 759.6375 7.2 
L 45.3975 7.2 
L 45.3975 539.424 
z
" style="fill: none"/>
   </g>
   <g id="matplotlib.axis_1">
    <g id="xtick_1">
     <g id="text_1">
      <!-- 0 -->
      <g style="fill: #838383" transform="translate(74.045455 552.042125) scale(0.12 -0.12)">
       <defs>
        <path id="DejaVuSans-30" d="M 2034 4250 
Q 1547 4250 1301 3770 
Q 1056 3291 1056 2328 
Q 1056 1369 1301 889 
Q 1547 409 2034 409 
Q 2525 409 2770 889 
Q 3016 1369 3016 2328 
Q 3016 3291 2770 3770 
Q 2525 4250 2034 4250 
z
M 2034 4750 
Q 2819 4750 3233 4129 
Q 3647 3509 3647 2328 
Q 3647 1150 3233 529 
Q 2819 -91 2034 -91 
Q 1250 -91 836 529 
Q 422 1150 422 2328 
Q 422 3509 836 4129 
Q 1250 4750 2034 4750 
z
" transform="scale(0.015625)"/>
       </defs>
       <use xlink:href="#DejaVuSans-30"/>
      </g>
     </g>
    </g>
    <g id="xtick_2">
     <g id="text_2">
      <!-- 25 -->
      <g style="fill: #838383" transform="translate(154.33535 552.042125) scale(0.12 -0.12)">
       <defs>
        <path id="DejaVuSans-32" d="M 1228 531 
L 3431 531 
L 3431 0 
L 469 0 
L 469 531 
Q 828 903 1448 1529 
Q 2069 2156 2228 2338 
Q 2531 2678 2651 2914 
Q 2772 3150 2772 3378 
Q 2772 3750 2511 3984 
Q 2250 4219 1831 4219 
Q 1534 4219 1204 4116 
Q 875 4013 500 3803 
L 500 4441 
Q 881 4594 1212 4672 
Q 1544 4750 1819 4750 
Q 2544 4750 2975 4387 
Q 3406 4025 3406 3419 
Q 3406 3131 3298 2873 
Q 3191 2616 2906 2266 
Q 2828 2175 2409 1742 
Q 1991 1309 1228 531 
z
" transform="scale(0.015625)"/>
        <path id="DejaVuSans-35" d="M 691 4666 
L 3169 4666 
L 3169 4134 
L 1269 4134 
L 1269 2991 
Q 1406 3038 1543 3061 
Q 1681 3084 1819 3084 
Q 2600 3084 3056 2656 
Q 3513 2228 3513 1497 
Q 3513 744 3044 326 
Q 2575 -91 1722 -91 
Q 1428 -91 1123 -41 
Q 819 9 494 109 
L 494 744 
Q 775 591 1075 516 
Q 1375 441 1709 441 
Q 2250 441 2565 725 
Q 2881 1009 2881 1497 
Q 2881 1984 2565 2268 
Q 2250 2553 1709 2553 
Q 1456 2553 1204 2497 
Q 953 2441 691 2322 
L 691 4666 
z
" transform="scale(0.015625)"/>
       </defs>
       <use xlink:href="#DejaVuSans-32"/>
       <use xlink:href="#DejaVuSans-35" transform="translate(63.623047 0)"/>
      </g>
     </g>
    </g>
    <g id="xtick_3">
     <g id="text_3">
      <!-- 50 -->
      <g style="fill: #838383" transform="translate(238.442745 552.042125) scale(0.12 -0.12)">
       <use xlink:href="#DejaVuSans-35"/>
       <use xlink:href="#DejaVuSans-30" transform="translate(63.623047 0)"/>
      </g>
     </g>
    </g>
    <g id="xtick_4">
     <g id="text_4">
      <!-- 75 -->
      <g style="fill: #838383" transform="translate(322.55014 552.042125) scale(0.12 -0.12)">
       <defs>
        <path id="DejaVuSans-37" d="M 525 4666 
L 3525 4666 
L 3525 4397 
L 1831 0 
L 1172 0 
L 2766 4134 
L 525 4134 
L 525 4666 
z
" transform="scale(0.015625)"/>
       </defs>
       <use xlink:href="#DejaVuSans-37"/>
       <use xlink:href="#DejaVuSans-35" transform="translate(63.623047 0)"/>
      </g>
     </g>
    </g>
    <g id="xtick_5">
     <g id="text_5">
      <!-- 100 -->
      <g style="fill: #838383" transform="translate(402.840035 552.042125) scale(0.12 -0.12)">
       <defs>
        <path id="DejaVuSans-31" d="M 794 531 
L 1825 531 
L 1825 4091 
L 703 3866 
L 703 4441 
L 1819 4666 
L 2450 4666 
L 2450 531 
L 3481 531 
L 3481 0 
L 794 0 
L 794 531 
z
" transform="scale(0.015625)"/>
       </defs>
       <use xlink:href="#DejaVuSans-31"/>
       <use xlink:href="#DejaVuSans-30" transform="translate(63.623047 0)"/>
       <use xlink:href="#DejaVuSans-30" transform="translate(127.246094 0)"/>
      </g>
     </g>
    </g>
    <g id="xtick_6">
     <g id="text_6">
      <!-- 125 -->
      <g style="fill: #838383" transform="translate(486.947431 552.042125) scale(0.12 -0.12)">
       <use xlink:href="#DejaVuSans-31"/>
       <use xlink:href="#DejaVuSans-32" transform="translate(63.623047 0)"/>
       <use xlink:href="#DejaVuSans-35" transform="translate(127.246094 0)"/>
      </g>
     </g>
    </g>
    <g id="xtick_7">
     <g id="text_7">
      <!-- 150 -->
      <g style="fill: #838383" transform="translate(571.054826 552.042125) scale(0.12 -0.12)">
       <use xlink:href="#DejaVuSans-31"/>
       <use xlink:href="#DejaVuSans-35" transform="translate(63.623047 0)"/>
       <use xlink:href="#DejaVuSans-30" transform="translate(127.246094 0)"/>
      </g>
     </g>
    </g>
    <g id="xtick_8">
     <g id="text_8">
      <!-- 175 -->
      <g style="fill: #838383" transform="translate(655.162221 552.042125) scale(0.12 -0.12)">
       <use xlink:href="#DejaVuSans-31"/>
       <use xlink:href="#DejaVuSans-37" transform="translate(63.623047 0)"/>
       <use xlink:href="#DejaVuSans-35" transform="translate(127.246094 0)"/>
      </g>
     </g>
    </g>
    <g id="xtick_9">
     <g id="text_9">
      <!-- 200 -->
      <g style="fill: #838383" transform="translate(739.269616 552.042125) scale(0.12 -0.12)">
       <use xlink:href="#DejaVuSans-32"/>
       <use xlink:href="#DejaVuSans-30" transform="translate(63.623047 0)"/>
       <use xlink:href="#DejaVuSans-30" transform="translate(127.246094 0)"/>
      </g>
     </g>
    </g>
    <g id="text_10">
     <!-- draw -->
     <g style="fill: #262626" transform="translate(387.658125 567.655875) scale(0.12 -0.12)">
      <defs>
       <path id="DejaVuSans-64" d="M 2906 2969 
L 2906 4863 
L 3481 4863 
L 3481 0 
L 2906 0 
L 2906 525 
Q 2725 213 2448 61 
Q 2172 -91 1784 -91 
Q 1150 -91 751 415 
Q 353 922 353 1747 
Q 353 2572 751 3078 
Q 1150 3584 1784 3584 
Q 2172 3584 2448 3432 
Q 2725 3281 2906 2969 
z
M 947 1747 
Q 947 1113 1208 752 
Q 1469 391 1925 391 
Q 2381 391 2643 752 
Q 2906 1113 2906 1747 
Q 2906 2381 2643 2742 
Q 2381 3103 1925 3103 
Q 1469 3103 1208 2742 
Q 947 2381 947 1747 
z
" transform="scale(0.015625)"/>
       <path id="DejaVuSans-72" d="M 2631 2963 
Q 2534 3019 2420 3045 
Q 2306 3072 2169 3072 
Q 1681 3072 1420 2755 
Q 1159 2438 1159 1844 
L 1159 0 
L 581 0 
L 581 3500 
L 1159 3500 
L 1159 2956 
Q 1341 3275 1631 3429 
Q 1922 3584 2338 3584 
Q 2397 3584 2469 3576 
Q 2541 3569 2628 3553 
L 2631 2963 
z
" transform="scale(0.015625)"/>
       <path id="DejaVuSans-61" d="M 2194 1759 
Q 1497 1759 1228 1600 
Q 959 1441 959 1056 
Q 959 750 1161 570 
Q 1363 391 1709 391 
Q 2188 391 2477 730 
Q 2766 1069 2766 1631 
L 2766 1759 
L 2194 1759 
z
M 3341 1997 
L 3341 0 
L 2766 0 
L 2766 531 
Q 2569 213 2275 61 
Q 1981 -91 1556 -91 
Q 1019 -91 701 211 
Q 384 513 384 1019 
Q 384 1609 779 1909 
Q 1175 2209 1959 2209 
L 2766 2209 
L 2766 2266 
Q 2766 2663 2505 2880 
Q 2244 3097 1772 3097 
Q 1472 3097 1187 3025 
Q 903 2953 641 2809 
L 641 3341 
Q 956 3463 1253 3523 
Q 1550 3584 1831 3584 
Q 2591 3584 2966 3190 
Q 3341 2797 3341 1997 
z
" transform="scale(0.015625)"/>
       <path id="DejaVuSans-77" d="M 269 3500 
L 844 3500 
L 1563 769 
L 2278 3500 
L 2956 3500 
L 3675 769 
L 4391 3500 
L 4966 3500 
L 4050 0 
L 3372 0 
L 2619 2869 
L 1863 0 
L 1184 0 
L 269 3500 
z
" transform="scale(0.015625)"/>
      </defs>
      <use xlink:href="#DejaVuSans-64"/>
      <use xlink:href="#DejaVuSans-72" transform="translate(63.476562 0)"/>
      <use xlink:href="#DejaVuSans-61" transform="translate(104.589844 0)"/>
      <use xlink:href="#DejaVuSans-77" transform="translate(165.869141 0)"/>
     </g>
    </g>
   </g>
   <g id="matplotlib.axis_2">
    <g id="ytick_1">
     <g id="text_11">
      <!-- 0.5 -->
      <g style="fill: #838383" transform="translate(22.81375 478.671711) scale(0.12 -0.12)">
       <defs>
        <path id="DejaVuSans-2e" d="M 684 794 
L 1344 794 
L 1344 0 
L 684 0 
L 684 794 
z
" transform="scale(0.015625)"/>
       </defs>
       <use xlink:href="#DejaVuSans-30"/>
       <use xlink:href="#DejaVuSans-2e" transform="translate(63.623047 0)"/>
       <use xlink:href="#DejaVuSans-35" transform="translate(95.410156 0)"/>
      </g>
     </g>
    </g>
    <g id="ytick_2">
     <g id="text_12">
      <!-- 0.6 -->
      <g style="fill: #838383" transform="translate(22.81375 391.50509) scale(0.12 -0.12)">
       <defs>
        <path id="DejaVuSans-36" d="M 2113 2584 
Q 1688 2584 1439 2293 
Q 1191 2003 1191 1497 
Q 1191 994 1439 701 
Q 1688 409 2113 409 
Q 2538 409 2786 701 
Q 3034 994 3034 1497 
Q 3034 2003 2786 2293 
Q 2538 2584 2113 2584 
z
M 3366 4563 
L 3366 3988 
Q 3128 4100 2886 4159 
Q 2644 4219 2406 4219 
Q 1781 4219 1451 3797 
Q 1122 3375 1075 2522 
Q 1259 2794 1537 2939 
Q 1816 3084 2150 3084 
Q 2853 3084 3261 2657 
Q 3669 2231 3669 1497 
Q 3669 778 3244 343 
Q 2819 -91 2113 -91 
Q 1303 -91 875 529 
Q 447 1150 447 2328 
Q 447 3434 972 4092 
Q 1497 4750 2381 4750 
Q 2619 4750 2861 4703 
Q 3103 4656 3366 4563 
z
" transform="scale(0.015625)"/>
       </defs>
       <use xlink:href="#DejaVuSans-30"/>
       <use xlink:href="#DejaVuSans-2e" transform="translate(63.623047 0)"/>
       <use xlink:href="#DejaVuSans-36" transform="translate(95.410156 0)"/>
      </g>
     </g>
    </g>
    <g id="ytick_3">
     <g id="text_13">
      <!-- 0.7 -->
      <g style="fill: #838383" transform="translate(22.81375 304.338469) scale(0.12 -0.12)">
       <use xlink:href="#DejaVuSans-30"/>
       <use xlink:href="#DejaVuSans-2e" transform="translate(63.623047 0)"/>
       <use xlink:href="#DejaVuSans-37" transform="translate(95.410156 0)"/>
      </g>
     </g>
    </g>
    <g id="ytick_4">
     <g id="text_14">
      <!-- 0.8 -->
      <g style="fill: #838383" transform="translate(22.81375 217.171848) scale(0.12 -0.12)">
       <defs>
        <path id="DejaVuSans-38" d="M 2034 2216 
Q 1584 2216 1326 1975 
Q 1069 1734 1069 1313 
Q 1069 891 1326 650 
Q 1584 409 2034 409 
Q 2484 409 2743 651 
Q 3003 894 3003 1313 
Q 3003 1734 2745 1975 
Q 2488 2216 2034 2216 
z
M 1403 2484 
Q 997 2584 770 2862 
Q 544 3141 544 3541 
Q 544 4100 942 4425 
Q 1341 4750 2034 4750 
Q 2731 4750 3128 4425 
Q 3525 4100 3525 3541 
Q 3525 3141 3298 2862 
Q 3072 2584 2669 2484 
Q 3125 2378 3379 2068 
Q 3634 1759 3634 1313 
Q 3634 634 3220 271 
Q 2806 -91 2034 -91 
Q 1263 -91 848 271 
Q 434 634 434 1313 
Q 434 1759 690 2068 
Q 947 2378 1403 2484 
z
M 1172 3481 
Q 1172 3119 1398 2916 
Q 1625 2713 2034 2713 
Q 2441 2713 2670 2916 
Q 2900 3119 2900 3481 
Q 2900 3844 2670 4047 
Q 2441 4250 2034 4250 
Q 1625 4250 1398 4047 
Q 1172 3844 1172 3481 
z
" transform="scale(0.015625)"/>
       </defs>
       <use xlink:href="#DejaVuSans-30"/>
       <use xlink:href="#DejaVuSans-2e" transform="translate(63.623047 0)"/>
       <use xlink:href="#DejaVuSans-38" transform="translate(95.410156 0)"/>
      </g>
     </g>
    </g>
    <g id="ytick_5">
     <g id="text_15">
      <!-- 0.9 -->
      <g style="fill: #838383" transform="translate(22.81375 130.005227) scale(0.12 -0.12)">
       <defs>
        <path id="DejaVuSans-39" d="M 703 97 
L 703 672 
Q 941 559 1184 500 
Q 1428 441 1663 441 
Q 2288 441 2617 861 
Q 2947 1281 2994 2138 
Q 2813 1869 2534 1725 
Q 2256 1581 1919 1581 
Q 1219 1581 811 2004 
Q 403 2428 403 3163 
Q 403 3881 828 4315 
Q 1253 4750 1959 4750 
Q 2769 4750 3195 4129 
Q 3622 3509 3622 2328 
Q 3622 1225 3098 567 
Q 2575 -91 1691 -91 
Q 1453 -91 1209 -44 
Q 966 3 703 97 
z
M 1959 2075 
Q 2384 2075 2632 2365 
Q 2881 2656 2881 3163 
Q 2881 3666 2632 3958 
Q 2384 4250 1959 4250 
Q 1534 4250 1286 3958 
Q 1038 3666 1038 3163 
Q 1038 2656 1286 2365 
Q 1534 2075 1959 2075 
z
" transform="scale(0.015625)"/>
       </defs>
       <use xlink:href="#DejaVuSans-30"/>
       <use xlink:href="#DejaVuSans-2e" transform="translate(63.623047 0)"/>
       <use xlink:href="#DejaVuSans-39" transform="translate(95.410156 0)"/>
      </g>
     </g>
    </g>
    <g id="ytick_6">
     <g id="text_16">
      <!-- 1.0 -->
      <g style="fill: #838383" transform="translate(22.81375 42.838606) scale(0.12 -0.12)">
       <use xlink:href="#DejaVuSans-31"/>
       <use xlink:href="#DejaVuSans-2e" transform="translate(63.623047 0)"/>
       <use xlink:href="#DejaVuSans-30" transform="translate(95.410156 0)"/>
      </g>
     </g>
    </g>
    <g id="text_17">
     <!-- accuracy -->
     <g style="fill: #262626" transform="translate(16.318125 300.38325) rotate(-90) scale(0.12 -0.12)">
      <defs>
       <path id="DejaVuSans-63" d="M 3122 3366 
L 3122 2828 
Q 2878 2963 2633 3030 
Q 2388 3097 2138 3097 
Q 1578 3097 1268 2742 
Q 959 2388 959 1747 
Q 959 1106 1268 751 
Q 1578 397 2138 397 
Q 2388 397 2633 464 
Q 2878 531 3122 666 
L 3122 134 
Q 2881 22 2623 -34 
Q 2366 -91 2075 -91 
Q 1284 -91 818 406 
Q 353 903 353 1747 
Q 353 2603 823 3093 
Q 1294 3584 2113 3584 
Q 2378 3584 2631 3529 
Q 2884 3475 3122 3366 
z
" transform="scale(0.015625)"/>
       <path id="DejaVuSans-75" d="M 544 1381 
L 544 3500 
L 1119 3500 
L 1119 1403 
Q 1119 906 1312 657 
Q 1506 409 1894 409 
Q 2359 409 2629 706 
Q 2900 1003 2900 1516 
L 2900 3500 
L 3475 3500 
L 3475 0 
L 2900 0 
L 2900 538 
Q 2691 219 2414 64 
Q 2138 -91 1772 -91 
Q 1169 -91 856 284 
Q 544 659 544 1381 
z
M 1991 3584 
L 1991 3584 
z
" transform="scale(0.015625)"/>
       <path id="DejaVuSans-79" d="M 2059 -325 
Q 1816 -950 1584 -1140 
Q 1353 -1331 966 -1331 
L 506 -1331 
L 506 -850 
L 844 -850 
Q 1081 -850 1212 -737 
Q 1344 -625 1503 -206 
L 1606 56 
L 191 3500 
L 800 3500 
L 1894 763 
L 2988 3500 
L 3597 3500 
L 2059 -325 
z
" transform="scale(0.015625)"/>
      </defs>
      <use xlink:href="#DejaVuSans-61"/>
      <use xlink:href="#DejaVuSans-63" transform="translate(61.279297 0)"/>
      <use xlink:href="#DejaVuSans-63" transform="translate(116.259766 0)"/>
      <use xlink:href="#DejaVuSans-75" transform="translate(171.240234 0)"/>
      <use xlink:href="#DejaVuSans-72" transform="translate(234.619141 0)"/>
      <use xlink:href="#DejaVuSans-61" transform="translate(275.732422 0)"/>
      <use xlink:href="#DejaVuSans-63" transform="translate(337.011719 0)"/>
      <use xlink:href="#DejaVuSans-79" transform="translate(391.992188 0)"/>
     </g>
    </g>
   </g>
   <g id="FillBetweenPolyCollection_1">
    <defs>
     <path id="m2407698421" d="M 77.862955 -188.055046 
L 77.862955 -62.1195 
L 81.22725 -62.396539 
L 84.591546 -126.338637 
L 87.955842 -192.625445 
L 91.320138 -237.146203 
L 94.684434 -263.318735 
L 98.048729 -264.819742 
L 101.413025 -268.733493 
L 104.777321 -270.286984 
L 108.141617 -284.96798 
L 111.505913 -291.229334 
L 114.870208 -293.892965 
L 118.234504 -324.762875 
L 121.5988 -311.611143 
L 124.963096 -321.156235 
L 128.327392 -325.269592 
L 131.691687 -342.330819 
L 135.055983 -346.794654 
L 138.420279 -348.32243 
L 141.784575 -353.618334 
L 145.148871 -380.628005 
L 148.513167 -373.310988 
L 151.877462 -364.574663 
L 155.241758 -387.189244 
L 158.606054 -384.975719 
L 161.97035 -391.591921 
L 165.334646 -399.620059 
L 168.698941 -385.214619 
L 172.063237 -400.044434 
L 175.427533 -407.431815 
L 178.791829 -396.709147 
L 182.156125 -414.857 
L 185.52042 -415.975654 
L 188.884716 -412.321803 
L 192.249012 -433.070552 
L 195.613308 -414.073507 
L 198.977604 -422.744518 
L 202.341899 -418.778392 
L 205.706195 -426.611875 
L 209.070491 -426.596087 
L 212.434787 -423.788949 
L 215.799083 -436.404939 
L 219.163378 -425.010011 
L 222.527674 -439.055542 
L 225.89197 -444.201946 
L 229.256266 -439.863495 
L 232.620562 -433.135072 
L 235.984858 -441.81928 
L 239.349153 -438.99669 
L 242.713449 -450.647295 
L 246.077745 -438.168095 
L 249.442041 -453.88003 
L 252.806337 -445.17437 
L 256.170632 -449.019648 
L 259.534928 -476.448782 
L 262.899224 -458.819929 
L 266.26352 -456.329269 
L 269.627816 -453.652619 
L 272.992111 -454.073163 
L 276.356407 -458.665904 
L 279.720703 -465.870916 
L 283.084999 -455.22243 
L 286.449295 -458.043156 
L 289.81359 -465.731763 
L 293.177886 -460.341968 
L 296.542182 -468.622434 
L 299.906478 -462.731252 
L 303.270774 -467.392871 
L 306.635069 -469.592742 
L 309.999365 -469.886369 
L 313.363661 -474.382657 
L 316.727957 -472.404386 
L 320.092253 -474.315624 
L 323.456549 -470.11486 
L 326.820844 -496.787448 
L 330.18514 -479.835206 
L 333.549436 -478.376233 
L 336.913732 -467.761181 
L 340.278028 -478.530565 
L 343.642323 -479.876407 
L 347.006619 -484.425201 
L 350.370915 -471.710136 
L 353.735211 -481.04003 
L 357.099507 -482.108855 
L 360.463802 -487.194385 
L 363.828098 -486.341421 
L 367.192394 -486.483933 
L 370.55669 -486.38063 
L 373.920986 -488.047924 
L 377.285281 -490.443183 
L 380.649577 -492.167031 
L 384.013873 -488.128612 
L 387.378169 -490.079914 
L 390.742465 -485.562742 
L 394.10676 -515.092868 
L 397.471056 -490.050045 
L 400.835352 -493.704653 
L 404.199648 -497.772749 
L 407.563944 -487.562536 
L 410.92824 -489.389608 
L 414.292535 -494.895601 
L 417.656831 -484.046347 
L 421.021127 -496.583108 
L 424.385423 -499.437864 
L 427.749719 -497.200993 
L 431.114014 -495.27787 
L 434.47831 -499.635441 
L 437.842606 -492.834063 
L 441.206902 -505.054294 
L 444.571198 -502.598177 
L 447.935493 -494.497027 
L 451.299789 -494.991908 
L 454.664085 -504.324247 
L 458.028381 -498.71426 
L 461.392677 -524.274917 
L 464.756972 -487.675117 
L 468.121268 -495.338593 
L 471.485564 -505.983748 
L 474.84986 -503.57004 
L 478.214156 -499.450044 
L 481.578451 -506.27067 
L 484.942747 -492.938616 
L 488.307043 -501.468375 
L 491.671339 -500.430531 
L 495.035635 -504.188267 
L 498.399931 -510.140259 
L 501.764226 -505.048192 
L 505.128522 -499.454396 
L 508.492818 -499.13063 
L 511.857114 -500.65719 
L 515.22141 -509.118412 
L 518.585705 -509.354649 
L 521.950001 -498.728058 
L 525.314297 -497.722584 
L 528.678593 -522.193815 
L 532.042889 -507.399731 
L 535.407184 -504.557463 
L 538.77148 -505.281236 
L 542.135776 -508.027534 
L 545.500072 -503.866854 
L 548.864368 -510.493749 
L 552.228663 -503.800463 
L 555.592959 -506.100666 
L 558.957255 -511.920171 
L 562.321551 -506.650164 
L 565.685847 -510.088185 
L 569.050142 -508.90781 
L 572.414438 -512.605916 
L 575.778734 -507.875196 
L 579.14303 -502.550195 
L 582.507326 -519.063249 
L 585.871622 -504.417533 
L 589.235917 -514.246792 
L 592.600213 -515.739281 
L 595.964509 -521.502184 
L 599.328805 -510.376923 
L 602.693101 -511.2989 
L 606.057396 -511.91093 
L 609.421692 -509.006696 
L 612.785988 -509.026911 
L 616.150284 -513.86433 
L 619.51458 -502.678245 
L 622.878875 -508.611693 
L 626.243171 -509.916772 
L 629.607467 -517.958411 
L 632.971763 -516.610243 
L 636.336059 -516.013124 
L 639.700354 -509.754832 
L 643.06465 -518.528653 
L 646.428946 -512.431676 
L 649.793242 -522.360133 
L 653.157538 -506.197587 
L 656.521833 -515.303008 
L 659.886129 -512.746567 
L 663.250425 -522.193815 
L 666.614721 -514.330985 
L 669.979017 -507.680753 
L 673.343313 -516.817069 
L 676.707608 -516.573455 
L 680.071904 -519.475803 
L 683.4362 -506.123945 
L 686.800496 -508.57392 
L 690.164792 -521.793588 
L 693.529087 -520.991812 
L 696.893383 -516.418411 
L 700.257679 -514.849844 
L 703.621975 -513.629736 
L 706.986271 -520.825507 
L 710.350566 -517.047061 
L 713.714862 -509.980468 
L 717.079158 -519.719918 
L 720.443454 -514.6771 
L 723.80775 -520.433598 
L 727.172045 -518.947452 
L 727.172045 -538.199328 
L 727.172045 -538.199328 
L 723.80775 -538.415655 
L 720.443454 -542.469679 
L 717.079158 -539.696791 
L 713.714862 -539.221403 
L 710.350566 -536.694772 
L 706.986271 -540.861235 
L 703.621975 -544.0845 
L 700.257679 -538.324533 
L 696.893383 -535.053493 
L 693.529087 -536.722424 
L 690.164792 -536.488208 
L 686.800496 -536.088092 
L 683.4362 -538.538066 
L 680.071904 -534.833487 
L 676.707608 -539.438308 
L 673.343313 -535.222291 
L 669.979017 -539.251188 
L 666.614721 -536.573358 
L 663.250425 -543.131465 
L 659.886129 -535.320391 
L 656.521833 -537.303809 
L 653.157538 -537.896864 
L 649.793242 -536.48912 
L 646.428946 -536.770195 
L 643.06465 -535.780637 
L 639.700354 -540.582055 
L 636.336059 -536.026236 
L 632.971763 -535.429117 
L 629.607467 -537.485896 
L 626.243171 -538.717642 
L 622.878875 -537.185232 
L 619.51458 -536.876347 
L 616.150284 -537.607574 
L 612.785988 -534.500084 
L 609.421692 -535.087755 
L 606.057396 -538.425957 
L 602.693101 -534.498025 
L 599.328805 -532.582616 
L 595.964509 -545.9595 
L 592.600213 -533.46259 
L 589.235917 -532.117692 
L 585.871622 -533.434586 
L 582.507326 -534.111128 
L 579.14303 -534.734365 
L 575.778734 -531.679397 
L 572.414438 -532.623552 
L 569.050142 -534.051729 
L 565.685847 -534.006266 
L 562.321551 -536.309375 
L 558.957255 -536.146787 
L 555.592959 -528.913964 
L 552.228663 -533.484096 
L 548.864368 -535.870736 
L 545.500072 -534.552722 
L 542.135776 -532.661972 
L 538.77148 -528.030921 
L 535.407184 -531.024623 
L 532.042889 -527.047442 
L 528.678593 -543.131465 
L 525.314297 -533.319643 
L 521.950001 -532.314169 
L 518.585705 -531.334856 
L 515.22141 -531.003636 
L 511.857114 -529.817477 
L 508.492818 -534.181527 
L 505.128522 -529.885358 
L 501.764226 -531.101455 
L 498.399931 -531.116807 
L 495.035635 -530.258906 
L 491.671339 -534.016642 
L 488.307043 -526.168907 
L 484.942747 -529.591246 
L 481.578451 -528.743959 
L 478.214156 -525.917204 
L 474.84986 -530.309573 
L 471.485564 -527.328409 
L 468.121268 -526.623708 
L 464.756972 -535.422201 
L 461.392677 -538.913959 
L 458.028381 -525.518075 
L 454.664085 -527.852893 
L 451.299789 -523.565447 
L 447.935493 -527.465275 
L 444.571198 -522.769071 
L 441.206902 -526.555389 
L 437.842606 -527.993326 
L 434.47831 -521.759404 
L 431.114014 -531.79185 
L 427.749719 -523.058835 
L 424.385423 -529.33433 
L 421.021127 -519.136861 
L 417.656831 -520.891224 
L 414.292535 -524.229315 
L 410.92824 -522.357855 
L 407.563944 -523.050014 
L 404.199648 -519.649694 
L 400.835352 -519.177826 
L 397.471056 -519.994945 
L 394.10676 -539.550184 
L 390.742465 -515.969883 
L 387.378169 -524.505039 
L 384.013873 -519.078992 
L 380.649577 -520.147993 
L 377.285281 -513.359475 
L 373.920986 -516.889647 
L 370.55669 -520.259414 
L 367.192394 -515.616252 
L 363.828098 -521.433639 
L 360.463802 -516.608273 
L 357.099507 -515.451367 
L 353.735211 -502.900408 
L 350.370915 -510.527829 
L 347.006619 -518.242441 
L 343.642323 -516.548799 
L 340.278028 -511.652308 
L 336.913732 -508.801908 
L 333.549436 -509.536607 
L 330.18514 -509.780107 
L 326.820844 -533.286539 
L 323.456549 -509.285615 
L 320.092253 -513.597217 
L 316.727957 -507.563649 
L 313.363661 -507.855307 
L 309.999365 -497.029338 
L 306.635069 -505.83533 
L 303.270774 -503.495238 
L 299.906478 -505.886928 
L 296.542182 -508.508112 
L 293.177886 -503.736249 
L 289.81359 -498.346454 
L 286.449295 -495.820223 
L 283.084999 -488.42611 
L 279.720703 -492.532426 
L 276.356407 -494.630018 
L 272.992111 -496.38527 
L 269.627816 -497.373374 
L 266.26352 -492.994251 
L 262.899224 -501.285885 
L 259.534928 -517.305918 
L 256.170632 -482.144125 
L 252.806337 -491.664278 
L 249.442041 -489.76851 
L 246.077745 -485.618329 
L 242.713449 -482.786407 
L 239.349153 -484.789734 
L 235.984858 -483.102057 
L 232.620562 -477.031567 
L 229.256266 -493.00275 
L 225.89197 -481.286951 
L 222.527674 -479.623462 
L 219.163378 -478.914192 
L 215.799083 -469.221737 
L 212.434787 -467.082927 
L 209.070491 -472.220698 
L 205.706195 -464.827561 
L 202.341899 -474.930973 
L 198.977604 -466.992445 
L 195.613308 -469.988476 
L 192.249012 -485.908963 
L 188.884716 -466.632761 
L 185.52042 -472.058836 
L 182.156125 -458.990145 
L 178.791829 -451.033445 
L 175.427533 -453.363106 
L 172.063237 -440.888266 
L 168.698941 -440.395823 
L 165.334646 -454.932425 
L 161.97035 -460.123074 
L 158.606054 -451.984579 
L 155.241758 -447.50102 
L 151.877462 -433.796211 
L 148.513167 -430.734761 
L 145.148871 -434.200142 
L 141.784575 -422.052933 
L 138.420279 -418.836472 
L 135.055983 -424.336651 
L 131.691687 -411.775755 
L 128.327392 -408.974761 
L 124.963096 -410.885003 
L 121.5988 -389.718765 
L 118.234504 -382.809469 
L 114.870208 -379.062358 
L 111.505913 -373.213624 
L 108.141617 -367.557666 
L 104.777321 -376.563786 
L 101.413025 -337.82538 
L 98.048729 -354.79146 
L 94.684434 -347.780101 
L 91.320138 -322.878441 
L 87.955842 -299.867733 
L 84.591546 -262.871244 
L 81.22725 -214.45012 
L 77.862955 -188.055046 
z
" style="stroke: #023eff; stroke-opacity: 0.2"/>
    </defs>
    <g clip-path="url(#p3aa2f1eb47)">
     <use xlink:href="#m2407698421" x="0" y="577.3515" style="fill: #023eff; fill-opacity: 0.2; stroke: #023eff; stroke-opacity: 0.2"/>
    </g>
   </g>
   <g id="line2d_1">
    <path d="M 77.862955 446.87308 
L 81.22725 433.253295 
L 84.591546 406.013726 
L 87.955842 317.485127 
L 91.320138 331.104911 
L 94.684434 256.196096 
L 98.048729 283.435665 
L 101.413025 242.576312 
L 104.777321 283.435665 
L 108.141617 290.245558 
L 111.505913 263.005988 
L 114.870208 269.815881 
L 118.234504 228.956527 
L 121.5988 256.196096 
L 124.963096 230.55883 
L 128.327392 215.336743 
L 131.691687 194.907066 
L 135.055983 167.667497 
L 138.420279 160.857604 
L 141.784575 181.287281 
L 145.148871 174.477389 
L 148.513167 208.52685 
L 151.877462 188.097174 
L 155.241758 160.857604 
L 158.606054 181.287281 
L 161.97035 188.097174 
L 165.334646 147.23782 
L 168.698941 140.427928 
L 172.063237 154.047712 
L 175.427533 174.477389 
L 178.791829 126.808143 
L 182.156125 140.427928 
L 185.52042 126.808143 
L 188.884716 154.047712 
L 192.249012 140.828503 
L 195.613308 133.618035 
L 198.977604 140.427928 
L 202.341899 126.808143 
L 205.706195 147.23782 
L 209.070491 133.618035 
L 212.434787 106.378466 
L 215.799083 126.808143 
L 219.163378 113.188359 
L 222.527674 133.618035 
L 225.89197 119.998251 
L 229.256266 154.047712 
L 232.620562 92.758682 
L 235.984858 119.998251 
L 239.349153 126.808143 
L 242.713449 160.857604 
L 249.442041 119.998251 
L 252.806337 106.378466 
L 256.170632 106.378466 
L 259.534928 102.372656 
L 262.899224 106.378466 
L 266.26352 119.998251 
L 269.627816 119.998251 
L 272.992111 126.808143 
L 276.356407 113.188359 
L 279.720703 106.378466 
L 283.084999 113.188359 
L 286.449295 99.568574 
L 289.81359 106.378466 
L 293.177886 133.618035 
L 296.542182 133.618035 
L 299.906478 65.519113 
L 303.270774 79.138897 
L 306.635069 126.808143 
L 309.999365 113.188359 
L 313.363661 113.188359 
L 316.727957 106.378466 
L 320.092253 79.138897 
L 323.456549 92.758682 
L 326.820844 115.191289 
L 330.18514 113.188359 
L 333.549436 113.188359 
L 336.913732 79.138897 
L 340.278028 92.758682 
L 350.370915 113.188359 
L 353.735211 85.948789 
L 357.099507 79.138897 
L 363.828098 119.998251 
L 367.192394 65.519113 
L 370.55669 45.089436 
L 373.920986 79.138897 
L 377.285281 106.378466 
L 380.649577 79.138897 
L 384.013873 85.948789 
L 387.378169 85.948789 
L 390.742465 92.758682 
L 394.10676 76.735391 
L 397.471056 72.329005 
L 400.835352 106.378466 
L 404.199648 58.70922 
L 407.563944 79.138897 
L 410.92824 58.70922 
L 414.292535 72.329005 
L 417.656831 113.188359 
L 421.021127 79.138897 
L 424.385423 58.70922 
L 427.749719 65.519113 
L 431.114014 106.378466 
L 434.47831 65.519113 
L 437.842606 51.899328 
L 444.571198 65.519113 
L 447.935493 79.138897 
L 451.299789 72.329005 
L 454.664085 79.138897 
L 458.028381 79.138897 
L 461.392677 51.098177 
L 464.756972 85.948789 
L 468.121268 99.568574 
L 471.485564 65.519113 
L 474.84986 58.70922 
L 478.214156 58.70922 
L 481.578451 51.899328 
L 484.942747 79.138897 
L 488.307043 58.70922 
L 491.671339 58.70922 
L 495.035635 85.948789 
L 498.399931 72.329005 
L 501.764226 51.899328 
L 505.128522 45.089436 
L 508.492818 45.089436 
L 511.857114 79.138897 
L 521.950001 58.70922 
L 525.314297 58.70922 
L 528.678593 51.098177 
L 532.042889 79.138897 
L 535.407184 99.568574 
L 538.77148 58.70922 
L 542.135776 51.899328 
L 545.500072 58.70922 
L 548.864368 38.279544 
L 552.228663 72.329005 
L 555.592959 65.519113 
L 558.957255 45.089436 
L 562.321551 58.70922 
L 565.685847 58.70922 
L 569.050142 51.899328 
L 575.778734 51.899328 
L 579.14303 72.329005 
L 582.507326 58.70922 
L 585.871622 58.70922 
L 595.964509 38.279544 
L 599.328805 65.519113 
L 602.693101 51.899328 
L 606.057396 45.089436 
L 616.150284 45.089436 
L 619.51458 85.948789 
L 622.878875 38.279544 
L 626.243171 51.899328 
L 629.607467 58.70922 
L 639.700354 38.279544 
L 646.428946 51.899328 
L 649.793242 45.089436 
L 653.157538 79.138897 
L 656.521833 45.089436 
L 659.886129 51.899328 
L 663.250425 38.279544 
L 666.614721 45.089436 
L 669.979017 65.519113 
L 673.343313 58.70922 
L 676.707608 45.089436 
L 680.071904 45.089436 
L 683.4362 38.279544 
L 686.800496 45.089436 
L 690.164792 45.089436 
L 693.529087 38.279544 
L 696.893383 65.519113 
L 700.257679 51.899328 
L 706.986271 38.279544 
L 710.350566 58.70922 
L 713.714862 38.279544 
L 717.079158 38.279544 
L 720.443454 65.519113 
L 723.80775 38.279544 
L 727.172045 45.089436 
L 727.172045 45.089436 
" clip-path="url(#p3aa2f1eb47)" style="fill: none; stroke: #023eff; stroke-opacity: 0.35; stroke-width: 1.25; stroke-linecap: round"/>
   </g>
   <g id="line2d_2">
    <path d="M 77.862955 452.264227 
L 81.22725 438.928171 
L 84.591546 382.74656 
L 87.955842 331.104911 
L 91.320138 297.339178 
L 94.684434 271.802082 
L 98.048729 267.545899 
L 101.413025 274.072063 
L 104.777321 253.926115 
L 108.141617 251.088677 
L 111.505913 245.130021 
L 114.870208 240.873839 
L 118.234504 223.565328 
L 121.5988 226.686546 
L 124.963096 211.330881 
L 128.327392 210.229323 
L 131.691687 200.298213 
L 135.055983 191.785848 
L 138.420279 193.772049 
L 141.784575 189.515866 
L 145.148871 169.937426 
L 148.513167 175.328626 
L 151.877462 178.166063 
L 155.241758 160.006368 
L 158.606054 158.871351 
L 161.97035 151.494003 
L 165.334646 150.075258 
L 168.698941 164.546279 
L 172.063237 156.88515 
L 175.427533 146.95404 
L 178.791829 153.480204 
L 182.156125 140.427928 
L 185.52042 133.334255 
L 188.884716 137.874218 
L 192.249012 117.861743 
L 195.613308 135.320508 
L 198.977604 132.483019 
L 202.341899 130.496817 
L 205.706195 131.631782 
L 209.070491 127.943108 
L 212.434787 131.915562 
L 215.799083 124.538162 
L 219.163378 125.389398 
L 222.527674 118.011998 
L 225.89197 114.607051 
L 229.256266 110.918377 
L 232.620562 122.26818 
L 235.984858 114.890832 
L 239.349153 115.458288 
L 242.713449 110.634649 
L 246.077745 115.458288 
L 249.442041 105.52723 
L 252.806337 108.932176 
L 256.170632 111.769614 
L 259.534928 80.47415 
L 262.899224 97.298593 
L 266.26352 102.68974 
L 269.627816 101.838503 
L 272.992111 102.122284 
L 276.356407 100.703539 
L 279.720703 98.149829 
L 283.084999 105.52723 
L 289.81359 95.312391 
L 293.177886 95.312391 
L 296.542182 88.786227 
L 299.906478 93.04241 
L 303.270774 91.907445 
L 306.635069 89.637464 
L 309.999365 93.893646 
L 313.363661 86.232518 
L 316.727957 87.367482 
L 320.092253 83.39508 
L 323.456549 87.651263 
L 326.820844 62.314506 
L 330.18514 82.543843 
L 333.549436 83.39508 
L 336.913732 89.069955 
L 340.278028 82.260063 
L 347.006619 76.017679 
L 350.370915 86.232518 
L 353.735211 85.381281 
L 357.099507 78.571389 
L 360.463802 75.450171 
L 363.828098 73.46397 
L 367.192394 76.301407 
L 370.55669 74.031478 
L 373.920986 74.882715 
L 377.285281 75.450171 
L 380.649577 71.193988 
L 384.013873 73.747698 
L 387.378169 70.059024 
L 390.742465 76.585188 
L 394.10676 50.029974 
L 397.471056 72.329005 
L 400.835352 70.91026 
L 404.199648 68.640279 
L 407.563944 72.045225 
L 410.92824 71.477768 
L 414.292535 67.789042 
L 417.656831 74.882715 
L 421.021127 69.491515 
L 424.385423 62.965403 
L 427.749719 67.221586 
L 431.114014 63.81664 
L 434.47831 66.654077 
L 437.842606 66.937806 
L 441.206902 61.546658 
L 444.571198 64.667876 
L 451.299789 68.072822 
L 454.664085 61.26293 
L 458.028381 65.235333 
L 461.392677 45.757062 
L 464.756972 65.802841 
L 468.121268 66.370349 
L 471.485564 60.695422 
L 474.84986 60.411693 
L 478.214156 64.667876 
L 481.578451 59.844185 
L 484.942747 66.086569 
L 488.307043 63.532859 
L 491.671339 60.127913 
L 495.035635 60.127913 
L 498.399931 56.722967 
L 501.764226 59.276677 
L 505.128522 62.681623 
L 508.492818 60.695422 
L 511.857114 62.114167 
L 515.22141 57.290476 
L 518.585705 57.006747 
L 521.950001 61.830386 
L 525.314297 61.830386 
L 528.678593 44.68886 
L 532.042889 60.127913 
L 535.407184 59.560457 
L 538.77148 60.695422 
L 542.135776 57.006747 
L 545.500072 58.141712 
L 548.864368 54.169258 
L 552.228663 58.70922 
L 555.592959 59.844185 
L 558.957255 53.318021 
L 562.321551 55.871731 
L 565.685847 55.304274 
L 569.050142 55.871731 
L 572.414438 54.736766 
L 575.778734 57.574204 
L 579.14303 58.70922 
L 582.507326 50.764311 
L 585.871622 58.42544 
L 589.235917 54.169258 
L 592.600213 52.750565 
L 595.964509 43.620658 
L 599.328805 55.871731 
L 602.693101 54.453038 
L 606.057396 52.183056 
L 609.421692 55.304274 
L 612.785988 55.588002 
L 616.150284 51.615548 
L 619.51458 57.574204 
L 622.878875 54.453038 
L 626.243171 53.034293 
L 629.607467 49.629347 
L 632.971763 51.33182 
L 636.336059 51.33182 
L 639.700354 52.183056 
L 643.06465 50.196855 
L 646.428946 52.750565 
L 649.793242 47.926874 
L 653.157538 55.304274 
L 656.521833 51.048092 
L 659.886129 53.318021 
L 663.250425 44.68886 
L 666.614721 51.899328 
L 669.979017 53.885529 
L 673.343313 51.33182 
L 676.707608 49.345619 
L 680.071904 50.196855 
L 683.4362 55.020494 
L 686.800496 55.020494 
L 690.164792 48.210602 
L 693.529087 48.494382 
L 696.893383 51.615548 
L 700.257679 50.764311 
L 703.621975 48.494382 
L 706.986271 46.508129 
L 710.350566 50.480583 
L 713.714862 52.750565 
L 717.079158 47.643145 
L 720.443454 48.77811 
L 723.80775 47.926874 
L 727.172045 48.77811 
L 727.172045 48.77811 
" clip-path="url(#p3aa2f1eb47)" style="fill: none; stroke: #023eff; stroke-width: 2; stroke-linecap: round"/>
   </g>
   <g id="patch_3">
    <path d="M 45.3975 539.424 
L 45.3975 7.2 
" style="fill: none"/>
   </g>
   <g id="patch_4">
    <path d="M 45.3975 539.424 
L 759.6375 539.424 
" style="fill: none"/>
   </g>
   <g id="legend_1">
    <g id="line2d_3">
     <path d="M 56.1975 22.918125 
L 68.1975 22.918125 
L 80.1975 22.918125 
" style="fill: none; stroke: #023eff; stroke-opacity: 0.35; stroke-width: 1.25; stroke-linecap: round"/>
    </g>
    <g id="text_18">
     <!-- accuracy -->
     <g style="fill: #838383" transform="translate(89.7975 27.118125) scale(0.12 -0.12)">
      <use xlink:href="#DejaVuSans-61"/>
      <use xlink:href="#DejaVuSans-63" transform="translate(61.279297 0)"/>
      <use xlink:href="#DejaVuSans-63" transform="translate(116.259766 0)"/>
      <use xlink:href="#DejaVuSans-75" transform="translate(171.240234 0)"/>
      <use xlink:href="#DejaVuSans-72" transform="translate(234.619141 0)"/>
      <use xlink:href="#DejaVuSans-61" transform="translate(275.732422 0)"/>
      <use xlink:href="#DejaVuSans-63" transform="translate(337.011719 0)"/>
      <use xlink:href="#DejaVuSans-79" transform="translate(391.992188 0)"/>
     </g>
    </g>
    <g id="line2d_4">
     <path d="M 56.1975 40.531875 
L 68.1975 40.531875 
L 80.1975 40.531875 
" style="fill: none; stroke: #023eff; stroke-width: 2; stroke-linecap: round"/>
    </g>
    <g id="text_19">
     <!-- accuracy mean -->
     <g style="fill: #838383" transform="translate(89.7975 44.731875) scale(0.12 -0.12)">
      <defs>
       <path id="DejaVuSans-20" transform="scale(0.015625)"/>
       <path id="DejaVuSans-6d" d="M 3328 2828 
Q 3544 3216 3844 3400 
Q 4144 3584 4550 3584 
Q 5097 3584 5394 3201 
Q 5691 2819 5691 2113 
L 5691 0 
L 5113 0 
L 5113 2094 
Q 5113 2597 4934 2840 
Q 4756 3084 4391 3084 
Q 3944 3084 3684 2787 
Q 3425 2491 3425 1978 
L 3425 0 
L 2847 0 
L 2847 2094 
Q 2847 2600 2669 2842 
Q 2491 3084 2119 3084 
Q 1678 3084 1418 2786 
Q 1159 2488 1159 1978 
L 1159 0 
L 581 0 
L 581 3500 
L 1159 3500 
L 1159 2956 
Q 1356 3278 1631 3431 
Q 1906 3584 2284 3584 
Q 2666 3584 2933 3390 
Q 3200 3197 3328 2828 
z
" transform="scale(0.015625)"/>
       <path id="DejaVuSans-65" d="M 3597 1894 
L 3597 1613 
L 953 1613 
Q 991 1019 1311 708 
Q 1631 397 2203 397 
Q 2534 397 2845 478 
Q 3156 559 3463 722 
L 3463 178 
Q 3153 47 2828 -22 
Q 2503 -91 2169 -91 
Q 1331 -91 842 396 
Q 353 884 353 1716 
Q 353 2575 817 3079 
Q 1281 3584 2069 3584 
Q 2775 3584 3186 3129 
Q 3597 2675 3597 1894 
z
M 3022 2063 
Q 3016 2534 2758 2815 
Q 2500 3097 2075 3097 
Q 1594 3097 1305 2825 
Q 1016 2553 972 2059 
L 3022 2063 
z
" transform="scale(0.015625)"/>
       <path id="DejaVuSans-6e" d="M 3513 2113 
L 3513 0 
L 2938 0 
L 2938 2094 
Q 2938 2591 2744 2837 
Q 2550 3084 2163 3084 
Q 1697 3084 1428 2787 
Q 1159 2491 1159 1978 
L 1159 0 
L 581 0 
L 581 3500 
L 1159 3500 
L 1159 2956 
Q 1366 3272 1645 3428 
Q 1925 3584 2291 3584 
Q 2894 3584 3203 3211 
Q 3513 2838 3513 2113 
z
" transform="scale(0.015625)"/>
      </defs>
      <use xlink:href="#DejaVuSans-61"/>
      <use xlink:href="#DejaVuSans-63" transform="translate(61.279297 0)"/>
      <use xlink:href="#DejaVuSans-63" transform="translate(116.259766 0)"/>
      <use xlink:href="#DejaVuSans-75" transform="translate(171.240234 0)"/>
      <use xlink:href="#DejaVuSans-72" transform="translate(234.619141 0)"/>
      <use xlink:href="#DejaVuSans-61" transform="translate(275.732422 0)"/>
      <use xlink:href="#DejaVuSans-63" transform="translate(337.011719 0)"/>
      <use xlink:href="#DejaVuSans-79" transform="translate(391.992188 0)"/>
      <use xlink:href="#DejaVuSans-20" transform="translate(451.171875 0)"/>
      <use xlink:href="#DejaVuSans-6d" transform="translate(482.958984 0)"/>
      <use xlink:href="#DejaVuSans-65" transform="translate(580.371094 0)"/>
      <use xlink:href="#DejaVuSans-61" transform="translate(641.894531 0)"/>
      <use xlink:href="#DejaVuSans-6e" transform="translate(703.173828 0)"/>
     </g>
    </g>
    <g id="patch_5">
     <path d="M 56.1975 62.345625 
L 80.1975 62.345625 
L 80.1975 53.945625 
L 56.1975 53.945625 
z
" style="fill: #023eff; fill-opacity: 0.2; stroke: #023eff; stroke-opacity: 0.2; stroke-linejoin: miter"/>
    </g>
    <g id="text_20">
     <!-- accuracy ± std -->
     <g style="fill: #838383" transform="translate(89.7975 62.345625) scale(0.12 -0.12)">
      <defs>
       <path id="DejaVuSans-b1" d="M 2944 4013 
L 2944 2803 
L 4684 2803 
L 4684 2272 
L 2944 2272 
L 2944 1063 
L 2419 1063 
L 2419 2272 
L 678 2272 
L 678 2803 
L 2419 2803 
L 2419 4013 
L 2944 4013 
z
M 678 531 
L 4684 531 
L 4684 0 
L 678 0 
L 678 531 
z
" transform="scale(0.015625)"/>
       <path id="DejaVuSans-73" d="M 2834 3397 
L 2834 2853 
Q 2591 2978 2328 3040 
Q 2066 3103 1784 3103 
Q 1356 3103 1142 2972 
Q 928 2841 928 2578 
Q 928 2378 1081 2264 
Q 1234 2150 1697 2047 
L 1894 2003 
Q 2506 1872 2764 1633 
Q 3022 1394 3022 966 
Q 3022 478 2636 193 
Q 2250 -91 1575 -91 
Q 1294 -91 989 -36 
Q 684 19 347 128 
L 347 722 
Q 666 556 975 473 
Q 1284 391 1588 391 
Q 1994 391 2212 530 
Q 2431 669 2431 922 
Q 2431 1156 2273 1281 
Q 2116 1406 1581 1522 
L 1381 1569 
Q 847 1681 609 1914 
Q 372 2147 372 2553 
Q 372 3047 722 3315 
Q 1072 3584 1716 3584 
Q 2034 3584 2315 3537 
Q 2597 3491 2834 3397 
z
" transform="scale(0.015625)"/>
       <path id="DejaVuSans-74" d="M 1172 4494 
L 1172 3500 
L 2356 3500 
L 2356 3053 
L 1172 3053 
L 1172 1153 
Q 1172 725 1289 603 
Q 1406 481 1766 481 
L 2356 481 
L 2356 0 
L 1766 0 
Q 1100 0 847 248 
Q 594 497 594 1153 
L 594 3053 
L 172 3053 
L 172 3500 
L 594 3500 
L 594 4494 
L 1172 4494 
z
" transform="scale(0.015625)"/>
      </defs>
      <use xlink:href="#DejaVuSans-61"/>
      <use xlink:href="#DejaVuSans-63" transform="translate(61.279297 0)"/>
      <use xlink:href="#DejaVuSans-63" transform="translate(116.259766 0)"/>
      <use xlink:href="#DejaVuSans-75" transform="translate(171.240234 0)"/>
      <use xlink:href="#DejaVuSans-72" transform="translate(234.619141 0)"/>
      <use xlink:href="#DejaVuSans-61" transform="translate(275.732422 0)"/>
      <use xlink:href="#DejaVuSans-63" transform="translate(337.011719 0)"/>
      <use xlink:href="#DejaVuSans-79" transform="translate(391.992188 0)"/>
      <use xlink:href="#DejaVuSans-20" transform="translate(451.171875 0)"/>
      <use xlink:href="#DejaVuSans-b1" transform="translate(482.958984 0)"/>
      <use xlink:href="#DejaVuSans-20" transform="translate(566.748047 0)"/>
      <use xlink:href="#DejaVuSans-73" transform="translate(598.535156 0)"/>
      <use xlink:href="#DejaVuSans-74" transform="translate(650.634766 0)"/>
      <use xlink:href="#DejaVuSans-64" transform="translate(689.84375 0)"/>
     </g>
    </g>
   </g>
  </g>
 </g>
 <defs>
  <clipPath id="p3aa2f1eb47">
   <rect x="45.3975" y="7.2" width="714.24" height="532.224"/>
  </clipPath>
 </defs>
</svg>
