<?xml version="1.0" encoding="utf-8" standalone="no"?>
<!DOCTYPE svg PUBLIC "-//W3C//DTD SVG 1.1//EN"
  "http://www.w3.org/Graphics/SVG/1.1/DTD/svg11.dtd">
<svg xmlns:xlink="http://www.w3.org/1999/xlink" width="777.009616pt" height="577.3515pt" viewBox="0 0 777.009616 577.3515" xmlns="http://www.w3.org/2000/svg" version="1.1">
 <metadata>
  <rdf:RDF xmlns:dc="http://purl.org/dc/elements/1.1/" xmlns:cc="http://creativecommons.org/ns#" xmlns:rdf="http://www.w3.org/1999/02/22-rdf-syntax-ns#">
   <cc:Work>
    <dc:type rdf:resource="http://purl.org/dc/dcmitype/StillImage"/>
    <dc:date>2026-01-07T12:37:06.117390</dc:date>
    <dc:format>image/svg+xml</dc:format>
    <dc:creator>
     <cc:Agent>
      <dc:title>Matplotlib v3.10.8, https://matplotlib.org/</dc:title>
     </cc:Agent>
    </dc:creator>
   </cc:Work>
  </rdf:RDF>
 </metadata>
 <defs>
  <style type="text/css">*{stroke-linejoin: round; stroke-linecap: butt}</style>
 </defs>
 <g id="figure_1">
  <g id="patch_1">
   <path d="M 0 577.3515 
L 777.009616 577.3515 
L 777.009616 0 
L 0 0 
L 0 577.3515 
z
" style="fill: none"/>
  </g>
  <g id="axes_1">
   <g id="patch_2">
    <path d="M 53.0325 539.424 
L 767.2725 539.424 
L 767.2725 7.2 
L 53.0325 7.2 
L 53.0325 539.424 
z
" style="fill: none"/>
   </g>
   <g id="matplotlib.axis_1">
    <g id="xtick_1">
     <g id="text_1">
      <!-- 0 -->
      <g style="fill: #838383" transform="translate(81.680455 552.042125) scale(0.12 -0.12)">
       <defs>
        <path id="DejaVuSans-30" d="M 2034 4250 
Q 1547 4250 1301 3770 
Q 1056 3291 1056 2328 
Q 1056 1369 1301 889 
Q 1547 409 2034 409 
Q 2525 409 2770 889 
Q 3016 1369 3016 2328 
Q 3016 3291 2770 3770 
Q 2525 4250 2034 4250 
z
M 2034 4750 
Q 2819 4750 3233 4129 
Q 3647 3509 3647 2328 
Q 3647 1150 3233 529 
Q 2819 -91 2034 -91 
Q 1250 -91 836 529 
Q 422 1150 422 2328 
Q 422 3509 836 4129 
Q 1250 4750 2034 4750 
z
" transform="scale(0.015625)"/>
       </defs>
       <use xlink:href="#DejaVuSans-30"/>
      </g>
     </g>
    </g>
    <g id="xtick_2">
     <g id="text_2">
      <!-- 25 -->
      <g style="fill: #838383" transform="translate(161.97035 552.042125) scale(0.12 -0.12)">
       <defs>
        <path id="DejaVuSans-32" d="M 1228 531 
L 3431 531 
L 3431 0 
L 469 0 
L 469 531 
Q 828 903 1448 1529 
Q 2069 2156 2228 2338 
Q 2531 2678 2651 2914 
Q 2772 3150 2772 3378 
Q 2772 3750 2511 3984 
Q 2250 4219 1831 4219 
Q 1534 4219 1204 4116 
Q 875 4013 500 3803 
L 500 4441 
Q 881 4594 1212 4672 
Q 1544 4750 1819 4750 
Q 2544 4750 2975 4387 
Q 3406 4025 3406 3419 
Q 3406 3131 3298 2873 
Q 3191 2616 2906 2266 
Q 2828 2175 2409 1742 
Q 1991 1309 1228 531 
z
" transform="scale(0.015625)"/>
        <path id="DejaVuSans-35" d="M 691 4666 
L 3169 4666 
L 3169 4134 
L 1269 4134 
L 1269 2991 
Q 1406 3038 1543 3061 
Q 1681 3084 1819 3084 
Q 2600 3084 3056 2656 
Q 3513 2228 3513 1497 
Q 3513 744 3044 326 
Q 2575 -91 1722 -91 
Q 1428 -91 1123 -41 
Q 819 9 494 109 
L 494 744 
Q 775 591 1075 516 
Q 1375 441 1709 441 
Q 2250 441 2565 725 
Q 2881 1009 2881 1497 
Q 2881 1984 2565 2268 
Q 2250 2553 1709 2553 
Q 1456 2553 1204 2497 
Q 953 2441 691 2322 
L 691 4666 
z
" transform="scale(0.015625)"/>
       </defs>
       <use xlink:href="#DejaVuSans-32"/>
       <use xlink:href="#DejaVuSans-35" transform="translate(63.623047 0)"/>
      </g>
     </g>
    </g>
    <g id="xtick_3">
     <g id="text_3">
      <!-- 50 -->
      <g style="fill: #838383" transform="translate(246.077745 552.042125) scale(0.12 -0.12)">
       <use xlink:href="#DejaVuSans-35"/>
       <use xlink:href="#DejaVuSans-30" transform="translate(63.623047 0)"/>
      </g>
     </g>
    </g>
    <g id="xtick_4">
     <g id="text_4">
      <!-- 75 -->
      <g style="fill: #838383" transform="translate(330.18514 552.042125) scale(0.12 -0.12)">
       <defs>
        <path id="DejaVuSans-37" d="M 525 4666 
L 3525 4666 
L 3525 4397 
L 1831 0 
L 1172 0 
L 2766 4134 
L 525 4134 
L 525 4666 
z
" transform="scale(0.015625)"/>
       </defs>
       <use xlink:href="#DejaVuSans-37"/>
       <use xlink:href="#DejaVuSans-35" transform="translate(63.623047 0)"/>
      </g>
     </g>
    </g>
    <g id="xtick_5">
     <g id="text_5">
      <!-- 100 -->
      <g style="fill: #838383" transform="translate(410.475035 552.042125) scale(0.12 -0.12)">
       <defs>
        <path id="DejaVuSans-31" d="M 794 531 
L 1825 531 
L 1825 4091 
L 703 3866 
L 703 4441 
L 1819 4666 
L 2450 4666 
L 2450 531 
L 3481 531 
L 3481 0 
L 794 0 
L 794 531 
z
" transform="scale(0.015625)"/>
       </defs>
       <use xlink:href="#DejaVuSans-31"/>
       <use xlink:href="#DejaVuSans-30" transform="translate(63.623047 0)"/>
       <use xlink:href="#DejaVuSans-30" transform="translate(127.246094 0)"/>
      </g>
     </g>
    </g>
    <g id="xtick_6">
     <g id="text_6">
      <!-- 125 -->
      <g style="fill: #838383" transform="translate(494.582431 552.042125) scale(0.12 -0.12)">
       <use xlink:href="#DejaVuSans-31"/>
       <use xlink:href="#DejaVuSans-32" transform="translate(63.623047 0)"/>
       <use xlink:href="#DejaVuSans-35" transform="translate(127.246094 0)"/>
      </g>
     </g>
    </g>
    <g id="xtick_7">
     <g id="text_7">
      <!-- 150 -->
      <g style="fill: #838383" transform="translate(578.689826 552.042125) scale(0.12 -0.12)">
       <use xlink:href="#DejaVuSans-31"/>
       <use xlink:href="#DejaVuSans-35" transform="translate(63.623047 0)"/>
       <use xlink:href="#DejaVuSans-30" transform="translate(127.246094 0)"/>
      </g>
     </g>
    </g>
    <g id="xtick_8">
     <g id="text_8">
      <!-- 175 -->
      <g style="fill: #838383" transform="translate(662.797221 552.042125) scale(0.12 -0.12)">
       <use xlink:href="#DejaVuSans-31"/>
       <use xlink:href="#DejaVuSans-37" transform="translate(63.623047 0)"/>
       <use xlink:href="#DejaVuSans-35" transform="translate(127.246094 0)"/>
      </g>
     </g>
    </g>
    <g id="xtick_9">
     <g id="text_9">
      <!-- 200 -->
      <g style="fill: #838383" transform="translate(746.904616 552.042125) scale(0.12 -0.12)">
       <use xlink:href="#DejaVuSans-32"/>
       <use xlink:href="#DejaVuSans-30" transform="translate(63.623047 0)"/>
       <use xlink:href="#DejaVuSans-30" transform="translate(127.246094 0)"/>
      </g>
     </g>
    </g>
    <g id="text_10">
     <!-- draw -->
     <g style="fill: #262626" transform="translate(395.293125 567.655875) scale(0.12 -0.12)">
      <defs>
       <path id="DejaVuSans-64" d="M 2906 2969 
L 2906 4863 
L 3481 4863 
L 3481 0 
L 2906 0 
L 2906 525 
Q 2725 213 2448 61 
Q 2172 -91 1784 -91 
Q 1150 -91 751 415 
Q 353 922 353 1747 
Q 353 2572 751 3078 
Q 1150 3584 1784 3584 
Q 2172 3584 2448 3432 
Q 2725 3281 2906 2969 
z
M 947 1747 
Q 947 1113 1208 752 
Q 1469 391 1925 391 
Q 2381 391 2643 752 
Q 2906 1113 2906 1747 
Q 2906 2381 2643 2742 
Q 2381 3103 1925 3103 
Q 1469 3103 1208 2742 
Q 947 2381 947 1747 
z
" transform="scale(0.015625)"/>
       <path id="DejaVuSans-72" d="M 2631 2963 
Q 2534 3019 2420 3045 
Q 2306 3072 2169 3072 
Q 1681 3072 1420 2755 
Q 1159 2438 1159 1844 
L 1159 0 
L 581 0 
L 581 3500 
L 1159 3500 
L 1159 2956 
Q 1341 3275 1631 3429 
Q 1922 3584 2338 3584 
Q 2397 3584 2469 3576 
Q 2541 3569 2628 3553 
L 2631 2963 
z
" transform="scale(0.015625)"/>
       <path id="DejaVuSans-61" d="M 2194 1759 
Q 1497 1759 1228 1600 
Q 959 1441 959 1056 
Q 959 750 1161 570 
Q 1363 391 1709 391 
Q 2188 391 2477 730 
Q 2766 1069 2766 1631 
L 2766 1759 
L 2194 1759 
z
M 3341 1997 
L 3341 0 
L 2766 0 
L 2766 531 
Q 2569 213 2275 61 
Q 1981 -91 1556 -91 
Q 1019 -91 701 211 
Q 384 513 384 1019 
Q 384 1609 779 1909 
Q 1175 2209 1959 2209 
L 2766 2209 
L 2766 2266 
Q 2766 2663 2505 2880 
Q 2244 3097 1772 3097 
Q 1472 3097 1187 3025 
Q 903 2953 641 2809 
L 641 3341 
Q 956 3463 1253 3523 
Q 1550 3584 1831 3584 
Q 2591 3584 2966 3190 
Q 3341 2797 3341 1997 
z
" transform="scale(0.015625)"/>
       <path id="DejaVuSans-77" d="M 269 3500 
L 844 3500 
L 1563 769 
L 2278 3500 
L 2956 3500 
L 3675 769 
L 4391 3500 
L 4966 3500 
L 4050 0 
L 3372 0 
L 2619 2869 
L 1863 0 
L 1184 0 
L 269 3500 
z
" transform="scale(0.015625)"/>
      </defs>
      <use xlink:href="#DejaVuSans-64"/>
      <use xlink:href="#DejaVuSans-72" transform="translate(63.476562 0)"/>
      <use xlink:href="#DejaVuSans-61" transform="translate(104.589844 0)"/>
      <use xlink:href="#DejaVuSans-77" transform="translate(165.869141 0)"/>
     </g>
    </g>
   </g>
   <g id="matplotlib.axis_2">
    <g id="ytick_1">
     <g id="text_11">
      <!-- 0.00 -->
      <g style="fill: #838383" transform="translate(22.81375 522.497717) scale(0.12 -0.12)">
       <defs>
        <path id="DejaVuSans-2e" d="M 684 794 
L 1344 794 
L 1344 0 
L 684 0 
L 684 794 
z
" transform="scale(0.015625)"/>
       </defs>
       <use xlink:href="#DejaVuSans-30"/>
       <use xlink:href="#DejaVuSans-2e" transform="translate(63.623047 0)"/>
       <use xlink:href="#DejaVuSans-30" transform="translate(95.410156 0)"/>
       <use xlink:href="#DejaVuSans-30" transform="translate(159.033203 0)"/>
      </g>
     </g>
    </g>
    <g id="ytick_2">
     <g id="text_12">
      <!-- 0.05 -->
      <g style="fill: #838383" transform="translate(22.81375 409.186482) scale(0.12 -0.12)">
       <use xlink:href="#DejaVuSans-30"/>
       <use xlink:href="#DejaVuSans-2e" transform="translate(63.623047 0)"/>
       <use xlink:href="#DejaVuSans-30" transform="translate(95.410156 0)"/>
       <use xlink:href="#DejaVuSans-35" transform="translate(159.033203 0)"/>
      </g>
     </g>
    </g>
    <g id="ytick_3">
     <g id="text_13">
      <!-- 0.10 -->
      <g style="fill: #838383" transform="translate(22.81375 295.875247) scale(0.12 -0.12)">
       <use xlink:href="#DejaVuSans-30"/>
       <use xlink:href="#DejaVuSans-2e" transform="translate(63.623047 0)"/>
       <use xlink:href="#DejaVuSans-31" transform="translate(95.410156 0)"/>
       <use xlink:href="#DejaVuSans-30" transform="translate(159.033203 0)"/>
      </g>
     </g>
    </g>
    <g id="ytick_4">
     <g id="text_14">
      <!-- 0.15 -->
      <g style="fill: #838383" transform="translate(22.81375 182.564012) scale(0.12 -0.12)">
       <use xlink:href="#DejaVuSans-30"/>
       <use xlink:href="#DejaVuSans-2e" transform="translate(63.623047 0)"/>
       <use xlink:href="#DejaVuSans-31" transform="translate(95.410156 0)"/>
       <use xlink:href="#DejaVuSans-35" transform="translate(159.033203 0)"/>
      </g>
     </g>
    </g>
    <g id="ytick_5">
     <g id="text_15">
      <!-- 0.20 -->
      <g style="fill: #838383" transform="translate(22.81375 69.252777) scale(0.12 -0.12)">
       <use xlink:href="#DejaVuSans-30"/>
       <use xlink:href="#DejaVuSans-2e" transform="translate(63.623047 0)"/>
       <use xlink:href="#DejaVuSans-32" transform="translate(95.410156 0)"/>
       <use xlink:href="#DejaVuSans-30" transform="translate(159.033203 0)"/>
      </g>
     </g>
    </g>
    <g id="text_16">
     <!-- dtb -->
     <g style="fill: #262626" transform="translate(16.318125 283.282312) rotate(-90) scale(0.12 -0.12)">
      <defs>
       <path id="DejaVuSans-74" d="M 1172 4494 
L 1172 3500 
L 2356 3500 
L 2356 3053 
L 1172 3053 
L 1172 1153 
Q 1172 725 1289 603 
Q 1406 481 1766 481 
L 2356 481 
L 2356 0 
L 1766 0 
Q 1100 0 847 248 
Q 594 497 594 1153 
L 594 3053 
L 172 3053 
L 172 3500 
L 594 3500 
L 594 4494 
L 1172 4494 
z
" transform="scale(0.015625)"/>
       <path id="DejaVuSans-62" d="M 3116 1747 
Q 3116 2381 2855 2742 
Q 2594 3103 2138 3103 
Q 1681 3103 1420 2742 
Q 1159 2381 1159 1747 
Q 1159 1113 1420 752 
Q 1681 391 2138 391 
Q 2594 391 2855 752 
Q 3116 1113 3116 1747 
z
M 1159 2969 
Q 1341 3281 1617 3432 
Q 1894 3584 2278 3584 
Q 2916 3584 3314 3078 
Q 3713 2572 3713 1747 
Q 3713 922 3314 415 
Q 2916 -91 2278 -91 
Q 1894 -91 1617 61 
Q 1341 213 1159 525 
L 1159 0 
L 581 0 
L 581 4863 
L 1159 4863 
L 1159 2969 
z
" transform="scale(0.015625)"/>
      </defs>
      <use xlink:href="#DejaVuSans-64"/>
      <use xlink:href="#DejaVuSans-74" transform="translate(63.476562 0)"/>
      <use xlink:href="#DejaVuSans-62" transform="translate(102.685547 0)"/>
     </g>
    </g>
   </g>
   <g id="FillBetweenPolyCollection_1">
    <defs>
     <path id="m383c4239ce" d="M 85.497955 -63.420426 
L 85.497955 -62.643948 
L 88.86225 -62.605098 
L 92.226546 -62.653611 
L 95.590842 -62.520977 
L 98.955138 -62.565429 
L 102.319434 -62.606375 
L 105.683729 -62.576494 
L 109.048025 -62.609722 
L 112.412321 -62.636383 
L 115.776617 -62.572011 
L 119.140913 -62.611535 
L 122.505208 -62.651024 
L 125.869504 -62.562052 
L 129.2338 -62.668211 
L 132.598096 -457.52202 
L 135.962392 -63.587827 
L 139.326687 -62.75283 
L 142.690983 -62.676121 
L 146.055279 -62.719769 
L 149.419575 -62.70427 
L 152.783871 -62.670462 
L 156.148167 -62.724718 
L 159.512462 -62.653785 
L 162.876758 -62.58325 
L 166.241054 -62.635112 
L 169.60535 -63.017318 
L 172.969646 -62.994624 
L 176.333941 -62.788815 
L 179.698237 -62.720829 
L 183.062533 -62.645224 
L 186.426829 -62.663926 
L 189.791125 -62.730866 
L 193.15542 -62.675655 
L 196.519716 -62.684267 
L 199.884012 -62.171017 
L 203.248308 -62.758927 
L 206.612604 -62.68519 
L 209.976899 -62.594901 
L 213.341195 -62.67204 
L 216.705491 -62.813724 
L 220.069787 -62.719246 
L 223.434083 -62.669773 
L 226.798378 -62.81631 
L 230.162674 -62.753052 
L 233.52697 -62.780842 
L 236.891266 -62.844182 
L 240.255562 -62.579072 
L 243.619858 -62.703522 
L 246.984153 -62.692337 
L 250.348449 -62.674565 
L 253.712745 -62.674749 
L 257.077041 -62.784206 
L 260.441337 -62.729603 
L 263.805632 -62.728949 
L 267.169928 -62.2043 
L 270.534224 -62.773131 
L 273.89852 -62.643446 
L 277.262816 -62.624564 
L 280.627111 -62.657931 
L 283.991407 -62.721424 
L 287.355703 -62.778143 
L 290.719999 -62.723364 
L 294.084295 -62.633638 
L 297.44859 -62.537303 
L 300.812886 -62.607656 
L 304.177182 -62.902629 
L 307.541478 -62.87054 
L 310.905774 -62.616745 
L 314.270069 -62.709844 
L 317.634365 -62.714684 
L 320.998661 -62.519482 
L 324.362957 -62.643557 
L 327.727253 -62.666176 
L 331.091549 -62.608776 
L 334.455844 -62.209705 
L 337.82014 -62.649081 
L 341.184436 -62.571994 
L 344.548732 -62.635486 
L 347.913028 -62.837414 
L 351.277323 -62.71097 
L 354.641619 -62.759674 
L 358.005915 -62.75634 
L 361.370211 -62.627529 
L 364.734507 -62.597937 
L 368.098802 -62.66514 
L 371.463098 -62.676132 
L 374.827394 -62.520314 
L 378.19169 -62.646767 
L 381.555986 -62.606581 
L 384.920281 -62.650824 
L 388.284577 -62.672768 
L 391.648873 -62.548057 
L 395.013169 -62.683411 
L 398.377465 -62.550431 
L 401.74176 -62.214306 
L 405.106056 -62.785322 
L 408.470352 -62.671678 
L 411.834648 -62.689818 
L 415.198944 -62.69798 
L 418.56324 -62.635809 
L 421.927535 -62.644802 
L 425.291831 -62.53743 
L 428.656127 -62.621691 
L 432.020423 -62.594252 
L 435.384719 -62.613433 
L 438.749014 -62.62639 
L 442.11331 -62.648665 
L 445.477606 -62.580414 
L 448.841902 -62.686583 
L 452.206198 -62.634773 
L 455.570493 -62.56312 
L 458.934789 -62.646771 
L 462.299085 -62.723224 
L 465.663381 -62.715535 
L 469.027677 -62.186993 
L 472.391972 -62.786663 
L 475.756268 -62.803203 
L 479.120564 -62.728134 
L 482.48486 -62.645557 
L 485.849156 -62.637751 
L 489.213451 -62.589044 
L 492.577747 -62.635713 
L 495.942043 -62.623513 
L 499.306339 -62.624077 
L 502.670635 -62.622422 
L 506.034931 -62.677043 
L 509.399226 -62.743381 
L 512.763522 -62.643956 
L 516.127818 -62.704481 
L 519.492114 -62.616755 
L 522.85641 -62.629494 
L 526.220705 -62.579428 
L 529.585001 -62.650319 
L 532.949297 -62.662596 
L 536.313593 -62.147731 
L 539.677889 -62.901465 
L 543.042184 -62.649814 
L 546.40648 -62.683743 
L 549.770776 -62.621945 
L 553.135072 -62.669393 
L 556.499368 -62.684272 
L 559.863663 -62.662734 
L 563.227959 -62.685873 
L 566.592255 -62.563334 
L 569.956551 -62.559078 
L 573.320847 -62.70313 
L 576.685142 -62.629398 
L 580.049438 -62.686057 
L 583.413734 -62.664353 
L 586.77803 -62.724485 
L 590.142326 -62.636935 
L 593.506622 -62.687046 
L 596.870917 -62.674388 
L 600.235213 -62.69703 
L 603.599509 -62.1195 
L 606.963805 -62.805903 
L 610.328101 -62.749908 
L 613.692396 -62.717553 
L 617.056692 -62.618387 
L 620.420988 -62.630144 
L 623.785284 -62.663292 
L 627.14958 -62.586242 
L 630.513875 -62.657502 
L 633.878171 -62.623936 
L 637.242467 -62.703855 
L 640.606763 -62.645345 
L 643.971059 -62.716187 
L 647.335354 -62.651675 
L 650.69965 -62.636064 
L 654.063946 -62.628155 
L 657.428242 -62.702075 
L 660.792538 -62.630125 
L 664.156833 -62.597657 
L 667.521129 -62.696213 
L 670.885425 -62.178554 
L 674.249721 -62.839751 
L 677.614017 -62.654632 
L 680.978313 -62.613131 
L 684.342608 -62.614602 
L 687.706904 -62.520639 
L 691.0712 -62.707827 
L 694.435496 -62.763698 
L 697.799792 -62.597806 
L 701.164087 -62.583607 
L 704.528383 -62.650976 
L 707.892679 -62.701346 
L 711.256975 -62.658778 
L 714.621271 -62.532251 
L 717.985566 -62.67053 
L 721.349862 -62.691879 
L 724.714158 -62.642444 
L 728.078454 -62.65005 
L 731.44275 -62.80027 
L 734.807045 -62.78241 
L 734.807045 -63.531217 
L 734.807045 -63.531217 
L 731.44275 -63.57892 
L 728.078454 -63.43721 
L 724.714158 -63.364311 
L 721.349862 -63.362623 
L 717.985566 -63.473729 
L 714.621271 -63.477353 
L 711.256975 -63.457054 
L 707.892679 -63.471425 
L 704.528383 -63.444716 
L 701.164087 -63.410767 
L 697.799792 -63.329005 
L 694.435496 -63.501033 
L 691.0712 -63.428493 
L 687.706904 -63.32568 
L 684.342608 -63.464371 
L 680.978313 -63.396708 
L 677.614017 -63.43371 
L 674.249721 -63.475424 
L 670.885425 -62.938838 
L 667.521129 -63.402191 
L 664.156833 -63.312168 
L 660.792538 -63.397429 
L 657.428242 -63.538003 
L 654.063946 -63.451233 
L 650.69965 -63.446624 
L 647.335354 -63.315446 
L 643.971059 -63.516666 
L 640.606763 -63.366516 
L 637.242467 -63.364014 
L 633.878171 -63.358719 
L 630.513875 -63.354407 
L 627.14958 -63.460137 
L 623.785284 -63.375368 
L 620.420988 -63.473906 
L 617.056692 -63.451976 
L 613.692396 -63.413193 
L 610.328101 -63.423585 
L 606.963805 -63.429386 
L 603.599509 -62.860853 
L 600.235213 -63.308642 
L 596.870917 -63.490109 
L 593.506622 -63.462639 
L 590.142326 -63.410523 
L 586.77803 -63.360925 
L 583.413734 -63.431965 
L 580.049438 -63.400813 
L 576.685142 -63.379349 
L 573.320847 -63.470982 
L 569.956551 -63.418887 
L 566.592255 -63.393627 
L 563.227959 -63.417375 
L 559.863663 -63.340971 
L 556.499368 -63.469587 
L 553.135072 -63.327174 
L 549.770776 -63.395738 
L 546.40648 -63.465649 
L 543.042184 -63.404715 
L 539.677889 -63.532817 
L 536.313593 -62.945117 
L 532.949297 -63.361325 
L 529.585001 -63.480916 
L 526.220705 -63.408356 
L 522.85641 -63.384812 
L 519.492114 -63.454363 
L 516.127818 -63.477266 
L 512.763522 -63.438884 
L 509.399226 -63.499824 
L 506.034931 -63.362467 
L 502.670635 -63.335205 
L 499.306339 -63.324582 
L 495.942043 -63.40618 
L 492.577747 -63.456026 
L 489.213451 -63.41316 
L 485.849156 -63.374857 
L 482.48486 -63.437987 
L 479.120564 -63.37674 
L 475.756268 -63.535226 
L 472.391972 -63.448494 
L 469.027677 -62.959841 
L 465.663381 -63.53626 
L 462.299085 -63.444129 
L 458.934789 -63.446156 
L 455.570493 -63.519036 
L 452.206198 -63.383985 
L 448.841902 -63.435911 
L 445.477606 -63.320455 
L 442.11331 -63.551474 
L 438.749014 -63.314487 
L 435.384719 -63.524526 
L 432.020423 -63.425965 
L 428.656127 -63.455087 
L 425.291831 -63.435526 
L 421.927535 -63.417898 
L 418.56324 -63.388448 
L 415.198944 -63.401224 
L 411.834648 -63.360868 
L 408.470352 -63.383628 
L 405.106056 -63.432605 
L 401.74176 -63.155319 
L 398.377465 -63.369256 
L 395.013169 -63.411063 
L 391.648873 -63.40558 
L 388.284577 -63.497252 
L 384.920281 -63.363123 
L 381.555986 -63.463572 
L 378.19169 -63.366969 
L 374.827394 -63.353309 
L 371.463098 -63.466372 
L 368.098802 -63.435616 
L 364.734507 -63.311107 
L 361.370211 -63.462613 
L 358.005915 -63.465911 
L 354.641619 -63.64286 
L 351.277323 -63.456022 
L 347.913028 -63.655369 
L 344.548732 -63.3687 
L 341.184436 -63.430893 
L 337.82014 -63.326439 
L 334.455844 -62.980459 
L 331.091549 -63.410975 
L 327.727253 -63.404365 
L 324.362957 -63.35018 
L 320.998661 -63.421282 
L 317.634365 -63.443699 
L 314.270069 -63.417765 
L 310.905774 -63.510245 
L 307.541478 -63.732799 
L 304.177182 -63.832118 
L 300.812886 -63.500929 
L 297.44859 -63.424596 
L 294.084295 -63.426889 
L 290.719999 -63.391922 
L 287.355703 -63.574515 
L 283.991407 -63.420754 
L 280.627111 -63.442997 
L 277.262816 -63.384003 
L 273.89852 -63.393004 
L 270.534224 -63.43364 
L 267.169928 -62.870262 
L 263.805632 -63.498421 
L 260.441337 -63.449896 
L 257.077041 -63.601158 
L 253.712745 -63.431785 
L 250.348449 -63.515885 
L 246.984153 -63.394008 
L 243.619858 -63.446914 
L 240.255562 -63.400713 
L 236.891266 -63.604628 
L 233.52697 -63.478253 
L 230.162674 -63.444558 
L 226.798378 -63.430128 
L 223.434083 -63.553062 
L 220.069787 -63.576229 
L 216.705491 -63.461454 
L 213.341195 -63.454895 
L 209.976899 -63.490555 
L 206.612604 -63.485602 
L 203.248308 -63.663034 
L 199.884012 -62.989097 
L 196.519716 -63.400799 
L 193.15542 -63.426977 
L 189.791125 -63.482307 
L 186.426829 -63.440711 
L 183.062533 -63.348501 
L 179.698237 -63.485062 
L 176.333941 -63.555438 
L 172.969646 -63.835896 
L 169.60535 -63.927269 
L 166.241054 -63.437928 
L 162.876758 -63.407459 
L 159.512462 -63.454789 
L 156.148167 -63.546453 
L 152.783871 -63.376202 
L 149.419575 -63.396973 
L 146.055279 -63.463732 
L 142.690983 -63.377223 
L 139.326687 -63.489299 
L 135.962392 -64.053483 
L 132.598096 -545.9595 
L 129.2338 -63.473571 
L 125.869504 -63.300042 
L 122.505208 -63.442625 
L 119.140913 -63.309692 
L 115.776617 -63.354914 
L 112.412321 -63.479596 
L 109.048025 -63.372872 
L 105.683729 -63.390832 
L 102.319434 -63.313189 
L 98.955138 -63.321394 
L 95.590842 -63.421273 
L 92.226546 -63.394743 
L 88.86225 -63.322539 
L 85.497955 -63.420426 
z
" style="stroke: #ff7c00; stroke-opacity: 0.2"/>
    </defs>
    <g clip-path="url(#pdcf8cfa53e)">
     <use xlink:href="#m383c4239ce" x="0" y="577.3515" style="fill: #ff7c00; fill-opacity: 0.2; stroke: #ff7c00; stroke-opacity: 0.2"/>
    </g>
   </g>
   <g id="line2d_1">
    <path d="M 85.497955 514.208548 
L 88.86225 514.307387 
L 92.226546 514.000715 
L 95.590842 514.33019 
L 98.955138 514.166933 
L 102.319434 514.552196 
L 105.683729 514.389943 
L 112.412321 514.236588 
L 115.776617 514.593847 
L 119.140913 514.298843 
L 125.869504 514.349396 
L 129.2338 514.178296 
L 132.598096 91.371367 
L 135.962392 513.673109 
L 139.326687 514.20281 
L 142.690983 514.157998 
L 146.055279 514.278579 
L 149.419575 514.551777 
L 152.783871 514.179366 
L 156.148167 513.623835 
L 159.512462 514.069361 
L 166.241054 514.35302 
L 169.60535 513.823605 
L 176.333941 514.108981 
L 179.698237 513.987822 
L 183.062533 514.343245 
L 186.426829 513.847409 
L 189.791125 514.126012 
L 193.15542 513.941381 
L 196.519716 513.999929 
L 199.884012 514.625465 
L 203.248308 513.945988 
L 206.612604 514.153331 
L 209.976899 513.944583 
L 213.341195 514.453738 
L 216.705491 514.173163 
L 220.069787 514.016624 
L 223.434083 514.266971 
L 226.798378 513.902701 
L 230.162674 514.385681 
L 236.891266 514.041319 
L 240.255562 514.318385 
L 253.712745 514.338364 
L 257.077041 513.839142 
L 260.441337 514.357137 
L 263.805632 514.011328 
L 267.169928 514.844888 
L 270.534224 514.087135 
L 280.627111 514.126844 
L 287.355703 514.066433 
L 294.084295 514.327359 
L 297.44859 514.499216 
L 300.812886 513.85084 
L 304.177182 513.926902 
L 307.541478 514.153624 
L 314.270069 514.026683 
L 317.634365 514.244012 
L 324.362957 514.306648 
L 327.727253 514.048779 
L 331.091549 514.349389 
L 334.455844 514.533405 
L 341.184436 514.169168 
L 344.548732 514.289717 
L 347.913028 513.53426 
L 351.277323 514.3258 
L 354.641619 513.888557 
L 358.005915 514.086795 
L 361.370211 513.866115 
L 364.734507 514.28753 
L 368.098802 513.903451 
L 371.463098 514.587986 
L 374.827394 514.071376 
L 378.19169 514.042207 
L 381.555986 514.312788 
L 384.920281 514.005156 
L 388.284577 513.880328 
L 391.648873 514.110624 
L 398.377465 513.968469 
L 405.106056 514.256558 
L 408.470352 514.115866 
L 411.834648 514.349016 
L 418.56324 514.594676 
L 435.384719 513.876539 
L 438.749014 514.275411 
L 442.11331 514.031665 
L 445.477606 514.07528 
L 448.841902 514.306918 
L 452.206198 514.412714 
L 455.570493 514.285269 
L 458.934789 513.972142 
L 465.663381 513.996366 
L 469.027677 514.426731 
L 479.120564 514.022765 
L 482.48486 514.428644 
L 485.849156 513.876392 
L 489.213451 514.42153 
L 492.577747 514.054667 
L 495.942043 513.94073 
L 499.306339 514.268746 
L 506.034931 514.290705 
L 509.399226 513.678172 
L 512.763522 513.681225 
L 516.127818 514.034067 
L 519.492114 513.849451 
L 522.85641 514.068246 
L 532.949297 514.047102 
L 536.313593 514.763782 
L 539.677889 514.429865 
L 543.042184 513.770834 
L 546.40648 513.924991 
L 549.770776 514.315401 
L 553.135072 514.563987 
L 556.499368 514.031121 
L 566.592255 514.43997 
L 569.956551 514.474802 
L 573.320847 514.191119 
L 583.413734 514.163513 
L 586.77803 514.30906 
L 590.142326 513.923244 
L 596.870917 513.974669 
L 600.235213 514.58 
L 603.599509 514.542306 
L 610.328101 514.051721 
L 617.056692 514.070721 
L 623.785284 514.063609 
L 627.14958 514.229377 
L 630.513875 513.993939 
L 633.878171 514.085646 
L 637.242467 513.985993 
L 640.606763 514.287814 
L 643.971059 513.864798 
L 647.335354 514.03992 
L 654.063946 514.036755 
L 657.428242 514.029924 
L 660.792538 514.328891 
L 664.156833 514.005537 
L 667.521129 514.047991 
L 670.885425 514.485281 
L 674.249721 514.197706 
L 684.342608 514.057207 
L 687.706904 514.559933 
L 691.0712 513.91405 
L 694.435496 514.04979 
L 697.799792 514.316429 
L 704.528383 514.300548 
L 707.892679 514.003727 
L 714.621271 514.077737 
L 717.985566 513.88055 
L 721.349862 514.281119 
L 724.714158 514.27142 
L 728.078454 513.83565 
L 734.807045 514.281126 
L 734.807045 514.281126 
" clip-path="url(#pdcf8cfa53e)" style="fill: none; stroke: #ff7c00; stroke-opacity: 0.35; stroke-width: 1.25; stroke-linecap: round"/>
   </g>
   <g id="line2d_2">
    <path d="M 85.497955 514.319313 
L 88.86225 514.387682 
L 92.226546 514.327323 
L 102.319434 514.391718 
L 115.776617 514.388037 
L 125.869504 514.420453 
L 129.2338 514.280609 
L 132.598096 75.61074 
L 135.962392 513.530845 
L 139.326687 514.230435 
L 142.690983 514.324828 
L 149.419575 514.300879 
L 152.783871 514.328168 
L 156.148167 514.215915 
L 162.876758 514.356146 
L 166.241054 514.31498 
L 169.60535 513.879206 
L 172.969646 513.93624 
L 176.333941 514.179373 
L 186.426829 514.299182 
L 193.15542 514.300184 
L 196.519716 514.308967 
L 199.884012 514.771443 
L 203.248308 514.14052 
L 209.976899 514.308772 
L 236.891266 514.127095 
L 240.255562 514.361608 
L 243.619858 514.276282 
L 253.712745 514.298233 
L 257.077041 514.158818 
L 260.441337 514.26175 
L 263.805632 514.237815 
L 267.169928 514.814219 
L 270.534224 514.248115 
L 277.262816 514.347217 
L 287.355703 514.175171 
L 294.084295 514.321237 
L 297.44859 514.37055 
L 300.812886 514.297208 
L 304.177182 513.984126 
L 307.541478 514.049831 
L 310.905774 514.288005 
L 331.091549 514.341625 
L 334.455844 514.756418 
L 337.82014 514.36374 
L 344.548732 514.349407 
L 347.913028 514.105108 
L 351.277323 514.268004 
L 354.641619 514.150233 
L 364.734507 514.396978 
L 371.463098 514.280248 
L 374.827394 514.414689 
L 381.555986 514.316423 
L 391.648873 514.374682 
L 395.013169 514.304263 
L 398.377465 514.391656 
L 401.74176 514.666688 
L 405.106056 514.242536 
L 411.834648 514.326157 
L 421.927535 514.32015 
L 428.656127 514.313111 
L 438.749014 514.381062 
L 442.11331 514.251431 
L 445.477606 514.401065 
L 448.841902 514.290253 
L 455.570493 514.310422 
L 465.663381 514.225602 
L 469.027677 514.778083 
L 472.391972 514.233922 
L 475.756268 514.182286 
L 482.48486 514.309728 
L 492.577747 514.30563 
L 506.034931 514.331745 
L 509.399226 514.229897 
L 512.763522 514.31008 
L 519.492114 514.315941 
L 526.220705 514.357608 
L 529.585001 514.285883 
L 532.949297 514.33954 
L 536.313593 514.805076 
L 539.677889 514.134359 
L 543.042184 514.324235 
L 546.40648 514.276804 
L 553.135072 514.353217 
L 556.499368 514.27457 
L 559.863663 514.349648 
L 563.227959 514.299876 
L 569.956551 514.362517 
L 573.320847 514.264444 
L 576.685142 514.347127 
L 586.77803 514.308795 
L 600.235213 514.348664 
L 603.599509 514.861324 
L 606.963805 514.233856 
L 630.513875 514.345546 
L 640.606763 514.345569 
L 643.971059 514.235073 
L 647.335354 514.36794 
L 657.428242 514.231461 
L 664.156833 514.396588 
L 667.521129 514.302298 
L 670.885425 514.792804 
L 674.249721 514.193913 
L 680.978313 514.34658 
L 684.342608 514.312013 
L 687.706904 514.42834 
L 694.435496 514.219135 
L 697.799792 514.388094 
L 711.256975 514.293584 
L 714.621271 514.346698 
L 717.985566 514.279371 
L 728.078454 514.30787 
L 731.44275 514.161905 
L 734.807045 514.194686 
L 734.807045 514.194686 
" clip-path="url(#pdcf8cfa53e)" style="fill: none; stroke: #ff7c00; stroke-width: 2; stroke-linecap: round"/>
   </g>
   <g id="patch_3">
    <path d="M 53.0325 539.424 
L 53.0325 7.2 
" style="fill: none"/>
   </g>
   <g id="patch_4">
    <path d="M 53.0325 539.424 
L 767.2725 539.424 
" style="fill: none"/>
   </g>
   <g id="legend_1">
    <g id="line2d_3">
     <path d="M 665.086875 22.918125 
L 677.086875 22.918125 
L 689.086875 22.918125 
" style="fill: none; stroke: #ff7c00; stroke-opacity: 0.35; stroke-width: 1.25; stroke-linecap: round"/>
    </g>
    <g id="text_17">
     <!-- dtb -->
     <g style="fill: #838383" transform="translate(698.686875 27.118125) scale(0.12 -0.12)">
      <use xlink:href="#DejaVuSans-64"/>
      <use xlink:href="#DejaVuSans-74" transform="translate(63.476562 0)"/>
      <use xlink:href="#DejaVuSans-62" transform="translate(102.685547 0)"/>
     </g>
    </g>
    <g id="line2d_4">
     <path d="M 665.086875 40.531875 
L 677.086875 40.531875 
L 689.086875 40.531875 
" style="fill: none; stroke: #ff7c00; stroke-width: 2; stroke-linecap: round"/>
    </g>
    <g id="text_18">
     <!-- dtb mean -->
     <g style="fill: #838383" transform="translate(698.686875 44.731875) scale(0.12 -0.12)">
      <defs>
       <path id="DejaVuSans-20" transform="scale(0.015625)"/>
       <path id="DejaVuSans-6d" d="M 3328 2828 
Q 3544 3216 3844 3400 
Q 4144 3584 4550 3584 
Q 5097 3584 5394 3201 
Q 5691 2819 5691 2113 
L 5691 0 
L 5113 0 
L 5113 2094 
Q 5113 2597 4934 2840 
Q 4756 3084 4391 3084 
Q 3944 3084 3684 2787 
Q 3425 2491 3425 1978 
L 3425 0 
L 2847 0 
L 2847 2094 
Q 2847 2600 2669 2842 
Q 2491 3084 2119 3084 
Q 1678 3084 1418 2786 
Q 1159 2488 1159 1978 
L 1159 0 
L 581 0 
L 581 3500 
L 1159 3500 
L 1159 2956 
Q 1356 3278 1631 3431 
Q 1906 3584 2284 3584 
Q 2666 3584 2933 3390 
Q 3200 3197 3328 2828 
z
" transform="scale(0.015625)"/>
       <path id="DejaVuSans-65" d="M 3597 1894 
L 3597 1613 
L 953 1613 
Q 991 1019 1311 708 
Q 1631 397 2203 397 
Q 2534 397 2845 478 
Q 3156 559 3463 722 
L 3463 178 
Q 3153 47 2828 -22 
Q 2503 -91 2169 -91 
Q 1331 -91 842 396 
Q 353 884 353 1716 
Q 353 2575 817 3079 
Q 1281 3584 2069 3584 
Q 2775 3584 3186 3129 
Q 3597 2675 3597 1894 
z
M 3022 2063 
Q 3016 2534 2758 2815 
Q 2500 3097 2075 3097 
Q 1594 3097 1305 2825 
Q 1016 2553 972 2059 
L 3022 2063 
z
" transform="scale(0.015625)"/>
       <path id="DejaVuSans-6e" d="M 3513 2113 
L 3513 0 
L 2938 0 
L 2938 2094 
Q 2938 2591 2744 2837 
Q 2550 3084 2163 3084 
Q 1697 3084 1428 2787 
Q 1159 2491 1159 1978 
L 1159 0 
L 581 0 
L 581 3500 
L 1159 3500 
L 1159 2956 
Q 1366 3272 1645 3428 
Q 1925 3584 2291 3584 
Q 2894 3584 3203 3211 
Q 3513 2838 3513 2113 
z
" transform="scale(0.015625)"/>
      </defs>
      <use xlink:href="#DejaVuSans-64"/>
      <use xlink:href="#DejaVuSans-74" transform="translate(63.476562 0)"/>
      <use xlink:href="#DejaVuSans-62" transform="translate(102.685547 0)"/>
      <use xlink:href="#DejaVuSans-20" transform="translate(166.162109 0)"/>
      <use xlink:href="#DejaVuSans-6d" transform="translate(197.949219 0)"/>
      <use xlink:href="#DejaVuSans-65" transform="translate(295.361328 0)"/>
      <use xlink:href="#DejaVuSans-61" transform="translate(356.884766 0)"/>
      <use xlink:href="#DejaVuSans-6e" transform="translate(418.164062 0)"/>
     </g>
    </g>
    <g id="patch_5">
     <path d="M 665.086875 62.345625 
L 689.086875 62.345625 
L 689.086875 53.945625 
L 665.086875 53.945625 
z
" style="fill: #ff7c00; fill-opacity: 0.2; stroke: #ff7c00; stroke-opacity: 0.2; stroke-linejoin: miter"/>
    </g>
    <g id="text_19">
     <!-- dtb ± std -->
     <g style="fill: #838383" transform="translate(698.686875 62.345625) scale(0.12 -0.12)">
      <defs>
       <path id="DejaVuSans-b1" d="M 2944 4013 
L 2944 2803 
L 4684 2803 
L 4684 2272 
L 2944 2272 
L 2944 1063 
L 2419 1063 
L 2419 2272 
L 678 2272 
L 678 2803 
L 2419 2803 
L 2419 4013 
L 2944 4013 
z
M 678 531 
L 4684 531 
L 4684 0 
L 678 0 
L 678 531 
z
" transform="scale(0.015625)"/>
       <path id="DejaVuSans-73" d="M 2834 3397 
L 2834 2853 
Q 2591 2978 2328 3040 
Q 2066 3103 1784 3103 
Q 1356 3103 1142 2972 
Q 928 2841 928 2578 
Q 928 2378 1081 2264 
Q 1234 2150 1697 2047 
L 1894 2003 
Q 2506 1872 2764 1633 
Q 3022 1394 3022 966 
Q 3022 478 2636 193 
Q 2250 -91 1575 -91 
Q 1294 -91 989 -36 
Q 684 19 347 128 
L 347 722 
Q 666 556 975 473 
Q 1284 391 1588 391 
Q 1994 391 2212 530 
Q 2431 669 2431 922 
Q 2431 1156 2273 1281 
Q 2116 1406 1581 1522 
L 1381 1569 
Q 847 1681 609 1914 
Q 372 2147 372 2553 
Q 372 3047 722 3315 
Q 1072 3584 1716 3584 
Q 2034 3584 2315 3537 
Q 2597 3491 2834 3397 
z
" transform="scale(0.015625)"/>
      </defs>
      <use xlink:href="#DejaVuSans-64"/>
      <use xlink:href="#DejaVuSans-74" transform="translate(63.476562 0)"/>
      <use xlink:href="#DejaVuSans-62" transform="translate(102.685547 0)"/>
      <use xlink:href="#DejaVuSans-20" transform="translate(166.162109 0)"/>
      <use xlink:href="#DejaVuSans-b1" transform="translate(197.949219 0)"/>
      <use xlink:href="#DejaVuSans-20" transform="translate(281.738281 0)"/>
      <use xlink:href="#DejaVuSans-73" transform="translate(313.525391 0)"/>
      <use xlink:href="#DejaVuSans-74" transform="translate(365.625 0)"/>
      <use xlink:href="#DejaVuSans-64" transform="translate(404.833984 0)"/>
     </g>
    </g>
   </g>
  </g>
 </g>
 <defs>
  <clipPath id="pdcf8cfa53e">
   <rect x="53.0325" y="7.2" width="714.24" height="532.224"/>
  </clipPath>
 </defs>
</svg>
