<?xml version="1.0" encoding="utf-8" standalone="no"?>
<!DOCTYPE svg PUBLIC "-//W3C//DTD SVG 1.1//EN"
  "http://www.w3.org/Graphics/SVG/1.1/DTD/svg11.dtd">
<svg xmlns:xlink="http://www.w3.org/1999/xlink" width="784.644616pt" height="577.3515pt" viewBox="0 0 784.644616 577.3515" xmlns="http://www.w3.org/2000/svg" version="1.1">
 <metadata>
  <rdf:RDF xmlns:dc="http://purl.org/dc/elements/1.1/" xmlns:cc="http://creativecommons.org/ns#" xmlns:rdf="http://www.w3.org/1999/02/22-rdf-syntax-ns#">
   <cc:Work>
    <dc:type rdf:resource="http://purl.org/dc/dcmitype/StillImage"/>
    <dc:date>2026-01-07T12:37:07.222466</dc:date>
    <dc:format>image/svg+xml</dc:format>
    <dc:creator>
     <cc:Agent>
      <dc:title>Matplotlib v3.10.8, https://matplotlib.org/</dc:title>
     </cc:Agent>
    </dc:creator>
   </cc:Work>
  </rdf:RDF>
 </metadata>
 <defs>
  <style type="text/css">*{stroke-linejoin: round; stroke-linecap: butt}</style>
 </defs>
 <g id="figure_1">
  <g id="patch_1">
   <path d="M 0 577.3515 
L 784.644616 577.3515 
L 784.644616 0 
L 0 0 
L 0 577.3515 
z
" style="fill: none"/>
  </g>
  <g id="axes_1">
   <g id="patch_2">
    <path d="M 60.6675 539.424 
L 774.9075 539.424 
L 774.9075 7.2 
L 60.6675 7.2 
L 60.6675 539.424 
z
" style="fill: none"/>
   </g>
   <g id="matplotlib.axis_1">
    <g id="xtick_1">
     <g id="text_1">
      <!-- 0 -->
      <g style="fill: #838383" transform="translate(89.315455 552.042125) scale(0.12 -0.12)">
       <defs>
        <path id="DejaVuSans-30" d="M 2034 4250 
Q 1547 4250 1301 3770 
Q 1056 3291 1056 2328 
Q 1056 1369 1301 889 
Q 1547 409 2034 409 
Q 2525 409 2770 889 
Q 3016 1369 3016 2328 
Q 3016 3291 2770 3770 
Q 2525 4250 2034 4250 
z
M 2034 4750 
Q 2819 4750 3233 4129 
Q 3647 3509 3647 2328 
Q 3647 1150 3233 529 
Q 2819 -91 2034 -91 
Q 1250 -91 836 529 
Q 422 1150 422 2328 
Q 422 3509 836 4129 
Q 1250 4750 2034 4750 
z
" transform="scale(0.015625)"/>
       </defs>
       <use xlink:href="#DejaVuSans-30"/>
      </g>
     </g>
    </g>
    <g id="xtick_2">
     <g id="text_2">
      <!-- 25 -->
      <g style="fill: #838383" transform="translate(169.60535 552.042125) scale(0.12 -0.12)">
       <defs>
        <path id="DejaVuSans-32" d="M 1228 531 
L 3431 531 
L 3431 0 
L 469 0 
L 469 531 
Q 828 903 1448 1529 
Q 2069 2156 2228 2338 
Q 2531 2678 2651 2914 
Q 2772 3150 2772 3378 
Q 2772 3750 2511 3984 
Q 2250 4219 1831 4219 
Q 1534 4219 1204 4116 
Q 875 4013 500 3803 
L 500 4441 
Q 881 4594 1212 4672 
Q 1544 4750 1819 4750 
Q 2544 4750 2975 4387 
Q 3406 4025 3406 3419 
Q 3406 3131 3298 2873 
Q 3191 2616 2906 2266 
Q 2828 2175 2409 1742 
Q 1991 1309 1228 531 
z
" transform="scale(0.015625)"/>
        <path id="DejaVuSans-35" d="M 691 4666 
L 3169 4666 
L 3169 4134 
L 1269 4134 
L 1269 2991 
Q 1406 3038 1543 3061 
Q 1681 3084 1819 3084 
Q 2600 3084 3056 2656 
Q 3513 2228 3513 1497 
Q 3513 744 3044 326 
Q 2575 -91 1722 -91 
Q 1428 -91 1123 -41 
Q 819 9 494 109 
L 494 744 
Q 775 591 1075 516 
Q 1375 441 1709 441 
Q 2250 441 2565 725 
Q 2881 1009 2881 1497 
Q 2881 1984 2565 2268 
Q 2250 2553 1709 2553 
Q 1456 2553 1204 2497 
Q 953 2441 691 2322 
L 691 4666 
z
" transform="scale(0.015625)"/>
       </defs>
       <use xlink:href="#DejaVuSans-32"/>
       <use xlink:href="#DejaVuSans-35" transform="translate(63.623047 0)"/>
      </g>
     </g>
    </g>
    <g id="xtick_3">
     <g id="text_3">
      <!-- 50 -->
      <g style="fill: #838383" transform="translate(253.712745 552.042125) scale(0.12 -0.12)">
       <use xlink:href="#DejaVuSans-35"/>
       <use xlink:href="#DejaVuSans-30" transform="translate(63.623047 0)"/>
      </g>
     </g>
    </g>
    <g id="xtick_4">
     <g id="text_4">
      <!-- 75 -->
      <g style="fill: #838383" transform="translate(337.82014 552.042125) scale(0.12 -0.12)">
       <defs>
        <path id="DejaVuSans-37" d="M 525 4666 
L 3525 4666 
L 3525 4397 
L 1831 0 
L 1172 0 
L 2766 4134 
L 525 4134 
L 525 4666 
z
" transform="scale(0.015625)"/>
       </defs>
       <use xlink:href="#DejaVuSans-37"/>
       <use xlink:href="#DejaVuSans-35" transform="translate(63.623047 0)"/>
      </g>
     </g>
    </g>
    <g id="xtick_5">
     <g id="text_5">
      <!-- 100 -->
      <g style="fill: #838383" transform="translate(418.110035 552.042125) scale(0.12 -0.12)">
       <defs>
        <path id="DejaVuSans-31" d="M 794 531 
L 1825 531 
L 1825 4091 
L 703 3866 
L 703 4441 
L 1819 4666 
L 2450 4666 
L 2450 531 
L 3481 531 
L 3481 0 
L 794 0 
L 794 531 
z
" transform="scale(0.015625)"/>
       </defs>
       <use xlink:href="#DejaVuSans-31"/>
       <use xlink:href="#DejaVuSans-30" transform="translate(63.623047 0)"/>
       <use xlink:href="#DejaVuSans-30" transform="translate(127.246094 0)"/>
      </g>
     </g>
    </g>
    <g id="xtick_6">
     <g id="text_6">
      <!-- 125 -->
      <g style="fill: #838383" transform="translate(502.217431 552.042125) scale(0.12 -0.12)">
       <use xlink:href="#DejaVuSans-31"/>
       <use xlink:href="#DejaVuSans-32" transform="translate(63.623047 0)"/>
       <use xlink:href="#DejaVuSans-35" transform="translate(127.246094 0)"/>
      </g>
     </g>
    </g>
    <g id="xtick_7">
     <g id="text_7">
      <!-- 150 -->
      <g style="fill: #838383" transform="translate(586.324826 552.042125) scale(0.12 -0.12)">
       <use xlink:href="#DejaVuSans-31"/>
       <use xlink:href="#DejaVuSans-35" transform="translate(63.623047 0)"/>
       <use xlink:href="#DejaVuSans-30" transform="translate(127.246094 0)"/>
      </g>
     </g>
    </g>
    <g id="xtick_8">
     <g id="text_8">
      <!-- 175 -->
      <g style="fill: #838383" transform="translate(670.432221 552.042125) scale(0.12 -0.12)">
       <use xlink:href="#DejaVuSans-31"/>
       <use xlink:href="#DejaVuSans-37" transform="translate(63.623047 0)"/>
       <use xlink:href="#DejaVuSans-35" transform="translate(127.246094 0)"/>
      </g>
     </g>
    </g>
    <g id="xtick_9">
     <g id="text_9">
      <!-- 200 -->
      <g style="fill: #838383" transform="translate(754.539616 552.042125) scale(0.12 -0.12)">
       <use xlink:href="#DejaVuSans-32"/>
       <use xlink:href="#DejaVuSans-30" transform="translate(63.623047 0)"/>
       <use xlink:href="#DejaVuSans-30" transform="translate(127.246094 0)"/>
      </g>
     </g>
    </g>
    <g id="text_10">
     <!-- draw -->
     <g style="fill: #262626" transform="translate(402.928125 567.655875) scale(0.12 -0.12)">
      <defs>
       <path id="DejaVuSans-64" d="M 2906 2969 
L 2906 4863 
L 3481 4863 
L 3481 0 
L 2906 0 
L 2906 525 
Q 2725 213 2448 61 
Q 2172 -91 1784 -91 
Q 1150 -91 751 415 
Q 353 922 353 1747 
Q 353 2572 751 3078 
Q 1150 3584 1784 3584 
Q 2172 3584 2448 3432 
Q 2725 3281 2906 2969 
z
M 947 1747 
Q 947 1113 1208 752 
Q 1469 391 1925 391 
Q 2381 391 2643 752 
Q 2906 1113 2906 1747 
Q 2906 2381 2643 2742 
Q 2381 3103 1925 3103 
Q 1469 3103 1208 2742 
Q 947 2381 947 1747 
z
" transform="scale(0.015625)"/>
       <path id="DejaVuSans-72" d="M 2631 2963 
Q 2534 3019 2420 3045 
Q 2306 3072 2169 3072 
Q 1681 3072 1420 2755 
Q 1159 2438 1159 1844 
L 1159 0 
L 581 0 
L 581 3500 
L 1159 3500 
L 1159 2956 
Q 1341 3275 1631 3429 
Q 1922 3584 2338 3584 
Q 2397 3584 2469 3576 
Q 2541 3569 2628 3553 
L 2631 2963 
z
" transform="scale(0.015625)"/>
       <path id="DejaVuSans-61" d="M 2194 1759 
Q 1497 1759 1228 1600 
Q 959 1441 959 1056 
Q 959 750 1161 570 
Q 1363 391 1709 391 
Q 2188 391 2477 730 
Q 2766 1069 2766 1631 
L 2766 1759 
L 2194 1759 
z
M 3341 1997 
L 3341 0 
L 2766 0 
L 2766 531 
Q 2569 213 2275 61 
Q 1981 -91 1556 -91 
Q 1019 -91 701 211 
Q 384 513 384 1019 
Q 384 1609 779 1909 
Q 1175 2209 1959 2209 
L 2766 2209 
L 2766 2266 
Q 2766 2663 2505 2880 
Q 2244 3097 1772 3097 
Q 1472 3097 1187 3025 
Q 903 2953 641 2809 
L 641 3341 
Q 956 3463 1253 3523 
Q 1550 3584 1831 3584 
Q 2591 3584 2966 3190 
Q 3341 2797 3341 1997 
z
" transform="scale(0.015625)"/>
       <path id="DejaVuSans-77" d="M 269 3500 
L 844 3500 
L 1563 769 
L 2278 3500 
L 2956 3500 
L 3675 769 
L 4391 3500 
L 4966 3500 
L 4050 0 
L 3372 0 
L 2619 2869 
L 1863 0 
L 1184 0 
L 269 3500 
z
" transform="scale(0.015625)"/>
      </defs>
      <use xlink:href="#DejaVuSans-64"/>
      <use xlink:href="#DejaVuSans-72" transform="translate(63.476562 0)"/>
      <use xlink:href="#DejaVuSans-61" transform="translate(104.589844 0)"/>
      <use xlink:href="#DejaVuSans-77" transform="translate(165.869141 0)"/>
     </g>
    </g>
   </g>
   <g id="matplotlib.axis_2">
    <g id="ytick_1">
     <g id="text_11">
      <!-- 0.006 -->
      <g style="fill: #838383" transform="translate(22.81375 501.487939) scale(0.12 -0.12)">
       <defs>
        <path id="DejaVuSans-2e" d="M 684 794 
L 1344 794 
L 1344 0 
L 684 0 
L 684 794 
z
" transform="scale(0.015625)"/>
        <path id="DejaVuSans-36" d="M 2113 2584 
Q 1688 2584 1439 2293 
Q 1191 2003 1191 1497 
Q 1191 994 1439 701 
Q 1688 409 2113 409 
Q 2538 409 2786 701 
Q 3034 994 3034 1497 
Q 3034 2003 2786 2293 
Q 2538 2584 2113 2584 
z
M 3366 4563 
L 3366 3988 
Q 3128 4100 2886 4159 
Q 2644 4219 2406 4219 
Q 1781 4219 1451 3797 
Q 1122 3375 1075 2522 
Q 1259 2794 1537 2939 
Q 1816 3084 2150 3084 
Q 2853 3084 3261 2657 
Q 3669 2231 3669 1497 
Q 3669 778 3244 343 
Q 2819 -91 2113 -91 
Q 1303 -91 875 529 
Q 447 1150 447 2328 
Q 447 3434 972 4092 
Q 1497 4750 2381 4750 
Q 2619 4750 2861 4703 
Q 3103 4656 3366 4563 
z
" transform="scale(0.015625)"/>
       </defs>
       <use xlink:href="#DejaVuSans-30"/>
       <use xlink:href="#DejaVuSans-2e" transform="translate(63.623047 0)"/>
       <use xlink:href="#DejaVuSans-30" transform="translate(95.410156 0)"/>
       <use xlink:href="#DejaVuSans-30" transform="translate(159.033203 0)"/>
       <use xlink:href="#DejaVuSans-36" transform="translate(222.65625 0)"/>
      </g>
     </g>
    </g>
    <g id="ytick_2">
     <g id="text_12">
      <!-- 0.008 -->
      <g style="fill: #838383" transform="translate(22.81375 418.406559) scale(0.12 -0.12)">
       <defs>
        <path id="DejaVuSans-38" d="M 2034 2216 
Q 1584 2216 1326 1975 
Q 1069 1734 1069 1313 
Q 1069 891 1326 650 
Q 1584 409 2034 409 
Q 2484 409 2743 651 
Q 3003 894 3003 1313 
Q 3003 1734 2745 1975 
Q 2488 2216 2034 2216 
z
M 1403 2484 
Q 997 2584 770 2862 
Q 544 3141 544 3541 
Q 544 4100 942 4425 
Q 1341 4750 2034 4750 
Q 2731 4750 3128 4425 
Q 3525 4100 3525 3541 
Q 3525 3141 3298 2862 
Q 3072 2584 2669 2484 
Q 3125 2378 3379 2068 
Q 3634 1759 3634 1313 
Q 3634 634 3220 271 
Q 2806 -91 2034 -91 
Q 1263 -91 848 271 
Q 434 634 434 1313 
Q 434 1759 690 2068 
Q 947 2378 1403 2484 
z
M 1172 3481 
Q 1172 3119 1398 2916 
Q 1625 2713 2034 2713 
Q 2441 2713 2670 2916 
Q 2900 3119 2900 3481 
Q 2900 3844 2670 4047 
Q 2441 4250 2034 4250 
Q 1625 4250 1398 4047 
Q 1172 3844 1172 3481 
z
" transform="scale(0.015625)"/>
       </defs>
       <use xlink:href="#DejaVuSans-30"/>
       <use xlink:href="#DejaVuSans-2e" transform="translate(63.623047 0)"/>
       <use xlink:href="#DejaVuSans-30" transform="translate(95.410156 0)"/>
       <use xlink:href="#DejaVuSans-30" transform="translate(159.033203 0)"/>
       <use xlink:href="#DejaVuSans-38" transform="translate(222.65625 0)"/>
      </g>
     </g>
    </g>
    <g id="ytick_3">
     <g id="text_13">
      <!-- 0.010 -->
      <g style="fill: #838383" transform="translate(22.81375 335.325179) scale(0.12 -0.12)">
       <use xlink:href="#DejaVuSans-30"/>
       <use xlink:href="#DejaVuSans-2e" transform="translate(63.623047 0)"/>
       <use xlink:href="#DejaVuSans-30" transform="translate(95.410156 0)"/>
       <use xlink:href="#DejaVuSans-31" transform="translate(159.033203 0)"/>
       <use xlink:href="#DejaVuSans-30" transform="translate(222.65625 0)"/>
      </g>
     </g>
    </g>
    <g id="ytick_4">
     <g id="text_14">
      <!-- 0.012 -->
      <g style="fill: #838383" transform="translate(22.81375 252.243799) scale(0.12 -0.12)">
       <use xlink:href="#DejaVuSans-30"/>
       <use xlink:href="#DejaVuSans-2e" transform="translate(63.623047 0)"/>
       <use xlink:href="#DejaVuSans-30" transform="translate(95.410156 0)"/>
       <use xlink:href="#DejaVuSans-31" transform="translate(159.033203 0)"/>
       <use xlink:href="#DejaVuSans-32" transform="translate(222.65625 0)"/>
      </g>
     </g>
    </g>
    <g id="ytick_5">
     <g id="text_15">
      <!-- 0.014 -->
      <g style="fill: #838383" transform="translate(22.81375 169.162419) scale(0.12 -0.12)">
       <defs>
        <path id="DejaVuSans-34" d="M 2419 4116 
L 825 1625 
L 2419 1625 
L 2419 4116 
z
M 2253 4666 
L 3047 4666 
L 3047 1625 
L 3713 1625 
L 3713 1100 
L 3047 1100 
L 3047 0 
L 2419 0 
L 2419 1100 
L 313 1100 
L 313 1709 
L 2253 4666 
z
" transform="scale(0.015625)"/>
       </defs>
       <use xlink:href="#DejaVuSans-30"/>
       <use xlink:href="#DejaVuSans-2e" transform="translate(63.623047 0)"/>
       <use xlink:href="#DejaVuSans-30" transform="translate(95.410156 0)"/>
       <use xlink:href="#DejaVuSans-31" transform="translate(159.033203 0)"/>
       <use xlink:href="#DejaVuSans-34" transform="translate(222.65625 0)"/>
      </g>
     </g>
    </g>
    <g id="ytick_6">
     <g id="text_16">
      <!-- 0.016 -->
      <g style="fill: #838383" transform="translate(22.81375 86.081039) scale(0.12 -0.12)">
       <use xlink:href="#DejaVuSans-30"/>
       <use xlink:href="#DejaVuSans-2e" transform="translate(63.623047 0)"/>
       <use xlink:href="#DejaVuSans-30" transform="translate(95.410156 0)"/>
       <use xlink:href="#DejaVuSans-31" transform="translate(159.033203 0)"/>
       <use xlink:href="#DejaVuSans-36" transform="translate(222.65625 0)"/>
      </g>
     </g>
    </g>
    <g id="text_17">
     <!-- dtf -->
     <g style="fill: #262626" transform="translate(16.318125 281.585437) rotate(-90) scale(0.12 -0.12)">
      <defs>
       <path id="DejaVuSans-74" d="M 1172 4494 
L 1172 3500 
L 2356 3500 
L 2356 3053 
L 1172 3053 
L 1172 1153 
Q 1172 725 1289 603 
Q 1406 481 1766 481 
L 2356 481 
L 2356 0 
L 1766 0 
Q 1100 0 847 248 
Q 594 497 594 1153 
L 594 3053 
L 172 3053 
L 172 3500 
L 594 3500 
L 594 4494 
L 1172 4494 
z
" transform="scale(0.015625)"/>
       <path id="DejaVuSans-66" d="M 2375 4863 
L 2375 4384 
L 1825 4384 
Q 1516 4384 1395 4259 
Q 1275 4134 1275 3809 
L 1275 3500 
L 2222 3500 
L 2222 3053 
L 1275 3053 
L 1275 0 
L 697 0 
L 697 3053 
L 147 3053 
L 147 3500 
L 697 3500 
L 697 3744 
Q 697 4328 969 4595 
Q 1241 4863 1831 4863 
L 2375 4863 
z
" transform="scale(0.015625)"/>
      </defs>
      <use xlink:href="#DejaVuSans-64"/>
      <use xlink:href="#DejaVuSans-74" transform="translate(63.476562 0)"/>
      <use xlink:href="#DejaVuSans-66" transform="translate(102.685547 0)"/>
     </g>
    </g>
   </g>
   <g id="FillBetweenPolyCollection_1">
    <defs>
     <path id="m7d41fdbf21" d="M 93.132955 -270.784019 
L 93.132955 -230.1174 
L 96.49725 -229.723631 
L 99.861546 -224.092029 
L 103.225842 -217.586033 
L 106.590138 -230.579005 
L 109.954434 -224.101331 
L 113.318729 -239.224018 
L 116.683025 -230.721314 
L 120.047321 -222.531424 
L 123.411617 -222.686409 
L 126.775913 -222.728568 
L 130.140208 -247.231148 
L 133.504504 -256.102651 
L 136.8688 -232.467944 
L 140.233096 -75.844277 
L 143.597392 -332.472546 
L 146.961687 -252.88025 
L 150.325983 -222.071962 
L 153.690279 -254.032999 
L 157.054575 -225.512692 
L 160.418871 -221.401752 
L 163.783167 -228.792196 
L 167.147462 -258.413044 
L 170.511758 -223.431118 
L 173.876054 -223.823159 
L 177.24035 -231.947545 
L 180.604646 -231.365636 
L 183.968941 -227.978252 
L 187.333237 -224.097604 
L 190.697533 -220.042916 
L 194.061829 -243.788482 
L 197.426125 -245.31891 
L 200.79042 -225.078187 
L 204.154716 -221.52451 
L 207.519012 -68.136911 
L 210.883308 -312.69923 
L 214.247604 -254.862281 
L 217.611899 -226.36421 
L 220.976195 -223.195012 
L 224.340491 -260.40847 
L 227.704787 -259.084383 
L 231.069083 -223.838704 
L 234.433378 -223.564974 
L 237.797674 -233.863808 
L 241.16197 -225.734654 
L 244.526266 -235.329512 
L 247.890562 -219.638447 
L 251.254858 -243.224204 
L 254.619153 -222.186032 
L 257.983449 -224.360488 
L 261.347745 -231.996046 
L 264.712041 -224.639209 
L 268.076337 -226.06347 
L 271.440632 -240.043412 
L 274.804928 -69.907742 
L 278.169224 -279.515259 
L 281.53352 -221.483412 
L 284.897816 -223.452012 
L 288.262111 -236.768461 
L 291.626407 -233.987276 
L 294.990703 -224.529503 
L 298.354999 -224.153631 
L 301.719295 -261.43663 
L 305.08359 -256.801536 
L 308.447886 -225.943733 
L 311.812182 -232.650599 
L 315.176478 -232.178143 
L 318.540774 -220.092377 
L 321.905069 -208.0236 
L 325.269365 -227.05377 
L 328.633661 -217.426917 
L 331.997957 -222.705853 
L 335.362253 -219.025423 
L 338.726549 -221.240862 
L 342.090844 -112.042706 
L 345.45514 -296.638839 
L 348.819436 -222.856228 
L 352.183732 -224.132743 
L 355.548028 -225.294523 
L 358.912323 -223.754931 
L 362.276619 -222.844213 
L 365.640915 -219.799982 
L 369.005211 -222.560445 
L 372.369507 -220.26657 
L 375.733802 -244.372788 
L 379.098098 -269.654647 
L 382.462394 -216.47273 
L 385.82669 -221.884642 
L 389.190986 -231.707393 
L 392.555281 -216.920434 
L 395.919577 -235.795452 
L 399.283873 -224.676311 
L 402.648169 -250.547697 
L 406.012465 -213.205696 
L 409.37676 -82.549557 
L 412.741056 -304.035459 
L 416.105352 -222.73874 
L 419.469648 -241.850645 
L 422.833944 -219.327155 
L 426.19824 -247.556338 
L 429.562535 -266.034837 
L 432.926831 -220.285907 
L 436.291127 -220.138817 
L 439.655423 -257.970838 
L 443.019719 -223.016552 
L 446.384014 -202.231447 
L 449.74831 -217.793196 
L 453.112606 -222.042749 
L 456.476902 -225.478832 
L 459.841198 -225.522445 
L 463.205493 -213.701929 
L 466.569789 -209.429081 
L 469.934085 -227.32802 
L 473.298381 -243.941127 
L 476.662677 -72.165328 
L 480.026972 -311.138862 
L 483.391268 -229.121268 
L 486.755564 -225.972101 
L 490.11986 -226.700284 
L 493.484156 -225.047149 
L 496.848451 -226.161574 
L 500.212747 -243.426451 
L 503.577043 -234.068631 
L 506.941339 -215.75842 
L 510.305635 -224.057765 
L 513.669931 -216.479059 
L 517.034226 -236.628216 
L 520.398522 -217.475434 
L 523.762818 -224.282595 
L 527.127114 -226.566254 
L 530.49141 -219.72672 
L 533.855705 -219.285882 
L 537.220001 -256.915408 
L 540.584297 -213.134399 
L 543.948593 -62.1195 
L 547.312889 -315.507871 
L 550.677184 -244.207352 
L 554.04148 -238.687998 
L 557.405776 -221.708782 
L 560.770072 -221.938944 
L 564.134368 -221.955287 
L 567.498663 -215.642227 
L 570.862959 -226.14932 
L 574.227255 -248.899955 
L 577.591551 -223.683479 
L 580.955847 -265.995832 
L 584.320142 -225.111111 
L 587.684438 -235.159757 
L 591.048734 -225.640082 
L 594.41303 -245.322343 
L 597.777326 -232.179683 
L 601.141622 -254.978281 
L 604.505917 -214.76639 
L 607.870213 -221.931325 
L 611.234509 -64.141449 
L 614.598805 -299.842039 
L 617.963101 -223.716076 
L 621.327396 -220.985323 
L 624.691692 -219.753674 
L 628.055988 -209.183724 
L 631.420284 -224.347549 
L 634.78458 -234.724508 
L 638.148875 -222.047468 
L 641.513171 -222.273246 
L 644.877467 -222.808732 
L 648.241763 -214.698599 
L 651.606059 -256.48587 
L 654.970354 -221.875775 
L 658.33465 -221.049803 
L 661.698946 -224.28527 
L 665.063242 -226.276037 
L 668.427538 -227.270146 
L 671.791833 -212.625507 
L 675.156129 -255.190214 
L 678.520425 -81.313859 
L 681.884721 -322.709299 
L 685.249017 -220.699049 
L 688.613313 -218.958203 
L 691.977608 -226.042345 
L 695.341904 -222.998649 
L 698.7062 -223.461872 
L 702.070496 -259.983473 
L 705.434792 -209.502753 
L 708.799087 -212.320251 
L 712.163383 -257.491135 
L 715.527679 -217.700619 
L 718.891975 -220.553012 
L 722.256271 -223.993191 
L 725.620566 -250.444611 
L 728.984862 -212.276988 
L 732.349158 -221.792952 
L 735.713454 -221.713966 
L 739.07775 -219.234763 
L 742.442045 -228.26508 
L 742.442045 -246.953222 
L 742.442045 -246.953222 
L 739.07775 -276.263287 
L 735.713454 -273.559927 
L 732.349158 -247.313222 
L 728.984862 -272.607069 
L 725.620566 -287.074406 
L 722.256271 -278.232277 
L 718.891975 -250.718053 
L 715.527679 -262.277518 
L 712.163383 -292.541678 
L 708.799087 -266.726671 
L 705.434792 -259.847309 
L 702.070496 -306.146088 
L 698.7062 -263.049626 
L 695.341904 -283.555982 
L 691.977608 -279.282866 
L 688.613313 -252.920802 
L 685.249017 -248.913857 
L 681.884721 -378.1712 
L 678.520425 -99.342709 
L 675.156129 -267.546433 
L 671.791833 -266.764962 
L 668.427538 -314.100086 
L 665.063242 -249.749215 
L 661.698946 -257.93142 
L 658.33465 -273.724631 
L 654.970354 -241.065114 
L 651.606059 -278.04645 
L 648.241763 -263.571163 
L 644.877467 -232.49457 
L 641.513171 -238.288422 
L 638.148875 -255.083558 
L 634.78458 -288.521503 
L 631.420284 -253.03193 
L 628.055988 -282.633649 
L 624.691692 -247.973822 
L 621.327396 -247.093149 
L 617.963101 -282.325479 
L 614.598805 -351.971055 
L 611.234509 -81.448282 
L 607.870213 -236.654093 
L 604.505917 -262.054901 
L 601.141622 -273.497699 
L 597.777326 -270.390494 
L 594.41303 -276.162446 
L 591.048734 -248.205655 
L 587.684438 -256.762227 
L 584.320142 -254.888227 
L 580.955847 -291.166365 
L 577.591551 -281.104746 
L 574.227255 -280.248032 
L 570.862959 -285.393251 
L 567.498663 -250.204346 
L 564.134368 -258.545986 
L 560.770072 -231.262838 
L 557.405776 -255.367617 
L 554.04148 -270.38103 
L 550.677184 -277.485035 
L 547.312889 -408.938904 
L 543.948593 -93.281181 
L 540.584297 -248.448317 
L 537.220001 -316.707821 
L 533.855705 -301.31667 
L 530.49141 -246.729109 
L 527.127114 -261.946949 
L 523.762818 -267.807758 
L 520.398522 -249.992854 
L 517.034226 -264.288445 
L 513.669931 -253.616748 
L 510.305635 -244.254458 
L 506.941339 -257.551182 
L 503.577043 -304.286042 
L 500.212747 -261.329508 
L 496.848451 -293.562379 
L 493.484156 -261.722164 
L 490.11986 -277.62508 
L 486.755564 -253.482127 
L 483.391268 -243.724157 
L 480.026972 -374.316199 
L 476.662677 -103.886079 
L 473.298381 -278.490893 
L 469.934085 -271.727681 
L 466.569789 -280.83869 
L 463.205493 -288.201115 
L 459.841198 -309.215153 
L 456.476902 -258.251633 
L 453.112606 -231.684413 
L 449.74831 -310.591017 
L 446.384014 -274.348587 
L 443.019719 -273.723918 
L 439.655423 -304.757525 
L 436.291127 -286.671541 
L 432.926831 -250.47092 
L 429.562535 -307.172344 
L 426.19824 -295.218801 
L 422.833944 -270.432105 
L 419.469648 -274.078733 
L 416.105352 -259.353452 
L 412.741056 -377.749525 
L 409.37676 -138.177147 
L 406.012465 -311.328773 
L 402.648169 -271.761915 
L 399.283873 -281.156639 
L 395.919577 -261.627702 
L 392.555281 -248.51427 
L 389.190986 -304.292046 
L 385.82669 -234.672298 
L 382.462394 -242.667935 
L 379.098098 -293.025975 
L 375.733802 -287.590509 
L 372.369507 -237.700618 
L 369.005211 -294.380309 
L 365.640915 -261.835385 
L 362.276619 -245.597073 
L 358.912323 -233.744522 
L 355.548028 -245.223368 
L 352.183732 -257.907762 
L 348.819436 -277.92874 
L 345.45514 -336.1955 
L 342.090844 -133.981977 
L 338.726549 -240.512466 
L 335.362253 -259.00138 
L 331.997957 -250.291538 
L 328.633661 -266.645083 
L 325.269365 -269.634626 
L 321.905069 -265.172646 
L 318.540774 -270.934758 
L 315.176478 -259.339089 
L 311.812182 -250.235234 
L 308.447886 -250.341191 
L 305.08359 -284.035423 
L 301.719295 -289.70923 
L 298.354999 -244.210588 
L 294.990703 -266.069745 
L 291.626407 -254.054246 
L 288.262111 -285.853285 
L 284.897816 -231.535288 
L 281.53352 -251.149849 
L 278.169224 -383.520078 
L 274.804928 -90.342375 
L 271.440632 -262.265855 
L 268.076337 -237.697445 
L 264.712041 -236.002387 
L 261.347745 -260.495113 
L 257.983449 -270.852124 
L 254.619153 -232.02109 
L 251.254858 -282.609092 
L 247.890562 -241.696434 
L 244.526266 -298.186867 
L 241.16197 -287.010487 
L 237.797674 -265.456053 
L 234.433378 -261.667195 
L 231.069083 -282.77837 
L 227.704787 -310.514079 
L 224.340491 -316.508714 
L 220.976195 -276.166478 
L 217.611899 -254.209023 
L 214.247604 -281.751907 
L 210.883308 -351.539684 
L 207.519012 -84.370117 
L 204.154716 -248.390781 
L 200.79042 -260.416983 
L 197.426125 -280.358705 
L 194.061829 -292.134123 
L 190.697533 -252.98233 
L 187.333237 -253.818165 
L 183.968941 -237.161031 
L 180.604646 -244.074502 
L 177.24035 -246.307671 
L 173.876054 -236.75143 
L 170.511758 -244.288408 
L 167.147462 -307.849603 
L 163.783167 -295.763552 
L 160.418871 -252.97571 
L 157.054575 -263.981557 
L 153.690279 -301.083542 
L 150.325983 -256.74941 
L 146.961687 -283.549706 
L 143.597392 -429.294631 
L 140.233096 -112.665524 
L 136.8688 -301.950171 
L 133.504504 -302.252755 
L 130.140208 -280.483921 
L 126.775913 -232.502156 
L 123.411617 -247.267414 
L 120.047321 -256.904852 
L 116.683025 -296.478434 
L 113.318729 -286.684796 
L 109.954434 -253.328596 
L 106.590138 -260.185285 
L 103.225842 -258.83631 
L 99.861546 -269.695867 
L 96.49725 -249.22193 
L 93.132955 -270.784019 
z
" style="stroke: #1ac938; stroke-opacity: 0.2"/>
    </defs>
    <g clip-path="url(#p01e9a6ea75)">
     <use xlink:href="#m7d41fdbf21" x="0" y="577.3515" style="fill: #1ac938; fill-opacity: 0.2; stroke: #1ac938; stroke-opacity: 0.2"/>
    </g>
   </g>
   <g id="line2d_1">
    <path d="M 93.132955 280.220567 
L 96.49725 340.61575 
L 99.861546 254.604835 
L 103.225842 343.434653 
L 106.590138 308.383329 
L 109.954434 314.880086 
L 113.318729 276.106088 
L 116.683025 257.381327 
L 120.047321 347.224121 
L 123.411617 328.631218 
L 126.775913 345.595936 
L 130.140208 294.41157 
L 133.504504 264.553998 
L 136.8688 277.47668 
L 140.233096 489.939989 
L 143.597392 62.166051 
L 146.961687 293.20145 
L 150.325983 342.308655 
L 153.690279 253.761766 
L 157.054575 296.729297 
L 160.418871 308.385239 
L 163.783167 267.482325 
L 167.147462 257.195809 
L 170.511758 325.500293 
L 173.876054 344.214662 
L 177.24035 326.207733 
L 180.604646 338.560147 
L 183.968941 344.735917 
L 187.333237 305.846353 
L 190.697533 319.147687 
L 194.061829 281.529225 
L 197.426125 278.59541 
L 200.79042 348.455679 
L 204.154716 315.501407 
L 207.519012 485.916354 
L 210.883308 194.566282 
L 214.247604 283.709403 
L 217.611899 343.220139 
L 220.976195 275.145504 
L 224.340491 239.745148 
L 227.704787 284.824854 
L 231.069083 274.024023 
L 234.433378 349.700778 
L 237.797674 302.346342 
L 241.16197 347.663083 
L 244.526266 282.991415 
L 247.890562 347.919969 
L 251.254858 281.411126 
L 254.619153 344.73654 
L 257.983449 289.702981 
L 261.347745 304.674911 
L 264.712041 337.639605 
L 268.076337 335.086265 
L 271.440632 312.919612 
L 274.804928 504.352199 
L 278.169224 31.392 
L 281.53352 302.231111 
L 284.897816 348.210505 
L 288.262111 272.013046 
L 291.626407 322.249364 
L 294.990703 336.963614 
L 298.354999 340.672321 
L 301.719295 294.571462 
L 305.08359 280.55335 
L 308.447886 344.507194 
L 311.812182 328.172318 
L 315.176478 316.042601 
L 318.540774 285.477458 
L 321.905069 343.06399 
L 325.269365 346.20567 
L 328.633661 289.423283 
L 331.997957 347.213985 
L 335.362253 287.669769 
L 338.726549 347.144449 
L 342.090844 447.296642 
L 345.45514 232.430377 
L 348.819436 270.2481 
L 352.183732 344.193857 
L 355.548028 315.802828 
L 358.912323 345.328497 
L 362.276619 336.754956 
L 365.640915 341.363981 
L 369.005211 261.855013 
L 372.369507 314.175016 
L 375.733802 282.811836 
L 379.098098 289.747883 
L 382.462394 345.017728 
L 385.82669 342.869454 
L 389.190986 259.807269 
L 392.555281 347.170118 
L 395.919577 315.84362 
L 399.283873 304.476637 
L 402.648169 309.789315 
L 406.012465 223.544238 
L 409.37676 440.487457 
L 412.741056 226.166535 
L 416.105352 295.5188 
L 419.469648 329.401879 
L 422.833944 330.82469 
L 426.19824 319.150172 
L 429.562535 278.540038 
L 432.926831 307.683868 
L 436.291127 265.95408 
L 439.655423 302.452526 
L 443.019719 285.207403 
L 446.384014 345.499812 
L 449.74831 231.468541 
L 453.112606 351.068507 
L 456.476902 345.604994 
L 459.841198 263.823839 
L 463.205493 240.714166 
L 466.569789 344.803964 
L 469.934085 294.370116 
L 473.298381 310.749362 
L 476.662677 449.058837 
L 480.026972 95.354776 
L 483.391268 349.58322 
L 486.755564 347.830823 
L 490.11986 276.95896 
L 493.484156 353.11185 
L 496.848451 276.632159 
L 500.212747 315.4052 
L 503.577043 343.51288 
L 506.941339 346.782002 
L 510.305635 343.518485 
L 513.669931 287.670103 
L 517.034226 304.823458 
L 520.398522 306.842917 
L 523.762818 345.899805 
L 527.127114 307.353204 
L 530.49141 344.360974 
L 533.855705 250.871779 
L 537.220001 251.684232 
L 540.584297 346.120306 
L 543.948593 503.095634 
L 547.312889 181.631631 
L 550.677184 300.232921 
L 554.04148 287.952867 
L 557.405776 346.083871 
L 560.770072 348.772634 
L 564.134368 301.960432 
L 567.498663 348.723365 
L 570.862959 348.762536 
L 574.227255 305.201646 
L 577.591551 339.611705 
L 580.955847 285.688529 
L 584.320142 315.525833 
L 587.684438 337.423137 
L 591.048734 343.678168 
L 594.41303 288.825431 
L 597.777326 336.179944 
L 601.141622 299.024919 
L 604.505917 344.000191 
L 607.870213 347.677663 
L 611.234509 505.130505 
L 614.598805 261.529252 
L 617.963101 341.621405 
L 621.327396 309.502474 
L 624.691692 343.662171 
L 628.055988 301.801497 
L 631.420284 350.434927 
L 634.78458 284.98948 
L 638.148875 348.896425 
L 641.513171 352.694322 
L 644.877467 347.913407 
L 648.241763 280.909524 
L 651.606059 316.500171 
L 654.970354 348.010489 
L 658.33465 344.957578 
L 661.698946 308.249029 
L 665.063242 323.299635 
L 668.427538 342.344625 
L 671.791833 345.958547 
L 675.156129 309.025672 
L 678.520425 469.546 
L 681.884721 123.430302 
L 685.249017 342.935919 
L 688.613313 316.132289 
L 691.977608 343.017381 
L 695.341904 268.992328 
L 698.7062 301.597946 
L 702.070496 281.52391 
L 705.434792 344.710581 
L 708.799087 333.463564 
L 712.163383 283.931649 
L 715.527679 299.870474 
L 718.891975 345.249985 
L 722.256271 275.835699 
L 725.620566 277.451547 
L 728.984862 271.134747 
L 732.349158 343.913661 
L 735.713454 284.892112 
L 739.07775 228.020869 
L 742.442045 315.463029 
L 742.442045 315.463029 
" clip-path="url(#p01e9a6ea75)" style="fill: none; stroke: #1ac938; stroke-opacity: 0.35; stroke-width: 1.25; stroke-linecap: round"/>
   </g>
   <g id="line2d_2">
    <path d="M 93.132955 326.900791 
L 96.49725 337.87872 
L 99.861546 330.457552 
L 103.225842 339.140329 
L 106.590138 331.969355 
L 109.954434 338.636536 
L 113.318729 314.397093 
L 116.683025 313.751626 
L 120.047321 337.633362 
L 123.411617 342.374588 
L 126.775913 349.736138 
L 130.140208 313.493966 
L 133.504504 298.173797 
L 136.8688 310.142443 
L 140.233096 483.096599 
L 143.597392 196.467912 
L 146.961687 309.136522 
L 150.325983 337.940814 
L 153.690279 299.793229 
L 157.054575 332.604376 
L 160.418871 340.162769 
L 163.783167 315.073626 
L 167.147462 294.220177 
L 170.511758 343.491737 
L 173.876054 347.064205 
L 177.24035 338.223892 
L 180.604646 339.631431 
L 183.968941 344.781858 
L 187.333237 338.393616 
L 190.697533 340.838877 
L 194.061829 309.390198 
L 197.426125 314.512692 
L 200.79042 334.603915 
L 204.154716 342.393855 
L 207.519012 501.097986 
L 210.883308 245.232043 
L 214.247604 309.044406 
L 217.611899 337.064884 
L 220.976195 327.670755 
L 224.340491 288.892908 
L 227.704787 292.552269 
L 231.069083 324.042963 
L 234.433378 334.735415 
L 237.797674 327.691569 
L 241.16197 320.978929 
L 244.526266 310.59331 
L 247.890562 346.684059 
L 251.254858 314.434852 
L 254.619153 350.247939 
L 257.983449 329.745194 
L 261.347745 331.105921 
L 264.712041 347.030702 
L 268.076337 345.471042 
L 271.440632 326.196867 
L 274.804928 497.226441 
L 278.169224 245.833832 
L 281.53352 341.034869 
L 284.897816 349.85785 
L 288.262111 316.040627 
L 291.626407 333.330739 
L 294.990703 332.051876 
L 298.354999 343.16939 
L 301.719295 301.77857 
L 305.08359 306.933021 
L 308.447886 339.209038 
L 311.812182 335.908583 
L 315.176478 331.592884 
L 318.540774 331.837932 
L 321.905069 340.753377 
L 325.269365 329.007302 
L 328.633661 335.3155 
L 331.997957 340.852805 
L 335.362253 338.338099 
L 338.726549 346.474836 
L 342.090844 454.339158 
L 345.45514 260.934331 
L 348.819436 326.959016 
L 352.183732 336.331247 
L 355.548028 342.092555 
L 358.912323 348.601774 
L 362.276619 343.130857 
L 365.640915 336.533817 
L 369.005211 318.881123 
L 372.369507 348.367906 
L 375.733802 311.369852 
L 379.098098 296.011189 
L 382.462394 347.781167 
L 385.82669 349.07303 
L 389.190986 309.351781 
L 392.555281 344.634148 
L 395.919577 328.639923 
L 399.283873 324.435025 
L 402.648169 316.196694 
L 406.012465 315.084265 
L 409.37676 466.988148 
L 412.741056 236.459008 
L 416.105352 336.305404 
L 419.469648 319.386811 
L 422.833944 332.47187 
L 426.19824 305.96393 
L 429.562535 290.747909 
L 432.926831 341.973087 
L 436.291127 323.946321 
L 439.655423 295.987318 
L 443.019719 328.981265 
L 446.384014 339.061483 
L 449.74831 313.159394 
L 453.112606 350.487919 
L 456.476902 335.486268 
L 459.841198 309.982701 
L 463.205493 326.399978 
L 466.569789 332.217614 
L 469.934085 327.823649 
L 473.298381 316.13549 
L 476.662677 489.325797 
L 480.026972 234.623969 
L 483.391268 340.928787 
L 486.755564 337.624386 
L 490.11986 325.188818 
L 493.484156 333.966844 
L 496.848451 317.489524 
L 500.212747 324.97352 
L 503.577043 308.174163 
L 506.941339 340.696699 
L 510.305635 343.195388 
L 513.669931 342.303596 
L 517.034226 326.893169 
L 520.398522 343.617356 
L 523.762818 331.306323 
L 527.127114 333.094898 
L 530.49141 344.123586 
L 537.220001 290.539885 
L 540.584297 346.560142 
L 543.948593 499.651159 
L 547.312889 215.128112 
L 550.677184 316.505306 
L 554.04148 322.816986 
L 557.405776 338.813301 
L 560.770072 350.750609 
L 564.134368 337.100863 
L 567.498663 344.428213 
L 570.862959 321.580215 
L 574.227255 312.777506 
L 577.591551 324.957388 
L 580.955847 298.770401 
L 584.320142 337.351831 
L 587.684438 331.390508 
L 591.048734 340.428632 
L 594.41303 316.609106 
L 597.777326 326.066412 
L 601.141622 313.11351 
L 604.505917 338.940854 
L 607.870213 348.058791 
L 611.234509 504.556635 
L 614.598805 251.444953 
L 617.963101 324.330723 
L 621.327396 343.312264 
L 624.691692 343.487752 
L 628.055988 331.442814 
L 631.420284 338.661761 
L 634.78458 315.728494 
L 638.148875 338.785987 
L 641.513171 347.070666 
L 644.877467 349.699849 
L 648.241763 338.216619 
L 651.606059 310.08534 
L 654.970354 345.881056 
L 658.33465 329.964283 
L 661.698946 336.243155 
L 665.063242 339.338874 
L 668.427538 306.666384 
L 671.791833 337.656265 
L 675.156129 315.983176 
L 678.520425 487.023216 
L 681.884721 226.91125 
L 685.249017 342.545047 
L 688.613313 341.411998 
L 691.977608 324.688894 
L 695.341904 324.074184 
L 698.7062 334.095751 
L 702.070496 294.28672 
L 705.434792 342.676469 
L 708.799087 337.828039 
L 712.163383 302.335094 
L 715.527679 337.362432 
L 718.891975 341.715968 
L 722.256271 326.238766 
L 725.620566 308.591991 
L 728.984862 334.909471 
L 732.349158 342.798413 
L 735.713454 329.714553 
L 739.07775 329.602475 
L 742.442045 339.742349 
L 742.442045 339.742349 
" clip-path="url(#p01e9a6ea75)" style="fill: none; stroke: #1ac938; stroke-width: 2; stroke-linecap: round"/>
   </g>
   <g id="patch_3">
    <path d="M 60.6675 539.424 
L 60.6675 7.2 
" style="fill: none"/>
   </g>
   <g id="patch_4">
    <path d="M 60.6675 539.424 
L 774.9075 539.424 
" style="fill: none"/>
   </g>
   <g id="legend_1">
    <g id="line2d_3">
     <path d="M 676.115625 22.918125 
L 688.115625 22.918125 
L 700.115625 22.918125 
" style="fill: none; stroke: #1ac938; stroke-opacity: 0.35; stroke-width: 1.25; stroke-linecap: round"/>
    </g>
    <g id="text_18">
     <!-- dtf -->
     <g style="fill: #838383" transform="translate(709.715625 27.118125) scale(0.12 -0.12)">
      <use xlink:href="#DejaVuSans-64"/>
      <use xlink:href="#DejaVuSans-74" transform="translate(63.476562 0)"/>
      <use xlink:href="#DejaVuSans-66" transform="translate(102.685547 0)"/>
     </g>
    </g>
    <g id="line2d_4">
     <path d="M 676.115625 40.531875 
L 688.115625 40.531875 
L 700.115625 40.531875 
" style="fill: none; stroke: #1ac938; stroke-width: 2; stroke-linecap: round"/>
    </g>
    <g id="text_19">
     <!-- dtf mean -->
     <g style="fill: #838383" transform="translate(709.715625 44.731875) scale(0.12 -0.12)">
      <defs>
       <path id="DejaVuSans-20" transform="scale(0.015625)"/>
       <path id="DejaVuSans-6d" d="M 3328 2828 
Q 3544 3216 3844 3400 
Q 4144 3584 4550 3584 
Q 5097 3584 5394 3201 
Q 5691 2819 5691 2113 
L 5691 0 
L 5113 0 
L 5113 2094 
Q 5113 2597 4934 2840 
Q 4756 3084 4391 3084 
Q 3944 3084 3684 2787 
Q 3425 2491 3425 1978 
L 3425 0 
L 2847 0 
L 2847 2094 
Q 2847 2600 2669 2842 
Q 2491 3084 2119 3084 
Q 1678 3084 1418 2786 
Q 1159 2488 1159 1978 
L 1159 0 
L 581 0 
L 581 3500 
L 1159 3500 
L 1159 2956 
Q 1356 3278 1631 3431 
Q 1906 3584 2284 3584 
Q 2666 3584 2933 3390 
Q 3200 3197 3328 2828 
z
" transform="scale(0.015625)"/>
       <path id="DejaVuSans-65" d="M 3597 1894 
L 3597 1613 
L 953 1613 
Q 991 1019 1311 708 
Q 1631 397 2203 397 
Q 2534 397 2845 478 
Q 3156 559 3463 722 
L 3463 178 
Q 3153 47 2828 -22 
Q 2503 -91 2169 -91 
Q 1331 -91 842 396 
Q 353 884 353 1716 
Q 353 2575 817 3079 
Q 1281 3584 2069 3584 
Q 2775 3584 3186 3129 
Q 3597 2675 3597 1894 
z
M 3022 2063 
Q 3016 2534 2758 2815 
Q 2500 3097 2075 3097 
Q 1594 3097 1305 2825 
Q 1016 2553 972 2059 
L 3022 2063 
z
" transform="scale(0.015625)"/>
       <path id="DejaVuSans-6e" d="M 3513 2113 
L 3513 0 
L 2938 0 
L 2938 2094 
Q 2938 2591 2744 2837 
Q 2550 3084 2163 3084 
Q 1697 3084 1428 2787 
Q 1159 2491 1159 1978 
L 1159 0 
L 581 0 
L 581 3500 
L 1159 3500 
L 1159 2956 
Q 1366 3272 1645 3428 
Q 1925 3584 2291 3584 
Q 2894 3584 3203 3211 
Q 3513 2838 3513 2113 
z
" transform="scale(0.015625)"/>
      </defs>
      <use xlink:href="#DejaVuSans-64"/>
      <use xlink:href="#DejaVuSans-74" transform="translate(63.476562 0)"/>
      <use xlink:href="#DejaVuSans-66" transform="translate(102.685547 0)"/>
      <use xlink:href="#DejaVuSans-20" transform="translate(137.890625 0)"/>
      <use xlink:href="#DejaVuSans-6d" transform="translate(169.677734 0)"/>
      <use xlink:href="#DejaVuSans-65" transform="translate(267.089844 0)"/>
      <use xlink:href="#DejaVuSans-61" transform="translate(328.613281 0)"/>
      <use xlink:href="#DejaVuSans-6e" transform="translate(389.892578 0)"/>
     </g>
    </g>
    <g id="patch_5">
     <path d="M 676.115625 62.345625 
L 700.115625 62.345625 
L 700.115625 53.945625 
L 676.115625 53.945625 
z
" style="fill: #1ac938; fill-opacity: 0.2; stroke: #1ac938; stroke-opacity: 0.2; stroke-linejoin: miter"/>
    </g>
    <g id="text_20">
     <!-- dtf ± std -->
     <g style="fill: #838383" transform="translate(709.715625 62.345625) scale(0.12 -0.12)">
      <defs>
       <path id="DejaVuSans-b1" d="M 2944 4013 
L 2944 2803 
L 4684 2803 
L 4684 2272 
L 2944 2272 
L 2944 1063 
L 2419 1063 
L 2419 2272 
L 678 2272 
L 678 2803 
L 2419 2803 
L 2419 4013 
L 2944 4013 
z
M 678 531 
L 4684 531 
L 4684 0 
L 678 0 
L 678 531 
z
" transform="scale(0.015625)"/>
       <path id="DejaVuSans-73" d="M 2834 3397 
L 2834 2853 
Q 2591 2978 2328 3040 
Q 2066 3103 1784 3103 
Q 1356 3103 1142 2972 
Q 928 2841 928 2578 
Q 928 2378 1081 2264 
Q 1234 2150 1697 2047 
L 1894 2003 
Q 2506 1872 2764 1633 
Q 3022 1394 3022 966 
Q 3022 478 2636 193 
Q 2250 -91 1575 -91 
Q 1294 -91 989 -36 
Q 684 19 347 128 
L 347 722 
Q 666 556 975 473 
Q 1284 391 1588 391 
Q 1994 391 2212 530 
Q 2431 669 2431 922 
Q 2431 1156 2273 1281 
Q 2116 1406 1581 1522 
L 1381 1569 
Q 847 1681 609 1914 
Q 372 2147 372 2553 
Q 372 3047 722 3315 
Q 1072 3584 1716 3584 
Q 2034 3584 2315 3537 
Q 2597 3491 2834 3397 
z
" transform="scale(0.015625)"/>
      </defs>
      <use xlink:href="#DejaVuSans-64"/>
      <use xlink:href="#DejaVuSans-74" transform="translate(63.476562 0)"/>
      <use xlink:href="#DejaVuSans-66" transform="translate(102.685547 0)"/>
      <use xlink:href="#DejaVuSans-20" transform="translate(137.890625 0)"/>
      <use xlink:href="#DejaVuSans-b1" transform="translate(169.677734 0)"/>
      <use xlink:href="#DejaVuSans-20" transform="translate(253.466797 0)"/>
      <use xlink:href="#DejaVuSans-73" transform="translate(285.253906 0)"/>
      <use xlink:href="#DejaVuSans-74" transform="translate(337.353516 0)"/>
      <use xlink:href="#DejaVuSans-64" transform="translate(376.5625 0)"/>
     </g>
    </g>
   </g>
  </g>
 </g>
 <defs>
  <clipPath id="p01e9a6ea75">
   <rect x="60.6675" y="7.2" width="714.24" height="532.224"/>
  </clipPath>
 </defs>
</svg>
