<?xml version="1.0" encoding="utf-8" standalone="no"?>
<!DOCTYPE svg PUBLIC "-//W3C//DTD SVG 1.1//EN"
  "http://www.w3.org/Graphics/SVG/1.1/DTD/svg11.dtd">
<svg xmlns:xlink="http://www.w3.org/1999/xlink" width="773.195866pt" height="577.3515pt" viewBox="0 0 773.195866 577.3515" xmlns="http://www.w3.org/2000/svg" version="1.1">
 <metadata>
  <rdf:RDF xmlns:dc="http://purl.org/dc/elements/1.1/" xmlns:cc="http://creativecommons.org/ns#" xmlns:rdf="http://www.w3.org/1999/02/22-rdf-syntax-ns#">
   <cc:Work>
    <dc:type rdf:resource="http://purl.org/dc/dcmitype/StillImage"/>
    <dc:date>2026-01-07T12:37:08.430563</dc:date>
    <dc:format>image/svg+xml</dc:format>
    <dc:creator>
     <cc:Agent>
      <dc:title>Matplotlib v3.10.8, https://matplotlib.org/</dc:title>
     </cc:Agent>
    </dc:creator>
   </cc:Work>
  </rdf:RDF>
 </metadata>
 <defs>
  <style type="text/css">*{stroke-linejoin: round; stroke-linecap: butt}</style>
 </defs>
 <g id="figure_1">
  <g id="patch_1">
   <path d="M 0 577.3515 
L 773.195866 577.3515 
L 773.195866 0 
L 0 0 
L 0 577.3515 
z
" style="fill: none"/>
  </g>
  <g id="axes_1">
   <g id="patch_2">
    <path d="M 49.21875 539.424 
L 763.45875 539.424 
L 763.45875 7.2 
L 49.21875 7.2 
L 49.21875 539.424 
z
" style="fill: none"/>
   </g>
   <g id="matplotlib.axis_1">
    <g id="xtick_1">
     <g id="text_1">
      <!-- 0 -->
      <g style="fill: #838383" transform="translate(77.866705 552.042125) scale(0.12 -0.12)">
       <defs>
        <path id="DejaVuSans-30" d="M 2034 4250 
Q 1547 4250 1301 3770 
Q 1056 3291 1056 2328 
Q 1056 1369 1301 889 
Q 1547 409 2034 409 
Q 2525 409 2770 889 
Q 3016 1369 3016 2328 
Q 3016 3291 2770 3770 
Q 2525 4250 2034 4250 
z
M 2034 4750 
Q 2819 4750 3233 4129 
Q 3647 3509 3647 2328 
Q 3647 1150 3233 529 
Q 2819 -91 2034 -91 
Q 1250 -91 836 529 
Q 422 1150 422 2328 
Q 422 3509 836 4129 
Q 1250 4750 2034 4750 
z
" transform="scale(0.015625)"/>
       </defs>
       <use xlink:href="#DejaVuSans-30"/>
      </g>
     </g>
    </g>
    <g id="xtick_2">
     <g id="text_2">
      <!-- 25 -->
      <g style="fill: #838383" transform="translate(158.1566 552.042125) scale(0.12 -0.12)">
       <defs>
        <path id="DejaVuSans-32" d="M 1228 531 
L 3431 531 
L 3431 0 
L 469 0 
L 469 531 
Q 828 903 1448 1529 
Q 2069 2156 2228 2338 
Q 2531 2678 2651 2914 
Q 2772 3150 2772 3378 
Q 2772 3750 2511 3984 
Q 2250 4219 1831 4219 
Q 1534 4219 1204 4116 
Q 875 4013 500 3803 
L 500 4441 
Q 881 4594 1212 4672 
Q 1544 4750 1819 4750 
Q 2544 4750 2975 4387 
Q 3406 4025 3406 3419 
Q 3406 3131 3298 2873 
Q 3191 2616 2906 2266 
Q 2828 2175 2409 1742 
Q 1991 1309 1228 531 
z
" transform="scale(0.015625)"/>
        <path id="DejaVuSans-35" d="M 691 4666 
L 3169 4666 
L 3169 4134 
L 1269 4134 
L 1269 2991 
Q 1406 3038 1543 3061 
Q 1681 3084 1819 3084 
Q 2600 3084 3056 2656 
Q 3513 2228 3513 1497 
Q 3513 744 3044 326 
Q 2575 -91 1722 -91 
Q 1428 -91 1123 -41 
Q 819 9 494 109 
L 494 744 
Q 775 591 1075 516 
Q 1375 441 1709 441 
Q 2250 441 2565 725 
Q 2881 1009 2881 1497 
Q 2881 1984 2565 2268 
Q 2250 2553 1709 2553 
Q 1456 2553 1204 2497 
Q 953 2441 691 2322 
L 691 4666 
z
" transform="scale(0.015625)"/>
       </defs>
       <use xlink:href="#DejaVuSans-32"/>
       <use xlink:href="#DejaVuSans-35" transform="translate(63.623047 0)"/>
      </g>
     </g>
    </g>
    <g id="xtick_3">
     <g id="text_3">
      <!-- 50 -->
      <g style="fill: #838383" transform="translate(242.263995 552.042125) scale(0.12 -0.12)">
       <use xlink:href="#DejaVuSans-35"/>
       <use xlink:href="#DejaVuSans-30" transform="translate(63.623047 0)"/>
      </g>
     </g>
    </g>
    <g id="xtick_4">
     <g id="text_4">
      <!-- 75 -->
      <g style="fill: #838383" transform="translate(326.37139 552.042125) scale(0.12 -0.12)">
       <defs>
        <path id="DejaVuSans-37" d="M 525 4666 
L 3525 4666 
L 3525 4397 
L 1831 0 
L 1172 0 
L 2766 4134 
L 525 4134 
L 525 4666 
z
" transform="scale(0.015625)"/>
       </defs>
       <use xlink:href="#DejaVuSans-37"/>
       <use xlink:href="#DejaVuSans-35" transform="translate(63.623047 0)"/>
      </g>
     </g>
    </g>
    <g id="xtick_5">
     <g id="text_5">
      <!-- 100 -->
      <g style="fill: #838383" transform="translate(406.661285 552.042125) scale(0.12 -0.12)">
       <defs>
        <path id="DejaVuSans-31" d="M 794 531 
L 1825 531 
L 1825 4091 
L 703 3866 
L 703 4441 
L 1819 4666 
L 2450 4666 
L 2450 531 
L 3481 531 
L 3481 0 
L 794 0 
L 794 531 
z
" transform="scale(0.015625)"/>
       </defs>
       <use xlink:href="#DejaVuSans-31"/>
       <use xlink:href="#DejaVuSans-30" transform="translate(63.623047 0)"/>
       <use xlink:href="#DejaVuSans-30" transform="translate(127.246094 0)"/>
      </g>
     </g>
    </g>
    <g id="xtick_6">
     <g id="text_6">
      <!-- 125 -->
      <g style="fill: #838383" transform="translate(490.768681 552.042125) scale(0.12 -0.12)">
       <use xlink:href="#DejaVuSans-31"/>
       <use xlink:href="#DejaVuSans-32" transform="translate(63.623047 0)"/>
       <use xlink:href="#DejaVuSans-35" transform="translate(127.246094 0)"/>
      </g>
     </g>
    </g>
    <g id="xtick_7">
     <g id="text_7">
      <!-- 150 -->
      <g style="fill: #838383" transform="translate(574.876076 552.042125) scale(0.12 -0.12)">
       <use xlink:href="#DejaVuSans-31"/>
       <use xlink:href="#DejaVuSans-35" transform="translate(63.623047 0)"/>
       <use xlink:href="#DejaVuSans-30" transform="translate(127.246094 0)"/>
      </g>
     </g>
    </g>
    <g id="xtick_8">
     <g id="text_8">
      <!-- 175 -->
      <g style="fill: #838383" transform="translate(658.983471 552.042125) scale(0.12 -0.12)">
       <use xlink:href="#DejaVuSans-31"/>
       <use xlink:href="#DejaVuSans-37" transform="translate(63.623047 0)"/>
       <use xlink:href="#DejaVuSans-35" transform="translate(127.246094 0)"/>
      </g>
     </g>
    </g>
    <g id="xtick_9">
     <g id="text_9">
      <!-- 200 -->
      <g style="fill: #838383" transform="translate(743.090866 552.042125) scale(0.12 -0.12)">
       <use xlink:href="#DejaVuSans-32"/>
       <use xlink:href="#DejaVuSans-30" transform="translate(63.623047 0)"/>
       <use xlink:href="#DejaVuSans-30" transform="translate(127.246094 0)"/>
      </g>
     </g>
    </g>
    <g id="text_10">
     <!-- draw -->
     <g style="fill: #262626" transform="translate(391.479375 567.655875) scale(0.12 -0.12)">
      <defs>
       <path id="DejaVuSans-64" d="M 2906 2969 
L 2906 4863 
L 3481 4863 
L 3481 0 
L 2906 0 
L 2906 525 
Q 2725 213 2448 61 
Q 2172 -91 1784 -91 
Q 1150 -91 751 415 
Q 353 922 353 1747 
Q 353 2572 751 3078 
Q 1150 3584 1784 3584 
Q 2172 3584 2448 3432 
Q 2725 3281 2906 2969 
z
M 947 1747 
Q 947 1113 1208 752 
Q 1469 391 1925 391 
Q 2381 391 2643 752 
Q 2906 1113 2906 1747 
Q 2906 2381 2643 2742 
Q 2381 3103 1925 3103 
Q 1469 3103 1208 2742 
Q 947 2381 947 1747 
z
" transform="scale(0.015625)"/>
       <path id="DejaVuSans-72" d="M 2631 2963 
Q 2534 3019 2420 3045 
Q 2306 3072 2169 3072 
Q 1681 3072 1420 2755 
Q 1159 2438 1159 1844 
L 1159 0 
L 581 0 
L 581 3500 
L 1159 3500 
L 1159 2956 
Q 1341 3275 1631 3429 
Q 1922 3584 2338 3584 
Q 2397 3584 2469 3576 
Q 2541 3569 2628 3553 
L 2631 2963 
z
" transform="scale(0.015625)"/>
       <path id="DejaVuSans-61" d="M 2194 1759 
Q 1497 1759 1228 1600 
Q 959 1441 959 1056 
Q 959 750 1161 570 
Q 1363 391 1709 391 
Q 2188 391 2477 730 
Q 2766 1069 2766 1631 
L 2766 1759 
L 2194 1759 
z
M 3341 1997 
L 3341 0 
L 2766 0 
L 2766 531 
Q 2569 213 2275 61 
Q 1981 -91 1556 -91 
Q 1019 -91 701 211 
Q 384 513 384 1019 
Q 384 1609 779 1909 
Q 1175 2209 1959 2209 
L 2766 2209 
L 2766 2266 
Q 2766 2663 2505 2880 
Q 2244 3097 1772 3097 
Q 1472 3097 1187 3025 
Q 903 2953 641 2809 
L 641 3341 
Q 956 3463 1253 3523 
Q 1550 3584 1831 3584 
Q 2591 3584 2966 3190 
Q 3341 2797 3341 1997 
z
" transform="scale(0.015625)"/>
       <path id="DejaVuSans-77" d="M 269 3500 
L 844 3500 
L 1563 769 
L 2278 3500 
L 2956 3500 
L 3675 769 
L 4391 3500 
L 4966 3500 
L 4050 0 
L 3372 0 
L 2619 2869 
L 1863 0 
L 1184 0 
L 269 3500 
z
" transform="scale(0.015625)"/>
      </defs>
      <use xlink:href="#DejaVuSans-64"/>
      <use xlink:href="#DejaVuSans-72" transform="translate(63.476562 0)"/>
      <use xlink:href="#DejaVuSans-61" transform="translate(104.589844 0)"/>
      <use xlink:href="#DejaVuSans-77" transform="translate(165.869141 0)"/>
     </g>
    </g>
   </g>
   <g id="matplotlib.axis_2">
    <g id="ytick_1">
     <g id="text_11">
      <!-- 0 -->
      <g style="fill: #838383" transform="translate(38.08375 534.832721) scale(0.12 -0.12)">
       <use xlink:href="#DejaVuSans-30"/>
      </g>
     </g>
    </g>
    <g id="ytick_2">
     <g id="text_12">
      <!-- 25 -->
      <g style="fill: #838383" transform="translate(30.44875 472.159145) scale(0.12 -0.12)">
       <use xlink:href="#DejaVuSans-32"/>
       <use xlink:href="#DejaVuSans-35" transform="translate(63.623047 0)"/>
      </g>
     </g>
    </g>
    <g id="ytick_3">
     <g id="text_13">
      <!-- 50 -->
      <g style="fill: #838383" transform="translate(30.44875 409.48557) scale(0.12 -0.12)">
       <use xlink:href="#DejaVuSans-35"/>
       <use xlink:href="#DejaVuSans-30" transform="translate(63.623047 0)"/>
      </g>
     </g>
    </g>
    <g id="ytick_4">
     <g id="text_14">
      <!-- 75 -->
      <g style="fill: #838383" transform="translate(30.44875 346.811995) scale(0.12 -0.12)">
       <use xlink:href="#DejaVuSans-37"/>
       <use xlink:href="#DejaVuSans-35" transform="translate(63.623047 0)"/>
      </g>
     </g>
    </g>
    <g id="ytick_5">
     <g id="text_15">
      <!-- 100 -->
      <g style="fill: #838383" transform="translate(22.81375 284.13842) scale(0.12 -0.12)">
       <use xlink:href="#DejaVuSans-31"/>
       <use xlink:href="#DejaVuSans-30" transform="translate(63.623047 0)"/>
       <use xlink:href="#DejaVuSans-30" transform="translate(127.246094 0)"/>
      </g>
     </g>
    </g>
    <g id="ytick_6">
     <g id="text_16">
      <!-- 125 -->
      <g style="fill: #838383" transform="translate(22.81375 221.464845) scale(0.12 -0.12)">
       <use xlink:href="#DejaVuSans-31"/>
       <use xlink:href="#DejaVuSans-32" transform="translate(63.623047 0)"/>
       <use xlink:href="#DejaVuSans-35" transform="translate(127.246094 0)"/>
      </g>
     </g>
    </g>
    <g id="ytick_7">
     <g id="text_17">
      <!-- 150 -->
      <g style="fill: #838383" transform="translate(22.81375 158.79127) scale(0.12 -0.12)">
       <use xlink:href="#DejaVuSans-31"/>
       <use xlink:href="#DejaVuSans-35" transform="translate(63.623047 0)"/>
       <use xlink:href="#DejaVuSans-30" transform="translate(127.246094 0)"/>
      </g>
     </g>
    </g>
    <g id="ytick_8">
     <g id="text_18">
      <!-- 175 -->
      <g style="fill: #838383" transform="translate(22.81375 96.117695) scale(0.12 -0.12)">
       <use xlink:href="#DejaVuSans-31"/>
       <use xlink:href="#DejaVuSans-37" transform="translate(63.623047 0)"/>
       <use xlink:href="#DejaVuSans-35" transform="translate(127.246094 0)"/>
      </g>
     </g>
    </g>
    <g id="ytick_9">
     <g id="text_19">
      <!-- 200 -->
      <g style="fill: #838383" transform="translate(22.81375 33.444119) scale(0.12 -0.12)">
       <use xlink:href="#DejaVuSans-32"/>
       <use xlink:href="#DejaVuSans-30" transform="translate(63.623047 0)"/>
       <use xlink:href="#DejaVuSans-30" transform="translate(127.246094 0)"/>
      </g>
     </g>
    </g>
    <g id="text_20">
     <!-- iter -->
     <g style="fill: #262626" transform="translate(16.318125 283.4895) rotate(-90) scale(0.12 -0.12)">
      <defs>
       <path id="DejaVuSans-69" d="M 603 3500 
L 1178 3500 
L 1178 0 
L 603 0 
L 603 3500 
z
M 603 4863 
L 1178 4863 
L 1178 4134 
L 603 4134 
L 603 4863 
z
" transform="scale(0.015625)"/>
       <path id="DejaVuSans-74" d="M 1172 4494 
L 1172 3500 
L 2356 3500 
L 2356 3053 
L 1172 3053 
L 1172 1153 
Q 1172 725 1289 603 
Q 1406 481 1766 481 
L 2356 481 
L 2356 0 
L 1766 0 
Q 1100 0 847 248 
Q 594 497 594 1153 
L 594 3053 
L 172 3053 
L 172 3500 
L 594 3500 
L 594 4494 
L 1172 4494 
z
" transform="scale(0.015625)"/>
       <path id="DejaVuSans-65" d="M 3597 1894 
L 3597 1613 
L 953 1613 
Q 991 1019 1311 708 
Q 1631 397 2203 397 
Q 2534 397 2845 478 
Q 3156 559 3463 722 
L 3463 178 
Q 3153 47 2828 -22 
Q 2503 -91 2169 -91 
Q 1331 -91 842 396 
Q 353 884 353 1716 
Q 353 2575 817 3079 
Q 1281 3584 2069 3584 
Q 2775 3584 3186 3129 
Q 3597 2675 3597 1894 
z
M 3022 2063 
Q 3016 2534 2758 2815 
Q 2500 3097 2075 3097 
Q 1594 3097 1305 2825 
Q 1016 2553 972 2059 
L 3022 2063 
z
" transform="scale(0.015625)"/>
      </defs>
      <use xlink:href="#DejaVuSans-69"/>
      <use xlink:href="#DejaVuSans-74" transform="translate(27.783203 0)"/>
      <use xlink:href="#DejaVuSans-65" transform="translate(66.992188 0)"/>
      <use xlink:href="#DejaVuSans-72" transform="translate(128.515625 0)"/>
     </g>
    </g>
   </g>
   <g id="FillBetweenPolyCollection_1">
    <defs>
     <path id="m579195fcd3" d="M 81.684205 -62.1195 
L 81.684205 -62.1195 
L 85.0485 -64.626443 
L 88.412796 -67.133386 
L 91.777092 -69.640329 
L 95.141388 -72.147272 
L 98.505684 -74.654215 
L 101.869979 -77.161158 
L 105.234275 -79.668101 
L 108.598571 -82.175044 
L 111.962867 -84.681987 
L 115.327163 -87.18893 
L 118.691458 -89.695873 
L 122.055754 -92.202816 
L 125.42005 -94.709759 
L 128.784346 -97.216702 
L 132.148642 -99.723645 
L 135.512937 -102.230588 
L 138.877233 -104.737531 
L 142.241529 -107.244474 
L 145.605825 -109.751417 
L 148.970121 -112.25836 
L 152.334417 -114.765303 
L 155.698712 -117.272246 
L 159.063008 -119.779189 
L 162.427304 -122.286132 
L 165.7916 -124.793075 
L 169.155896 -127.300018 
L 172.520191 -129.806961 
L 175.884487 -132.313904 
L 179.248783 -134.820847 
L 182.613079 -137.32779 
L 185.977375 -139.834733 
L 189.34167 -142.341676 
L 192.705966 -144.848619 
L 196.070262 -147.355562 
L 199.434558 -149.862505 
L 202.798854 -152.369448 
L 206.163149 -154.876391 
L 209.527445 -157.383334 
L 212.891741 -159.890277 
L 216.256037 -162.39722 
L 219.620333 -164.904163 
L 222.984628 -167.411106 
L 226.348924 -169.918049 
L 229.71322 -172.424992 
L 233.077516 -174.931935 
L 236.441812 -177.438878 
L 239.806108 -179.945821 
L 243.170403 -182.452764 
L 246.534699 -184.959707 
L 249.898995 -187.46665 
L 253.263291 -189.973593 
L 256.627587 -192.480536 
L 259.991882 -194.987479 
L 263.356178 -197.494422 
L 266.720474 -200.001365 
L 270.08477 -202.508308 
L 273.449066 -205.015251 
L 276.813361 -207.522194 
L 280.177657 -210.029137 
L 283.541953 -212.53608 
L 286.906249 -215.043023 
L 290.270545 -217.549966 
L 293.63484 -220.056909 
L 296.999136 -222.563852 
L 300.363432 -225.070795 
L 303.727728 -227.577738 
L 307.092024 -230.084681 
L 310.456319 -232.591624 
L 313.820615 -235.098567 
L 317.184911 -237.60551 
L 320.549207 -240.112453 
L 323.913503 -242.619396 
L 327.277799 -245.126339 
L 330.642094 -247.633282 
L 334.00639 -250.140225 
L 337.370686 -252.647168 
L 340.734982 -255.154111 
L 344.099278 -257.661054 
L 347.463573 -260.167997 
L 350.827869 -262.67494 
L 354.192165 -265.181883 
L 357.556461 -267.688826 
L 360.920757 -270.195769 
L 364.285052 -272.702712 
L 367.649348 -275.209655 
L 371.013644 -277.716598 
L 374.37794 -280.223541 
L 377.742236 -282.730484 
L 381.106531 -285.237427 
L 384.470827 -287.74437 
L 387.835123 -290.251313 
L 391.199419 -292.758256 
L 394.563715 -295.265199 
L 397.92801 -297.772142 
L 401.292306 -300.279085 
L 404.656602 -302.786028 
L 408.020898 -305.292972 
L 411.385194 -307.799915 
L 414.74949 -310.306858 
L 418.113785 -312.813801 
L 421.478081 -315.320744 
L 424.842377 -317.827687 
L 428.206673 -320.33463 
L 431.570969 -322.841573 
L 434.935264 -325.348516 
L 438.29956 -327.855459 
L 441.663856 -330.362402 
L 445.028152 -332.869345 
L 448.392448 -335.376288 
L 451.756743 -337.883231 
L 455.121039 -340.390174 
L 458.485335 -342.897117 
L 461.849631 -345.40406 
L 465.213927 -347.911003 
L 468.578222 -350.417946 
L 471.942518 -352.924889 
L 475.306814 -355.431832 
L 478.67111 -357.938775 
L 482.035406 -360.445718 
L 485.399701 -362.952661 
L 488.763997 -365.459604 
L 492.128293 -367.966547 
L 495.492589 -370.47349 
L 498.856885 -372.980433 
L 502.221181 -375.487376 
L 505.585476 -377.994319 
L 508.949772 -380.501262 
L 512.314068 -383.008205 
L 515.678364 -385.515148 
L 519.04266 -388.022091 
L 522.406955 -390.529034 
L 525.771251 -393.035977 
L 529.135547 -395.54292 
L 532.499843 -398.049863 
L 535.864139 -400.556806 
L 539.228434 -403.063749 
L 542.59273 -405.570692 
L 545.957026 -408.077635 
L 549.321322 -410.584578 
L 552.685618 -413.091521 
L 556.049913 -415.598464 
L 559.414209 -418.105407 
L 562.778505 -420.61235 
L 566.142801 -423.119293 
L 569.507097 -425.626236 
L 572.871392 -428.133179 
L 576.235688 -430.640122 
L 579.599984 -433.147065 
L 582.96428 -435.654008 
L 586.328576 -438.160951 
L 589.692872 -440.667894 
L 593.057167 -443.174837 
L 596.421463 -445.68178 
L 599.785759 -448.188723 
L 603.150055 -450.695666 
L 606.514351 -453.202609 
L 609.878646 -455.709552 
L 613.242942 -458.216495 
L 616.607238 -460.723438 
L 619.971534 -463.230381 
L 623.33583 -465.737324 
L 626.700125 -468.244267 
L 630.064421 -470.75121 
L 633.428717 -473.258153 
L 636.793013 -475.765096 
L 640.157309 -478.272039 
L 643.521604 -480.778982 
L 646.8859 -483.285925 
L 650.250196 -485.792868 
L 653.614492 -488.299811 
L 656.978788 -490.806754 
L 660.343083 -493.313697 
L 663.707379 -495.82064 
L 667.071675 -498.327583 
L 670.435971 -500.834526 
L 673.800267 -503.341469 
L 677.164563 -505.848412 
L 680.528858 -508.355355 
L 683.893154 -510.862298 
L 687.25745 -513.369241 
L 690.621746 -515.876184 
L 693.986042 -518.383127 
L 697.350337 -520.89007 
L 700.714633 -523.397013 
L 704.078929 -525.903956 
L 707.443225 -528.410899 
L 710.807521 -530.917842 
L 714.171816 -533.424785 
L 717.536112 -535.931728 
L 720.900408 -538.438671 
L 724.264704 -540.945614 
L 727.629 -543.452557 
L 730.993295 -545.9595 
L 730.993295 -545.9595 
L 730.993295 -545.9595 
L 727.629 -543.452557 
L 724.264704 -540.945614 
L 720.900408 -538.438671 
L 717.536112 -535.931728 
L 714.171816 -533.424785 
L 710.807521 -530.917842 
L 707.443225 -528.410899 
L 704.078929 -525.903956 
L 700.714633 -523.397013 
L 697.350337 -520.89007 
L 693.986042 -518.383127 
L 690.621746 -515.876184 
L 687.25745 -513.369241 
L 683.893154 -510.862298 
L 680.528858 -508.355355 
L 677.164563 -505.848412 
L 673.800267 -503.341469 
L 670.435971 -500.834526 
L 667.071675 -498.327583 
L 663.707379 -495.82064 
L 660.343083 -493.313697 
L 656.978788 -490.806754 
L 653.614492 -488.299811 
L 650.250196 -485.792868 
L 646.8859 -483.285925 
L 643.521604 -480.778982 
L 640.157309 -478.272039 
L 636.793013 -475.765096 
L 633.428717 -473.258153 
L 630.064421 -470.75121 
L 626.700125 -468.244267 
L 623.33583 -465.737324 
L 619.971534 -463.230381 
L 616.607238 -460.723438 
L 613.242942 -458.216495 
L 609.878646 -455.709552 
L 606.514351 -453.202609 
L 603.150055 -450.695666 
L 599.785759 -448.188723 
L 596.421463 -445.68178 
L 593.057167 -443.174837 
L 589.692872 -440.667894 
L 586.328576 -438.160951 
L 582.96428 -435.654008 
L 579.599984 -433.147065 
L 576.235688 -430.640122 
L 572.871392 -428.133179 
L 569.507097 -425.626236 
L 566.142801 -423.119293 
L 562.778505 -420.61235 
L 559.414209 -418.105407 
L 556.049913 -415.598464 
L 552.685618 -413.091521 
L 549.321322 -410.584578 
L 545.957026 -408.077635 
L 542.59273 -405.570692 
L 539.228434 -403.063749 
L 535.864139 -400.556806 
L 532.499843 -398.049863 
L 529.135547 -395.54292 
L 525.771251 -393.035977 
L 522.406955 -390.529034 
L 519.04266 -388.022091 
L 515.678364 -385.515148 
L 512.314068 -383.008205 
L 508.949772 -380.501262 
L 505.585476 -377.994319 
L 502.221181 -375.487376 
L 498.856885 -372.980433 
L 495.492589 -370.47349 
L 492.128293 -367.966547 
L 488.763997 -365.459604 
L 485.399701 -362.952661 
L 482.035406 -360.445718 
L 478.67111 -357.938775 
L 475.306814 -355.431832 
L 471.942518 -352.924889 
L 468.578222 -350.417946 
L 465.213927 -347.911003 
L 461.849631 -345.40406 
L 458.485335 -342.897117 
L 455.121039 -340.390174 
L 451.756743 -337.883231 
L 448.392448 -335.376288 
L 445.028152 -332.869345 
L 441.663856 -330.362402 
L 438.29956 -327.855459 
L 434.935264 -325.348516 
L 431.570969 -322.841573 
L 428.206673 -320.33463 
L 424.842377 -317.827687 
L 421.478081 -315.320744 
L 418.113785 -312.813801 
L 414.74949 -310.306858 
L 411.385194 -307.799915 
L 408.020898 -305.292972 
L 404.656602 -302.786028 
L 401.292306 -300.279085 
L 397.92801 -297.772142 
L 394.563715 -295.265199 
L 391.199419 -292.758256 
L 387.835123 -290.251313 
L 384.470827 -287.74437 
L 381.106531 -285.237427 
L 377.742236 -282.730484 
L 374.37794 -280.223541 
L 371.013644 -277.716598 
L 367.649348 -275.209655 
L 364.285052 -272.702712 
L 360.920757 -270.195769 
L 357.556461 -267.688826 
L 354.192165 -265.181883 
L 350.827869 -262.67494 
L 347.463573 -260.167997 
L 344.099278 -257.661054 
L 340.734982 -255.154111 
L 337.370686 -252.647168 
L 334.00639 -250.140225 
L 330.642094 -247.633282 
L 327.277799 -245.126339 
L 323.913503 -242.619396 
L 320.549207 -240.112453 
L 317.184911 -237.60551 
L 313.820615 -235.098567 
L 310.456319 -232.591624 
L 307.092024 -230.084681 
L 303.727728 -227.577738 
L 300.363432 -225.070795 
L 296.999136 -222.563852 
L 293.63484 -220.056909 
L 290.270545 -217.549966 
L 286.906249 -215.043023 
L 283.541953 -212.53608 
L 280.177657 -210.029137 
L 276.813361 -207.522194 
L 273.449066 -205.015251 
L 270.08477 -202.508308 
L 266.720474 -200.001365 
L 263.356178 -197.494422 
L 259.991882 -194.987479 
L 256.627587 -192.480536 
L 253.263291 -189.973593 
L 249.898995 -187.46665 
L 246.534699 -184.959707 
L 243.170403 -182.452764 
L 239.806108 -179.945821 
L 236.441812 -177.438878 
L 233.077516 -174.931935 
L 229.71322 -172.424992 
L 226.348924 -169.918049 
L 222.984628 -167.411106 
L 219.620333 -164.904163 
L 216.256037 -162.39722 
L 212.891741 -159.890277 
L 209.527445 -157.383334 
L 206.163149 -154.876391 
L 202.798854 -152.369448 
L 199.434558 -149.862505 
L 196.070262 -147.355562 
L 192.705966 -144.848619 
L 189.34167 -142.341676 
L 185.977375 -139.834733 
L 182.613079 -137.32779 
L 179.248783 -134.820847 
L 175.884487 -132.313904 
L 172.520191 -129.806961 
L 169.155896 -127.300018 
L 165.7916 -124.793075 
L 162.427304 -122.286132 
L 159.063008 -119.779189 
L 155.698712 -117.272246 
L 152.334417 -114.765303 
L 148.970121 -112.25836 
L 145.605825 -109.751417 
L 142.241529 -107.244474 
L 138.877233 -104.737531 
L 135.512937 -102.230588 
L 132.148642 -99.723645 
L 128.784346 -97.216702 
L 125.42005 -94.709759 
L 122.055754 -92.202816 
L 118.691458 -89.695873 
L 115.327163 -87.18893 
L 111.962867 -84.681987 
L 108.598571 -82.175044 
L 105.234275 -79.668101 
L 101.869979 -77.161158 
L 98.505684 -74.654215 
L 95.141388 -72.147272 
L 91.777092 -69.640329 
L 88.412796 -67.133386 
L 85.0485 -64.626443 
L 81.684205 -62.1195 
z
" style="stroke: #e8000b; stroke-opacity: 0.2"/>
    </defs>
    <g clip-path="url(#pf1a04910d8)">
     <use xlink:href="#m579195fcd3" x="0" y="577.3515" style="fill: #e8000b; fill-opacity: 0.2; stroke: #e8000b; stroke-opacity: 0.2"/>
    </g>
   </g>
   <g id="line2d_1">
    <path d="M 81.684205 515.232 
L 730.993295 31.392 
L 730.993295 31.392 
" clip-path="url(#pf1a04910d8)" style="fill: none; stroke: #e8000b; stroke-opacity: 0.35; stroke-width: 1.25; stroke-linecap: round"/>
   </g>
   <g id="line2d_2">
    <path d="M 81.684205 515.232 
L 730.993295 31.392 
L 730.993295 31.392 
" clip-path="url(#pf1a04910d8)" style="fill: none; stroke: #e8000b; stroke-width: 2; stroke-linecap: round"/>
   </g>
   <g id="patch_3">
    <path d="M 49.21875 539.424 
L 49.21875 7.2 
" style="fill: none"/>
   </g>
   <g id="patch_4">
    <path d="M 49.21875 539.424 
L 763.45875 539.424 
" style="fill: none"/>
   </g>
   <g id="legend_1">
    <g id="line2d_3">
     <path d="M 60.01875 22.918125 
L 72.01875 22.918125 
L 84.01875 22.918125 
" style="fill: none; stroke: #e8000b; stroke-opacity: 0.35; stroke-width: 1.25; stroke-linecap: round"/>
    </g>
    <g id="text_21">
     <!-- iter -->
     <g style="fill: #838383" transform="translate(93.61875 27.118125) scale(0.12 -0.12)">
      <use xlink:href="#DejaVuSans-69"/>
      <use xlink:href="#DejaVuSans-74" transform="translate(27.783203 0)"/>
      <use xlink:href="#DejaVuSans-65" transform="translate(66.992188 0)"/>
      <use xlink:href="#DejaVuSans-72" transform="translate(128.515625 0)"/>
     </g>
    </g>
    <g id="line2d_4">
     <path d="M 60.01875 40.531875 
L 72.01875 40.531875 
L 84.01875 40.531875 
" style="fill: none; stroke: #e8000b; stroke-width: 2; stroke-linecap: round"/>
    </g>
    <g id="text_22">
     <!-- iter mean -->
     <g style="fill: #838383" transform="translate(93.61875 44.731875) scale(0.12 -0.12)">
      <defs>
       <path id="DejaVuSans-20" transform="scale(0.015625)"/>
       <path id="DejaVuSans-6d" d="M 3328 2828 
Q 3544 3216 3844 3400 
Q 4144 3584 4550 3584 
Q 5097 3584 5394 3201 
Q 5691 2819 5691 2113 
L 5691 0 
L 5113 0 
L 5113 2094 
Q 5113 2597 4934 2840 
Q 4756 3084 4391 3084 
Q 3944 3084 3684 2787 
Q 3425 2491 3425 1978 
L 3425 0 
L 2847 0 
L 2847 2094 
Q 2847 2600 2669 2842 
Q 2491 3084 2119 3084 
Q 1678 3084 1418 2786 
Q 1159 2488 1159 1978 
L 1159 0 
L 581 0 
L 581 3500 
L 1159 3500 
L 1159 2956 
Q 1356 3278 1631 3431 
Q 1906 3584 2284 3584 
Q 2666 3584 2933 3390 
Q 3200 3197 3328 2828 
z
" transform="scale(0.015625)"/>
       <path id="DejaVuSans-6e" d="M 3513 2113 
L 3513 0 
L 2938 0 
L 2938 2094 
Q 2938 2591 2744 2837 
Q 2550 3084 2163 3084 
Q 1697 3084 1428 2787 
Q 1159 2491 1159 1978 
L 1159 0 
L 581 0 
L 581 3500 
L 1159 3500 
L 1159 2956 
Q 1366 3272 1645 3428 
Q 1925 3584 2291 3584 
Q 2894 3584 3203 3211 
Q 3513 2838 3513 2113 
z
" transform="scale(0.015625)"/>
      </defs>
      <use xlink:href="#DejaVuSans-69"/>
      <use xlink:href="#DejaVuSans-74" transform="translate(27.783203 0)"/>
      <use xlink:href="#DejaVuSans-65" transform="translate(66.992188 0)"/>
      <use xlink:href="#DejaVuSans-72" transform="translate(128.515625 0)"/>
      <use xlink:href="#DejaVuSans-20" transform="translate(169.628906 0)"/>
      <use xlink:href="#DejaVuSans-6d" transform="translate(201.416016 0)"/>
      <use xlink:href="#DejaVuSans-65" transform="translate(298.828125 0)"/>
      <use xlink:href="#DejaVuSans-61" transform="translate(360.351562 0)"/>
      <use xlink:href="#DejaVuSans-6e" transform="translate(421.630859 0)"/>
     </g>
    </g>
    <g id="patch_5">
     <path d="M 60.01875 62.345625 
L 84.01875 62.345625 
L 84.01875 53.945625 
L 60.01875 53.945625 
z
" style="fill: #e8000b; fill-opacity: 0.2; stroke: #e8000b; stroke-opacity: 0.2; stroke-linejoin: miter"/>
    </g>
    <g id="text_23">
     <!-- iter ± std -->
     <g style="fill: #838383" transform="translate(93.61875 62.345625) scale(0.12 -0.12)">
      <defs>
       <path id="DejaVuSans-b1" d="M 2944 4013 
L 2944 2803 
L 4684 2803 
L 4684 2272 
L 2944 2272 
L 2944 1063 
L 2419 1063 
L 2419 2272 
L 678 2272 
L 678 2803 
L 2419 2803 
L 2419 4013 
L 2944 4013 
z
M 678 531 
L 4684 531 
L 4684 0 
L 678 0 
L 678 531 
z
" transform="scale(0.015625)"/>
       <path id="DejaVuSans-73" d="M 2834 3397 
L 2834 2853 
Q 2591 2978 2328 3040 
Q 2066 3103 1784 3103 
Q 1356 3103 1142 2972 
Q 928 2841 928 2578 
Q 928 2378 1081 2264 
Q 1234 2150 1697 2047 
L 1894 2003 
Q 2506 1872 2764 1633 
Q 3022 1394 3022 966 
Q 3022 478 2636 193 
Q 2250 -91 1575 -91 
Q 1294 -91 989 -36 
Q 684 19 347 128 
L 347 722 
Q 666 556 975 473 
Q 1284 391 1588 391 
Q 1994 391 2212 530 
Q 2431 669 2431 922 
Q 2431 1156 2273 1281 
Q 2116 1406 1581 1522 
L 1381 1569 
Q 847 1681 609 1914 
Q 372 2147 372 2553 
Q 372 3047 722 3315 
Q 1072 3584 1716 3584 
Q 2034 3584 2315 3537 
Q 2597 3491 2834 3397 
z
" transform="scale(0.015625)"/>
      </defs>
      <use xlink:href="#DejaVuSans-69"/>
      <use xlink:href="#DejaVuSans-74" transform="translate(27.783203 0)"/>
      <use xlink:href="#DejaVuSans-65" transform="translate(66.992188 0)"/>
      <use xlink:href="#DejaVuSans-72" transform="translate(128.515625 0)"/>
      <use xlink:href="#DejaVuSans-20" transform="translate(169.628906 0)"/>
      <use xlink:href="#DejaVuSans-b1" transform="translate(201.416016 0)"/>
      <use xlink:href="#DejaVuSans-20" transform="translate(285.205078 0)"/>
      <use xlink:href="#DejaVuSans-73" transform="translate(316.992188 0)"/>
      <use xlink:href="#DejaVuSans-74" transform="translate(369.091797 0)"/>
      <use xlink:href="#DejaVuSans-64" transform="translate(408.300781 0)"/>
     </g>
    </g>
   </g>
  </g>
 </g>
 <defs>
  <clipPath id="pf1a04910d8">
   <rect x="49.21875" y="7.2" width="714.24" height="532.224"/>
  </clipPath>
 </defs>
</svg>
