<?xml version="1.0" encoding="utf-8" standalone="no"?>
<!DOCTYPE svg PUBLIC "-//W3C//DTD SVG 1.1//EN"
  "http://www.w3.org/Graphics/SVG/1.1/DTD/svg11.dtd">
<svg xmlns:xlink="http://www.w3.org/1999/xlink" width="777.009616pt" height="577.3515pt" viewBox="0 0 777.009616 577.3515" xmlns="http://www.w3.org/2000/svg" version="1.1">
 <metadata>
  <rdf:RDF xmlns:dc="http://purl.org/dc/elements/1.1/" xmlns:cc="http://creativecommons.org/ns#" xmlns:rdf="http://www.w3.org/1999/02/22-rdf-syntax-ns#">
   <cc:Work>
    <dc:type rdf:resource="http://purl.org/dc/dcmitype/StillImage"/>
    <dc:date>2026-01-07T12:37:09.318927</dc:date>
    <dc:format>image/svg+xml</dc:format>
    <dc:creator>
     <cc:Agent>
      <dc:title>Matplotlib v3.10.8, https://matplotlib.org/</dc:title>
     </cc:Agent>
    </dc:creator>
   </cc:Work>
  </rdf:RDF>
 </metadata>
 <defs>
  <style type="text/css">*{stroke-linejoin: round; stroke-linecap: butt}</style>
 </defs>
 <g id="figure_1">
  <g id="patch_1">
   <path d="M 0 577.3515 
L 777.009616 577.3515 
L 777.009616 0 
L 0 0 
L 0 577.3515 
z
" style="fill: none"/>
  </g>
  <g id="axes_1">
   <g id="patch_2">
    <path d="M 53.0325 539.424 
L 767.2725 539.424 
L 767.2725 7.2 
L 53.0325 7.2 
L 53.0325 539.424 
z
" style="fill: none"/>
   </g>
   <g id="matplotlib.axis_1">
    <g id="xtick_1">
     <g id="text_1">
      <!-- 0 -->
      <g style="fill: #838383" transform="translate(81.680455 552.042125) scale(0.12 -0.12)">
       <defs>
        <path id="DejaVuSans-30" d="M 2034 4250 
Q 1547 4250 1301 3770 
Q 1056 3291 1056 2328 
Q 1056 1369 1301 889 
Q 1547 409 2034 409 
Q 2525 409 2770 889 
Q 3016 1369 3016 2328 
Q 3016 3291 2770 3770 
Q 2525 4250 2034 4250 
z
M 2034 4750 
Q 2819 4750 3233 4129 
Q 3647 3509 3647 2328 
Q 3647 1150 3233 529 
Q 2819 -91 2034 -91 
Q 1250 -91 836 529 
Q 422 1150 422 2328 
Q 422 3509 836 4129 
Q 1250 4750 2034 4750 
z
" transform="scale(0.015625)"/>
       </defs>
       <use xlink:href="#DejaVuSans-30"/>
      </g>
     </g>
    </g>
    <g id="xtick_2">
     <g id="text_2">
      <!-- 25 -->
      <g style="fill: #838383" transform="translate(161.97035 552.042125) scale(0.12 -0.12)">
       <defs>
        <path id="DejaVuSans-32" d="M 1228 531 
L 3431 531 
L 3431 0 
L 469 0 
L 469 531 
Q 828 903 1448 1529 
Q 2069 2156 2228 2338 
Q 2531 2678 2651 2914 
Q 2772 3150 2772 3378 
Q 2772 3750 2511 3984 
Q 2250 4219 1831 4219 
Q 1534 4219 1204 4116 
Q 875 4013 500 3803 
L 500 4441 
Q 881 4594 1212 4672 
Q 1544 4750 1819 4750 
Q 2544 4750 2975 4387 
Q 3406 4025 3406 3419 
Q 3406 3131 3298 2873 
Q 3191 2616 2906 2266 
Q 2828 2175 2409 1742 
Q 1991 1309 1228 531 
z
" transform="scale(0.015625)"/>
        <path id="DejaVuSans-35" d="M 691 4666 
L 3169 4666 
L 3169 4134 
L 1269 4134 
L 1269 2991 
Q 1406 3038 1543 3061 
Q 1681 3084 1819 3084 
Q 2600 3084 3056 2656 
Q 3513 2228 3513 1497 
Q 3513 744 3044 326 
Q 2575 -91 1722 -91 
Q 1428 -91 1123 -41 
Q 819 9 494 109 
L 494 744 
Q 775 591 1075 516 
Q 1375 441 1709 441 
Q 2250 441 2565 725 
Q 2881 1009 2881 1497 
Q 2881 1984 2565 2268 
Q 2250 2553 1709 2553 
Q 1456 2553 1204 2497 
Q 953 2441 691 2322 
L 691 4666 
z
" transform="scale(0.015625)"/>
       </defs>
       <use xlink:href="#DejaVuSans-32"/>
       <use xlink:href="#DejaVuSans-35" transform="translate(63.623047 0)"/>
      </g>
     </g>
    </g>
    <g id="xtick_3">
     <g id="text_3">
      <!-- 50 -->
      <g style="fill: #838383" transform="translate(246.077745 552.042125) scale(0.12 -0.12)">
       <use xlink:href="#DejaVuSans-35"/>
       <use xlink:href="#DejaVuSans-30" transform="translate(63.623047 0)"/>
      </g>
     </g>
    </g>
    <g id="xtick_4">
     <g id="text_4">
      <!-- 75 -->
      <g style="fill: #838383" transform="translate(330.18514 552.042125) scale(0.12 -0.12)">
       <defs>
        <path id="DejaVuSans-37" d="M 525 4666 
L 3525 4666 
L 3525 4397 
L 1831 0 
L 1172 0 
L 2766 4134 
L 525 4134 
L 525 4666 
z
" transform="scale(0.015625)"/>
       </defs>
       <use xlink:href="#DejaVuSans-37"/>
       <use xlink:href="#DejaVuSans-35" transform="translate(63.623047 0)"/>
      </g>
     </g>
    </g>
    <g id="xtick_5">
     <g id="text_5">
      <!-- 100 -->
      <g style="fill: #838383" transform="translate(410.475035 552.042125) scale(0.12 -0.12)">
       <defs>
        <path id="DejaVuSans-31" d="M 794 531 
L 1825 531 
L 1825 4091 
L 703 3866 
L 703 4441 
L 1819 4666 
L 2450 4666 
L 2450 531 
L 3481 531 
L 3481 0 
L 794 0 
L 794 531 
z
" transform="scale(0.015625)"/>
       </defs>
       <use xlink:href="#DejaVuSans-31"/>
       <use xlink:href="#DejaVuSans-30" transform="translate(63.623047 0)"/>
       <use xlink:href="#DejaVuSans-30" transform="translate(127.246094 0)"/>
      </g>
     </g>
    </g>
    <g id="xtick_6">
     <g id="text_6">
      <!-- 125 -->
      <g style="fill: #838383" transform="translate(494.582431 552.042125) scale(0.12 -0.12)">
       <use xlink:href="#DejaVuSans-31"/>
       <use xlink:href="#DejaVuSans-32" transform="translate(63.623047 0)"/>
       <use xlink:href="#DejaVuSans-35" transform="translate(127.246094 0)"/>
      </g>
     </g>
    </g>
    <g id="xtick_7">
     <g id="text_7">
      <!-- 150 -->
      <g style="fill: #838383" transform="translate(578.689826 552.042125) scale(0.12 -0.12)">
       <use xlink:href="#DejaVuSans-31"/>
       <use xlink:href="#DejaVuSans-35" transform="translate(63.623047 0)"/>
       <use xlink:href="#DejaVuSans-30" transform="translate(127.246094 0)"/>
      </g>
     </g>
    </g>
    <g id="xtick_8">
     <g id="text_8">
      <!-- 175 -->
      <g style="fill: #838383" transform="translate(662.797221 552.042125) scale(0.12 -0.12)">
       <use xlink:href="#DejaVuSans-31"/>
       <use xlink:href="#DejaVuSans-37" transform="translate(63.623047 0)"/>
       <use xlink:href="#DejaVuSans-35" transform="translate(127.246094 0)"/>
      </g>
     </g>
    </g>
    <g id="xtick_9">
     <g id="text_9">
      <!-- 200 -->
      <g style="fill: #838383" transform="translate(746.904616 552.042125) scale(0.12 -0.12)">
       <use xlink:href="#DejaVuSans-32"/>
       <use xlink:href="#DejaVuSans-30" transform="translate(63.623047 0)"/>
       <use xlink:href="#DejaVuSans-30" transform="translate(127.246094 0)"/>
      </g>
     </g>
    </g>
    <g id="text_10">
     <!-- draw -->
     <g style="fill: #262626" transform="translate(395.293125 567.655875) scale(0.12 -0.12)">
      <defs>
       <path id="DejaVuSans-64" d="M 2906 2969 
L 2906 4863 
L 3481 4863 
L 3481 0 
L 2906 0 
L 2906 525 
Q 2725 213 2448 61 
Q 2172 -91 1784 -91 
Q 1150 -91 751 415 
Q 353 922 353 1747 
Q 353 2572 751 3078 
Q 1150 3584 1784 3584 
Q 2172 3584 2448 3432 
Q 2725 3281 2906 2969 
z
M 947 1747 
Q 947 1113 1208 752 
Q 1469 391 1925 391 
Q 2381 391 2643 752 
Q 2906 1113 2906 1747 
Q 2906 2381 2643 2742 
Q 2381 3103 1925 3103 
Q 1469 3103 1208 2742 
Q 947 2381 947 1747 
z
" transform="scale(0.015625)"/>
       <path id="DejaVuSans-72" d="M 2631 2963 
Q 2534 3019 2420 3045 
Q 2306 3072 2169 3072 
Q 1681 3072 1420 2755 
Q 1159 2438 1159 1844 
L 1159 0 
L 581 0 
L 581 3500 
L 1159 3500 
L 1159 2956 
Q 1341 3275 1631 3429 
Q 1922 3584 2338 3584 
Q 2397 3584 2469 3576 
Q 2541 3569 2628 3553 
L 2631 2963 
z
" transform="scale(0.015625)"/>
       <path id="DejaVuSans-61" d="M 2194 1759 
Q 1497 1759 1228 1600 
Q 959 1441 959 1056 
Q 959 750 1161 570 
Q 1363 391 1709 391 
Q 2188 391 2477 730 
Q 2766 1069 2766 1631 
L 2766 1759 
L 2194 1759 
z
M 3341 1997 
L 3341 0 
L 2766 0 
L 2766 531 
Q 2569 213 2275 61 
Q 1981 -91 1556 -91 
Q 1019 -91 701 211 
Q 384 513 384 1019 
Q 384 1609 779 1909 
Q 1175 2209 1959 2209 
L 2766 2209 
L 2766 2266 
Q 2766 2663 2505 2880 
Q 2244 3097 1772 3097 
Q 1472 3097 1187 3025 
Q 903 2953 641 2809 
L 641 3341 
Q 956 3463 1253 3523 
Q 1550 3584 1831 3584 
Q 2591 3584 2966 3190 
Q 3341 2797 3341 1997 
z
" transform="scale(0.015625)"/>
       <path id="DejaVuSans-77" d="M 269 3500 
L 844 3500 
L 1563 769 
L 2278 3500 
L 2956 3500 
L 3675 769 
L 4391 3500 
L 4966 3500 
L 4050 0 
L 3372 0 
L 2619 2869 
L 1863 0 
L 1184 0 
L 269 3500 
z
" transform="scale(0.015625)"/>
      </defs>
      <use xlink:href="#DejaVuSans-64"/>
      <use xlink:href="#DejaVuSans-72" transform="translate(63.476562 0)"/>
      <use xlink:href="#DejaVuSans-61" transform="translate(104.589844 0)"/>
      <use xlink:href="#DejaVuSans-77" transform="translate(165.869141 0)"/>
     </g>
    </g>
   </g>
   <g id="matplotlib.axis_2">
    <g id="ytick_1">
     <g id="text_11">
      <!-- 0.00 -->
      <g style="fill: #838383" transform="translate(22.81375 520.938235) scale(0.12 -0.12)">
       <defs>
        <path id="DejaVuSans-2e" d="M 684 794 
L 1344 794 
L 1344 0 
L 684 0 
L 684 794 
z
" transform="scale(0.015625)"/>
       </defs>
       <use xlink:href="#DejaVuSans-30"/>
       <use xlink:href="#DejaVuSans-2e" transform="translate(63.623047 0)"/>
       <use xlink:href="#DejaVuSans-30" transform="translate(95.410156 0)"/>
       <use xlink:href="#DejaVuSans-30" transform="translate(159.033203 0)"/>
      </g>
     </g>
    </g>
    <g id="ytick_2">
     <g id="text_12">
      <!-- 0.25 -->
      <g style="fill: #838383" transform="translate(22.81375 453.095188) scale(0.12 -0.12)">
       <use xlink:href="#DejaVuSans-30"/>
       <use xlink:href="#DejaVuSans-2e" transform="translate(63.623047 0)"/>
       <use xlink:href="#DejaVuSans-32" transform="translate(95.410156 0)"/>
       <use xlink:href="#DejaVuSans-35" transform="translate(159.033203 0)"/>
      </g>
     </g>
    </g>
    <g id="ytick_3">
     <g id="text_13">
      <!-- 0.50 -->
      <g style="fill: #838383" transform="translate(22.81375 385.252141) scale(0.12 -0.12)">
       <use xlink:href="#DejaVuSans-30"/>
       <use xlink:href="#DejaVuSans-2e" transform="translate(63.623047 0)"/>
       <use xlink:href="#DejaVuSans-35" transform="translate(95.410156 0)"/>
       <use xlink:href="#DejaVuSans-30" transform="translate(159.033203 0)"/>
      </g>
     </g>
    </g>
    <g id="ytick_4">
     <g id="text_14">
      <!-- 0.75 -->
      <g style="fill: #838383" transform="translate(22.81375 317.409094) scale(0.12 -0.12)">
       <use xlink:href="#DejaVuSans-30"/>
       <use xlink:href="#DejaVuSans-2e" transform="translate(63.623047 0)"/>
       <use xlink:href="#DejaVuSans-37" transform="translate(95.410156 0)"/>
       <use xlink:href="#DejaVuSans-35" transform="translate(159.033203 0)"/>
      </g>
     </g>
    </g>
    <g id="ytick_5">
     <g id="text_15">
      <!-- 1.00 -->
      <g style="fill: #838383" transform="translate(22.81375 249.566047) scale(0.12 -0.12)">
       <use xlink:href="#DejaVuSans-31"/>
       <use xlink:href="#DejaVuSans-2e" transform="translate(63.623047 0)"/>
       <use xlink:href="#DejaVuSans-30" transform="translate(95.410156 0)"/>
       <use xlink:href="#DejaVuSans-30" transform="translate(159.033203 0)"/>
      </g>
     </g>
    </g>
    <g id="ytick_6">
     <g id="text_16">
      <!-- 1.25 -->
      <g style="fill: #838383" transform="translate(22.81375 181.723) scale(0.12 -0.12)">
       <use xlink:href="#DejaVuSans-31"/>
       <use xlink:href="#DejaVuSans-2e" transform="translate(63.623047 0)"/>
       <use xlink:href="#DejaVuSans-32" transform="translate(95.410156 0)"/>
       <use xlink:href="#DejaVuSans-35" transform="translate(159.033203 0)"/>
      </g>
     </g>
    </g>
    <g id="ytick_7">
     <g id="text_17">
      <!-- 1.50 -->
      <g style="fill: #838383" transform="translate(22.81375 113.879953) scale(0.12 -0.12)">
       <use xlink:href="#DejaVuSans-31"/>
       <use xlink:href="#DejaVuSans-2e" transform="translate(63.623047 0)"/>
       <use xlink:href="#DejaVuSans-35" transform="translate(95.410156 0)"/>
       <use xlink:href="#DejaVuSans-30" transform="translate(159.033203 0)"/>
      </g>
     </g>
    </g>
    <g id="ytick_8">
     <g id="text_18">
      <!-- 1.75 -->
      <g style="fill: #838383" transform="translate(22.81375 46.036906) scale(0.12 -0.12)">
       <use xlink:href="#DejaVuSans-31"/>
       <use xlink:href="#DejaVuSans-2e" transform="translate(63.623047 0)"/>
       <use xlink:href="#DejaVuSans-37" transform="translate(95.410156 0)"/>
       <use xlink:href="#DejaVuSans-35" transform="translate(159.033203 0)"/>
      </g>
     </g>
    </g>
    <g id="text_19">
     <!-- loss -->
     <g style="fill: #262626" transform="translate(16.318125 284.901375) rotate(-90) scale(0.12 -0.12)">
      <defs>
       <path id="DejaVuSans-6c" d="M 603 4863 
L 1178 4863 
L 1178 0 
L 603 0 
L 603 4863 
z
" transform="scale(0.015625)"/>
       <path id="DejaVuSans-6f" d="M 1959 3097 
Q 1497 3097 1228 2736 
Q 959 2375 959 1747 
Q 959 1119 1226 758 
Q 1494 397 1959 397 
Q 2419 397 2687 759 
Q 2956 1122 2956 1747 
Q 2956 2369 2687 2733 
Q 2419 3097 1959 3097 
z
M 1959 3584 
Q 2709 3584 3137 3096 
Q 3566 2609 3566 1747 
Q 3566 888 3137 398 
Q 2709 -91 1959 -91 
Q 1206 -91 779 398 
Q 353 888 353 1747 
Q 353 2609 779 3096 
Q 1206 3584 1959 3584 
z
" transform="scale(0.015625)"/>
       <path id="DejaVuSans-73" d="M 2834 3397 
L 2834 2853 
Q 2591 2978 2328 3040 
Q 2066 3103 1784 3103 
Q 1356 3103 1142 2972 
Q 928 2841 928 2578 
Q 928 2378 1081 2264 
Q 1234 2150 1697 2047 
L 1894 2003 
Q 2506 1872 2764 1633 
Q 3022 1394 3022 966 
Q 3022 478 2636 193 
Q 2250 -91 1575 -91 
Q 1294 -91 989 -36 
Q 684 19 347 128 
L 347 722 
Q 666 556 975 473 
Q 1284 391 1588 391 
Q 1994 391 2212 530 
Q 2431 669 2431 922 
Q 2431 1156 2273 1281 
Q 2116 1406 1581 1522 
L 1381 1569 
Q 847 1681 609 1914 
Q 372 2147 372 2553 
Q 372 3047 722 3315 
Q 1072 3584 1716 3584 
Q 2034 3584 2315 3537 
Q 2597 3491 2834 3397 
z
" transform="scale(0.015625)"/>
      </defs>
      <use xlink:href="#DejaVuSans-6c"/>
      <use xlink:href="#DejaVuSans-6f" transform="translate(27.783203 0)"/>
      <use xlink:href="#DejaVuSans-73" transform="translate(88.964844 0)"/>
      <use xlink:href="#DejaVuSans-73" transform="translate(141.064453 0)"/>
     </g>
    </g>
   </g>
   <g id="FillBetweenPolyCollection_1">
    <defs>
     <path id="m03d2d098da" d="M 85.497955 -545.9595 
L 85.497955 -529.320636 
L 88.86225 -483.977981 
L 92.226546 -427.765141 
L 95.590842 -381.025947 
L 98.955138 -340.333118 
L 102.319434 -300.622555 
L 105.683729 -276.971868 
L 109.048025 -272.785925 
L 112.412321 -250.886203 
L 115.776617 -250.226275 
L 119.140913 -228.743764 
L 122.505208 -217.27999 
L 125.869504 -211.763275 
L 129.2338 -206.009602 
L 132.598096 -187.736506 
L 135.962392 -191.188491 
L 139.326687 -188.03325 
L 142.690983 -186.08593 
L 146.055279 -178.648698 
L 149.419575 -175.112213 
L 152.783871 -170.418881 
L 156.148167 -174.376873 
L 159.512462 -169.320707 
L 162.876758 -161.490259 
L 166.241054 -152.183546 
L 169.60535 -145.391566 
L 172.969646 -144.378835 
L 176.333941 -158.719719 
L 179.698237 -161.846458 
L 183.062533 -151.527274 
L 186.426829 -147.295015 
L 189.791125 -142.375475 
L 193.15542 -141.020083 
L 196.519716 -137.055115 
L 199.884012 -126.938552 
L 203.248308 -138.138346 
L 206.612604 -142.467256 
L 209.976899 -136.473823 
L 213.341195 -132.654286 
L 216.705491 -129.634974 
L 220.069787 -135.293451 
L 223.434083 -133.26949 
L 226.798378 -133.843993 
L 230.162674 -124.319509 
L 233.52697 -122.183716 
L 236.891266 -116.94225 
L 240.255562 -123.428248 
L 243.619858 -122.317704 
L 246.984153 -123.294667 
L 250.348449 -123.319074 
L 253.712745 -118.937651 
L 257.077041 -114.281387 
L 260.441337 -115.225996 
L 263.805632 -118.902972 
L 267.169928 -99.167789 
L 270.534224 -112.541336 
L 273.89852 -117.317148 
L 277.262816 -111.69394 
L 280.627111 -113.243584 
L 283.991407 -109.412714 
L 287.355703 -109.000013 
L 290.719999 -110.671029 
L 294.084295 -111.910108 
L 297.44859 -103.596373 
L 300.812886 -99.737929 
L 304.177182 -99.201308 
L 307.541478 -102.506874 
L 310.905774 -103.197741 
L 314.270069 -102.529849 
L 317.634365 -103.941429 
L 320.998661 -98.661671 
L 324.362957 -97.306397 
L 327.727253 -98.646755 
L 331.091549 -101.174131 
L 334.455844 -82.378279 
L 337.82014 -95.446214 
L 341.184436 -101.832464 
L 344.548732 -97.780894 
L 347.913028 -94.099391 
L 351.277323 -93.168597 
L 354.641619 -91.989215 
L 358.005915 -92.527566 
L 361.370211 -98.909787 
L 364.734507 -91.983044 
L 368.098802 -91.914865 
L 371.463098 -88.071165 
L 374.827394 -89.763275 
L 378.19169 -91.577914 
L 381.555986 -89.177291 
L 384.920281 -92.386826 
L 388.284577 -88.579935 
L 391.648873 -87.556245 
L 395.013169 -87.011016 
L 398.377465 -91.236579 
L 401.74176 -73.678151 
L 405.106056 -84.157274 
L 408.470352 -89.885074 
L 411.834648 -87.002132 
L 415.198944 -85.25632 
L 418.56324 -85.232929 
L 421.927535 -85.12964 
L 425.291831 -83.461812 
L 428.656127 -89.261919 
L 432.020423 -82.55361 
L 435.384719 -84.283184 
L 438.749014 -81.036316 
L 442.11331 -82.865251 
L 445.477606 -83.621653 
L 448.841902 -82.278941 
L 452.206198 -84.249597 
L 455.570493 -79.989243 
L 458.934789 -81.543551 
L 462.299085 -79.668278 
L 465.663381 -82.246717 
L 469.027677 -70.236724 
L 472.391972 -76.541979 
L 475.756268 -81.885177 
L 479.120564 -80.252537 
L 482.48486 -77.0726 
L 485.849156 -78.893011 
L 489.213451 -77.801314 
L 492.577747 -77.745737 
L 495.942043 -78.996299 
L 499.306339 -74.817148 
L 502.670635 -77.618529 
L 506.034931 -76.832351 
L 509.399226 -75.522045 
L 512.763522 -77.748979 
L 516.127818 -76.234303 
L 519.492114 -75.687066 
L 522.85641 -75.840492 
L 526.220705 -76.914853 
L 529.585001 -75.122429 
L 532.949297 -74.405703 
L 536.313593 -65.685493 
L 539.677889 -75.80621 
L 543.042184 -76.754075 
L 546.40648 -78.453609 
L 549.770776 -73.641421 
L 553.135072 -73.391109 
L 556.499368 -71.183256 
L 559.863663 -72.496488 
L 563.227959 -77.254189 
L 566.592255 -73.492088 
L 569.956551 -72.336706 
L 573.320847 -73.202922 
L 576.685142 -73.036697 
L 580.049438 -74.00273 
L 583.413734 -74.086152 
L 586.77803 -71.316958 
L 590.142326 -72.557057 
L 593.506622 -73.169468 
L 596.870917 -73.065527 
L 600.235213 -72.249346 
L 603.599509 -63.900858 
L 606.963805 -74.157033 
L 610.328101 -71.415409 
L 613.692396 -69.099281 
L 617.056692 -71.364892 
L 620.420988 -72.683958 
L 623.785284 -70.76796 
L 627.14958 -68.05047 
L 630.513875 -68.51993 
L 633.878171 -68.73025 
L 637.242467 -67.45886 
L 640.606763 -68.994381 
L 643.971059 -70.939131 
L 647.335354 -66.549914 
L 650.69965 -70.699571 
L 654.063946 -71.096133 
L 657.428242 -71.787678 
L 660.792538 -70.480204 
L 664.156833 -69.076633 
L 667.521129 -68.143409 
L 670.885425 -62.1195 
L 674.249721 -70.286061 
L 677.614017 -66.719947 
L 680.978313 -69.397788 
L 684.342608 -68.195708 
L 687.706904 -70.13525 
L 691.0712 -65.989825 
L 694.435496 -68.247474 
L 697.799792 -69.297433 
L 701.164087 -67.739207 
L 704.528383 -69.42392 
L 707.892679 -66.995954 
L 711.256975 -63.087058 
L 714.621271 -67.11244 
L 717.985566 -68.427891 
L 721.349862 -69.642909 
L 724.714158 -68.004806 
L 728.078454 -66.219539 
L 731.44275 -67.718047 
L 734.807045 -67.251561 
L 734.807045 -79.298058 
L 734.807045 -79.298058 
L 731.44275 -78.5779 
L 728.078454 -85.059834 
L 724.714158 -79.923369 
L 721.349862 -83.708471 
L 717.985566 -81.806888 
L 714.621271 -79.99184 
L 711.256975 -83.490139 
L 707.892679 -82.593483 
L 704.528383 -81.018099 
L 701.164087 -81.714522 
L 697.799792 -79.274034 
L 694.435496 -88.017137 
L 691.0712 -89.250628 
L 687.706904 -79.799328 
L 684.342608 -80.835803 
L 680.978313 -81.329887 
L 677.614017 -88.484565 
L 674.249721 -87.324629 
L 670.885425 -79.918568 
L 667.521129 -86.215633 
L 664.156833 -82.097528 
L 660.792538 -90.570044 
L 657.428242 -80.768974 
L 654.063946 -85.427925 
L 650.69965 -81.117117 
L 647.335354 -87.508117 
L 643.971059 -81.374658 
L 640.606763 -86.482429 
L 637.242467 -85.478099 
L 633.878171 -85.715311 
L 630.513875 -88.00769 
L 627.14958 -91.473028 
L 623.785284 -83.919426 
L 620.420988 -86.018619 
L 617.056692 -86.83943 
L 613.692396 -88.545287 
L 610.328101 -89.65961 
L 606.963805 -88.249949 
L 603.599509 -76.973733 
L 600.235213 -84.359688 
L 596.870917 -83.200378 
L 593.506622 -94.246738 
L 590.142326 -83.641066 
L 586.77803 -96.483297 
L 583.413734 -89.906668 
L 580.049438 -85.061279 
L 576.685142 -87.825313 
L 573.320847 -89.093272 
L 569.956551 -91.322389 
L 566.592255 -87.294563 
L 563.227959 -89.850017 
L 559.863663 -94.685193 
L 556.499368 -86.692361 
L 553.135072 -91.190401 
L 549.770776 -95.159802 
L 546.40648 -91.167773 
L 543.042184 -93.067748 
L 539.677889 -94.159099 
L 536.313593 -82.300431 
L 532.949297 -97.181995 
L 529.585001 -94.711401 
L 526.220705 -95.110088 
L 522.85641 -89.120351 
L 519.492114 -99.030025 
L 516.127818 -97.506713 
L 512.763522 -97.421365 
L 509.399226 -93.803447 
L 506.034931 -93.486435 
L 502.670635 -97.757173 
L 499.306339 -95.712835 
L 495.942043 -99.752502 
L 492.577747 -99.896461 
L 489.213451 -93.637654 
L 485.849156 -98.017763 
L 482.48486 -97.453617 
L 479.120564 -97.904735 
L 475.756268 -100.264371 
L 472.391972 -102.654883 
L 469.027677 -80.94147 
L 465.663381 -98.799887 
L 462.299085 -97.914028 
L 458.934789 -106.264447 
L 455.570493 -100.532226 
L 452.206198 -101.510382 
L 448.841902 -98.481417 
L 445.477606 -103.629091 
L 442.11331 -99.427592 
L 438.749014 -103.569105 
L 435.384719 -106.278074 
L 432.020423 -100.663038 
L 428.656127 -103.649782 
L 425.291831 -112.653494 
L 421.927535 -103.137802 
L 418.56324 -107.235326 
L 415.198944 -107.896026 
L 411.834648 -104.566184 
L 408.470352 -106.782537 
L 405.106056 -111.690408 
L 401.74176 -89.162051 
L 398.377465 -109.245237 
L 395.013169 -107.536597 
L 391.648873 -116.438402 
L 388.284577 -105.359229 
L 384.920281 -112.772861 
L 381.555986 -113.106861 
L 378.19169 -114.58194 
L 374.827394 -109.912433 
L 371.463098 -112.665011 
L 368.098802 -115.861903 
L 364.734507 -113.673888 
L 361.370211 -118.468446 
L 358.005915 -127.162906 
L 354.641619 -114.588885 
L 351.277323 -117.01395 
L 347.913028 -118.634122 
L 344.548732 -124.407069 
L 341.184436 -118.884144 
L 337.82014 -121.76908 
L 334.455844 -100.224881 
L 331.091549 -123.064625 
L 327.727253 -123.603118 
L 324.362957 -131.798038 
L 320.998661 -121.572056 
L 317.634365 -129.658851 
L 314.270069 -127.149471 
L 310.905774 -134.090975 
L 307.541478 -128.678708 
L 304.177182 -129.200685 
L 300.812886 -139.888502 
L 297.44859 -131.929611 
L 294.084295 -138.17229 
L 290.719999 -144.356985 
L 287.355703 -132.243008 
L 283.991407 -138.06027 
L 280.627111 -137.913323 
L 277.262816 -144.489062 
L 273.89852 -138.467106 
L 270.534224 -141.368425 
L 267.169928 -124.833785 
L 263.805632 -146.894912 
L 260.441337 -148.664786 
L 257.077041 -151.779633 
L 253.712745 -147.734688 
L 250.348449 -150.412248 
L 246.984153 -157.077707 
L 243.619858 -156.509792 
L 240.255562 -153.772653 
L 236.891266 -157.641561 
L 233.52697 -161.197297 
L 230.162674 -154.931109 
L 226.798378 -168.709427 
L 223.434083 -178.222389 
L 220.069787 -166.533257 
L 216.705491 -165.010775 
L 213.341195 -167.177651 
L 209.976899 -171.623416 
L 206.612604 -173.475347 
L 203.248308 -178.787393 
L 199.884012 -168.407253 
L 196.519716 -186.128942 
L 193.15542 -181.003301 
L 189.791125 -190.363811 
L 186.426829 -187.551425 
L 183.062533 -188.145395 
L 179.698237 -201.876688 
L 176.333941 -204.769827 
L 172.969646 -199.226456 
L 169.60535 -199.506094 
L 166.241054 -211.888431 
L 162.876758 -211.747322 
L 159.512462 -221.926572 
L 156.148167 -229.497517 
L 152.783871 -215.068125 
L 149.419575 -241.033891 
L 146.055279 -235.153901 
L 142.690983 -232.861562 
L 139.326687 -243.876372 
L 135.962392 -256.935349 
L 132.598096 -261.472291 
L 129.2338 -261.963054 
L 125.869504 -259.11733 
L 122.505208 -276.173406 
L 119.140913 -272.688618 
L 115.776617 -284.899821 
L 112.412321 -302.932711 
L 109.048025 -310.707173 
L 105.683729 -326.93698 
L 102.319434 -343.693103 
L 98.955138 -379.412717 
L 95.590842 -421.895388 
L 92.226546 -462.981824 
L 88.86225 -510.804466 
L 85.497955 -545.9595 
z
" style="stroke: #8b2be2; stroke-opacity: 0.2"/>
    </defs>
    <g clip-path="url(#p3739062e6e)">
     <use xlink:href="#m03d2d098da" x="0" y="577.3515" style="fill: #8b2be2; fill-opacity: 0.2; stroke: #8b2be2; stroke-opacity: 0.2"/>
    </g>
   </g>
   <g id="line2d_1">
    <path d="M 85.497955 40.417279 
L 88.86225 71.638476 
L 92.226546 135.029957 
L 95.590842 177.857427 
L 98.955138 219.005539 
L 102.319434 238.857072 
L 105.683729 284.202009 
L 109.048025 297.169298 
L 112.412321 278.147157 
L 115.776617 311.287199 
L 119.140913 328.486882 
L 122.505208 306.097372 
L 125.869504 318.485287 
L 129.2338 342.534567 
L 132.598096 278.640657 
L 135.962392 339.329903 
L 139.326687 336.444761 
L 142.690983 375.047439 
L 146.055279 396.81903 
L 149.419575 384.501015 
L 152.783871 361.485603 
L 156.148167 361.372184 
L 162.876758 407.625625 
L 166.241054 381.153631 
L 169.60535 366.929443 
L 172.969646 417.84276 
L 176.333941 422.693696 
L 179.698237 403.629435 
L 183.062533 401.359154 
L 186.426829 421.924888 
L 189.791125 404.565574 
L 193.15542 410.49553 
L 196.519716 413.028307 
L 199.884012 395.871059 
L 203.248308 401.627272 
L 206.612604 394.975957 
L 209.976899 415.807301 
L 213.341195 400.850498 
L 216.705491 433.590806 
L 220.069787 432.688271 
L 223.434083 413.865439 
L 226.798378 430.714916 
L 230.162674 429.905841 
L 233.52697 421.539429 
L 236.891266 421.199389 
L 240.255562 447.781608 
L 243.619858 444.750955 
L 246.984153 420.874198 
L 250.348449 412.115865 
L 253.712745 431.468997 
L 257.077041 421.485178 
L 260.441337 440.767835 
L 263.805632 449.792748 
L 267.169928 435.218808 
L 270.534224 417.615542 
L 273.89852 432.048694 
L 277.262816 456.540588 
L 280.627111 442.348953 
L 283.991407 453.438761 
L 287.355703 451.164962 
L 290.719999 445.560734 
L 294.084295 457.171815 
L 297.44859 461.859719 
L 300.812886 440.943431 
L 304.177182 425.282213 
L 307.541478 469.69051 
L 310.905774 472.792341 
L 314.270069 444.94986 
L 317.634365 435.699612 
L 320.998661 450.786082 
L 324.362957 447.212344 
L 327.727253 466.474551 
L 331.091549 460.659494 
L 334.455844 460.329964 
L 337.82014 434.683123 
L 341.184436 449.825713 
L 344.548732 478.120101 
L 347.913028 459.394391 
L 351.277323 466.307261 
L 354.641619 461.467029 
L 358.005915 458.326386 
L 361.370211 476.951462 
L 364.734507 481.829912 
L 368.098802 459.054392 
L 371.463098 442.183992 
L 374.827394 483.894601 
L 378.19169 491.641612 
L 381.555986 458.76071 
L 384.920281 459.692861 
L 388.284577 464.764813 
L 391.648873 466.149878 
L 395.013169 469.022553 
L 398.377465 465.544494 
L 401.74176 486.614475 
L 405.106056 449.869325 
L 408.470352 449.93942 
L 411.834648 482.838644 
L 415.198944 472.642018 
L 418.56324 485.114834 
L 421.927535 482.105001 
L 425.291831 460.618636 
L 428.656127 480.761987 
L 432.020423 482.493986 
L 435.384719 463.937273 
L 438.749014 461.386566 
L 442.11331 490.674389 
L 445.477606 494.980747 
L 448.841902 483.909256 
L 452.206198 484.62703 
L 455.570493 484.090875 
L 458.934789 473.032953 
L 462.299085 465.804884 
L 465.663381 477.875308 
L 469.027677 496.346649 
L 472.391972 472.228641 
L 475.756268 463.275075 
L 479.120564 490.413663 
L 482.48486 488.11933 
L 485.849156 489.824787 
L 489.213451 492.865828 
L 492.577747 484.293636 
L 495.942043 494.900295 
L 499.306339 492.63976 
L 502.670635 476.765611 
L 506.034931 477.779285 
L 509.399226 497.414673 
L 512.763522 499.401912 
L 516.127818 496.524546 
L 519.492114 486.308811 
L 522.85641 497.088088 
L 526.220705 484.755823 
L 529.585001 495.519993 
L 532.949297 491.899191 
L 536.313593 503.616813 
L 539.677889 480.150186 
L 543.042184 472.428807 
L 546.40648 491.536872 
L 549.770776 498.19965 
L 553.135072 500.024557 
L 556.499368 500.934904 
L 559.863663 485.816447 
L 563.227959 491.124451 
L 566.592255 501.632596 
L 569.956551 495.489675 
L 573.320847 490.67046 
L 576.685142 500.077781 
L 580.049438 498.69552 
L 583.413734 494.145941 
L 586.77803 479.391993 
L 590.142326 495.887997 
L 593.506622 489.364081 
L 596.870917 502.131893 
L 600.235213 505.456289 
L 603.599509 510.47288 
L 606.963805 488.141122 
L 610.328101 494.837651 
L 613.692396 501.214016 
L 617.056692 500.860694 
L 620.420988 501.334301 
L 623.785284 500.386804 
L 627.14958 489.574842 
L 630.513875 505.266536 
L 633.878171 505.614876 
L 637.242467 500.074018 
L 640.606763 495.944016 
L 643.971059 501.973991 
L 647.335354 509.887688 
L 650.69965 506.749306 
L 654.063946 498.893114 
L 657.428242 502.13737 
L 660.792538 487.397584 
L 664.156833 502.472716 
L 667.521129 505.20669 
L 670.885425 509.643991 
L 674.249721 505.3573 
L 677.614017 498.193487 
L 680.978313 500.490341 
L 684.342608 499.968627 
L 687.706904 506.301844 
L 691.0712 508.232502 
L 694.435496 503.025709 
L 697.799792 504.982496 
L 701.164087 508.747521 
L 704.528383 500.03856 
L 707.892679 502.104052 
L 711.256975 505.6879 
L 714.621271 510.933288 
L 717.985566 500.647508 
L 721.349862 506.877824 
L 724.714158 507.945998 
L 728.078454 496.459504 
L 731.44275 503.750179 
L 734.807045 505.492368 
L 734.807045 505.492368 
" clip-path="url(#p3739062e6e)" style="fill: none; stroke: #8b2be2; stroke-opacity: 0.35; stroke-width: 1.25; stroke-linecap: round"/>
   </g>
   <g id="line2d_2">
    <path d="M 85.497955 39.711432 
L 88.86225 79.960277 
L 92.226546 131.978017 
L 95.590842 175.890832 
L 98.955138 217.478582 
L 102.319434 255.193671 
L 105.683729 275.397076 
L 109.048025 285.604951 
L 112.412321 300.442043 
L 115.776617 309.788452 
L 119.140913 326.635309 
L 122.505208 330.624802 
L 125.869504 341.911197 
L 129.2338 343.365172 
L 132.598096 352.747101 
L 135.962392 353.28958 
L 139.326687 361.396689 
L 142.690983 367.877754 
L 146.055279 370.4502 
L 149.419575 369.278448 
L 152.783871 384.607997 
L 156.148167 375.414305 
L 159.512462 381.727861 
L 162.876758 390.732709 
L 166.241054 395.315511 
L 169.60535 404.90267 
L 172.969646 405.548854 
L 176.333941 395.606727 
L 179.698237 395.489927 
L 183.062533 407.515165 
L 186.426829 409.92828 
L 189.791125 410.981857 
L 193.15542 416.339808 
L 196.519716 415.759472 
L 199.884012 429.678597 
L 203.248308 418.888631 
L 206.612604 419.380198 
L 209.976899 423.302881 
L 213.341195 427.435531 
L 216.705491 430.028625 
L 220.069787 426.438146 
L 223.434083 421.605561 
L 226.798378 426.07479 
L 230.162674 437.726191 
L 233.52697 435.660994 
L 236.891266 440.059594 
L 240.255562 438.75105 
L 246.984153 437.165313 
L 250.348449 440.485839 
L 253.712745 444.01533 
L 257.077041 444.32099 
L 260.441337 445.406109 
L 263.805632 444.452558 
L 267.169928 465.350713 
L 270.534224 450.396619 
L 273.89852 449.459373 
L 277.262816 449.259999 
L 280.627111 451.773047 
L 283.991407 453.615008 
L 287.355703 456.72999 
L 290.719999 449.837493 
L 294.084295 452.310301 
L 297.44859 459.588508 
L 300.812886 457.538285 
L 304.177182 463.150503 
L 307.541478 461.758709 
L 310.905774 458.707142 
L 314.270069 462.51184 
L 317.634365 460.55136 
L 320.998661 467.234637 
L 324.362957 462.799282 
L 327.727253 466.226564 
L 331.091549 465.232122 
L 334.455844 486.04992 
L 337.82014 468.743853 
L 341.184436 466.993196 
L 344.548732 466.257519 
L 347.913028 470.984744 
L 351.277323 472.260227 
L 354.641619 474.06245 
L 358.005915 467.506264 
L 361.370211 468.662384 
L 364.734507 474.523034 
L 368.098802 473.463116 
L 371.463098 476.983412 
L 374.827394 477.513646 
L 378.19169 474.271573 
L 381.555986 476.209424 
L 384.920281 474.771657 
L 388.284577 480.381918 
L 391.648873 475.354177 
L 395.013169 480.077694 
L 398.377465 477.110592 
L 401.74176 495.931399 
L 405.106056 479.427659 
L 408.470352 479.017695 
L 411.834648 481.567342 
L 415.198944 480.775327 
L 418.56324 481.117373 
L 421.927535 483.217779 
L 425.291831 479.293847 
L 428.656127 480.895649 
L 432.020423 485.743176 
L 435.384719 482.070871 
L 438.749014 485.04879 
L 442.11331 486.205079 
L 445.477606 483.726128 
L 448.841902 486.971321 
L 452.206198 484.471511 
L 455.570493 487.090766 
L 458.934789 483.447501 
L 462.299085 488.560347 
L 465.663381 486.828198 
L 469.027677 501.762403 
L 472.391972 487.753069 
L 475.756268 486.276726 
L 479.120564 488.272864 
L 482.48486 490.088391 
L 485.849156 488.896113 
L 489.213451 491.632016 
L 492.577747 488.530401 
L 495.942043 487.977099 
L 499.306339 492.086508 
L 502.670635 489.663649 
L 506.034931 492.192107 
L 509.399226 492.688754 
L 512.763522 489.766328 
L 516.127818 490.480992 
L 519.492114 489.992954 
L 522.85641 494.871078 
L 526.220705 491.339029 
L 529.585001 492.434585 
L 532.949297 491.557651 
L 536.313593 503.358538 
L 539.677889 492.368846 
L 546.40648 492.540809 
L 549.770776 492.950889 
L 553.135072 495.060745 
L 556.499368 498.413692 
L 559.863663 493.76066 
L 563.227959 493.799397 
L 566.592255 496.958175 
L 569.956551 495.521952 
L 576.685142 496.920495 
L 580.049438 497.819496 
L 583.413734 495.35509 
L 586.77803 493.451373 
L 590.142326 499.252439 
L 593.506622 493.643397 
L 596.870917 499.218548 
L 600.235213 499.046983 
L 603.599509 506.914205 
L 606.963805 496.148009 
L 610.328101 496.81399 
L 613.692396 498.529216 
L 620.420988 498.000211 
L 623.785284 500.007807 
L 627.14958 497.589751 
L 630.513875 499.08769 
L 633.878171 500.12872 
L 637.242467 500.88302 
L 640.606763 499.613095 
L 643.971059 501.194605 
L 647.335354 500.322484 
L 650.69965 501.443156 
L 654.063946 499.089471 
L 657.428242 501.073174 
L 660.792538 496.826376 
L 664.156833 501.76442 
L 667.521129 500.171979 
L 670.885425 506.332466 
L 674.249721 498.546155 
L 677.614017 499.749244 
L 680.978313 501.987663 
L 684.342608 502.835744 
L 687.706904 502.384211 
L 691.0712 499.731273 
L 694.435496 499.219195 
L 697.799792 503.065767 
L 704.528383 502.13049 
L 707.892679 502.556781 
L 711.256975 504.062901 
L 714.621271 503.79936 
L 721.349862 500.67581 
L 724.714158 503.387412 
L 728.078454 501.711813 
L 731.44275 504.203526 
L 734.807045 504.076691 
L 734.807045 504.076691 
" clip-path="url(#p3739062e6e)" style="fill: none; stroke: #8b2be2; stroke-width: 2; stroke-linecap: round"/>
   </g>
   <g id="patch_3">
    <path d="M 53.0325 539.424 
L 53.0325 7.2 
" style="fill: none"/>
   </g>
   <g id="patch_4">
    <path d="M 53.0325 539.424 
L 767.2725 539.424 
" style="fill: none"/>
   </g>
   <g id="legend_1">
    <g id="line2d_3">
     <path d="M 661.84875 22.918125 
L 673.84875 22.918125 
L 685.84875 22.918125 
" style="fill: none; stroke: #8b2be2; stroke-opacity: 0.35; stroke-width: 1.25; stroke-linecap: round"/>
    </g>
    <g id="text_20">
     <!-- loss -->
     <g style="fill: #838383" transform="translate(695.44875 27.118125) scale(0.12 -0.12)">
      <use xlink:href="#DejaVuSans-6c"/>
      <use xlink:href="#DejaVuSans-6f" transform="translate(27.783203 0)"/>
      <use xlink:href="#DejaVuSans-73" transform="translate(88.964844 0)"/>
      <use xlink:href="#DejaVuSans-73" transform="translate(141.064453 0)"/>
     </g>
    </g>
    <g id="line2d_4">
     <path d="M 661.84875 40.531875 
L 673.84875 40.531875 
L 685.84875 40.531875 
" style="fill: none; stroke: #8b2be2; stroke-width: 2; stroke-linecap: round"/>
    </g>
    <g id="text_21">
     <!-- loss mean -->
     <g style="fill: #838383" transform="translate(695.44875 44.731875) scale(0.12 -0.12)">
      <defs>
       <path id="DejaVuSans-20" transform="scale(0.015625)"/>
       <path id="DejaVuSans-6d" d="M 3328 2828 
Q 3544 3216 3844 3400 
Q 4144 3584 4550 3584 
Q 5097 3584 5394 3201 
Q 5691 2819 5691 2113 
L 5691 0 
L 5113 0 
L 5113 2094 
Q 5113 2597 4934 2840 
Q 4756 3084 4391 3084 
Q 3944 3084 3684 2787 
Q 3425 2491 3425 1978 
L 3425 0 
L 2847 0 
L 2847 2094 
Q 2847 2600 2669 2842 
Q 2491 3084 2119 3084 
Q 1678 3084 1418 2786 
Q 1159 2488 1159 1978 
L 1159 0 
L 581 0 
L 581 3500 
L 1159 3500 
L 1159 2956 
Q 1356 3278 1631 3431 
Q 1906 3584 2284 3584 
Q 2666 3584 2933 3390 
Q 3200 3197 3328 2828 
z
" transform="scale(0.015625)"/>
       <path id="DejaVuSans-65" d="M 3597 1894 
L 3597 1613 
L 953 1613 
Q 991 1019 1311 708 
Q 1631 397 2203 397 
Q 2534 397 2845 478 
Q 3156 559 3463 722 
L 3463 178 
Q 3153 47 2828 -22 
Q 2503 -91 2169 -91 
Q 1331 -91 842 396 
Q 353 884 353 1716 
Q 353 2575 817 3079 
Q 1281 3584 2069 3584 
Q 2775 3584 3186 3129 
Q 3597 2675 3597 1894 
z
M 3022 2063 
Q 3016 2534 2758 2815 
Q 2500 3097 2075 3097 
Q 1594 3097 1305 2825 
Q 1016 2553 972 2059 
L 3022 2063 
z
" transform="scale(0.015625)"/>
       <path id="DejaVuSans-6e" d="M 3513 2113 
L 3513 0 
L 2938 0 
L 2938 2094 
Q 2938 2591 2744 2837 
Q 2550 3084 2163 3084 
Q 1697 3084 1428 2787 
Q 1159 2491 1159 1978 
L 1159 0 
L 581 0 
L 581 3500 
L 1159 3500 
L 1159 2956 
Q 1366 3272 1645 3428 
Q 1925 3584 2291 3584 
Q 2894 3584 3203 3211 
Q 3513 2838 3513 2113 
z
" transform="scale(0.015625)"/>
      </defs>
      <use xlink:href="#DejaVuSans-6c"/>
      <use xlink:href="#DejaVuSans-6f" transform="translate(27.783203 0)"/>
      <use xlink:href="#DejaVuSans-73" transform="translate(88.964844 0)"/>
      <use xlink:href="#DejaVuSans-73" transform="translate(141.064453 0)"/>
      <use xlink:href="#DejaVuSans-20" transform="translate(193.164062 0)"/>
      <use xlink:href="#DejaVuSans-6d" transform="translate(224.951172 0)"/>
      <use xlink:href="#DejaVuSans-65" transform="translate(322.363281 0)"/>
      <use xlink:href="#DejaVuSans-61" transform="translate(383.886719 0)"/>
      <use xlink:href="#DejaVuSans-6e" transform="translate(445.166016 0)"/>
     </g>
    </g>
    <g id="patch_5">
     <path d="M 661.84875 62.345625 
L 685.84875 62.345625 
L 685.84875 53.945625 
L 661.84875 53.945625 
z
" style="fill: #8b2be2; fill-opacity: 0.2; stroke: #8b2be2; stroke-opacity: 0.2; stroke-linejoin: miter"/>
    </g>
    <g id="text_22">
     <!-- loss ± std -->
     <g style="fill: #838383" transform="translate(695.44875 62.345625) scale(0.12 -0.12)">
      <defs>
       <path id="DejaVuSans-b1" d="M 2944 4013 
L 2944 2803 
L 4684 2803 
L 4684 2272 
L 2944 2272 
L 2944 1063 
L 2419 1063 
L 2419 2272 
L 678 2272 
L 678 2803 
L 2419 2803 
L 2419 4013 
L 2944 4013 
z
M 678 531 
L 4684 531 
L 4684 0 
L 678 0 
L 678 531 
z
" transform="scale(0.015625)"/>
       <path id="DejaVuSans-74" d="M 1172 4494 
L 1172 3500 
L 2356 3500 
L 2356 3053 
L 1172 3053 
L 1172 1153 
Q 1172 725 1289 603 
Q 1406 481 1766 481 
L 2356 481 
L 2356 0 
L 1766 0 
Q 1100 0 847 248 
Q 594 497 594 1153 
L 594 3053 
L 172 3053 
L 172 3500 
L 594 3500 
L 594 4494 
L 1172 4494 
z
" transform="scale(0.015625)"/>
      </defs>
      <use xlink:href="#DejaVuSans-6c"/>
      <use xlink:href="#DejaVuSans-6f" transform="translate(27.783203 0)"/>
      <use xlink:href="#DejaVuSans-73" transform="translate(88.964844 0)"/>
      <use xlink:href="#DejaVuSans-73" transform="translate(141.064453 0)"/>
      <use xlink:href="#DejaVuSans-20" transform="translate(193.164062 0)"/>
      <use xlink:href="#DejaVuSans-b1" transform="translate(224.951172 0)"/>
      <use xlink:href="#DejaVuSans-20" transform="translate(308.740234 0)"/>
      <use xlink:href="#DejaVuSans-73" transform="translate(340.527344 0)"/>
      <use xlink:href="#DejaVuSans-74" transform="translate(392.626953 0)"/>
      <use xlink:href="#DejaVuSans-64" transform="translate(431.835938 0)"/>
     </g>
    </g>
   </g>
  </g>
 </g>
 <defs>
  <clipPath id="p3739062e6e">
   <rect x="53.0325" y="7.2" width="714.24" height="532.224"/>
  </clipPath>
 </defs>
</svg>
