<svg version="1.1" xmlns="http://www.w3.org/2000/svg" viewBox="0 0 43.79296875 48.734375" width="43.79296875" height="48.734375" class="excalidraw-svg"><!-- svg-source:excalidraw --><metadata></metadata><defs><style class="style-fonts">
      </style></defs><g transform="translate(3.5 3.734375) rotate(0 18 22.5)"><text x="18" y="31.716" font-family="Excalifont, Xiaolai, Segoe UI Emoji" font-size="36px" fill="#1e1e1e" text-anchor="middle" style="white-space: pre;" direction="ltr" dominant-baseline="alphabetic">🍋</text></g><g stroke-linecap="round" transform="translate(0 0) rotate(0 21.896484375 21.896484375)"><path d="M0 0 C10.79 0, 21.57 0, 43.79 0 M0 0 C10.32 0, 20.64 0, 43.79 0 M43.79 0 C43.79 14.25, 43.79 28.5, 43.79 43.79 M43.79 0 C43.79 15.72, 43.79 31.43, 43.79 43.79 M43.79 43.79 C33.11 43.79, 22.42 43.79, 0 43.79 M43.79 43.79 C27.89 43.79, 11.99 43.79, 0 43.79 M0 43.79 C0 29.08, 0 14.36, 0 0 M0 43.79 C0 31.03, 0 18.27, 0 0" stroke="transparent" stroke-width="2" fill="none"></path></g></svg>