<svg xmlns="http://www.w3.org/2000/svg" width="32" height="32" viewBox="0 0 48 48"><!-- Icon from Streamline Emojis by Streamline - https://creativecommons.org/licenses/by/4.0/ --><path fill="#45413c" d="M8.77 45.36a12.6 1.64 0 1 0 25.2 0a12.6 1.64 0 1 0-25.2 0" opacity=".15"/><path fill="#ffe500" d="M37.8 23.51a13.8 13.8 0 0 1-.54-4.16a5.6 5.6 0 0 0-1.67-4.18l-.94-.93a5.56 5.56 0 0 0-4.17-1.67a13.9 13.9 0 0 1-4.17-.57c-5.62-1.51-11.73.75-16.18 5.19s-6.7 10.59-5.19 16.22a13.7 13.7 0 0 1 .53 4.16a5.65 5.65 0 0 0 1.68 4.18l.93.93a5.6 5.6 0 0 0 4.18 1.67a13.8 13.8 0 0 1 4.16.54c5.63 1.51 11.74-.75 16.18-5.19s6.7-10.56 5.2-16.19"/><path fill="#fff48c" d="M10.13 22.22c4.45-4.44 10.56-6.7 16.18-5.19a13.9 13.9 0 0 0 4.17.54a5.56 5.56 0 0 1 4.17 1.67l.94.93a5.6 5.6 0 0 1 1.67 4.18a13.8 13.8 0 0 0 .54 4.16c.09.36.17.72.24 1.09a14.4 14.4 0 0 0-.24-6.09a13.8 13.8 0 0 1-.54-4.16a5.6 5.6 0 0 0-1.67-4.18l-.94-.93a5.56 5.56 0 0 0-4.17-1.67a13.9 13.9 0 0 1-4.17-.57c-5.62-1.51-11.73.75-16.18 5.19C6 21.38 3.73 27 4.69 32.32a19.16 19.16 0 0 1 5.44-10.1"/><path fill="none" stroke="#45413c" stroke-linecap="round" stroke-linejoin="round" d="M37.8 23.51a13.8 13.8 0 0 1-.54-4.16a5.6 5.6 0 0 0-1.67-4.18l-.94-.93a5.56 5.56 0 0 0-4.17-1.67a13.9 13.9 0 0 1-4.17-.57c-5.62-1.51-11.73.75-16.18 5.19s-6.7 10.59-5.19 16.22a13.7 13.7 0 0 1 .53 4.16a5.65 5.65 0 0 0 1.68 4.18l.93.93a5.6 5.6 0 0 0 4.18 1.67a13.8 13.8 0 0 1 4.16.54c5.63 1.51 11.74-.75 16.18-5.19s6.7-10.56 5.2-16.19"/><path fill="#debb7e" d="M33.27 15a14.8 14.8 0 0 1 6.59-4.26c2.48-.67 3 .84 3.14 2a1.11 1.11 0 0 1-1 1.19a16 16 0 0 0-7.22 2.64c-1.35.1-1.51-1.57-1.51-1.57"/><path fill="#f0d5a8" d="M33.89 16.27a14.3 14.3 0 0 1 6-3.61c1.7-.45 2.49.12 2.86.89a1.14 1.14 0 0 0 .28-.82c-.09-1.14-.66-2.65-3.14-2A14.8 14.8 0 0 0 33.27 15a2.16 2.16 0 0 0 .62 1.27"/><path fill="none" stroke="#45413c" stroke-linecap="round" stroke-linejoin="round" d="M33.27 15a14.9 14.9 0 0 1 6.59-4.26c2.48-.66 3 .85 3.14 2a1.11 1.11 0 0 1-1 1.19a16.1 16.1 0 0 0-7.22 2.64c-1.35.09-1.51-1.57-1.51-1.57"/><path fill="#6dd627" d="M33.32 15a9.1 9.1 0 0 0-2.69-9.84a9.38 9.38 0 0 0-10.54-2.11a1.07 1.07 0 0 0-.64 1A10 10 0 0 0 23.21 12c3.95 3 7.99-.46 10.11 3"/><path fill="#9ceb60" d="M20.09 6a9.4 9.4 0 0 1 10.54 2.07a9.5 9.5 0 0 1 3.05 5.5a9.18 9.18 0 0 0-3.05-8.46a9.38 9.38 0 0 0-10.54-2.06a1.07 1.07 0 0 0-.64 1a11.7 11.7 0 0 0 .25 2.27a1.1 1.1 0 0 1 .39-.32"/><path fill="none" stroke="#45413c" stroke-linecap="round" stroke-linejoin="round" d="M33.32 15a9.1 9.1 0 0 0-2.69-9.84a9.38 9.38 0 0 0-10.54-2.11a1.07 1.07 0 0 0-.64 1A10 10 0 0 0 23.21 12c3.95 3 7.99-.46 10.11 3"/><path fill="none" stroke="#45413c" stroke-linecap="round" stroke-linejoin="round" d="M33.32 15s0-5.93-5.56-8.38"/></svg>